<svg width="19" height="20" viewBox="0 0 19 20" fill="none" xmlns="http://www.w3.org/2000/svg">
<path d="M9.50065 0.833008C14.5634 0.833008 18.6673 4.93692 18.6673 9.99967C18.6673 15.0624 14.5634 19.1663 9.50065 19.1663C4.4379 19.1663 0.333984 15.0624 0.333984 9.99967C0.333984 4.93692 4.4379 0.833008 9.50065 0.833008ZM9.50065 5.41634C9.27613 5.41637 9.05943 5.4988 8.89164 5.648C8.72386 5.79719 8.61667 6.00278 8.5904 6.22576L8.58398 6.33301V9.08301H5.83398C5.60034 9.08327 5.37562 9.17273 5.20573 9.33312C5.03584 9.49351 4.9336 9.71272 4.91991 9.94595C4.90622 10.1792 4.9821 10.4089 5.13206 10.588C5.28202 10.7672 5.49473 10.8823 5.72673 10.9099L5.83398 10.9163H8.58398V13.6663C8.58424 13.9 8.67371 14.1247 8.8341 14.2946C8.99448 14.4645 9.21369 14.5667 9.44693 14.5804C9.68017 14.5941 9.90983 14.5182 10.089 14.3683C10.2682 14.2183 10.3833 14.0056 10.4109 13.7736L10.4173 13.6663V10.9163H13.1673C13.401 10.9161 13.6257 10.8266 13.7956 10.6662C13.9655 10.5058 14.0677 10.2866 14.0814 10.0534C14.0951 9.82016 14.0192 9.59049 13.8692 9.41133C13.7193 9.23216 13.5066 9.11702 13.2746 9.08943L13.1673 9.08301H10.4173V6.33301C10.4173 6.08989 10.3207 5.85674 10.1488 5.68483C9.97692 5.51292 9.74377 5.41634 9.50065 5.41634Z" fill="#B6974E"/>
</svg>
