<svg width="13" height="13" viewBox="0 0 9 6" fill="none" xmlns="http://www.w3.org/2000/svg">
<path fill-rule="evenodd" clip-rule="evenodd" d="M4.97121 5.17729C4.84619 5.30227 4.67666 5.37248 4.49988 5.37248C4.3231 5.37248 4.15356 5.30227 4.02855 5.17729L0.257213 1.40596C0.19354 1.34446 0.142751 1.2709 0.107811 1.18956C0.0728721 1.10822 0.0544815 1.02074 0.0537128 0.932225C0.0529432 0.843705 0.0698108 0.755919 0.103332 0.673988C0.136852 0.592057 0.186355 0.517622 0.24895 0.455027C0.311545 0.392432 0.385979 0.34293 0.46791 0.309409C0.549841 0.275889 0.637628 0.259021 0.726147 0.25979C0.814667 0.26056 0.902146 0.278951 0.983483 0.31389C1.06482 0.348829 1.13838 0.399617 1.19988 0.463291L4.49988 3.76329L7.79988 0.463291C7.92561 0.341852 8.09402 0.274656 8.26881 0.276175C8.44361 0.277694 8.61082 0.347806 8.73443 0.471412C8.85803 0.595017 8.92814 0.762226 8.92966 0.937024C8.93118 1.11182 8.86398 1.28022 8.74255 1.40596L4.97121 5.17729Z" fill="#FFFFFF"/>
</svg>
