<svg width="41" height="25" viewBox="0 0 41 25" fill="none" xmlns="http://www.w3.org/2000/svg">
<g clip-path="url(#clip0_821_206)">
<path fill-rule="evenodd" clip-rule="evenodd" d="M5.5 6.70605C5.5 7.29105 6.8 7.74305 7.194 7.89105C8.504 8.38105 10.38 8.70605 12.5 8.70605C14.62 8.70605 16.497 8.38205 17.806 7.89105C18.199 7.74305 19.5 7.29105 19.5 6.70605C19.5 6.12105 18.2 5.66905 17.806 5.52105C16.496 5.03105 14.62 4.70605 12.5 4.70605C10.38 4.70605 8.503 5.03005 7.194 5.52105C6.801 5.66905 5.5 6.12105 5.5 6.70605ZM19.047 9.54305C18.8697 9.62195 18.6899 9.69532 18.508 9.76305C16.922 10.3601 14.798 10.7061 12.5 10.7061C10.203 10.7061 8.078 10.3591 6.492 9.76405C6.30974 9.69604 6.12965 9.62233 5.952 9.54305C6.688 11.7561 8.255 13.4761 10.165 14.2501C10.9 14.5461 11.5 15.2641 11.5 16.1741V20.4251L13.5 19.9251V16.1741C13.5 15.2641 14.1 14.5471 14.835 14.2501C16.745 13.4761 18.312 11.7561 19.047 9.54305ZM3.5 6.70605C3.5 10.9701 5.914 14.6861 9.415 16.1031C9.44534 16.1148 9.47195 16.1344 9.492 16.1601C9.49546 16.1646 9.49816 16.1697 9.5 16.1751V20.4251C9.50005 20.729 9.56935 21.0289 9.70264 21.302C9.83594 21.5751 10.0297 21.8142 10.2693 22.0012C10.5088 22.1882 10.7878 22.3182 11.0851 22.3812C11.3824 22.4443 11.6902 22.4388 11.985 22.3651L13.985 21.8651C14.4175 21.7569 14.8015 21.5074 15.076 21.1561C15.3505 20.8048 15.4997 20.3719 15.5 19.9261V16.1761L15.508 16.1611C15.528 16.1354 15.5547 16.1158 15.585 16.1041C19.087 14.6861 21.5 10.9701 21.5 6.70605C21.5 5.90305 21.063 5.25805 20.535 4.79005C20.005 4.32105 19.297 3.94405 18.508 3.64805C16.922 3.05305 14.798 2.70605 12.5 2.70605C10.203 2.70605 8.078 3.05305 6.492 3.64805C5.702 3.94405 4.994 4.32105 4.465 4.79005C3.937 5.25805 3.5 5.90305 3.5 6.70605Z" fill="#B6974E"/>
</g>
<path fill-rule="evenodd" clip-rule="evenodd" d="M32.9712 15.1773C32.8462 15.3023 32.6767 15.3725 32.4999 15.3725C32.3231 15.3725 32.1536 15.3023 32.0285 15.1773L28.2572 11.406C28.1935 11.3445 28.1428 11.2709 28.1078 11.1896C28.0729 11.1082 28.0545 11.0207 28.0537 10.9322C28.0529 10.8437 28.0698 10.7559 28.1033 10.674C28.1369 10.5921 28.1864 10.5176 28.2489 10.455C28.3115 10.3924 28.386 10.3429 28.4679 10.3094C28.5498 10.2759 28.6376 10.259 28.7261 10.2598C28.8147 10.2606 28.9021 10.279 28.9835 10.3139C29.0648 10.3488 29.1384 10.3996 29.1999 10.4633L32.4999 13.7633L35.7999 10.4633C35.9256 10.3419 36.094 10.2747 36.2688 10.2762C36.4436 10.2777 36.6108 10.3478 36.7344 10.4714C36.858 10.595 36.9281 10.7622 36.9297 10.937C36.9312 11.1118 36.864 11.2802 36.7425 11.406L32.9712 15.1773Z" fill="#272727"/>
<defs>
<clipPath id="clip0_821_206">
<rect width="24" height="24" fill="white" transform="translate(0.5 0.706055)"/>
</clipPath>
</defs>
</svg>
