<svg width="24" height="24" viewBox="0 0 28 28" fill="none" xmlns="http://www.w3.org/2000/svg">
<path fill-rule="evenodd" clip-rule="evenodd" d="M12.01 0.480051C12.615 0.165564 13.3014 0 14 0C14.6986 0 15.385 0.165564 15.99 0.480051L26.01 5.68852C26.615 6.003 27.1174 6.45531 27.4668 7.00001C27.8161 7.5447 28 8.16257 28 8.79153V19.2085C28 19.8374 27.8161 20.4553 27.4668 21C27.1174 21.5447 26.615 21.997 26.01 22.3115L15.99 27.5199C15.385 27.8344 14.6986 28 14 28C13.3014 28 12.615 27.8344 12.01 27.5199L1.98999 22.3115C1.38497 21.997 0.882558 21.5447 0.533242 21C0.183926 20.4553 1.77476e-05 19.8374 0 19.2085V8.79153C1.77476e-05 8.16257 0.183926 7.5447 0.533242 7.00001C0.882558 6.45531 1.38497 6.003 1.98999 5.68852L12.01 0.480051ZM7.66227 9.05095L16.8927 4.25956L20.0782 5.91498L10.8478 10.7064L7.66227 9.05095Z" fill="#B6974E"/>
</svg>
