<svg width="24" height="24" viewBox="0 0 28 28" fill="none" xmlns="http://www.w3.org/2000/svg">
<path fill-rule="evenodd" clip-rule="evenodd" d="M14.398 2.96246C14.277 2.89956 14.1397 2.86645 14 2.86645C13.8603 2.86645 13.723 2.89956 13.602 2.96246L4.77598 7.55033L7.66227 9.05095L16.8927 4.25956L14.398 2.96246ZM20.0782 5.91498L10.8478 10.7064L13.602 12.1382C13.723 12.2011 13.8603 12.2342 14 12.2342C14.1397 12.2342 14.277 12.2011 14.398 12.1382L23.224 7.55033L20.0782 5.91498ZM24.816 10.0327L15.99 14.6206C15.861 14.688 15.7273 14.7496 15.592 14.8012V24.4169L24.418 19.8291C24.539 19.7662 24.6395 19.6757 24.7094 19.5668C24.7792 19.4578 24.816 19.3343 24.816 19.2085V10.0327ZM12.408 24.4169V14.8012C12.2717 14.7477 12.1388 14.6874 12.01 14.6206L3.18399 10.0327V19.2085C3.18399 19.3343 3.22077 19.4578 3.29064 19.5668C3.3605 19.6757 3.46098 19.7662 3.58199 19.8291L12.408 24.4169ZM12.01 0.480051C12.615 0.165564 13.3014 0 14 0C14.6986 0 15.385 0.165564 15.99 0.480051L26.01 5.68852C26.615 6.003 27.1174 6.45531 27.4668 7.00001C27.8161 7.5447 28 8.16257 28 8.79153V19.2085C28 19.8374 27.8161 20.4553 27.4668 21C27.1174 21.5447 26.615 21.997 26.01 22.3115L15.99 27.5199C15.385 27.8344 14.6986 28 14 28C13.3014 28 12.615 27.8344 12.01 27.5199L1.98999 22.3115C1.38497 21.997 0.882558 21.5447 0.533242 21C0.183926 20.4553 1.77476e-05 19.8374 0 19.2085V8.79153C1.77476e-05 8.16257 0.183926 7.5447 0.533242 7.00001C0.882558 6.45531 1.38497 6.003 1.98999 5.68852L12.01 0.480051Z" fill="#D2D2D2"/>
</svg>
