<svg width="25" height="25" viewBox="0 0 25 25" fill="none" xmlns="http://www.w3.org/2000/svg">
<g clip-path="url(#clip0_245_3444)">
<path d="M6.9879 3.42886C8.2509 4.34986 9.20691 5.64386 10.0209 6.83286L10.6589 7.77086C10.857 8.06042 10.9477 8.41014 10.9152 8.75948C10.8827 9.10883 10.7291 9.43582 10.4809 9.68386L9.12491 11.0399L9.2679 11.3439C9.6179 12.0529 10.2219 13.0739 11.1309 13.9839C11.8309 14.6839 12.5959 15.2019 13.2349 15.5639L13.6019 15.7609L13.9289 15.9229L14.0749 15.9899L15.4299 14.6339C15.6789 14.3852 16.0074 14.2318 16.3579 14.2006C16.7084 14.1693 17.0588 14.2621 17.3479 14.4629L18.3619 15.1659C19.5139 15.9759 20.7169 16.8989 21.6519 18.0969C21.8135 18.3048 21.9163 18.5523 21.9496 18.8135C21.9828 19.0747 21.9453 19.3401 21.8409 19.5819C21.0039 21.5349 18.8859 23.1979 16.6829 23.1159L16.3829 23.0999L16.1499 23.0799L15.8919 23.0499L15.6109 23.0119L15.3059 22.9609L14.9799 22.8969L14.6339 22.8199L14.2679 22.7259L13.8829 22.6159L13.4809 22.4859C11.6349 21.8599 9.2919 20.6299 6.8879 18.2259C4.4849 15.8229 3.2549 13.4799 2.6289 11.6339L2.4989 11.2319L2.3889 10.8469L2.2949 10.4809L2.2169 10.1349C2.19438 10.0265 2.17337 9.91781 2.1539 9.80886L2.1039 9.50386L2.0639 9.22286L2.0349 8.96486L2.0149 8.73186L1.9989 8.43186C1.9179 6.23586 3.59891 4.10286 5.54291 3.26986C5.77688 3.16883 6.03311 3.13036 6.28644 3.15823C6.53976 3.18611 6.78149 3.27937 6.9879 3.42886ZM6.0609 5.23686C4.9889 5.79686 3.9509 7.07686 3.99791 8.35786L4.0179 8.68586L4.0399 8.89086L4.0689 9.12086L4.1089 9.37386L4.1599 9.65086L4.2249 9.94886L4.3049 10.2689L4.4009 10.6079L4.5149 10.9659C4.5569 11.0879 4.6009 11.2129 4.64891 11.3409L4.8029 11.7329L4.9789 12.1399C5.6069 13.5219 6.63091 15.1399 8.30391 16.8119C9.9759 18.4839 11.5939 19.5089 12.9759 20.1369L13.3829 20.3129L13.7749 20.4669C13.9029 20.5149 14.0279 20.5589 14.1499 20.6009L14.5079 20.7149L14.8479 20.8109L15.1669 20.8909L15.4649 20.9559L15.7419 21.0069L15.9959 21.0469L16.2259 21.0769L16.4299 21.0969L16.7579 21.1169C18.0219 21.1639 19.3119 20.1319 19.8699 19.0739C19.1579 18.2389 18.2739 17.5539 17.2989 16.8639L16.5509 16.3429L16.3609 16.5419L15.9549 16.9849L15.7399 17.2109C15.1539 17.8079 14.4699 18.3149 13.6499 17.9839L13.4239 17.8889L13.1479 17.7649L12.9939 17.6919L12.6559 17.5229L12.2849 17.3229C11.346 16.8004 10.4825 16.1528 9.7179 15.3979C8.96299 14.6333 8.3154 13.7697 7.7929 12.8309L7.5929 12.4609L7.4229 12.1219L7.2269 11.6919L7.1309 11.4639C6.8199 10.6949 7.2479 10.0459 7.7949 9.48386L8.0189 9.26386L8.5759 8.75086L8.77591 8.56086L8.3029 7.86786C7.5999 6.84786 6.9129 5.92786 6.0599 5.23586L6.0609 5.23686ZM15.1239 7.02386L15.2399 7.03686C15.9678 7.16525 16.6364 7.5208 17.1498 8.05254C17.6632 8.58427 17.9951 9.2649 18.0979 9.99686C18.1346 10.25 18.0728 10.5076 17.9253 10.7167C17.7778 10.9257 17.5558 11.0702 17.305 11.1206C17.0542 11.1709 16.7936 11.1232 16.5769 10.9873C16.3602 10.8514 16.2038 10.6376 16.1399 10.3899L16.1169 10.2749C16.0767 9.98796 15.9542 9.71885 15.7643 9.50004C15.5745 9.28124 15.3253 9.1221 15.0469 9.04186L14.8919 9.00686C14.6408 8.96235 14.4162 8.82359 14.264 8.61896C14.1118 8.41433 14.0436 8.15929 14.0732 7.906C14.1028 7.65271 14.2281 7.42032 14.4234 7.25634C14.6187 7.09236 14.8693 7.0092 15.1239 7.02386ZM15.1309 3.98386C16.7222 3.98386 18.2483 4.616 19.3735 5.74122C20.4988 6.86644 21.1309 8.39256 21.1309 9.98386C21.1306 10.2387 21.033 10.4839 20.8581 10.6692C20.6831 10.8546 20.444 10.9661 20.1895 10.981C19.9351 10.996 19.6845 10.9132 19.4891 10.7496C19.2936 10.586 19.168 10.354 19.1379 10.1009L19.1309 9.98386C19.1313 8.96828 18.7451 7.99062 18.0509 7.24938C17.3566 6.50815 16.4063 6.0589 15.3929 5.99286L15.1309 5.98386C14.8657 5.98386 14.6113 5.8785 14.4238 5.69096C14.2363 5.50343 14.1309 5.24907 14.1309 4.98386C14.1309 4.71864 14.2363 4.46429 14.4238 4.27675C14.6113 4.08921 14.8657 3.98386 15.1309 3.98386Z" fill="#B6974E"/>
</g>
<defs>
<clipPath id="clip0_245_3444">
<rect width="24" height="24" fill="#B6974E" transform="translate(0.130859 0.983398)"/>
</clipPath>
</defs>
</svg>
