<svg width="428" height="428" viewBox="0 0 428 428" fill="none" xmlns="http://www.w3.org/2000/svg">
<path d="M274.721 289.126C274.721 289.126 308.048 287.049 330.984 246.066C353.92 205.082 349.784 142.563 321.259 107.835C292.734 73.1061 248.324 61.2878 205.956 72.4054C185.31 77.8232 171.543 91.8633 159.648 108.792C149.282 123.541 137.626 137.761 121.937 147.092C106.41 156.339 90.4385 163.705 82.628 181.274C63.5375 224.001 77.5007 273.753 122.629 290.519C171.27 308.575 252.494 298.851 274.721 289.126Z" fill="#B6974E"/>
<path opacity="0.7" d="M274.721 289.126C274.721 289.126 308.048 287.049 330.984 246.066C353.92 205.082 349.784 142.563 321.259 107.835C292.734 73.1061 248.324 61.2878 205.956 72.4054C185.31 77.8232 171.543 91.8633 159.648 108.792C149.282 123.541 137.626 137.761 121.937 147.092C106.41 156.339 90.4385 163.705 82.628 181.274C63.5375 224.001 77.5007 273.753 122.629 290.519C171.27 308.575 252.494 298.851 274.721 289.126Z" fill="white"/>
<path d="M112.017 144.514H311.827C313.282 144.514 314.677 145.092 315.706 146.121C316.735 147.149 317.313 148.545 317.313 150V288.949H106.531V150.008C106.53 149.287 106.671 148.573 106.946 147.906C107.222 147.24 107.626 146.634 108.135 146.124C108.645 145.613 109.25 145.208 109.916 144.932C110.582 144.656 111.296 144.514 112.017 144.514Z" fill="#263238"/>
<path d="M317.75 289.375H106.105V150.008C106.105 148.439 106.728 146.934 107.837 145.823C108.946 144.713 110.45 144.088 112.019 144.086H311.828C313.398 144.088 314.903 144.713 316.013 145.823C317.123 146.933 317.748 148.438 317.75 150.008V289.375ZM106.96 288.521H316.896V150.008C316.893 148.665 316.359 147.377 315.409 146.427C314.459 145.477 313.171 144.943 311.828 144.94H112.019C110.676 144.943 109.39 145.478 108.441 146.428C107.493 147.378 106.96 148.665 106.96 150.008V288.521Z" fill="#263238"/>
<path d="M342.668 355.175H81.1776C78.2893 355.175 75.8538 351.03 77.1356 348.441L106.532 291.332H317.322L346.872 348.245C348.162 350.825 345.599 355.175 342.668 355.175Z" fill="#263238"/>
<path d="M342.668 355.602H81.1779C80.3678 355.551 79.5842 355.294 78.9009 354.856C78.2176 354.418 77.6572 353.813 77.2726 353.098C76.7878 352.398 76.4847 351.589 76.3907 350.743C76.2967 349.897 76.4148 349.042 76.7343 348.253L106.25 290.904H317.579L317.698 291.126L347.248 348.048C347.566 348.854 347.678 349.728 347.573 350.589C347.469 351.449 347.152 352.271 346.65 352.978C346.256 353.711 345.685 354.335 344.99 354.792C344.295 355.25 343.497 355.528 342.668 355.602ZM106.814 291.759L77.5119 348.654C77.2589 349.312 77.1725 350.022 77.2605 350.722C77.3484 351.421 77.608 352.087 78.0161 352.662C78.327 353.248 78.7789 353.746 79.331 354.113C79.883 354.48 80.5177 354.704 81.1779 354.764H342.668C343.352 354.691 344.007 354.45 344.575 354.062C345.143 353.675 345.606 353.153 345.924 352.542C346.345 351.958 346.617 351.28 346.715 350.566C346.813 349.852 346.735 349.126 346.488 348.449L317.057 291.759H106.814Z" fill="#263238"/>
<path d="M342.668 352.791H81.1778C80.516 352.792 79.8651 352.623 79.2866 352.302C78.7082 351.98 78.2213 351.516 77.8722 350.954C77.5231 350.392 77.3232 349.75 77.2916 349.089C77.2599 348.428 77.3975 347.77 77.6913 347.177L106.532 288.948H317.322L346.155 347.177C346.448 347.77 346.586 348.428 346.554 349.089C346.523 349.75 346.323 350.392 345.974 350.954C345.624 351.516 345.138 351.98 344.559 352.302C343.981 352.623 343.33 352.792 342.668 352.791Z" fill="white"/>
<path d="M342.667 353.218H81.1773C80.44 353.225 79.7134 353.042 79.0667 352.688C78.42 352.334 77.8749 351.82 77.4833 351.195C77.0917 350.57 76.8666 349.856 76.8296 349.119C76.7927 348.383 76.945 347.649 77.2721 346.988L106.113 288.76C106.146 288.687 106.201 288.625 106.269 288.582C106.338 288.54 106.417 288.518 106.497 288.521H317.322C317.401 288.519 317.479 288.541 317.546 288.583C317.613 288.626 317.666 288.687 317.698 288.76L346.539 346.988C346.864 347.647 347.017 348.377 346.981 349.111C346.946 349.844 346.724 350.557 346.336 351.18C345.949 351.804 345.408 352.319 344.766 352.675C344.124 353.032 343.402 353.219 342.667 353.218ZM106.814 289.375L78.0753 347.364C77.8135 347.892 77.6907 348.478 77.7186 349.067C77.7465 349.655 77.9242 350.227 78.2349 350.727C78.5455 351.228 78.9788 351.641 79.4937 351.927C80.0087 352.214 80.5882 352.364 81.1773 352.364H342.667C343.257 352.364 343.836 352.214 344.351 351.927C344.866 351.641 345.299 351.228 345.61 350.727C345.921 350.227 346.098 349.655 346.126 349.067C346.154 348.478 346.031 347.892 345.769 347.364L317.057 289.375H106.814Z" fill="#263238"/>
<path d="M304.555 155.947H119.299V277.506H304.555V155.947Z" fill="white"/>
<path d="M304.973 277.933H118.871V155.528H304.973V277.933ZM119.726 277.079H304.119V156.383H119.726V277.079Z" fill="#263238"/>
<path d="M300.421 211.348H124.111V273.131H300.421V211.348Z" fill="#B6974E"/>
<path opacity="0.46" d="M146.644 248.502V246.964C146.644 246.737 146.554 246.52 146.394 246.36C146.234 246.2 146.016 246.11 145.79 246.11H144.61C144.431 245.326 144.122 244.578 143.696 243.896L144.551 243.042C144.7 242.883 144.782 242.674 144.782 242.456C144.782 242.239 144.7 242.03 144.551 241.871L143.448 240.769C143.289 240.617 143.078 240.533 142.859 240.533C142.639 240.533 142.428 240.617 142.269 240.769L141.414 241.623C140.73 241.196 139.979 240.887 139.193 240.709V239.504C139.193 239.277 139.103 239.06 138.942 238.9C138.782 238.739 138.565 238.649 138.338 238.649H136.783C136.556 238.649 136.339 238.739 136.178 238.9C136.018 239.06 135.928 239.277 135.928 239.504V240.709C135.145 240.888 134.397 241.197 133.715 241.623L132.86 240.769C132.702 240.62 132.493 240.537 132.275 240.537C132.057 240.537 131.848 240.62 131.69 240.769L130.63 241.837C130.481 241.995 130.398 242.205 130.398 242.422C130.398 242.64 130.481 242.849 130.63 243.008L131.485 243.862C131.059 244.544 130.75 245.292 130.57 246.075H129.399C129.173 246.075 128.955 246.165 128.795 246.326C128.635 246.486 128.545 246.703 128.545 246.93V248.485C128.545 248.712 128.635 248.929 128.795 249.089C128.955 249.25 129.173 249.34 129.399 249.34H130.604C130.782 250.126 131.091 250.878 131.519 251.562L130.664 252.416C130.515 252.575 130.432 252.784 130.432 253.001C130.432 253.219 130.515 253.428 130.664 253.587L131.767 254.689C131.925 254.838 132.134 254.921 132.352 254.921C132.569 254.921 132.779 254.838 132.937 254.689L133.792 253.835C134.473 254.261 135.222 254.57 136.005 254.749V255.954C136.005 256.181 136.095 256.398 136.255 256.558C136.416 256.718 136.633 256.808 136.86 256.808H138.415C138.642 256.808 138.859 256.718 139.019 256.558C139.179 256.398 139.269 256.181 139.269 255.954V254.749C140.056 254.571 140.807 254.262 141.491 253.835L142.346 254.689C142.505 254.841 142.716 254.925 142.935 254.925C143.155 254.925 143.366 254.841 143.525 254.689L144.627 253.587C144.776 253.428 144.859 253.219 144.859 253.001C144.859 252.784 144.776 252.575 144.627 252.416L143.773 251.562C144.2 250.878 144.509 250.126 144.687 249.34H145.892C146.098 249.315 146.287 249.216 146.425 249.062C146.564 248.908 146.641 248.709 146.644 248.502ZM137.945 251.237C137.215 251.311 136.48 251.157 135.841 250.797C135.202 250.436 134.69 249.887 134.375 249.224C134.061 248.561 133.959 247.818 134.084 247.095C134.209 246.372 134.554 245.705 135.073 245.186C135.592 244.668 136.259 244.322 136.982 244.197C137.705 244.072 138.448 244.174 139.111 244.488C139.774 244.803 140.323 245.315 140.684 245.954C141.044 246.593 141.198 247.328 141.124 248.058C141.041 248.873 140.68 249.634 140.101 250.214C139.521 250.793 138.76 251.154 137.945 251.237Z" fill="white"/>
<path opacity="0.46" d="M161.317 259.397V257.842C161.317 257.615 161.227 257.398 161.067 257.238C160.907 257.078 160.69 256.988 160.463 256.988H159.309C159.129 256.2 158.817 255.449 158.386 254.766L159.241 253.911C159.392 253.752 159.477 253.541 159.477 253.322C159.477 253.102 159.392 252.891 159.241 252.732L158.139 251.63C157.98 251.478 157.769 251.394 157.549 251.394C157.329 251.394 157.118 251.478 156.959 251.63L156.105 252.484C155.42 252.058 154.669 251.749 153.883 251.57V250.382C153.883 250.155 153.793 249.938 153.633 249.778C153.472 249.617 153.255 249.527 153.028 249.527H151.465C151.238 249.527 151.021 249.617 150.86 249.778C150.7 249.938 150.61 250.155 150.61 250.382V251.587C149.824 251.766 149.073 252.075 148.388 252.501L147.534 251.647C147.375 251.495 147.164 251.411 146.944 251.411C146.724 251.411 146.513 251.495 146.354 251.647L145.252 252.749C145.101 252.908 145.016 253.119 145.016 253.339C145.016 253.558 145.101 253.769 145.252 253.928L146.107 254.783C145.673 255.464 145.361 256.216 145.184 257.005H143.987C143.761 257.005 143.543 257.095 143.383 257.255C143.223 257.415 143.133 257.632 143.133 257.859V259.414C143.133 259.641 143.223 259.858 143.383 260.019C143.543 260.179 143.761 260.269 143.987 260.269H145.184C145.361 261.055 145.673 261.804 146.107 262.482L145.252 263.337C145.101 263.496 145.016 263.707 145.016 263.926C145.016 264.146 145.101 264.357 145.252 264.516L146.354 265.61C146.513 265.761 146.724 265.846 146.944 265.846C147.164 265.846 147.375 265.761 147.534 265.61L148.388 264.755C149.073 265.181 149.824 265.49 150.61 265.67V266.875C150.61 267.101 150.7 267.319 150.86 267.479C151.021 267.639 151.238 267.729 151.465 267.729H153.028C153.255 267.729 153.472 267.639 153.633 267.479C153.793 267.319 153.883 267.101 153.883 266.875V265.67C154.669 265.49 155.42 265.181 156.105 264.755L156.959 265.61C157.118 265.761 157.329 265.846 157.549 265.846C157.769 265.846 157.98 265.761 158.139 265.61L159.241 264.516C159.392 264.357 159.477 264.146 159.477 263.926C159.477 263.707 159.392 263.496 159.241 263.337L158.386 262.482C158.817 261.802 159.129 261.053 159.309 260.269H160.506C160.728 260.258 160.937 260.161 161.088 259.998C161.24 259.835 161.322 259.62 161.317 259.397ZM152.618 262.166C151.886 262.242 151.149 262.089 150.507 261.728C149.865 261.367 149.351 260.817 149.035 260.152C148.719 259.488 148.616 258.742 148.741 258.016C148.866 257.291 149.212 256.622 149.733 256.102C150.253 255.581 150.922 255.235 151.647 255.11C152.373 254.985 153.119 255.087 153.784 255.404C154.448 255.72 154.999 256.234 155.359 256.876C155.72 257.517 155.873 258.255 155.797 258.987C155.713 259.802 155.351 260.562 154.772 261.141C154.193 261.72 153.433 262.082 152.618 262.166Z" fill="white"/>
<path d="M162.984 217.294H131.024C130.926 217.294 130.833 217.256 130.764 217.187C130.695 217.118 130.656 217.024 130.656 216.927C130.656 216.829 130.695 216.734 130.763 216.664C130.832 216.594 130.925 216.553 131.024 216.551H162.984C163.083 216.551 163.179 216.59 163.249 216.661C163.32 216.731 163.36 216.827 163.36 216.927C163.357 217.025 163.317 217.118 163.247 217.187C163.176 217.256 163.082 217.294 162.984 217.294Z" fill="#263238"/>
<path d="M162.984 221.909H131.024C130.925 221.907 130.832 221.867 130.763 221.796C130.695 221.726 130.656 221.632 130.656 221.533C130.656 221.436 130.695 221.343 130.764 221.274C130.833 221.205 130.926 221.166 131.024 221.166H162.984C163.082 221.166 163.176 221.204 163.247 221.273C163.317 221.342 163.357 221.435 163.36 221.533C163.36 221.633 163.32 221.729 163.249 221.799C163.179 221.87 163.083 221.909 162.984 221.909Z" fill="#263238"/>
<path d="M162.984 226.515H131.024C130.926 226.515 130.833 226.476 130.764 226.407C130.695 226.338 130.656 226.245 130.656 226.147C130.656 226.049 130.695 225.955 130.763 225.885C130.832 225.814 130.925 225.774 131.024 225.771H162.984C163.083 225.771 163.179 225.811 163.249 225.882C163.32 225.952 163.36 226.048 163.36 226.147C163.357 226.246 163.317 226.339 163.247 226.408C163.176 226.477 163.082 226.515 162.984 226.515Z" fill="#263238"/>
<path d="M162.984 231.13H131.024C130.925 231.128 130.832 231.087 130.763 231.017C130.695 230.947 130.656 230.852 130.656 230.754C130.656 230.657 130.695 230.563 130.764 230.494C130.833 230.425 130.926 230.387 131.024 230.387H162.984C163.082 230.387 163.176 230.425 163.247 230.494C163.317 230.562 163.357 230.656 163.36 230.754C163.36 230.854 163.32 230.95 163.249 231.02C163.179 231.091 163.083 231.13 162.984 231.13Z" fill="#263238"/>
<path d="M297.037 161.681H127.495C125.626 161.681 124.111 163.196 124.111 165.065V165.449C124.111 167.318 125.626 168.833 127.495 168.833H297.037C298.906 168.833 300.421 167.318 300.421 165.449V165.065C300.421 163.196 298.906 161.681 297.037 161.681Z" fill="#B6974E"/>
<path d="M297.037 185.267H127.495C125.626 185.267 124.111 186.782 124.111 188.651V189.035C124.111 190.904 125.626 192.419 127.495 192.419H297.037C298.906 192.419 300.421 190.904 300.421 189.035V188.651C300.421 186.782 298.906 185.267 297.037 185.267Z" fill="#B6974E"/>
<path d="M203.13 309.158L203.497 301.373H192.363L191.619 309.158H203.13Z" fill="#263238"/>
<path d="M203.539 309.586H191.148L192.003 300.946H203.967L203.539 309.586ZM192.088 308.731H202.719L203.052 301.801H192.746L192.088 308.731Z" fill="white"/>
<path d="M226.152 309.158L225.776 301.373H214.633L214.641 309.158H226.152Z" fill="#263238"/>
<path d="M226.604 309.586H214.213V300.946H226.176L226.604 309.586ZM215.067 308.731H225.698L225.365 301.801H215.059L215.067 308.731Z" fill="white"/>
<path d="M286.098 317.473H298.01L295.216 309.158H283.705L286.098 317.473Z" fill="#263238"/>
<path d="M298.6 317.892H285.782L283.133 308.723H295.524L298.6 317.892ZM286.423 317.037H297.412L294.908 309.577H284.269L286.423 317.037Z" fill="white"/>
<path d="M191.618 309.158L192.362 301.373H181.218L180.107 309.158H191.618Z" fill="#263238"/>
<path d="M192.012 309.586H179.621L180.852 300.946H192.815L192.012 309.586ZM180.604 308.731H191.234L191.892 301.801H181.638L180.604 308.731Z" fill="white"/>
<path d="M168.599 309.158L170.085 301.373H158.942L157.088 309.158H168.599Z" fill="#263238"/>
<path d="M168.957 309.586H156.549L158.608 300.946H170.572L168.957 309.586ZM157.634 308.731H168.248L169.564 301.801H159.309L157.634 308.731Z" fill="white"/>
<path d="M272.194 309.158L270.322 301.373H259.188L260.683 309.158H272.194Z" fill="#263238"/>
<path d="M272.73 309.586H260.322L258.664 300.946H270.628L272.73 309.586ZM261.031 308.731H271.645L269.987 301.801H259.732L261.031 308.731Z" fill="white"/>
<path d="M283.704 309.158L281.457 301.373H270.322L272.194 309.158H283.704Z" fill="#263238"/>
<path d="M284.27 309.586H271.853L269.785 300.946H281.749L284.27 309.586ZM272.528 308.731H283.133L281.142 301.801H270.888L272.528 308.731Z" fill="white"/>
<path d="M157.087 309.158L158.941 301.373H147.807L145.576 309.158H157.087Z" fill="#263238"/>
<path d="M157.428 309.586H145.012L147.481 300.946H159.488L157.428 309.586ZM146.148 308.731H156.745L158.394 301.801H148.139L146.148 308.731Z" fill="white"/>
<path d="M237.664 309.158L236.912 301.373H225.777L226.153 309.158H237.664Z" fill="#263238"/>
<path d="M238.132 309.586H225.741L225.322 300.946H237.286L238.132 309.586ZM226.561 308.731H237.192L236.525 301.801H226.22L226.561 308.731Z" fill="white"/>
<path d="M295.215 309.158L292.6 301.373H281.457L283.704 309.158H295.215Z" fill="#263238"/>
<path d="M295.804 309.586H283.379L280.893 300.946H292.907L295.804 309.586ZM284.02 308.731H294.617L292.292 301.801H282.038L284.02 308.731Z" fill="white"/>
<path d="M260.682 309.158L259.186 301.373H248.043L249.171 309.158H260.682Z" fill="#263238"/>
<path d="M261.195 309.586H248.804L247.557 300.946H259.52L261.195 309.586ZM249.539 308.731H260.144L258.811 301.801H248.556L249.539 308.731Z" fill="white"/>
<path d="M249.173 309.158L248.045 301.373H236.91L237.662 309.158H249.173Z" fill="#263238"/>
<path d="M249.667 309.586H237.276L236.422 300.946H248.385L249.667 309.586ZM238.046 308.731H248.676L247.676 301.801H237.379L238.046 308.731Z" fill="white"/>
<path d="M214.642 309.158L214.633 301.373H203.498L203.131 309.158H214.642Z" fill="#263238"/>
<path d="M215.068 309.586H202.686L203.087 300.946H215.051L215.068 309.586ZM203.583 308.731H214.213V301.801H203.908L203.583 308.731Z" fill="white"/>
<path d="M134.074 309.158H122.564L119.385 317.473H131.289L134.074 309.158Z" fill="#263238"/>
<path d="M131.597 317.892H118.779L122.283 308.723H134.682L131.597 317.892ZM120.001 317.037H130.982L133.477 309.577H122.855L120.001 317.037Z" fill="white"/>
<path d="M136.671 301.373H125.528L122.562 309.158H134.073L136.671 301.373Z" fill="#263238"/>
<path d="M134.371 309.586H121.938L125.236 300.946H137.259L134.371 309.586ZM123.177 308.731H133.756L136.072 301.801H125.817L123.177 308.731Z" fill="white"/>
<path d="M145.576 309.158L147.807 301.373H136.672L134.074 309.158H145.576Z" fill="#263238"/>
<path d="M145.9 309.586H133.475L136.363 300.946H148.327L145.9 309.586ZM134.662 308.731H145.259L147.241 301.801H136.987L134.662 308.731Z" fill="white"/>
<path d="M115.976 326.386L112.318 335.965H125.111L128.315 326.386H115.976Z" fill="#263238"/>
<path d="M125.417 336.393H111.693L115.727 325.959H128.947L125.417 336.393ZM112.932 335.538H124.802L127.69 326.814H116.274L112.932 335.538Z" fill="white"/>
<path d="M131.29 317.473H119.386L115.977 326.386H128.316L131.29 317.473Z" fill="#263238"/>
<path d="M128.623 326.812H115.352L119.086 317.036H131.904L128.623 326.812ZM116.599 325.958H128.007L130.699 317.899H119.676L116.599 325.958Z" fill="white"/>
<path d="M128.316 326.386L125.111 335.965H137.904L140.647 326.386H128.316Z" fill="#263238"/>
<path d="M138.227 336.393H124.555L128.041 325.959H141.244L138.227 336.393ZM125.7 335.538H137.578L140.082 326.814H128.622L125.7 335.538Z" fill="white"/>
<path d="M180.11 309.158L181.221 301.373H170.087L168.6 309.158H180.11Z" fill="#263238"/>
<path d="M180.483 309.586H168.084L169.725 300.946H181.688L180.483 309.586ZM169.118 308.731H179.74L180.723 301.801H170.417L169.118 308.731Z" fill="white"/>
<path d="M178.919 317.473L180.107 309.158H168.597L167.016 317.473H178.919Z" fill="#263238"/>
<path d="M179.297 317.892H166.479L168.23 308.723H180.587L179.297 317.892ZM167.53 317.037H178.553L179.621 309.577H168.957L167.53 317.037Z" fill="white"/>
<path d="M167.016 317.473L168.597 309.158H157.086L155.104 317.473H167.016Z" fill="#263238"/>
<path d="M167.365 317.891H154.547L156.743 308.73H169.108L167.365 317.891ZM155.649 317.037H166.656L168.083 309.576H157.427L155.649 317.037Z" fill="white"/>
<path d="M190.834 317.473L191.62 309.158H180.11L178.922 317.473H190.834Z" fill="#263238"/>
<path d="M191.217 317.892H178.398L179.706 308.723H192.054L191.217 317.892ZM179.415 317.037H190.439L191.148 309.577H180.484L179.415 317.037Z" fill="white"/>
<path d="M145.577 309.158H134.075L131.289 317.473H143.201L145.577 309.158Z" fill="#263238"/>
<path d="M143.517 317.892H130.699L133.758 308.723H146.149L143.517 317.892ZM131.887 317.037H142.876L145.013 309.577H134.374L131.887 317.037Z" fill="white"/>
<path d="M288.67 326.386H301.001L298.01 317.473H286.098L288.67 326.386Z" fill="#263238"/>
<path d="M301.601 326.812H288.347L285.535 317.036H298.353L301.601 326.812ZM288.988 325.958H300.413L297.747 317.891H286.638L288.988 325.958Z" fill="white"/>
<path d="M155.103 317.473L157.086 309.158H145.575L143.199 317.473H155.103Z" fill="#263238"/>
<path d="M155.445 317.892H142.627L145.259 308.723H157.599L155.445 317.892ZM143.763 317.037H154.77L156.547 309.577H145.9L143.763 317.037Z" fill="white"/>
<path d="M131.288 317.473L128.314 326.386H140.646L143.201 317.473H131.288Z" fill="#263238"/>
<path d="M140.971 326.812H127.691L130.981 317.036H143.8L140.971 326.812ZM128.905 325.958H140.322L142.629 317.899H131.597L128.905 325.958Z" fill="white"/>
<path d="M262.283 317.473L260.685 309.158H249.174L250.379 317.473H262.283Z" fill="#263238"/>
<path d="M262.803 317.892H249.985L248.66 308.723H261L262.803 317.892ZM250.745 317.037H261.769L260.325 309.577H249.669L250.745 317.037Z" fill="white"/>
<path d="M250.378 317.473L249.173 309.158H237.662L238.465 317.473H250.378Z" fill="#263238"/>
<path d="M250.866 317.892H238.048L237.193 308.723H249.541L250.866 317.892ZM238.851 317.037H249.892L248.815 309.577H238.133L238.851 317.037Z" fill="white"/>
<path d="M286.097 317.473L283.704 309.158H272.193L274.193 317.473H286.097Z" fill="#263238"/>
<path d="M286.634 317.892H273.816L271.611 308.723H283.985L286.634 317.892ZM274.491 317.037H285.498L283.344 309.577H272.731L274.491 317.037Z" fill="white"/>
<path d="M214.649 317.473L214.64 309.158H203.129L202.736 317.473H214.649Z" fill="#263238"/>
<path d="M215.076 317.892H202.258L202.685 308.723H215.033L215.076 317.892ZM203.189 317.037H214.221V309.577H203.54L203.189 317.037Z" fill="white"/>
<path d="M238.464 317.473L237.661 309.158H226.15L226.552 317.473H238.464Z" fill="#263238"/>
<path d="M238.935 317.892H226.117L225.664 308.723H238.012L238.935 317.892ZM226.972 317.037H238.004L237.286 309.577H226.604L226.972 317.037Z" fill="white"/>
<path d="M226.551 317.473L226.149 309.158H214.639L214.647 317.473H226.551Z" fill="#263238"/>
<path d="M227.006 317.891H214.188V308.73H226.561L227.006 317.891ZM215.042 317.037H226.074L225.707 309.576H215.068L215.042 317.037Z" fill="white"/>
<path d="M202.736 317.473L203.129 309.158H191.618L190.832 317.473H202.736Z" fill="#263238"/>
<path d="M203.146 317.892H190.328L191.183 308.723H203.531L203.146 317.892ZM191.302 317.037H202.334L202.685 309.577H192.012L191.302 317.037Z" fill="white"/>
<path d="M238.465 317.473L239.328 326.386H251.659L250.377 317.473H238.465Z" fill="#263238"/>
<path d="M252.156 326.812H238.936L237.996 317.036H250.746L252.156 326.812ZM239.714 325.958H251.173L250.002 317.891H238.936L239.714 325.958Z" fill="white"/>
<path d="M250.377 317.473L251.659 326.386H263.998L262.281 317.473H250.377Z" fill="#263238"/>
<path d="M264.512 326.812H251.292L249.891 317.036H262.64L264.512 326.812ZM252.036 325.958H263.478L261.931 317.891H250.865L252.036 325.958Z" fill="white"/>
<path d="M143.2 317.473L140.645 326.386H152.976L155.103 317.473H143.2Z" fill="#263238"/>
<path d="M153.325 326.812H140.08L142.874 317.036H155.65L153.325 326.812ZM141.217 325.958H152.642L154.565 317.899H143.515L141.217 325.958Z" fill="white"/>
<path d="M262.281 317.473L263.999 326.386H276.33L274.194 317.473H262.281Z" fill="#263238"/>
<path d="M276.876 326.812H263.648L261.768 317.036H274.526L276.876 326.812ZM264.348 325.958H275.791L273.817 317.891H262.802L264.348 325.958Z" fill="white"/>
<path d="M214.648 317.473L214.657 326.386H226.988L226.552 317.473H214.648Z" fill="#263238"/>
<path d="M227.44 326.812H214.229V317.036H226.97L227.44 326.812ZM215.083 325.958H226.542L226.149 317.899H215.04L215.083 325.958Z" fill="white"/>
<path d="M274.191 317.473L276.328 326.386H288.667L286.095 317.473H274.191Z" fill="#263238"/>
<path d="M289.201 326.812H275.998L273.648 317.036H286.424L289.201 326.812ZM276.639 325.958H288.065L285.783 317.891H274.734L276.639 325.958Z" fill="white"/>
<path d="M226.553 317.473L226.989 326.386H239.328L238.465 317.473H226.553Z" fill="#263238"/>
<path d="M239.799 326.812H226.588L226.109 317.036H238.851L239.799 326.812ZM227.4 325.958H238.859L238.082 317.899H226.972L227.4 325.958Z" fill="white"/>
<path d="M167.017 317.473L165.316 326.386H177.656L178.921 317.473H167.017Z" fill="#263238"/>
<path d="M178.023 326.812H164.803L166.657 317.036H179.415L178.023 326.812ZM165.828 325.958H177.253L178.407 317.899H167.366L165.828 325.958Z" fill="white"/>
<path d="M155.104 317.473L152.977 326.386H165.316L167.017 317.473H155.104Z" fill="#263238"/>
<path d="M165.667 326.812H152.473L154.771 317.036H167.53L165.667 326.812ZM153.524 325.958H164.966L166.496 317.899H155.446L153.524 325.958Z" fill="white"/>
<path d="M202.736 317.473L202.326 326.386H214.657L214.649 317.473H202.736Z" fill="#263238"/>
<path d="M215.086 326.812H201.875L202.336 317.045H215.078L215.086 326.812ZM202.772 325.958H214.232V317.891H203.123L202.772 325.958Z" fill="white"/>
<path d="M190.832 317.473L189.986 326.386H202.326L202.736 317.473H190.832Z" fill="#263238"/>
<path d="M202.727 326.812H189.516L190.439 317.036H203.188L202.727 326.812ZM190.456 325.958H201.915L202.291 317.899H191.182L190.456 325.958Z" fill="white"/>
<path d="M178.921 317.473L177.656 326.386H189.987L190.833 317.473H178.921Z" fill="#263238"/>
<path d="M190.371 326.812H177.16L178.553 317.036H191.303L190.371 326.812ZM178.143 325.958H189.594L190.363 317.899H179.254L178.143 325.958Z" fill="white"/>
<path d="M274.194 317.473L272.194 309.158H260.684L262.282 317.473H274.194Z" fill="#263238"/>
<path d="M274.732 317.891H261.913L260.145 308.73H272.51L274.732 317.891ZM262.631 317.037H273.646L271.852 309.576H261.196L262.631 317.037Z" fill="white"/>
<path d="M136.673 301.374L139.33 293.409H128.571L125.529 301.374H136.673Z" fill="#263238"/>
<path d="M136.978 301.8H124.912L128.279 292.981H139.926L136.978 301.8ZM126.151 300.946H136.406L138.781 293.836H128.869L126.151 300.946Z" fill="white"/>
<path d="M125.527 301.373H115.247L111.932 309.158H122.562L125.527 301.373Z" fill="#263238"/>
<path d="M122.855 309.586H111.293L114.968 300.946H126.153L122.855 309.586ZM112.6 308.731H122.282L124.931 301.801H115.532L112.6 308.731Z" fill="white"/>
<path d="M128.57 293.409H118.641L115.248 301.374H125.528L128.57 293.409Z" fill="#263238"/>
<path d="M125.826 301.8H114.605L118.357 292.981H129.193L125.826 301.8ZM115.896 300.946H125.236L127.953 293.836H118.929L115.896 300.946Z" fill="white"/>
<path d="M122.564 309.158H111.933L108.387 317.473H119.385L122.564 309.158Z" fill="#263238"/>
<path d="M119.676 317.892H107.713L111.618 308.723H123.146L119.676 317.892ZM109.037 317.037H119.087L121.941 309.577H112.216L109.037 317.037Z" fill="white"/>
<path d="M119.386 317.473H108.388L104.594 326.386H115.976L119.386 317.473Z" fill="#263238"/>
<path d="M116.274 326.812H103.943L108.105 317.036H120L116.274 326.812ZM105.234 325.958H115.728L118.804 317.899H108.669L105.234 325.958Z" fill="white"/>
<path d="M115.975 326.386H104.593L100.508 335.965H112.318L115.975 326.386Z" fill="#263238"/>
<path d="M112.609 336.393H99.8594L104.312 325.959H116.583L112.609 336.393ZM101.158 335.538H112.02L115.352 326.814H104.876L101.158 335.538Z" fill="white"/>
<path d="M306.725 309.158L309.912 317.473H320.449L316.902 309.158H306.725Z" fill="#263238"/>
<path d="M321.101 317.892H309.624L306.104 308.723H317.213L321.101 317.892ZM310.214 317.037H319.802L316.623 309.577H307.343L310.214 317.037Z" fill="white"/>
<path d="M313.341 326.386H324.253L320.451 317.473H309.914L313.341 326.386Z" fill="#263238"/>
<path d="M324.892 326.812H313.04L309.297 317.036H320.731L324.892 326.812ZM313.629 325.958H323.602L320.184 317.899H310.562L313.629 325.958Z" fill="white"/>
<path d="M317.014 335.965H328.329L324.252 326.386H313.34L317.014 335.965Z" fill="#263238"/>
<path d="M328.979 336.393H316.725L312.717 325.959H324.535L328.979 336.393ZM317.306 335.538H327.654L323.937 326.814H313.982L317.306 335.538Z" fill="white"/>
<path d="M225.775 301.374L225.382 293.409H214.623L214.632 301.374H225.775Z" fill="#263238"/>
<path d="M226.22 301.8H214.205V292.981H225.793L226.22 301.8ZM215.06 300.946H225.314L224.964 293.836H215.051L215.06 300.946Z" fill="white"/>
<path d="M306.725 309.158H316.903L313.587 301.373H303.734L306.725 309.158Z" fill="#263238"/>
<path d="M317.554 309.586H306.445L303.129 300.946H313.888L317.554 309.586ZM307.017 308.731H316.255L313.307 301.801H304.359L307.017 308.731Z" fill="white"/>
<path d="M301.001 326.386H313.34L309.914 317.473H298.01L301.001 326.386Z" fill="#263238"/>
<path d="M313.98 326.812H300.692L297.41 317.036H310.228L313.98 326.812ZM301.324 325.958H312.732L309.622 317.891H298.598L301.324 325.958Z" fill="white"/>
<path d="M147.807 301.374L150.088 293.409H139.33L136.672 301.374H147.807Z" fill="#263238"/>
<path d="M148.132 301.8H136.074L139.022 292.981H150.653L148.132 301.8ZM137.262 300.946H147.517L149.559 293.836H139.655L137.262 300.946Z" fill="white"/>
<path d="M292.6 301.373L295.215 309.158H306.725L303.734 301.373H292.6Z" fill="#263238"/>
<path d="M307.341 309.586H294.907L292.002 300.946H304.025L307.341 309.586ZM295.523 308.731H306.102L303.444 301.801H293.19L295.523 308.731Z" fill="white"/>
<path d="M313.588 301.374L310.195 293.409H300.676L303.735 301.374H313.588Z" fill="#263238"/>
<path d="M314.236 301.8H303.444L300.025 292.981H310.476L314.236 301.8ZM304.025 300.946H312.938L309.912 293.836H301.299L304.025 300.946Z" fill="white"/>
<path d="M303.735 301.374L300.676 293.409H289.926L292.601 301.374H303.735Z" fill="#263238"/>
<path d="M304.358 301.8H292.291L289.326 292.981H300.974L304.358 301.8ZM292.907 300.946H303.11L300.384 293.836H290.514L292.907 300.946Z" fill="white"/>
<path d="M263.998 326.386L265.844 335.965H278.636L276.329 326.386H263.998Z" fill="#263238"/>
<path d="M279.175 336.393H265.502L263.494 325.959H276.688L279.175 336.393ZM266.194 335.538H278.09L275.996 326.814H264.511L266.194 335.538Z" fill="white"/>
<path d="M304.224 335.965H317.016L313.342 326.386H301.002L304.224 335.965Z" fill="#263238"/>
<path d="M317.638 336.393H303.914L300.41 325.959H313.63L317.638 336.393ZM304.529 335.538H316.39L313.04 326.814H301.598L304.529 335.538Z" fill="white"/>
<path d="M292.599 301.374L289.925 293.409H279.166L281.456 301.374H292.599Z" fill="#263238"/>
<path d="M293.189 301.8H281.14L278.576 292.981H290.215L293.189 301.8ZM281.781 300.946H292.035L289.651 293.836H279.73L281.781 300.946Z" fill="white"/>
<path d="M288.67 326.386L291.43 335.965H304.223L301.001 326.386H288.67Z" fill="#263238"/>
<path d="M304.812 336.393H291.139L288.131 325.959H301.342L304.812 336.393ZM291.746 335.538H303.624L300.693 326.814H289.199L291.746 335.538Z" fill="white"/>
<path d="M276.328 326.386L278.635 335.965H291.428L288.668 326.386H276.328Z" fill="#263238"/>
<path d="M291.993 336.393H278.32L275.816 325.959H289.011L291.993 336.393ZM278.97 335.538H290.856L288.344 326.814H276.876L278.97 335.538Z" fill="white"/>
<path d="M298.009 317.473H309.913L306.726 309.158H295.215L298.009 317.473Z" fill="#263238"/>
<path d="M310.563 317.892H297.745L294.66 308.723H307.06L310.563 317.892ZM298.343 317.037H309.324L306.453 309.577H295.805L298.343 317.037Z" fill="white"/>
<path d="M192.362 301.374L193.114 293.409H182.355L181.219 301.374H192.362Z" fill="#263238"/>
<path d="M192.748 301.8H180.725L181.989 292.981H193.585L192.748 301.8ZM181.716 300.946H191.97L192.645 293.836H182.733L181.716 300.946Z" fill="white"/>
<path d="M281.457 301.374L279.167 293.409H268.408L270.322 301.374H281.457Z" fill="#263238"/>
<path d="M282.03 301.8H269.989L267.836 292.981H279.449L282.03 301.8ZM270.656 300.946H280.91L278.86 293.836H268.955L270.656 300.946Z" fill="white"/>
<path d="M181.219 301.374L182.355 293.409H171.597L170.084 301.374H181.219Z" fill="#263238"/>
<path d="M181.594 301.8H169.562L171.272 292.981H182.876L181.594 301.8ZM170.597 300.946H180.851L181.868 293.836H171.955L170.597 300.946Z" fill="white"/>
<path d="M214.633 301.374L214.624 293.409H203.874L203.498 301.374H214.633Z" fill="#263238"/>
<path d="M215.057 301.8H203.051L203.461 292.981H215.049L215.057 301.8ZM203.948 300.946H214.203V293.836H204.273L203.948 300.946Z" fill="white"/>
<path d="M170.085 301.374L171.597 293.409H160.847L158.941 301.374H170.085Z" fill="#263238"/>
<path d="M170.417 301.8H158.402L160.505 292.981H172.126L170.417 301.8ZM159.471 300.946H169.725L171.084 293.836H161.18L159.471 300.946Z" fill="white"/>
<path d="M158.941 301.374L160.847 293.409H150.088L147.807 301.374H158.941Z" fill="#263238"/>
<path d="M159.31 301.8H147.244L149.808 292.981H161.43L159.31 301.8ZM148.398 300.946H158.652L160.361 293.836H150.414L148.398 300.946Z" fill="white"/>
<path d="M203.496 301.374L203.872 293.409H193.113L192.361 301.374H203.496Z" fill="#263238"/>
<path d="M203.907 301.8H191.893L192.747 292.981H204.343L203.907 301.8ZM192.798 300.946H203.053L203.386 293.836H193.491L192.798 300.946Z" fill="white"/>
<path d="M270.321 301.374L268.407 293.409H257.648L259.187 301.374H270.321Z" fill="#263238"/>
<path d="M270.862 301.8H258.83L257.121 292.981H268.734L270.862 301.8ZM259.539 300.946H269.794L268.085 293.836H258.172L259.539 300.946Z" fill="white"/>
<path d="M259.187 301.374L257.649 293.409H246.898L248.044 301.374H259.187Z" fill="#263238"/>
<path d="M259.701 301.8H247.678L246.404 292.981H258.009L259.701 301.8ZM248.421 300.946H258.676L257.308 293.836H247.396L248.421 300.946Z" fill="white"/>
<path d="M236.911 301.374L236.142 293.409H225.383L225.776 301.374H236.911Z" fill="#263238"/>
<path d="M237.382 301.8H225.367L224.939 292.981H236.527L237.382 301.8ZM226.179 300.946H236.433L235.741 293.836H225.828L226.179 300.946Z" fill="white"/>
<path d="M264.001 326.386H251.661H239.33H226.99H214.659H202.328H189.989H177.658H165.318H152.978H140.647L137.904 335.965H150.697H163.489H176.29H189.083H201.875H214.668H227.46H240.253H253.045H265.846L264.001 326.386Z" fill="#263238"/>
<path d="M266.356 336.393H137.32L140.303 325.959H264.348L266.356 336.393ZM138.465 335.538H265.322L263.613 326.814H140.969L138.465 335.538Z" fill="white"/>
<path d="M248.044 301.374L246.899 293.409H236.141L236.91 301.374H248.044Z" fill="#263238"/>
<path d="M248.539 301.8H236.524L235.67 292.981H247.266L248.539 301.8ZM237.294 300.946H247.548L246.514 293.836H236.601L237.294 300.946Z" fill="white"/>
<mask id="mask0_241_3131" style="mask-type:luminance" maskUnits="userSpaceOnUse" x="138" y="121" width="152" height="157">
<path d="M289.139 121.422H138.518V277.068H289.139V121.422Z" fill="white"/>
</mask>
<g mask="url(#mask0_241_3131)">
<path d="M228.629 225.754C241.215 225.754 251.419 212.765 251.419 196.742C251.419 180.719 241.215 167.73 228.629 167.73C216.042 167.73 205.838 180.719 205.838 196.742C205.838 212.765 216.042 225.754 228.629 225.754Z" fill="#263238"/>
<path d="M228.629 226.173C215.811 226.173 205.402 212.97 205.402 196.743C205.402 180.515 215.819 167.304 228.629 167.304C241.438 167.304 251.847 180.506 251.847 196.743C251.847 212.979 241.43 226.173 228.629 226.173ZM228.629 168.158C216.289 168.158 206.257 180.976 206.257 196.743C206.257 212.509 216.289 225.319 228.629 225.319C240.968 225.319 250.992 212.5 250.992 196.743C250.992 180.985 240.96 168.158 228.629 168.158Z" fill="#263238"/>
<path d="M177.253 270.626C175.159 270.626 172.784 268.772 171.519 267.627C169.742 266.012 167.904 263.747 167.904 262.739C167.904 261.295 184.995 209.757 186.969 203.904C186.991 203.835 187.03 203.774 187.083 203.724C187.135 203.675 187.199 203.64 187.268 203.622C187.336 203.604 187.408 203.604 187.476 203.62C187.545 203.637 187.608 203.669 187.661 203.716L194.13 209.621C194.181 209.666 194.219 209.724 194.243 209.788C194.267 209.852 194.275 209.92 194.267 209.988L187.892 265.978C187.884 266.043 187.862 266.105 187.826 266.16C187.791 266.214 187.743 266.26 187.687 266.294C187.422 266.456 181.184 270.25 177.586 270.609L177.253 270.626ZM187.576 204.827C182.192 221.063 168.904 261.226 168.776 262.79C168.776 263.277 170.075 265.183 172.109 267.02C174.142 268.857 176.168 269.917 177.518 269.789C180.603 269.481 186.063 266.328 187.08 265.704L193.412 210.159L187.576 204.827Z" fill="#263238"/>
<path d="M225.153 196.468L187.348 204.03L193.398 278.512H267.128L276.955 201.005L231.955 196.092L225.153 196.468Z" fill="#B6974E"/>
<path d="M267.127 278.94H193.397C193.29 278.94 193.187 278.9 193.109 278.827C193.032 278.754 192.985 278.654 192.978 278.547L186.919 204.065C186.911 203.961 186.941 203.857 187.004 203.774C187.067 203.69 187.159 203.633 187.261 203.612L225.109 196.05L231.945 195.665L277.005 200.587C277.118 200.599 277.222 200.654 277.296 200.741C277.331 200.787 277.356 200.839 277.371 200.895C277.386 200.951 277.389 201.009 277.381 201.066L267.554 278.581C267.538 278.682 267.485 278.774 267.407 278.84C267.329 278.906 267.229 278.942 267.127 278.94ZM193.798 278.086H266.751L276.475 201.39L231.945 196.545L225.237 196.921L187.834 204.407L193.798 278.086Z" fill="#263238"/>
<mask id="mask1_241_3131" style="mask-type:luminance" maskUnits="userSpaceOnUse" x="187" y="196" width="90" height="83">
<mask id="mask2_241_3131" style="mask-type:luminance" maskUnits="userSpaceOnUse" x="187" y="196" width="90" height="83">
<path d="M225.151 196.468L187.346 204.03L193.396 278.512H267.126L276.953 201.005L231.953 196.092L225.151 196.468Z" fill="white"/>
</mask>
<g mask="url(#mask2_241_3131)">
<path d="M267.127 278.94H193.397C193.29 278.94 193.187 278.9 193.109 278.827C193.032 278.754 192.985 278.654 192.978 278.547L186.919 204.065C186.911 203.961 186.941 203.857 187.004 203.774C187.067 203.69 187.159 203.633 187.261 203.612L225.109 196.05L231.945 195.665L277.005 200.587C277.118 200.599 277.222 200.654 277.296 200.741C277.331 200.787 277.356 200.839 277.371 200.895C277.386 200.951 277.389 201.009 277.381 201.066L267.554 278.581C267.538 278.682 267.485 278.774 267.407 278.84C267.329 278.906 267.229 278.942 267.127 278.94ZM193.798 278.086H266.751L276.475 201.39L231.945 196.545L225.237 196.921L187.834 204.407L193.798 278.086Z" fill="white"/>
</g>
</mask>
<g mask="url(#mask1_241_3131)">
<path opacity="0.3" d="M193.396 278.513H267.126L268.98 263.926L268.843 263.217L251.052 267.096L258.811 234.436L216.118 253.193L205.77 263.541H212.238L193.199 276.069L193.396 278.513Z" fill="black"/>
</g>
<path d="M221.134 192.273C221.134 192.273 214.998 195.631 213.443 198.648C211.888 201.664 205.453 224.07 205.453 224.07L216.041 226.343L205.838 231.257L221.279 275.488L245.856 273.976L261.853 227.471L252.017 223.318L260.716 219.533C260.716 219.533 252.402 203.655 247.898 196.853C243.395 190.051 221.134 192.273 221.134 192.273Z" fill="#B6974E"/>
<path d="M221.314 275.916C221.226 275.916 221.14 275.889 221.068 275.838C220.997 275.788 220.942 275.717 220.912 275.634L205.454 231.394C205.42 231.295 205.425 231.188 205.466 231.092C205.507 230.996 205.581 230.918 205.676 230.873L214.759 226.498L205.36 224.49C205.302 224.477 205.247 224.453 205.199 224.42C205.15 224.386 205.109 224.343 205.078 224.293C205.048 224.242 205.028 224.185 205.021 224.127C205.014 224.068 205.018 224.008 205.035 223.951C205.3 223.037 211.546 201.485 213.059 198.46C214.571 195.435 220.63 192.043 220.887 191.897C220.936 191.87 220.992 191.856 221.049 191.855C221.963 191.761 243.523 189.676 248.146 196.614C252.65 203.357 260.965 219.183 261.024 219.337C261.05 219.39 261.063 219.449 261.063 219.508C261.063 219.567 261.05 219.625 261.024 219.679C261.007 219.734 260.977 219.786 260.937 219.829C260.897 219.871 260.848 219.905 260.794 219.926L253.009 223.345L261.922 227.113C262.022 227.157 262.102 227.236 262.146 227.336C262.19 227.435 262.196 227.548 262.161 227.651L246.224 274.156C246.195 274.234 246.145 274.303 246.078 274.353C246.011 274.403 245.931 274.433 245.848 274.438L221.271 275.95L221.314 275.916ZM206.394 231.48L221.613 275.061L245.54 273.592L261.255 227.728L251.795 223.729C251.717 223.697 251.651 223.643 251.603 223.573C251.556 223.503 251.531 223.42 251.53 223.336C251.531 223.253 251.556 223.172 251.601 223.102C251.647 223.032 251.711 222.977 251.787 222.943L260.067 219.345C258.734 216.782 251.522 203.212 247.446 197.127C243.241 190.821 222.741 192.598 221.228 192.735C220.528 193.128 215.178 196.153 213.828 198.888C212.478 201.622 206.915 220.644 205.992 223.797L216.135 225.968C216.222 225.987 216.301 226.033 216.361 226.098C216.42 226.164 216.458 226.247 216.469 226.335C216.477 226.424 216.458 226.512 216.416 226.59C216.373 226.668 216.308 226.731 216.229 226.771L206.394 231.48Z" fill="#263238"/>
<path d="M220.178 279.274L219.861 201.391L240.276 199.494L246.267 278.514L220.178 279.274Z" fill="white"/>
<path d="M220.177 279.701C220.066 279.7 219.959 279.658 219.878 279.582C219.798 279.499 219.752 279.389 219.75 279.274L219.434 201.391C219.431 201.284 219.47 201.181 219.541 201.101C219.613 201.022 219.712 200.973 219.818 200.964L240.233 199.11C240.29 199.101 240.347 199.106 240.402 199.122C240.456 199.138 240.507 199.166 240.549 199.204C240.638 199.279 240.693 199.387 240.703 199.503L246.685 278.522C246.688 278.58 246.68 278.637 246.661 278.691C246.642 278.746 246.612 278.796 246.574 278.838C246.535 278.882 246.488 278.916 246.435 278.94C246.382 278.963 246.324 278.975 246.266 278.975L220.186 279.736L220.177 279.701ZM220.288 201.776L220.604 278.83L245.805 278.103L239.883 199.964L220.288 201.776Z" fill="#263238"/>
<path d="M216.836 180.968C216.836 180.968 219.476 195.717 219.861 199.494C220.246 203.271 230.004 230.13 232.927 225.746C236.114 220.969 239.9 205.929 240.618 202.519C241.336 199.11 241.378 184.377 241.378 184.377C241.378 184.377 231.577 191.18 216.836 180.968Z" fill="white"/>
<path d="M232.157 226.659C232.047 226.657 231.938 226.643 231.832 226.616C227.816 225.617 219.8 203.185 219.433 199.536C219.065 195.887 216.442 181.197 216.408 181.044C216.392 180.96 216.402 180.874 216.436 180.796C216.469 180.718 216.526 180.652 216.597 180.606C216.669 180.56 216.752 180.536 216.837 180.538C216.922 180.54 217.005 180.567 217.074 180.616C231.413 190.546 241.07 184.086 241.164 184.035C241.231 183.995 241.308 183.974 241.386 183.974C241.464 183.974 241.541 183.995 241.608 184.035C241.677 184.072 241.735 184.128 241.776 184.196C241.816 184.263 241.838 184.34 241.839 184.419C241.839 185.017 241.839 199.245 241.07 202.655C240.215 206.364 236.515 221.182 233.285 226.027C233.165 226.219 232.999 226.377 232.802 226.488C232.605 226.598 232.383 226.657 232.157 226.659ZM217.416 181.89C218.014 185.308 219.98 196.229 220.262 199.45C220.629 203.134 228.73 224.967 232.02 225.788C232.174 225.788 232.353 225.787 232.558 225.514C235.678 220.823 239.455 205.86 240.249 202.441C240.89 199.562 240.984 188.153 240.993 185.128C238.532 186.385 229.644 189.914 217.416 181.89Z" fill="#263238"/>
<mask id="mask3_241_3131" style="mask-type:luminance" maskUnits="userSpaceOnUse" x="216" y="180" width="26" height="47">
<mask id="mask4_241_3131" style="mask-type:luminance" maskUnits="userSpaceOnUse" x="216" y="180" width="26" height="47">
<path d="M216.842 180.968C216.842 180.968 219.482 195.717 219.867 199.494C220.251 203.271 230.01 230.13 232.933 225.746C236.12 220.969 239.906 205.929 240.624 202.519C241.342 199.11 241.384 184.377 241.384 184.377C241.384 184.377 231.583 191.18 216.842 180.968Z" fill="white"/>
</mask>
<g mask="url(#mask4_241_3131)">
<path d="M232.163 226.659C232.053 226.657 231.944 226.643 231.838 226.616C227.822 225.617 219.806 203.185 219.439 199.536C219.071 195.887 216.448 181.197 216.413 181.044C216.398 180.96 216.408 180.874 216.441 180.796C216.475 180.718 216.531 180.652 216.603 180.606C216.674 180.56 216.758 180.536 216.843 180.538C216.928 180.54 217.011 180.567 217.08 180.616C231.419 190.546 241.076 184.086 241.17 184.035C241.237 183.995 241.314 183.974 241.392 183.974C241.47 183.974 241.547 183.995 241.614 184.035C241.683 184.072 241.741 184.128 241.781 184.196C241.822 184.263 241.844 184.34 241.845 184.419C241.845 185.017 241.845 199.245 241.076 202.655C240.221 206.364 236.521 221.182 233.291 226.027C233.171 226.219 233.005 226.377 232.808 226.488C232.611 226.598 232.389 226.657 232.163 226.659ZM217.422 181.89C218.02 185.308 219.985 196.229 220.267 199.45C220.635 203.134 228.736 224.967 232.026 225.788C232.18 225.788 232.359 225.787 232.564 225.514C235.683 220.823 239.461 205.86 240.255 202.441C240.896 199.562 240.99 188.153 240.999 185.128C238.538 186.385 229.65 189.914 217.422 181.89Z" fill="white"/>
</g>
</mask>
<g mask="url(#mask3_241_3131)">
<path d="M241.263 194.179C241.416 189.342 241.416 184.377 241.416 184.377C241.416 184.377 231.581 191.213 216.84 180.959C216.84 180.959 217.925 187.035 218.805 192.384C220.822 194.948 224.659 199.024 229.393 199.785C234.255 200.571 238.186 197.99 241.263 194.179Z" fill="#B6974E"/>
<path opacity="0.5" d="M241.263 194.179C241.416 189.342 241.416 184.377 241.416 184.377C241.416 184.377 231.581 191.213 216.84 180.959C216.84 180.959 217.925 187.035 218.805 192.384C220.822 194.948 224.659 199.024 229.393 199.785C234.255 200.571 238.186 197.99 241.263 194.179Z" fill="white"/>
</g>
<path d="M249.35 166.226C249.35 166.226 253.503 160.928 253.503 166.978C253.503 173.028 249.35 173.814 249.35 173.814V166.226Z" fill="white"/>
<path d="M249.349 174.216C249.249 174.218 249.151 174.181 249.076 174.114C249.026 174.076 248.986 174.027 248.96 173.97C248.933 173.914 248.92 173.852 248.922 173.789V166.226C248.92 166.131 248.95 166.038 249.008 165.962C249.375 165.5 251.255 163.227 252.691 163.723C253.545 164.013 253.93 165.081 253.93 166.978C253.93 173.311 249.469 174.199 249.426 174.208L249.349 174.216ZM249.777 166.372V173.208C250.811 172.798 253.075 171.388 253.075 166.978C253.075 164.979 252.614 164.603 252.417 164.534C251.785 164.321 250.512 165.474 249.777 166.372Z" fill="#263238"/>
<path d="M208.139 153.75C208.139 153.75 213.052 176.028 213.052 179.079C213.052 185.497 225.153 192.692 230.442 194.204C235.732 195.717 248.593 183.993 249.353 180.967C250.114 177.942 250.481 151.477 248.969 146.188C247.456 140.898 238.783 137.488 233.091 137.488C227.4 137.488 210.788 140.513 208.139 153.75Z" fill="white"/>
<path d="M231.484 194.769C231.094 194.773 230.706 194.721 230.33 194.615C225.203 193.145 212.624 185.882 212.624 179.079C212.624 176.114 207.771 154.067 207.719 153.845C207.711 153.785 207.711 153.725 207.719 153.665C210.428 140.112 227.374 137.062 233.091 137.062C238.808 137.062 247.789 140.48 249.378 146.068C250.968 151.657 250.506 178.105 249.763 181.105C249.207 183.335 242.978 189.496 237.372 192.735C234.996 194.077 233.022 194.769 231.484 194.769ZM208.574 153.751C208.958 155.503 213.479 176.097 213.479 179.088C213.479 185.206 225.349 192.308 230.57 193.803C231.98 194.205 234.184 193.572 236.953 191.974C242.508 188.77 248.481 182.711 248.917 180.865C249.626 178.02 250.053 151.589 248.541 146.308C247.08 141.18 238.406 137.916 233.074 137.916C227.562 137.916 211.231 140.83 208.574 153.742V153.751Z" fill="#263238"/>
<mask id="mask5_241_3131" style="mask-type:luminance" maskUnits="userSpaceOnUse" x="208" y="137" width="43" height="58">
<mask id="mask6_241_3131" style="mask-type:luminance" maskUnits="userSpaceOnUse" x="208" y="137" width="43" height="58">
<path d="M208.137 153.749C208.137 153.749 213.05 176.027 213.05 179.078C213.05 185.496 225.151 192.691 230.44 194.203C235.73 195.716 248.591 183.992 249.351 180.966C250.112 177.941 250.479 151.476 248.967 146.187C247.454 140.897 238.781 137.487 233.089 137.487C227.398 137.487 210.786 140.512 208.137 153.749Z" fill="white"/>
</mask>
<g mask="url(#mask6_241_3131)">
<path d="M231.482 194.768C231.092 194.772 230.704 194.72 230.329 194.614C225.201 193.144 212.622 185.881 212.622 179.078C212.622 176.113 207.769 154.066 207.717 153.844C207.709 153.784 207.709 153.724 207.717 153.664C210.426 140.111 227.372 137.061 233.089 137.061C238.806 137.061 247.787 140.479 249.376 146.067C250.966 151.656 250.504 178.104 249.761 181.104C249.205 183.334 242.976 189.495 237.37 192.734C234.994 194.076 233.02 194.768 231.482 194.768ZM208.572 153.75C208.956 155.502 213.477 176.096 213.477 179.087C213.477 185.206 225.347 192.307 230.568 193.802C231.978 194.204 234.183 193.571 236.951 191.973C242.506 188.769 248.479 182.71 248.915 180.864C249.624 178.019 250.051 151.588 248.539 146.307C247.078 141.179 238.404 137.915 233.072 137.915C227.56 137.915 211.23 140.829 208.572 153.741V153.75Z" fill="white"/>
</g>
</mask>
<g mask="url(#mask5_241_3131)">
<path d="M233.089 137.487C227.424 137.487 210.786 140.512 208.137 153.724C208.137 153.724 211.076 167.054 212.409 174.506C212.409 171.088 213.008 164.542 216.682 161.688C221.758 157.74 230.227 157.167 235.021 154.911C239.815 152.655 240.943 146.733 240.943 146.733C240.943 146.733 241.225 157.167 243.506 159.714C245.788 162.26 248.027 163.987 248.309 168.456C248.591 172.925 249.437 177.48 247.181 181.154C244.925 184.829 235.61 191.87 231.38 193.28C230.731 193.503 230.098 193.691 229.5 193.87C229.834 193.99 230.158 194.101 230.457 194.186C235.756 195.699 248.608 183.974 249.368 180.949C250.129 177.924 250.496 151.459 248.984 146.169C247.471 140.88 238.781 137.487 233.089 137.487Z" fill="#B6974E"/>
<path d="M225.235 191.965C223.176 189.889 217.544 184.138 214.981 181.173C214.24 180.328 213.576 179.418 212.998 178.455C212.998 178.703 212.998 178.925 212.998 179.079C213.049 183.822 219.646 188.983 225.235 191.965Z" fill="#B6974E"/>
<g opacity="0.5">
<path d="M233.089 137.487C227.424 137.487 210.786 140.512 208.137 153.724C208.137 153.724 211.076 167.054 212.409 174.506C212.409 171.088 213.008 164.542 216.682 161.688C221.758 157.74 230.227 157.167 235.021 154.911C239.815 152.655 240.943 146.733 240.943 146.733C240.943 146.733 241.225 157.167 243.506 159.714C245.788 162.26 248.027 163.987 248.309 168.456C248.591 172.925 249.437 177.48 247.181 181.154C244.925 184.829 235.61 191.87 231.38 193.28C230.731 193.503 230.098 193.691 229.5 193.87C229.834 193.99 230.158 194.101 230.457 194.186C235.756 195.699 248.608 183.974 249.368 180.949C250.129 177.924 250.496 151.459 248.984 146.169C247.471 140.88 238.781 137.487 233.089 137.487Z" fill="white"/>
<path d="M225.235 191.965C223.176 189.889 217.544 184.138 214.981 181.173C214.24 180.328 213.576 179.418 212.998 178.455C212.998 178.703 212.998 178.925 212.998 179.079C213.049 183.822 219.646 188.983 225.235 191.965Z" fill="white"/>
</g>
</g>
<path d="M227.716 167.432C227.716 168.491 227.246 169.346 226.656 169.346C226.066 169.346 225.588 168.491 225.588 167.432C225.588 166.372 226.066 165.518 226.656 165.518C227.246 165.518 227.716 166.372 227.716 167.432Z" fill="#263238"/>
<path d="M240.164 167.432C240.164 168.491 239.685 169.346 239.096 169.346C238.506 169.346 238.027 168.491 238.027 167.432C238.027 166.372 238.506 165.518 239.096 165.518C239.685 165.518 240.164 166.372 240.164 167.432Z" fill="#263238"/>
<path d="M234.382 175.524C234.296 175.525 234.212 175.5 234.141 175.451C234.071 175.402 234.017 175.332 233.989 175.251C233.946 175.146 233.947 175.029 233.99 174.925C234.033 174.821 234.115 174.739 234.219 174.695C235.928 174.029 238.338 172.713 238.492 171.892C238.56 171.576 238.432 171.465 237.347 171.226C236.558 171.118 235.816 170.793 235.202 170.286C233.929 169.012 234.971 165.44 235.1 165.039C235.132 164.925 235.209 164.83 235.312 164.773C235.363 164.745 235.42 164.727 235.478 164.72C235.536 164.714 235.595 164.719 235.651 164.735C235.707 164.752 235.759 164.779 235.805 164.815C235.85 164.852 235.888 164.897 235.917 164.948C235.945 164.999 235.963 165.056 235.969 165.114C235.975 165.172 235.97 165.23 235.954 165.287C235.544 166.62 235.151 168.995 235.843 169.687C236.343 170.064 236.932 170.305 237.552 170.388C238.407 170.585 239.594 170.85 239.347 172.097C239.039 173.67 235.296 175.233 234.553 175.515C234.497 175.531 234.439 175.534 234.382 175.524Z" fill="#263238"/>
<path d="M230.595 181.214C229.718 181.266 228.842 181.09 228.052 180.706C227.262 180.321 226.584 179.74 226.083 179.018C226.051 178.972 226.029 178.92 226.018 178.865C226.007 178.81 226.007 178.753 226.018 178.698C226.029 178.643 226.051 178.591 226.083 178.544C226.115 178.498 226.156 178.459 226.203 178.428C226.297 178.367 226.412 178.345 226.522 178.367C226.633 178.389 226.73 178.454 226.792 178.548C228.843 181.633 233.629 179.821 233.629 179.804C233.734 179.762 233.852 179.764 233.956 179.809C234.06 179.854 234.142 179.938 234.184 180.044C234.226 180.149 234.225 180.267 234.18 180.371C234.135 180.475 234.05 180.557 233.945 180.599C232.87 180.987 231.738 181.195 230.595 181.214Z" fill="#263238"/>
<path d="M222.749 164.457C222.698 164.466 222.646 164.466 222.595 164.457C222.542 164.438 222.494 164.407 222.453 164.369C222.412 164.33 222.378 164.283 222.355 164.231C222.332 164.18 222.32 164.124 222.318 164.067C222.317 164.011 222.327 163.955 222.348 163.902C222.79 162.856 223.607 162.012 224.638 161.535C225.27 161.29 225.944 161.176 226.622 161.199C227.299 161.223 227.964 161.383 228.577 161.672C228.683 161.714 228.767 161.796 228.812 161.9C228.857 162.004 228.858 162.122 228.817 162.227C228.775 162.332 228.693 162.417 228.588 162.462C228.484 162.507 228.366 162.508 228.261 162.466C227.753 162.221 227.2 162.081 226.636 162.054C226.072 162.028 225.509 162.116 224.98 162.312C224.16 162.704 223.508 163.378 223.142 164.21C223.11 164.286 223.054 164.35 222.984 164.395C222.914 164.439 222.832 164.461 222.749 164.457Z" fill="#263238"/>
<path d="M241.01 163.056C240.945 163.056 240.881 163.041 240.822 163.013C240.763 162.985 240.711 162.944 240.669 162.894C239.814 161.826 239.036 161.305 238.267 161.339C237.896 161.402 237.542 161.543 237.228 161.752C236.914 161.961 236.648 162.234 236.447 162.552C236.386 162.647 236.29 162.714 236.18 162.74C236.07 162.765 235.954 162.747 235.858 162.689C235.809 162.66 235.767 162.622 235.733 162.576C235.7 162.53 235.676 162.479 235.663 162.423C235.65 162.368 235.649 162.311 235.659 162.256C235.669 162.2 235.69 162.147 235.721 162.099C235.992 161.663 236.357 161.293 236.788 161.013C237.219 160.734 237.707 160.554 238.216 160.484C239.31 160.424 240.344 161.065 241.344 162.373C241.413 162.462 241.443 162.576 241.429 162.688C241.414 162.8 241.356 162.902 241.267 162.971C241.193 163.027 241.103 163.057 241.01 163.056Z" fill="#263238"/>
<path d="M250.866 140.513C247.123 136.241 243.175 136.497 240.817 137.42C237.621 132.036 227.058 127.764 213.471 132.951C197.594 139.001 199.482 155.263 200.243 158.288C201.003 161.313 206.293 169.252 209.694 169.628C209.694 169.628 212.719 166.979 212.719 164.338C212.719 161.697 219.906 156.399 227.084 154.126C231.605 152.699 236.569 150.076 239.441 146.726C239.388 148.925 239.953 151.096 241.073 152.99C243.346 156.408 246.747 158.288 246.747 159.424C246.747 160.561 248.636 164.714 250.165 164.714C251.695 164.714 251.678 158.664 252.054 156.015C252.43 153.366 256.156 146.564 250.866 140.513Z" fill="#263238"/>
<path d="M209.651 170.055H209.599C205.882 169.636 200.55 161.432 199.781 158.39C199.738 158.202 195.559 139.308 213.283 132.557C226.366 127.567 237.21 131.045 240.995 136.899C242.927 136.249 247.148 135.617 251.182 140.231C255.6 145.282 253.925 150.828 252.891 154.152C252.682 154.781 252.513 155.424 252.386 156.074C252.292 156.715 252.224 157.578 252.147 158.484C251.822 162.509 251.498 165.141 250.071 165.141C248.191 165.141 246.242 160.629 246.242 159.424C246.242 159.065 245.388 158.262 244.533 157.493C243.069 156.233 241.766 154.798 240.654 153.22C239.626 151.579 239.038 149.702 238.944 147.768C236.227 150.529 231.894 153.015 227.1 154.528C219.854 156.818 213.035 161.988 213.035 164.329C213.035 167.132 209.993 169.824 209.864 169.944C209.805 170 209.731 170.039 209.651 170.055ZM225.323 131.045C221.301 131.094 217.323 131.876 213.582 133.352C196.551 139.847 200.567 157.997 200.61 158.185C201.362 161.193 206.386 168.559 209.514 169.175C210.095 168.628 212.249 166.44 212.249 164.338C212.249 161.373 219.649 156.015 226.912 153.716C231.997 152.118 236.543 149.392 239.073 146.444C239.131 146.378 239.208 146.331 239.293 146.31C239.379 146.288 239.469 146.293 239.551 146.324C239.632 146.355 239.702 146.411 239.751 146.482C239.799 146.554 239.825 146.639 239.825 146.726C239.771 148.844 240.313 150.934 241.388 152.759C242.465 154.276 243.725 155.653 245.14 156.861C246.336 157.963 247.131 158.689 247.131 159.424C247.131 160.527 248.977 164.287 250.105 164.287C250.857 164.287 251.19 160.176 251.335 158.416C251.404 157.493 251.481 156.621 251.575 155.955C251.705 155.26 251.882 154.575 252.104 153.904C253.113 150.554 254.668 145.487 250.541 140.795C246.746 136.463 242.918 137.069 240.97 137.821C240.875 137.857 240.77 137.858 240.674 137.823C240.579 137.789 240.499 137.722 240.448 137.633C238.44 134.267 232.98 131.045 225.323 131.045Z" fill="#263238"/>
<path d="M206.47 160.185H206.394C206.283 160.164 206.184 160.101 206.12 160.008C206.056 159.915 206.032 159.801 206.052 159.69C206.299 158.365 207.231 157.237 208.906 156.22C209.003 156.165 209.118 156.15 209.227 156.178C209.335 156.207 209.428 156.277 209.485 156.373C209.542 156.47 209.559 156.585 209.532 156.694C209.505 156.802 209.437 156.896 209.342 156.955C207.897 157.81 207.094 158.775 206.889 159.852C206.869 159.948 206.816 160.033 206.74 160.094C206.663 160.155 206.568 160.187 206.47 160.185Z" fill="white"/>
<path d="M211.879 155.699C211.793 155.698 211.708 155.672 211.637 155.623C211.565 155.575 211.51 155.506 211.478 155.425C211.439 155.32 211.443 155.203 211.489 155.101C211.536 154.999 211.62 154.919 211.725 154.879C214.691 153.827 217.723 152.97 220.801 152.315C223.091 151.785 225.261 151.272 227.064 150.7C233.832 148.546 237.627 142.65 237.669 142.599C237.698 142.55 237.737 142.508 237.782 142.474C237.828 142.441 237.88 142.417 237.935 142.404C237.99 142.392 238.047 142.39 238.103 142.4C238.159 142.41 238.212 142.431 238.259 142.462C238.354 142.523 238.421 142.62 238.445 142.73C238.469 142.841 238.448 142.956 238.387 143.052C235.691 146.995 231.795 149.965 227.278 151.52C225.449 152.101 223.262 152.614 220.955 153.152C217.916 153.784 214.922 154.612 211.99 155.631C211.957 155.658 211.919 155.681 211.879 155.699Z" fill="white"/>
<path d="M205.197 148.076C205.111 148.077 205.027 148.05 204.957 147.999C204.864 147.936 204.799 147.839 204.776 147.729C204.754 147.618 204.776 147.504 204.838 147.409C205.692 146.085 207.999 146.179 211.443 146.316C214.236 146.472 217.036 146.455 219.826 146.264C227.594 145.64 234.533 140.966 234.601 140.915C234.696 140.853 234.81 140.831 234.921 140.853C235.031 140.876 235.128 140.941 235.191 141.034C235.223 141.08 235.246 141.132 235.258 141.187C235.27 141.241 235.27 141.298 235.26 141.353C235.25 141.408 235.228 141.46 235.197 141.507C235.166 141.553 235.127 141.593 235.08 141.624C234.789 141.821 227.885 146.478 219.895 147.119C217.07 147.314 214.236 147.331 211.409 147.17C208.367 147.05 206.171 146.956 205.547 147.888C205.509 147.946 205.457 147.993 205.396 148.026C205.334 148.059 205.266 148.076 205.197 148.076Z" fill="white"/>
<path d="M251.104 152.537C251.048 152.535 250.993 152.521 250.942 152.498C250.891 152.474 250.845 152.441 250.807 152.4C250.769 152.358 250.739 152.31 250.72 152.257C250.701 152.205 250.692 152.149 250.694 152.093C250.733 151.036 250.655 149.979 250.463 148.939C250.451 148.884 250.45 148.827 250.46 148.772C250.47 148.716 250.491 148.663 250.523 148.616C250.554 148.569 250.594 148.529 250.641 148.498C250.688 148.466 250.741 148.445 250.797 148.435C250.852 148.424 250.91 148.424 250.965 148.435C251.021 148.446 251.073 148.469 251.12 148.5C251.167 148.532 251.207 148.573 251.238 148.62C251.269 148.668 251.291 148.721 251.301 148.777C251.503 149.881 251.586 151.004 251.549 152.127C251.546 152.183 251.533 152.238 251.51 152.289C251.486 152.34 251.453 152.386 251.412 152.424C251.37 152.462 251.322 152.492 251.269 152.511C251.216 152.53 251.16 152.539 251.104 152.537Z" fill="white"/>
<path d="M250.402 147.571C250.313 147.572 250.226 147.544 250.154 147.492C250.081 147.439 250.028 147.365 250.001 147.28C249.449 145.76 248.564 144.382 247.41 143.248C246.257 142.114 244.865 141.252 243.335 140.726C243.226 140.694 243.134 140.621 243.078 140.522C243.022 140.423 243.007 140.306 243.036 140.196C243.052 140.142 243.078 140.092 243.113 140.048C243.148 140.005 243.192 139.968 243.241 139.941C243.29 139.914 243.344 139.897 243.4 139.891C243.456 139.885 243.512 139.89 243.566 139.906C245.233 140.457 246.753 141.383 248.007 142.613C249.262 143.842 250.218 145.342 250.804 146.998C250.823 147.052 250.831 147.108 250.828 147.165C250.824 147.221 250.81 147.276 250.786 147.327C250.761 147.378 250.726 147.424 250.684 147.461C250.642 147.498 250.592 147.527 250.539 147.545C250.495 147.562 250.449 147.571 250.402 147.571Z" fill="white"/>
<path d="M222.919 186.359C221.807 186.402 220.701 186.174 219.698 185.693C216.442 183.983 210.657 176.293 210.417 175.934C210.349 175.843 210.32 175.729 210.336 175.617C210.352 175.505 210.412 175.403 210.503 175.335C210.594 175.267 210.708 175.238 210.82 175.254C210.932 175.27 211.033 175.33 211.101 175.421C211.161 175.498 217.006 183.308 220.099 184.941C223.193 186.573 228.995 184.3 229.055 184.274C229.108 184.254 229.164 184.244 229.22 184.246C229.277 184.247 229.333 184.26 229.384 184.283C229.436 184.306 229.482 184.339 229.521 184.38C229.56 184.421 229.59 184.469 229.611 184.522C229.631 184.575 229.64 184.631 229.639 184.687C229.637 184.744 229.625 184.799 229.602 184.851C229.579 184.902 229.546 184.949 229.505 184.988C229.464 185.027 229.415 185.057 229.363 185.077C227.296 185.841 225.121 186.274 222.919 186.359Z" fill="#263238"/>
<path d="M231.33 184.745C231.33 185.522 230.373 186.163 229.202 186.163C228.031 186.163 227.074 185.522 227.074 184.745C227.074 183.967 228.023 183.326 229.202 183.326C230.381 183.326 231.33 183.959 231.33 184.745Z" fill="#263238"/>
<path d="M207.427 164.86C207.427 164.86 200.411 146.692 207.427 135.856C207.427 135.856 196.583 147.008 206.154 167.415L207.427 164.86Z" fill="white"/>
<path d="M212.289 170.747C212.93 175.02 211.768 178.712 209.683 179.028C207.598 179.344 205.41 176.139 204.761 171.875C204.111 167.611 205.29 163.911 207.367 163.595C209.444 163.279 211.682 166.483 212.289 170.747Z" fill="white"/>
<path d="M209.426 179.455C207.196 179.455 205.017 176.267 204.367 171.926C204.034 169.988 204.136 168 204.667 166.107C205.205 164.397 206.153 163.329 207.333 163.158C209.674 162.808 212.058 166.098 212.742 170.661C213.071 172.6 212.969 174.586 212.443 176.481C211.896 178.19 210.956 179.258 209.777 179.429C209.661 179.446 209.544 179.454 209.426 179.455ZM207.717 163.987C207.641 163.979 207.563 163.979 207.487 163.987C206.632 164.107 205.948 164.97 205.513 166.346C205.024 168.116 204.933 169.972 205.248 171.781C205.837 175.729 207.863 178.848 209.683 178.566C210.537 178.446 211.229 177.583 211.665 176.207C212.15 174.437 212.24 172.582 211.93 170.772C211.323 167.012 209.435 164.004 207.683 164.004L207.717 163.987Z" fill="#263238"/>
<path d="M208.522 178.899C210.37 178.621 211.349 174.942 210.708 170.681C210.068 166.42 208.05 163.191 206.202 163.469C204.354 163.746 203.375 167.426 204.015 171.687C204.656 175.948 206.674 179.177 208.522 178.899Z" fill="white"/>
<path d="M208.282 179.352C207.308 179.352 206.308 178.609 205.445 177.233C204.466 175.552 203.832 173.693 203.582 171.764C202.89 167.192 204.018 163.372 206.146 163.056C208.274 162.74 210.419 166.064 211.145 170.627C211.469 172.545 211.411 174.508 210.974 176.404C210.513 178.113 209.667 179.173 208.59 179.335L208.282 179.352ZM206.402 163.885H206.257C204.873 164.09 203.779 167.303 204.428 171.576C204.656 173.38 205.237 175.123 206.137 176.703C206.889 177.891 207.71 178.515 208.419 178.412C209.128 178.31 209.744 177.464 210.128 176.105C210.538 174.324 210.59 172.48 210.282 170.678C209.658 166.636 207.778 163.885 206.402 163.885Z" fill="#263238"/>
<path d="M276.952 201.006L286.805 278.897L267.125 278.513L276.952 201.006Z" fill="#B6974E"/>
<path d="M286.805 279.325L267.151 278.941C267.091 278.94 267.032 278.927 266.977 278.902C266.923 278.877 266.874 278.84 266.835 278.795C266.797 278.75 266.769 278.696 266.752 278.639C266.736 278.581 266.732 278.521 266.741 278.462L276.559 200.955C276.572 200.851 276.622 200.755 276.701 200.686C276.78 200.616 276.882 200.578 276.987 200.579C277.09 200.58 277.19 200.619 277.267 200.688C277.344 200.758 277.393 200.852 277.405 200.955L287.258 278.838C287.268 278.899 287.264 278.962 287.246 279.021C287.228 279.08 287.197 279.134 287.156 279.18C287.112 279.23 287.058 279.268 286.997 279.294C286.937 279.319 286.871 279.33 286.805 279.325ZM267.612 278.095L286.318 278.462L276.918 204.407L267.612 278.095Z" fill="#263238"/>
<mask id="mask7_241_3131" style="mask-type:luminance" maskUnits="userSpaceOnUse" x="267" y="201" width="20" height="78">
<mask id="mask8_241_3131" style="mask-type:luminance" maskUnits="userSpaceOnUse" x="267" y="201" width="20" height="78">
<path d="M276.952 201.004L286.805 278.895L267.125 278.511L276.952 201.004Z" fill="white"/>
</mask>
<g mask="url(#mask8_241_3131)">
<path d="M286.805 279.323L267.151 278.939C267.091 278.938 267.032 278.925 266.977 278.9C266.923 278.875 266.874 278.839 266.835 278.793C266.797 278.748 266.769 278.694 266.752 278.637C266.736 278.579 266.732 278.519 266.741 278.46L276.559 200.953C276.572 200.849 276.622 200.753 276.701 200.684C276.78 200.614 276.882 200.576 276.987 200.577C277.09 200.578 277.19 200.617 277.267 200.686C277.344 200.756 277.393 200.85 277.405 200.953L287.258 278.836C287.268 278.897 287.264 278.96 287.246 279.019C287.228 279.078 287.197 279.132 287.156 279.178C287.112 279.228 287.058 279.266 286.997 279.292C286.937 279.317 286.871 279.328 286.805 279.323ZM267.612 278.093L286.318 278.46L276.918 204.406L267.612 278.093Z" fill="white"/>
</g>
</mask>
<g mask="url(#mask7_241_3131)">
<path opacity="0.3" d="M282.319 243.485L272.073 249.638L272.244 238.127L267.125 278.513L286.805 278.897L285.19 266.173L276.602 266.455L284.224 258.533L284.165 258.012L273.688 261.601L283.165 250.125L282.319 243.485Z" fill="black"/>
</g>
<path d="M206.548 178.035C206.548 178.035 209.453 177.018 210.086 178.138C210.718 179.257 211.453 184.12 211.436 184.812C211.419 185.504 211.179 186.136 209.863 185.666C208.547 185.196 206.445 180.915 206.445 180.915L206.548 178.035Z" fill="white"/>
<path d="M210.641 186.291C210.325 186.282 210.013 186.218 209.718 186.103C208.317 185.581 206.437 181.881 206.078 181.138C206.065 181.073 206.065 181.006 206.078 180.941L206.163 178.07C206.165 177.983 206.193 177.9 206.243 177.83C206.294 177.759 206.364 177.706 206.445 177.677C206.992 177.489 209.727 176.609 210.496 177.976C211.171 179.164 211.932 184.154 211.906 184.872C211.918 185.103 211.877 185.333 211.785 185.545C211.693 185.757 211.553 185.945 211.376 186.094C211.158 186.235 210.901 186.304 210.641 186.291ZM206.89 180.856C207.685 182.454 209.189 184.992 210.009 185.299C210.599 185.513 210.804 185.419 210.863 185.385C210.923 185.351 211.017 185.137 211.026 184.846C211.026 184.257 210.317 179.446 209.727 178.395C209.445 177.882 208.018 178.078 206.984 178.395L206.89 180.856Z" fill="#263238"/>
<path d="M193.832 193.452C193.832 193.452 196.524 176.148 196.584 174.268C196.644 172.388 199.148 170.85 200.344 170.388C201.54 169.927 208.377 170.149 209.103 170.174C209.829 170.2 212.752 170.046 212.726 171.029C212.701 172.012 212.444 172.43 210 172.824C207.556 173.217 201.711 173.524 201.711 173.524L200.182 175.832L207.437 177.216C207.437 177.216 209.146 177.968 208.838 179.139C208.531 180.309 207.685 185.445 207.667 186.146C207.65 186.847 206.898 187.3 205.164 188.428C204.128 189.097 202.964 189.543 201.746 189.735C201.746 189.735 201.882 193.264 200.891 193.7L198.421 194.802L198.08 214.995L186.928 213.731L193.832 193.452Z" fill="white"/>
<path d="M198.069 215.345H198.018L186.908 214.08C186.845 214.073 186.783 214.052 186.728 214.018C186.674 213.984 186.627 213.938 186.592 213.884C186.565 213.826 186.551 213.764 186.551 213.7C186.551 213.636 186.565 213.574 186.592 213.516L193.497 193.315C193.634 192.46 196.18 176.01 196.232 174.224C196.291 172.071 199.034 170.388 200.274 169.952C201.513 169.516 206.905 169.644 209.186 169.712H209.571C210.99 169.712 212.417 169.755 212.989 170.336C213.07 170.418 213.134 170.516 213.177 170.623C213.219 170.73 213.24 170.845 213.237 170.96C213.237 172.31 212.536 172.78 210.152 173.173C207.947 173.532 203.128 173.806 202.034 173.866L200.983 175.455L207.606 176.72H207.7C207.776 176.72 209.699 177.634 209.34 179.13C209.041 180.386 208.195 185.436 208.178 186.06C208.178 186.914 207.383 187.453 205.708 188.538L205.486 188.683C204.497 189.315 203.398 189.758 202.248 189.991C202.248 191.153 202.162 193.529 201.137 193.99L198.923 194.981L198.582 214.901C198.58 214.96 198.566 215.019 198.541 215.074C198.516 215.128 198.481 215.177 198.436 215.217C198.39 215.266 198.332 215.303 198.268 215.325C198.204 215.348 198.136 215.354 198.069 215.345ZM187.507 213.328L197.65 214.491L197.983 194.768C197.986 194.687 198.012 194.609 198.057 194.543C198.103 194.476 198.166 194.424 198.24 194.392L200.701 193.289C201.128 193.093 201.359 191.255 201.299 189.726C201.294 189.618 201.33 189.512 201.4 189.43C201.469 189.347 201.568 189.294 201.675 189.281C202.835 189.102 203.945 188.68 204.931 188.042L205.162 187.897C206.623 186.94 207.221 186.538 207.238 186.111C207.238 185.325 208.17 180.129 208.426 179.01C208.597 178.292 207.571 177.711 207.306 177.6L200.103 176.224C200.033 176.21 199.968 176.18 199.913 176.135C199.858 176.09 199.814 176.033 199.786 175.968C199.755 175.905 199.738 175.837 199.738 175.767C199.738 175.697 199.755 175.628 199.786 175.566L201.308 173.259C201.347 173.204 201.398 173.159 201.457 173.126C201.516 173.094 201.582 173.075 201.649 173.071C201.701 173.071 207.494 172.772 209.887 172.379C212.28 171.986 212.237 171.618 212.254 170.986C212.177 170.858 211.716 170.618 209.503 170.618H209.041C205.623 170.516 201.29 170.507 200.444 170.806C199.291 171.216 197.026 172.703 196.966 174.301C196.907 176.181 194.326 192.828 194.215 193.537C194.215 193.537 194.215 193.588 194.215 193.605L187.507 213.328Z" fill="#263238"/>
<path d="M208.257 180.506H208.181L199.379 178.925C199.265 178.904 199.165 178.84 199.099 178.745C199.033 178.651 199.008 178.534 199.028 178.421C199.049 178.307 199.113 178.207 199.208 178.141C199.302 178.075 199.419 178.05 199.533 178.07L208.334 179.66C208.448 179.67 208.552 179.725 208.625 179.812C208.698 179.899 208.733 180.012 208.723 180.126C208.713 180.239 208.658 180.343 208.571 180.416C208.483 180.489 208.371 180.525 208.257 180.514V180.506Z" fill="#263238"/>
<path d="M207.257 184.453H207.163L199.916 182.693C199.803 182.667 199.705 182.597 199.643 182.498C199.581 182.4 199.561 182.281 199.587 182.167C199.613 182.054 199.683 181.956 199.782 181.894C199.881 181.832 200 181.812 200.113 181.838L207.368 183.599C207.423 183.611 207.474 183.634 207.52 183.666C207.565 183.699 207.604 183.74 207.633 183.788C207.661 183.837 207.68 183.89 207.688 183.945C207.695 184.001 207.691 184.057 207.676 184.111C207.657 184.209 207.605 184.296 207.529 184.359C207.452 184.421 207.356 184.455 207.257 184.453Z" fill="#263238"/>
<path d="M201.727 190.12C201.655 190.122 201.584 190.104 201.521 190.07C201.458 190.036 201.405 189.985 201.368 189.924C201.06 189.445 200.368 188.275 200.599 187.634C200.635 187.532 200.695 187.44 200.774 187.365C200.853 187.291 200.948 187.237 201.052 187.206C201.727 187.001 203.299 186.6 203.299 186.6L203.513 187.454C203.513 187.454 202.111 187.813 201.402 188.018C201.544 188.544 201.775 189.041 202.086 189.488C202.147 189.583 202.168 189.699 202.144 189.809C202.12 189.92 202.053 190.016 201.958 190.078C201.886 190.111 201.806 190.125 201.727 190.12Z" fill="#263238"/>
<path d="M187.927 203.271L199.976 207.817C199.976 207.817 191.585 260.491 189.568 264.627C187.551 268.763 182.834 273.565 176.75 274.146C170.665 274.727 166.265 268.164 166.085 261.268C165.906 254.372 187.927 203.271 187.927 203.271Z" fill="#B6974E"/>
<path d="M175.972 274.608C173.87 274.587 171.851 273.786 170.306 272.361C167.538 269.899 165.743 265.661 165.632 261.251C165.444 254.372 186.637 205.159 187.534 203.066C187.579 202.965 187.661 202.886 187.763 202.845C187.865 202.804 187.979 202.803 188.081 202.843L200.13 207.381C200.222 207.414 200.3 207.478 200.35 207.562C200.4 207.647 200.419 207.746 200.403 207.843C200.062 209.996 191.978 260.636 189.944 264.772C187.773 269.216 182.851 273.958 176.758 274.54C176.502 274.599 176.237 274.608 175.972 274.608ZM188.158 203.818C186.158 208.483 166.316 254.877 166.487 261.26C166.589 265.405 168.273 269.412 170.879 271.72C171.65 272.444 172.566 272.996 173.566 273.341C174.566 273.685 175.628 273.814 176.681 273.719C182.441 273.172 187.107 268.66 189.183 264.439C191.072 260.585 198.771 212.654 199.506 208.09L188.158 203.818Z" fill="#263238"/>
<mask id="mask9_241_3131" style="mask-type:luminance" maskUnits="userSpaceOnUse" x="166" y="203" width="34" height="72">
<mask id="mask10_241_3131" style="mask-type:luminance" maskUnits="userSpaceOnUse" x="166" y="203" width="34" height="72">
<path d="M187.927 203.271L199.976 207.817C199.976 207.817 191.585 260.491 189.568 264.627C187.551 268.763 182.834 273.565 176.75 274.146C170.665 274.727 166.265 268.164 166.085 261.268C165.906 254.372 187.927 203.271 187.927 203.271Z" fill="white"/>
</mask>
<g mask="url(#mask10_241_3131)">
<path d="M175.974 274.608C173.872 274.587 171.853 273.786 170.308 272.361C167.54 269.899 165.745 265.661 165.634 261.251C165.446 254.372 186.639 205.159 187.536 203.066C187.581 202.965 187.663 202.886 187.765 202.845C187.867 202.804 187.981 202.803 188.083 202.843L200.132 207.381C200.224 207.414 200.302 207.478 200.352 207.562C200.402 207.647 200.421 207.746 200.405 207.843C200.064 209.996 191.98 260.636 189.946 264.772C187.775 269.216 182.853 273.958 176.76 274.54C176.504 274.599 176.239 274.608 175.974 274.608ZM188.16 203.818C186.16 208.483 166.318 254.877 166.489 261.26C166.591 265.405 168.275 269.412 170.881 271.72C171.652 272.444 172.568 272.996 173.568 273.341C174.568 273.685 175.63 273.814 176.683 273.719C182.443 273.172 187.109 268.66 189.185 264.439C191.074 260.585 198.773 212.654 199.508 208.09L188.16 203.818Z" fill="white"/>
</g>
</mask>
<g mask="url(#mask9_241_3131)">
<path opacity="0.3" d="M177.955 247.374C175.016 248.873 171.947 250.103 168.786 251.049C167.701 254.202 166.872 256.877 166.428 258.791L172.127 258.073C176.188 257.605 180.195 256.746 184.091 255.509C184.091 255.509 174.691 261.329 166.308 262.303H166.111C166.667 268.78 170.905 274.728 176.716 274.172C182.826 273.591 187.535 268.78 189.534 264.653C190.526 262.619 193.055 248.895 195.371 235.453C190.002 240.03 184.165 244.026 177.955 247.374Z" fill="black"/>
</g>
</g>
<path d="M306.915 112.799V110.458C306.915 110.127 306.784 109.81 306.55 109.576C306.316 109.342 305.998 109.21 305.668 109.21H303.864C303.59 108.03 303.123 106.904 302.48 105.877L303.753 104.596C303.987 104.36 304.118 104.042 304.118 103.711C304.118 103.38 303.987 103.062 303.753 102.827L302.104 101.177C301.869 100.944 301.551 100.813 301.22 100.813C300.888 100.813 300.57 100.944 300.335 101.177L299.053 102.451C298.027 101.808 296.9 101.34 295.721 101.066V99.2633C295.721 98.9324 295.589 98.615 295.355 98.3811C295.121 98.1471 294.804 98.0156 294.473 98.0156H292.132C291.801 98.0156 291.483 98.1471 291.249 98.3811C291.015 98.615 290.884 98.9324 290.884 99.2633V101.066C289.704 101.34 288.578 101.808 287.551 102.451L286.269 101.177C286.034 100.944 285.716 100.813 285.385 100.813C285.054 100.813 284.736 100.944 284.501 101.177L282.851 102.827C282.618 103.062 282.487 103.38 282.487 103.711C282.487 104.042 282.618 104.36 282.851 104.596L284.125 105.877C283.481 106.903 283.016 108.03 282.749 109.21H280.937C280.606 109.21 280.289 109.342 280.055 109.576C279.821 109.81 279.689 110.127 279.689 110.458V112.799C279.689 113.13 279.821 113.447 280.055 113.681C280.289 113.915 280.606 114.047 280.937 114.047H282.749C283.016 115.227 283.481 116.354 284.125 117.38L282.851 118.661C282.618 118.897 282.487 119.215 282.487 119.546C282.487 119.877 282.618 120.195 282.851 120.43L284.501 122.08C284.736 122.313 285.054 122.444 285.385 122.444C285.716 122.444 286.034 122.313 286.269 122.08L287.551 120.806C288.583 121.458 289.719 121.929 290.91 122.199V124.011C290.91 124.342 291.041 124.659 291.275 124.893C291.509 125.127 291.826 125.258 292.157 125.258H294.499C294.83 125.258 295.147 125.127 295.381 124.893C295.615 124.659 295.746 124.342 295.746 124.011V122.199C296.927 121.932 298.054 121.467 299.079 120.823L300.361 122.097C300.596 122.33 300.914 122.461 301.245 122.461C301.577 122.461 301.894 122.33 302.13 122.097L303.728 120.49C303.961 120.255 304.092 119.937 304.092 119.606C304.092 119.274 303.961 118.956 303.728 118.721L302.454 117.439C303.097 116.413 303.565 115.286 303.839 114.107H305.642C305.813 114.11 305.983 114.079 306.142 114.014C306.3 113.949 306.443 113.852 306.563 113.73C306.682 113.607 306.775 113.461 306.836 113.301C306.896 113.141 306.923 112.97 306.915 112.799ZM293.849 116.952C292.749 117.07 291.639 116.843 290.673 116.304C289.707 115.764 288.932 114.938 288.455 113.94C287.978 112.942 287.822 111.82 288.009 110.729C288.196 109.639 288.716 108.633 289.499 107.85C290.281 107.068 291.287 106.547 292.378 106.361C293.468 106.174 294.59 106.329 295.588 106.807C296.587 107.284 297.412 108.059 297.952 109.025C298.491 109.991 298.718 111.101 298.6 112.201C298.475 113.421 297.934 114.56 297.07 115.43C296.205 116.299 295.068 116.846 293.849 116.978V116.952Z" fill="#263238"/>
<path d="M88.1511 214.883V213.123C88.1511 212.872 88.0512 212.63 87.8733 212.452C87.6954 212.275 87.4542 212.175 87.2026 212.175H85.8182C85.6125 211.285 85.2601 210.436 84.7757 209.662L85.7413 208.705C85.8292 208.618 85.8989 208.514 85.9464 208.4C85.994 208.285 86.0185 208.162 86.0185 208.039C86.0185 207.915 85.994 207.792 85.9464 207.678C85.8989 207.563 85.8292 207.459 85.7413 207.372L84.4937 206.124C84.4063 206.037 84.3025 205.967 84.1881 205.919C84.0737 205.872 83.951 205.847 83.8271 205.847C83.7032 205.847 83.5806 205.872 83.4662 205.919C83.3518 205.967 83.2479 206.037 83.1606 206.124L82.195 207.082C81.4222 206.597 80.5726 206.247 79.6826 206.047V204.68C79.6826 204.431 79.5836 204.192 79.4073 204.016C79.231 203.839 78.9919 203.74 78.7426 203.74H77.0079C76.7578 203.74 76.5178 203.839 76.3402 204.015C76.1625 204.191 76.0616 204.43 76.0593 204.68V206.047C75.1693 206.247 74.3197 206.597 73.547 207.082L72.5814 206.124C72.494 206.037 72.3901 205.967 72.2757 205.919C72.1614 205.872 72.0387 205.847 71.9148 205.847C71.7909 205.847 71.6683 205.872 71.5539 205.919C71.4395 205.967 71.3356 206.037 71.2483 206.124L70.0092 207.372C69.9203 207.459 69.8497 207.562 69.8014 207.677C69.7532 207.791 69.7284 207.914 69.7284 208.039C69.7284 208.163 69.7532 208.286 69.8014 208.4C69.8497 208.515 69.9203 208.618 70.0092 208.705L70.9663 209.662C70.4818 210.436 70.1295 211.285 69.9237 212.175H68.565C68.3149 212.177 68.0758 212.278 67.8998 212.455C67.7238 212.633 67.625 212.873 67.625 213.123V214.883C67.625 215.133 67.724 215.372 67.9003 215.548C68.0766 215.724 68.3157 215.823 68.565 215.823H69.9237C70.1264 216.714 70.4789 217.564 70.9663 218.336L70.0092 219.301C69.9203 219.388 69.8497 219.492 69.8014 219.606C69.7532 219.721 69.7284 219.844 69.7284 219.968C69.7284 220.092 69.7532 220.215 69.8014 220.33C69.8497 220.444 69.9203 220.548 70.0092 220.635L71.291 221.882C71.3783 221.97 71.4822 222.04 71.5966 222.087C71.711 222.135 71.8336 222.159 71.9575 222.159C72.0814 222.159 72.2041 222.135 72.3185 222.087C72.4329 222.04 72.5367 221.97 72.6241 221.882L73.5897 220.917C74.362 221.404 75.2116 221.756 76.1021 221.959V223.318C76.1021 223.569 76.202 223.811 76.3799 223.989C76.5578 224.166 76.799 224.266 77.0506 224.266H78.811C79.0611 224.264 79.3001 224.163 79.4762 223.986C79.6522 223.808 79.751 223.568 79.751 223.318V221.959C80.6414 221.756 81.491 221.404 82.2633 220.917L83.229 221.882C83.3163 221.97 83.4202 222.04 83.5346 222.087C83.6489 222.135 83.7716 222.159 83.8955 222.159C84.0194 222.159 84.142 222.135 84.2564 222.087C84.3708 222.04 84.4747 221.97 84.562 221.882L85.8097 220.635C85.8975 220.547 85.9672 220.443 86.0148 220.329C86.0624 220.215 86.0869 220.092 86.0869 219.968C86.0869 219.844 86.0624 219.721 86.0148 219.607C85.9672 219.493 85.8975 219.389 85.8097 219.301L84.844 218.336C85.3314 217.564 85.6839 216.714 85.8866 215.823H87.2453C87.4879 215.813 87.7171 215.709 87.8856 215.534C88.0542 215.359 88.1492 215.126 88.1511 214.883ZM78.2982 218.011C77.4695 218.097 76.6346 217.924 75.9083 217.516C75.1819 217.107 74.5997 216.485 74.2417 215.732C73.8837 214.98 73.7674 214.135 73.9089 213.314C74.0504 212.493 74.4426 211.736 75.0317 211.147C75.6208 210.558 76.3779 210.166 77.1989 210.024C78.02 209.883 78.8647 209.999 79.617 210.357C80.3693 210.715 80.9922 211.297 81.4003 212.023C81.8084 212.75 81.9815 213.585 81.8959 214.413C81.8007 215.335 81.391 216.196 80.7358 216.851C80.0807 217.506 79.2199 217.916 78.2982 218.011Z" fill="#263238"/>
<path d="M350.145 191.417V189.657C350.145 189.405 350.045 189.164 349.867 188.986C349.69 188.808 349.448 188.708 349.197 188.708H347.838C347.635 187.818 347.283 186.968 346.795 186.196L347.761 185.239C347.849 185.151 347.919 185.048 347.966 184.933C348.014 184.819 348.038 184.696 348.038 184.572C348.038 184.448 348.014 184.326 347.966 184.211C347.919 184.097 347.849 183.993 347.761 183.906L346.513 182.658C346.426 182.57 346.322 182.501 346.208 182.453C346.093 182.405 345.971 182.381 345.847 182.381C345.723 182.381 345.6 182.405 345.486 182.453C345.372 182.501 345.268 182.57 345.18 182.658L344.215 183.615C343.441 183.131 342.592 182.779 341.702 182.573V181.163C341.702 181.039 341.678 180.917 341.631 180.803C341.584 180.689 341.514 180.585 341.427 180.498C341.34 180.411 341.236 180.341 341.122 180.294C341.008 180.247 340.886 180.223 340.762 180.223H338.993C338.744 180.223 338.505 180.322 338.329 180.498C338.153 180.674 338.054 180.913 338.054 181.163V182.521C337.164 182.728 336.315 183.08 335.541 183.564L334.576 182.607C334.488 182.519 334.384 182.449 334.27 182.402C334.156 182.354 334.033 182.33 333.909 182.33C333.785 182.33 333.662 182.354 333.548 182.402C333.434 182.449 333.33 182.519 333.242 182.607L332.003 183.854C331.914 183.941 331.844 184.045 331.796 184.159C331.747 184.274 331.723 184.397 331.723 184.521C331.723 184.645 331.747 184.768 331.796 184.883C331.844 184.997 331.914 185.101 332.003 185.188L332.96 186.145C332.473 186.917 332.121 187.767 331.918 188.657H330.559C330.309 188.659 330.07 188.76 329.894 188.938C329.718 189.115 329.619 189.355 329.619 189.606V191.417C329.619 191.666 329.718 191.906 329.894 192.082C330.071 192.258 330.31 192.357 330.559 192.357H331.926C332.129 193.248 332.482 194.097 332.969 194.87L332.012 195.835C331.923 195.922 331.852 196.026 331.804 196.14C331.756 196.255 331.731 196.377 331.731 196.502C331.731 196.626 331.756 196.749 331.804 196.863C331.852 196.978 331.923 197.081 332.012 197.168L333.251 198.416C333.338 198.504 333.442 198.573 333.557 198.621C333.671 198.669 333.794 198.693 333.917 198.693C334.041 198.693 334.164 198.669 334.278 198.621C334.393 198.573 334.497 198.504 334.584 198.416L335.55 197.45C336.322 197.938 337.172 198.29 338.062 198.493V199.852C338.062 200.102 338.161 200.342 338.337 200.519C338.513 200.697 338.752 200.798 339.002 200.8H340.771C341.021 200.798 341.26 200.697 341.436 200.519C341.612 200.342 341.711 200.102 341.711 199.852V198.493C342.601 198.29 343.451 197.938 344.223 197.45L345.189 198.416C345.276 198.504 345.38 198.573 345.495 198.621C345.609 198.669 345.732 198.693 345.855 198.693C345.979 198.693 346.102 198.669 346.216 198.621C346.331 198.573 346.435 198.504 346.522 198.416L347.77 197.168C347.858 197.081 347.927 196.977 347.975 196.863C348.022 196.748 348.047 196.626 348.047 196.502C348.047 196.378 348.022 196.255 347.975 196.141C347.927 196.026 347.858 195.923 347.77 195.835L346.795 194.835C347.283 194.063 347.635 193.213 347.838 192.323H349.197C349.441 192.323 349.676 192.229 349.853 192.06C350.029 191.892 350.134 191.661 350.145 191.417ZM340.292 194.545C339.464 194.63 338.629 194.457 337.902 194.049C337.176 193.641 336.594 193.018 336.236 192.266C335.878 191.514 335.762 190.669 335.903 189.848C336.044 189.027 336.437 188.27 337.026 187.681C337.615 187.092 338.372 186.699 339.193 186.558C340.014 186.416 340.859 186.533 341.611 186.891C342.363 187.249 342.986 187.831 343.394 188.557C343.803 189.284 343.976 190.118 343.89 190.947C343.791 191.866 343.38 192.723 342.725 193.374C342.07 194.026 341.211 194.433 340.292 194.528V194.545Z" fill="#263238"/>
<path d="M206.128 76.7376V75.8318C206.128 75.7683 206.115 75.7053 206.091 75.6467C206.066 75.5881 206.03 75.5349 205.985 75.4904C205.94 75.4458 205.886 75.4108 205.827 75.3872C205.768 75.3637 205.705 75.3521 205.641 75.3533H204.949C204.841 74.8965 204.66 74.4606 204.41 74.0629L204.906 73.5758C204.996 73.4847 205.046 73.3619 205.046 73.234C205.046 73.1061 204.996 72.9833 204.906 72.8922L204.265 72.2513C204.175 72.1621 204.054 72.112 203.928 72.112C203.801 72.112 203.68 72.1621 203.59 72.2513L203.094 72.7469C202.697 72.4978 202.261 72.3159 201.804 72.2086V71.5164C201.804 71.3887 201.754 71.2661 201.664 71.1749C201.575 71.0838 201.453 71.0315 201.326 71.0293H200.42C200.292 71.0315 200.17 71.0838 200.081 71.1749C199.991 71.2661 199.941 71.3887 199.941 71.5164V72.2086C199.484 72.3149 199.048 72.4969 198.651 72.7469L198.155 72.2513C198.064 72.1615 197.941 72.1112 197.813 72.1112C197.685 72.1112 197.563 72.1615 197.472 72.2513L196.839 72.8922C196.749 72.9833 196.699 73.1061 196.699 73.234C196.699 73.3619 196.749 73.4847 196.839 73.5758L197.326 74.0629C197.08 74.4611 196.901 74.897 196.796 75.3533H196.096C195.969 75.3533 195.847 75.4037 195.757 75.4934C195.668 75.5832 195.617 75.7049 195.617 75.8318V76.7376C195.617 76.8654 195.667 76.988 195.757 77.0791C195.846 77.1702 195.968 77.2225 196.096 77.2247H196.796C196.9 77.6787 197.079 78.1121 197.326 78.5065L196.839 79.0022C196.749 79.0933 196.699 79.2161 196.699 79.344C196.699 79.4719 196.749 79.5947 196.839 79.6858L197.472 80.3267C197.563 80.4165 197.685 80.4668 197.813 80.4668C197.941 80.4668 198.064 80.4165 198.155 80.3267L198.651 79.8311C199.046 80.0821 199.483 80.2614 199.941 80.3609V81.0616C199.941 81.1885 199.992 81.3103 200.081 81.4C200.171 81.4898 200.293 81.5402 200.42 81.5402H201.326C201.452 81.5402 201.574 81.4898 201.664 81.4C201.754 81.3103 201.804 81.1885 201.804 81.0616V80.3267C202.261 80.2256 202.698 80.0463 203.094 79.7969L203.59 80.2925C203.68 80.3818 203.801 80.4319 203.928 80.4319C204.054 80.4319 204.175 80.3818 204.265 80.2925L204.906 79.6516C204.996 79.5605 205.046 79.4377 205.046 79.3098C205.046 79.1819 204.996 79.0591 204.906 78.968L204.41 78.4724C204.66 78.0783 204.842 77.645 204.949 77.1906H205.641C205.764 77.1909 205.883 77.1443 205.974 77.0602C206.064 76.9761 206.119 76.8608 206.128 76.7376ZM201.086 78.3442C200.661 78.397 200.229 78.3162 199.852 78.1131C199.474 77.91 199.169 77.5946 198.979 77.2105C198.788 76.8264 198.722 76.3926 198.789 75.9692C198.856 75.5457 199.053 75.1535 199.352 74.8468C199.652 74.5402 200.039 74.3342 200.461 74.2574C200.883 74.1806 201.318 74.2367 201.707 74.4181C202.095 74.5995 202.418 74.8971 202.629 75.2698C202.841 75.6425 202.932 76.0718 202.889 76.4984C202.841 76.9643 202.637 77.4002 202.309 77.7353C201.982 78.0704 201.551 78.285 201.086 78.3442Z" fill="#263238"/>
<path d="M96.2015 136.573H90.3906V142.384H96.2015V136.573ZM91.5699 137.753H94.9881V141.213H91.5699V137.753Z" fill="#263238"/>
<path d="M330.926 250.133H325.09V255.944H330.901L330.926 250.133ZM326.286 251.312H329.747V254.773H326.286V251.312Z" fill="#263238"/>
<path d="M243.745 83.6768H237.926V89.4877H243.737L243.745 83.6768ZM239.105 84.8475H242.566V88.2657H239.105V84.8475Z" fill="#263238"/>
<path d="M92.7836 229.367H86.9727V235.187H92.7836V229.367ZM88.1434 230.546H91.5616V233.965H88.1434V230.546Z" fill="#263238"/>
<path opacity="0.9" d="M262.453 123.908C261.761 123.907 261.085 124.11 260.509 124.493C259.933 124.876 259.484 125.421 259.218 126.06C258.952 126.698 258.881 127.401 259.015 128.08C259.149 128.758 259.481 129.382 259.97 129.872C260.458 130.361 261.081 130.695 261.759 130.831C262.438 130.966 263.141 130.897 263.78 130.633C264.419 130.369 264.965 129.921 265.35 129.346C265.734 128.771 265.939 128.095 265.939 127.403C265.939 126.478 265.572 125.59 264.919 124.935C264.265 124.28 263.378 123.91 262.453 123.908ZM262.453 129.497C262.039 129.497 261.634 129.374 261.29 129.144C260.945 128.914 260.677 128.587 260.519 128.204C260.36 127.822 260.319 127.401 260.399 126.995C260.48 126.589 260.68 126.216 260.972 125.923C261.265 125.63 261.638 125.431 262.044 125.35C262.451 125.269 262.871 125.311 263.254 125.469C263.637 125.627 263.964 125.896 264.194 126.24C264.424 126.584 264.546 126.989 264.546 127.403C264.538 127.953 264.313 128.476 263.921 128.862C263.53 129.247 263.002 129.463 262.453 129.463V129.497Z" fill="#263238"/>
<path d="M200.326 140.3L192.498 129.464C193.934 129.46 195.309 128.888 196.324 127.872C197.339 126.857 197.911 125.482 197.916 124.047V94.5477C197.909 93.1129 197.336 91.7387 196.322 90.7242C195.307 89.7096 193.933 89.1366 192.498 89.1299H124.476C123.041 89.1344 121.665 89.7066 120.65 90.7217C119.635 91.7368 119.063 93.1122 119.059 94.5477V124.047C119.061 125.483 119.632 126.859 120.648 127.875C121.663 128.891 123.04 129.462 124.476 129.464H183.295L200.326 140.3Z" fill="#263238"/>
<path d="M141.661 108.092C141.661 107.436 141.466 106.795 141.102 106.25C140.737 105.705 140.22 105.28 139.614 105.029C139.008 104.778 138.341 104.712 137.698 104.84C137.055 104.968 136.464 105.284 136 105.747C135.537 106.211 135.221 106.802 135.093 107.445C134.965 108.088 135.031 108.755 135.282 109.361C135.533 109.967 135.958 110.485 136.503 110.849C137.048 111.213 137.689 111.408 138.345 111.408C138.78 111.408 139.211 111.322 139.614 111.155C140.016 110.989 140.382 110.744 140.689 110.437C140.997 110.129 141.242 109.763 141.408 109.361C141.575 108.959 141.661 108.527 141.661 108.092Z" fill="#B6974E"/>
<path d="M161.223 108.092C161.223 107.436 161.028 106.794 160.664 106.249C160.299 105.704 159.781 105.279 159.174 105.028C158.568 104.777 157.901 104.712 157.257 104.841C156.614 104.969 156.023 105.286 155.56 105.751C155.097 106.215 154.781 106.807 154.654 107.45C154.528 108.094 154.594 108.761 154.847 109.367C155.099 109.972 155.525 110.49 156.072 110.853C156.618 111.216 157.26 111.409 157.916 111.408C158.351 111.408 158.782 111.322 159.184 111.155C159.585 110.988 159.95 110.744 160.257 110.436C160.565 110.128 160.808 109.762 160.974 109.36C161.139 108.958 161.224 108.527 161.223 108.092Z" fill="#B6974E"/>
<path d="M180.791 108.092C180.791 107.436 180.597 106.795 180.233 106.25C179.868 105.705 179.35 105.28 178.745 105.029C178.139 104.778 177.472 104.712 176.829 104.84C176.186 104.968 175.595 105.284 175.131 105.747C174.668 106.211 174.352 106.802 174.224 107.445C174.096 108.088 174.162 108.755 174.413 109.361C174.663 109.967 175.088 110.485 175.634 110.849C176.179 111.213 176.82 111.408 177.476 111.408C177.911 111.408 178.342 111.322 178.745 111.155C179.147 110.989 179.512 110.744 179.82 110.437C180.128 110.129 180.372 109.763 180.539 109.361C180.706 108.959 180.791 108.527 180.791 108.092Z" fill="#B6974E"/>
</svg>
