<svg width="25" height="25" viewBox="0 0 25 25" fill="none" xmlns="http://www.w3.org/2000/svg">
<g clip-path="url(#clip0_245_3436)">
<path d="M12.3379 2.9834C17.8609 2.9834 22.3379 7.4604 22.3379 12.9834C22.3379 18.5064 17.8609 22.9834 12.3379 22.9834C10.4479 22.9834 8.6779 22.4584 7.1699 21.5454L4.1379 22.4374C3.96382 22.4886 3.77915 22.492 3.60332 22.4472C3.42748 22.4023 3.26697 22.311 3.13866 22.1826C3.01035 22.0543 2.91897 21.8938 2.87414 21.718C2.82931 21.5421 2.83268 21.3575 2.8839 21.1834L3.7759 18.1514C2.83286 16.5927 2.33548 14.8052 2.3379 12.9834C2.3379 7.4604 6.8149 2.9834 12.3379 2.9834ZM12.3379 4.9834C10.9055 4.98314 9.49936 5.36746 8.26623 6.09621C7.0331 6.82497 6.01825 7.87144 5.32766 9.12634C4.63707 10.3812 4.29606 11.7985 4.34026 13.2302C4.38445 14.6619 4.81222 16.0555 5.5789 17.2654C5.8059 17.6224 5.8839 18.0724 5.7559 18.5054L5.3149 20.0064L6.8159 19.5654C7.2489 19.4374 7.6989 19.5154 8.0559 19.7424C9.10423 20.4062 10.2926 20.817 11.527 20.9424C12.7615 21.0678 14.0082 20.9044 15.1686 20.465C16.329 20.0256 17.3713 19.3223 18.2131 18.4107C19.0548 17.4991 19.673 16.4042 20.0188 15.2125C20.3645 14.0208 20.4283 12.7651 20.2051 11.5445C19.982 10.3239 19.4779 9.172 18.7329 8.17978C17.9878 7.18755 17.0222 6.38223 15.9123 5.82748C14.8024 5.27273 13.5787 4.98375 12.3379 4.9834ZM8.8379 11.4834C9.23572 11.4834 9.61726 11.6414 9.89856 11.9227C10.1799 12.204 10.3379 12.5856 10.3379 12.9834C10.3379 13.3812 10.1799 13.7628 9.89856 14.0441C9.61726 14.3254 9.23572 14.4834 8.8379 14.4834C8.44007 14.4834 8.05854 14.3254 7.77724 14.0441C7.49593 13.7628 7.3379 13.3812 7.3379 12.9834C7.3379 12.5856 7.49593 12.204 7.77724 11.9227C8.05854 11.6414 8.44007 11.4834 8.8379 11.4834ZM15.8379 11.4834C16.2357 11.4834 16.6173 11.6414 16.8986 11.9227C17.1799 12.204 17.3379 12.5856 17.3379 12.9834C17.3379 13.3812 17.1799 13.7628 16.8986 14.0441C16.6173 14.3254 16.2357 14.4834 15.8379 14.4834C15.4401 14.4834 15.0585 14.3254 14.7772 14.0441C14.4959 13.7628 14.3379 13.3812 14.3379 12.9834C14.3379 12.5856 14.4959 12.204 14.7772 11.9227C15.0585 11.6414 15.4401 11.4834 15.8379 11.4834Z" fill="white"/>
</g>
<defs>
<clipPath id="clip0_245_3436">
<rect width="24" height="24" fill="white" transform="translate(0.337891 0.983398)"/>
</clipPath>
</defs>
</svg>
