<svg width="24" height="25" viewBox="0 0 24 25" fill="none" xmlns="http://www.w3.org/2000/svg">
<path d="M14.6584 20.3498L13.1384 21.8698C12.5184 22.4898 11.4984 22.4898 10.8784 21.8698L9.35844 20.3498C9.09844 20.0898 8.58844 19.8798 8.22844 19.8798H6.07844C5.19844 19.8798 4.47844 19.1598 4.47844 18.2798V16.1298C4.47844 15.7698 4.26844 15.2598 4.00844 14.9998L2.48844 13.4798C1.86844 12.8598 1.86844 11.8398 2.48844 11.2198L4.00844 9.69975C4.26844 9.43975 4.47844 8.92975 4.47844 8.56975V6.41975C4.47844 5.53975 5.19844 4.81975 6.07844 4.81975M9.33944 4.32875L10.8594 2.80875C11.4794 2.18875 12.4994 2.18875 13.1194 2.80875L14.6394 4.32875C14.8994 4.58875 15.4094 4.79875 15.7694 4.79875H17.9194C18.7994 4.79875 19.5194 5.51875 19.5194 6.39875V8.54875C19.5194 8.90875 19.7294 9.41875 19.9894 9.67875L21.5094 11.1988C22.1294 11.8188 22.1294 12.8388 21.5094 13.4588L19.9894 14.9788C19.7294 15.2388 19.5194 15.7488 19.5194 16.1088V18.2588C19.5194 19.1388 18.7994 19.8587 17.9194 19.8587M8.99944 15.3398L14.9994 9.33975" stroke="#5FB567" stroke-width="1.5" stroke-linecap="round" stroke-linejoin="round"/>
<path d="M14.4941 14.8398H14.5031M9.49414 9.83984H9.50214" stroke="#5FB567" stroke-width="2" stroke-linecap="round" stroke-linejoin="round"/>
</svg>
