<svg width="19" height="21" viewBox="0 0 19 21" fill="none" xmlns="http://www.w3.org/2000/svg">
<path fill-rule="evenodd" clip-rule="evenodd" d="M2.5 4.70605C2.5 5.29105 3.8 5.74305 4.194 5.89105C5.504 6.38105 7.38 6.70605 9.5 6.70605C11.62 6.70605 13.497 6.38205 14.806 5.89105C15.199 5.74305 16.5 5.29105 16.5 4.70605C16.5 4.12105 15.2 3.66905 14.806 3.52105C13.496 3.03105 11.62 2.70605 9.5 2.70605C7.38 2.70605 5.503 3.03005 4.194 3.52105C3.801 3.66905 2.5 4.12105 2.5 4.70605ZM16.047 7.54305C15.8697 7.62195 15.6899 7.69532 15.508 7.76305C13.922 8.36005 11.798 8.70605 9.5 8.70605C7.203 8.70605 5.078 8.35905 3.492 7.76405C3.30974 7.69604 3.12965 7.62233 2.952 7.54305C3.688 9.75605 5.255 11.4761 7.165 12.2501C7.9 12.5461 8.5 13.2641 8.5 14.1741V18.4251L10.5 17.9251V14.1741C10.5 13.2641 11.1 12.5471 11.835 12.2501C13.745 11.4761 15.312 9.75605 16.047 7.54305ZM0.5 4.70605C0.5 8.97005 2.914 12.6861 6.415 14.1031C6.44534 14.1148 6.47195 14.1344 6.492 14.1601C6.49546 14.1646 6.49816 14.1697 6.5 14.1751V18.4251C6.50005 18.729 6.56935 19.0289 6.70264 19.302C6.83594 19.5751 7.02972 19.8142 7.26927 20.0012C7.50882 20.1882 7.78783 20.3182 8.08512 20.3812C8.38242 20.4443 8.69017 20.4388 8.985 20.3651L10.985 19.8651C11.4175 19.7569 11.8015 19.5074 12.076 19.1561C12.3505 18.8048 12.4997 18.3719 12.5 17.9261V14.1761L12.508 14.1611C12.528 14.1354 12.5547 14.1158 12.585 14.1041C16.087 12.6861 18.5 8.97005 18.5 4.70605C18.5 3.90305 18.063 3.25805 17.535 2.79005C17.005 2.32105 16.297 1.94405 15.508 1.64805C13.922 1.05305 11.798 0.706055 9.5 0.706055C7.203 0.706055 5.078 1.05305 3.492 1.64805C2.702 1.94405 1.994 2.32105 1.465 2.79005C0.937 3.25805 0.5 3.90305 0.5 4.70605Z" fill="#B6974E"/>
</svg>
