<?xml version="1.0" encoding="UTF-8"?>
<svg version="1.1" viewBox="0 0 2000 2000" width="90" height="90" xmlns="http://www.w3.org/2000/svg">
<path transform="translate(1019,385)" d="m0 0h2l16 24 16 23 8 12 13 19 16 23 19 28 15 22 17 25 8 12 15 23 12 19 13 22 10 18 8 14 8 16 13 28 10 26 6 19 5 21 2 12 1 11v24l-2 16-5 19-7 17-9 16-10 14-9 10-7 8-10 10-8 7-14 13-4 1-6-5-7 11-9 10-10 6-13 4h-9l-12-3-12-6-11-9-10-12-8-14-11-27-9-29-8-36-1-7-4 2-25 25-8 7-15 13-18 14-20 13-22 12-15 6-10 3h-20l-11-4-9-5-9-8-9-13-7-15-4-13-4-23-3-21-4-8-7-1-10 6-13 11-9 9-11 14-13 21-14 29-10 23-2 6 8 4h14l12-5 14-10 7-6 7-8 10-11 8-10 3-4 3 1 7 47 2 20-1 9-9 15-11 14-9 10-7 8-37 37-7 8-12 13-9 11 1 9 13 25 14 21 13 16 9 10 16 16 11 9 15 11 21 13 19 10 24 10 27 9 20 5 23 4 28 3 18 1h15l31-2 29-4 34-7 31-9 24-9 20-9 19-10 22-14 18-14 13-11 12-11 16-16 9-11 10-11 15-20 14-20 12-19 15-25 3-1-1 9-6 27-7 24-9 25-11 24-9 17-10 16-12 17-13 16-11 12-5 6-8 7-8 8-11 9-13 10-21 14-19 11-28 13-21 8-22 7-25 6-24 4-31 3h-40l-31-3-23-4-25-6-26-8-27-10-30-14-25-14-22-15-11-9-10-9-8-7-10-10-7-8-8-10-12-18-8-15-8-21-5-23-1-7v-30l4-21 7-21 13-25 9-14-1-2-10-5-7-8-5-15-2-12v-28l4-23 6-20 11-28 13-27 13-21 11-15 12-14 13-13 13-10 14-8h7l6 3 6 10 6 18 4 20 6 42 3 10 6 10 5 4 10 3h9l15-4 16-7 19-12 9-7-1-1-22-3-11-2-3-2-1-3-2-27v-14l1-19 3-18 5-19 8-20 10-19 10-14 11-13 5-6h2v-2l8-7 17-13 14-7 8-2h16l6 3 5 5 5 8 5 15 4 21 3 33 1 18 9-6 15-14 9-9 9-11 11-13h2v69l-9 14-16 21-10 13-8 10-3 7 1 15 4 23 6 21 8 16 9 12 8 7 10 4h9l10-4 9-7 8-13 4-11 4-17 4-22 3-5 4 1 9 27 3 8 4-2 12-11 12-12 11-14 10-16 7-14 3-8v-8l-6-16-11-26-14-29-13-24-10-17-15-24-20-30-12-17-14-19-20-26-11-14-10-12-8-10-13-16-9-11-11-14-9-11-4 1-7 8-12 14-14 17-11 13-11 14-8 9-11 14-13 16-22 28-13 17-10 13-14 19-12 16-13 14-17 12-16 8-8 3h-4l2-5 6-11 15-26 36-57 42-63 14-20 12-17 13-18 28-38 14-18 9-12 10-13 12-15 6-8zm-22 311-12 4-15 9-13 11-8 8-10 14-10 19-9 20v3l21 1 17-2 16-4 14-5 17-8 14-9 4-4v-15l-3-19-5-13-7-8-6-2z" fill="#B6974E"/>
<path transform="translate(1018,211)" d="m0 0 5 5 14 21 23 35 19 29 25 38 15 23 13 20 15 23 14 22 15 24 17 28 17 29 14 25 10 18 12 23 10 19 15 30 15 33 14 33 13 34 11 31 12 40 8 32 3 20v34l-2 22-4 25-7 27-9 24-8 18-12 21-8 12-8 11-13 16-11 12-14 14-11 9-14 12-19 13-15 10-18 10-21 11-28 12-34 12-32 9-33 7-24 4-43 4h-24l3-3 36-12 30-11 30-13 29-14 22-12 28-17 16-11 14-10 17-13 13-11 10-9 8-7 22-22 7-8 8-9 11-14 14-19 12-19 13-23 13-28 10-28 7-26 4-21v-7l-4-16-11-35-12-32-12-29-15-33-16-33-12-23-13-24-14-24-12-21-15-24-12-19-15-23-40-60-10-14-15-22-12-17-10-14-12-17-14-19-12-17-5-5-11 15-16 23-16 25-21 32-18 27-10 16-10 15-33 51-16 25-14 22-15 24-9 15-14 24-16 28-15 27-14 24-9 13-7 8h-2v2l-13 10-19 10h-2l3-9 8-18 7-15 32-64 10-18 8-16 14-26 6-10 6-12 13-23 13-24 10-17 6-11 15-27 14-25 12-21 15-26 14-24 17-29 12-20 11-18 9-14 14-22 19-28 10-14z" fill="#B6974E"/>
<path transform="translate(341,1756)" d="m0 0h1498l1 1v19l-2 2h-1497z" fill="#B6974E"/>
<path transform="translate(385,1427)" d="m0 0h11l2 1-2 4-7 11-2 7-1 11v243l5 6 9 7 1 4-1 1h-58l-2-1 1-5 10-8 4-6 1-7v-21l-3-20-6-21-9-21-12-19-12-14-9-10-14-11-16-10-25-12-10-4-2 5-10 22-9 25-7 28-2 18v43l2 22 4 19 6 16 6 11 9 9 16 10 3 2v2l-22 9-15 8-10 7-3 1-1-1-2-27-10-69-2-23v-16l2-28 4-24 5-21 9-27 12-26h-30l-15 2-15 5-10 6-5 4-4 7-1 4v7l3 7 4 2h10l4-5 3-6 4 2v10l-4 10-7 8-9 4-5 1h-8l-9-3-7-6-6-11-1-5v-9l3-11 6-9 9-9 14-8 12-5 16-4 18-2h24l15 1 13-16 11-12 10-10 14-11 11-8 17-10 17-8 19-6 19-4zm-32 18-16 5-15 6-17 9-17 12-11 9-14 14-11 14-3 4 1 3 21 9 17 9 14 10 10 8 12 11 10 11 11 15 10 16h1v-164z" fill="#B6974E"/>
<path transform="translate(1597,1513)" d="m0 0 4 1 11 11 11 15 6 13v2h2l2-6 8-12 9-10 10-7 12-5 5-1h15l12 3 12 6 10 9 6 7 2 3 3 1 2-5 12-12 11-7 10-4 5-1h16l14 3 14 7 12 11 7 11 6 13 4 17 1 10v11l-3 21-6 20-9 21-10 18-12 17-8 10h15l10-3 6-4 5-4h2v36l-6-2-11-4-5-1h-38l-1-4 7-12 9-16 9-17 10-25 5-20 1-7v-22l-3-22-5-15-7-12-8-7-8-4-11-2h-8l-12 3-10 5-8 7 2 10 3 18 1 13v26l-3 17-4 15-7 20-12 26-11 19-4 5-6 1-2-3 6-15 5-15 5-24 3-27v-41l-4-20-6-15-9-13-7-6-10-4h-14l-9 3-9 7-7 7-7 12-1 3v133l5 5 7 6 2 3-1 4h-53l-2-1 1-5 9-8h2l1-4v-135l-3-11-7-10-10-7-8-5 1-4 10-9z" fill="#B6974E"/>
<path transform="translate(736,1428)" d="m0 0h56v3l-13 10-3 4v11l4 14 5 10 8 10 11 9 15 9 28 14 17 11 11 9 12 12 13 17 6 10-2-36-6-97-3-5-10-7-6-4-1-4h59l-2 4-9 8-6 4v17l13 209 2 29 2 7 15 9 3 3v3l-6 1h-50l-2-1 2-5 11-8 3-4v-16l-2-31v-17h-2l-2 5-7 8-7 6-8 4-10 2-13-1-9-4-6-5-6-12v-9l3-8 7-7 4-2h15l2 1-1 4-6 3-2 4v7l3 6 6 4 3 1h9l8-5 5-6 3-8 1-6v-9l-3-11-7-11-7-7-17-13-18-10-30-16-14-9-10-9-10-10-9-12-6-10v-2h-2v16l-7 91-7 92v12l5 6 9 7 1 4-1 1-55-1 3-5 15-10 3-7 11-145 8-106-2-5-11-9-4-3z" fill="#B6974E"/>
<path transform="translate(1298,1514)" d="m0 0h19l17 4 16 8 13 9 13 12 9 12 8 14 6 14 5 16 5 23 5 35 5 36 3 10 6 11v4h-39l1-7 2-4 1-23h-3l-2 5-11 13-14 11-17 8-13 3-15 1-17-2-15-5-11-6-10-8-9-10-7-12-4-13-1-5v-21l3-12 5-12 8-11 8-9 14-10 15-7 12-3 8-1h22l16 4 17 8 11 9-7-18-8-14-10-14-11-12-13-10-14-7-11-3-7-1h-9l-13 3-10 6-5 8-1 3v8l3 7 5 3 5 1 5-2 3-3 1-5-2-7v-5l9 2 8 7 2 4v9l-4 8-7 7-7 3-9 1-10-2-8-5-6-8-3-9v-13l4-10 7-8 9-5 12-5zm23 83-16 4-11 6-12 11-7 11-3 9-1 5v13l3 12 7 14 12 12 14 8 15 4h17l14-3 10-4 11-8 8-9 7-14 2-9v-19l-4-13-6-9-5-6-11-7-12-5-15-3z" fill="#B6974E"/>
<path transform="translate(1071,1515)" d="m0 0 3 1-2 5-13 20-11 20-8 20-5 18-3 19v23l3 17 5 15 7 12 9 10 9 6 11 4 6 1h10l14-3 16-8 8-7h2l2-4 6-7 3-7v-130l-3-5-10-9-1-5h56l1 2-7 8-7 6-1 30v95l1 15 4 11 8 9 11 8-2 4-19 19-7-4-9-8-7-10-6-15-7 9-9 10-12 9-10 5-9 3-7 1h-20l-14-3-14-6-12-9-8-9-7-11-6-16-3-16v-21l2-17 6-21 7-17 9-16 6-11 1-4-8-5-14-7 1-3 24-7 13-6z" fill="#B6974E"/>
<path transform="translate(1812,1357)" d="m0 0h22l11 3 10 5 9 7 8 8 8 14 4 13v22l-4 13-5 10-7 9-7 7-12 7-12 4-6 1h-19l-13-4-10-5-12-11-7-9-6-13-3-12v-14l4-16 8-15 13-13 10-6 11-4zm1 21-9 3-9 7-6 10-3 9-1 7v9l2 12 5 10 9 9 9 4 4 1h14l11-4 8-7 5-9v-6l-9-3-4-1-2 2-3 7-5 5-6 2-9-1-6-4-4-7-2-8v-14l3-10 5-6 9-3 11 2 6 7 3 3 11-2 2-1-1-7-6-8-5-4-10-4z" fill="#B6974E"/>
<path transform="translate(1670,1357)" d="m0 0h22l13 4 10 5 12 11 7 9 5 11 3 10 1 7v9l-3 15-8 16-11 12-10 7-12 5-9 2h-19l-12-3-13-7-9-7-9-12-6-13-2-7-1-16 2-12 5-13 7-11 6-7 10-7 10-5zm-22 24-1 72 1 3h15v-32l13 3 8 10 10 16 3 3h16l1-2-9-14-9-12-5-6 9-3 5-5 3-5v-13l-4-8-6-5-10-2z" fill="#B6974E"/>
<path transform="translate(497,1415)" d="m0 0h1v15l-1 25v247l2 5 12 11v3l-7 1-49-1 1-5 11-9 1-2v-241l-9 3-11 5-3-1 4-7 33-33 9-11z" fill="#B6974E"/>
<path transform="translate(934,960)" d="m0 0 3 1-4 59-3 5-24 15-38 24-20 12-10 7-5 1v-59l4-5 24-15 28-17 42-26z" fill="#B6974E"/>
<path transform="translate(1517,1510)" d="m0 0h2l-2 28v166l7 8 6 5 1 4-9 1-48-1 2-5 10-9h2v-154l-2-5-14-7 4-5 21-12 17-12z" fill="#B6974E"/>
<path transform="translate(674,1588)" d="m0 0 3 1v11l-3 10-4 6-8 7-10 4-5 1h-21l-32-6-11-1-11 4-7 10h-2l-1-2v-16l5-10 8-7 10-4 5-1h12l23 5 13 3 12 1 9-2 8-6z" fill="#B6974E"/>
<path transform="translate(1134,742)" d="m0 0 6 1 32 11 3 2-1 4-13 36-5 12-4 3-39-10 1-6 19-50z" fill="#B6974E"/>
<path transform="translate(1038,1019)" d="m0 0h6l8 5 4 5v9l-4 10-4-2-5-3-5-1-4 4-2 5-10 60-2 7h-2l-11-26-8-18-1-3h-9l-9-6-5-6-3-7v-11l3-7 4-1 12 7 8 9 9 15 8 15 2 4 2 1 1-13 4-24 5-17 4-8z" fill="#B6974E"/>
<path transform="translate(885,1091)" d="m0 0 6 2 2 3-1 7-11 1-1 10v2l10-1 5-4 6-10h3l2 3v7l-8 16-9 20-1 9 1 3 5 1 14-5 23-11h3l-1 4-9 10-10 8-10 5-7 2-9-1-5-4-3-7v-11l3-14v-6l-9-3-3-4v-8l3-10 6-10z" fill="#B6974E"/>
<path transform="translate(1034,546)" d="m0 0h6l6 4 2 8-2 9-5-2-4-2-4 1-4 15-6 37-2 3-8-17-7-14-4-3-8-3-6-6-3-9 2-8 2-2 5 1 8 7 7 7 9 16 3 5 8-39z" fill="#B6974E"/>
<path transform="translate(1007,940)" d="m0 0h4l-1 4-8 9-9 14-5 10 1 7 19 10 3 3-1 9-4 10h-7l-12-5-7-6-4-9v-8l3-12 5-12 8-11 10-10z" fill="#B6974E"/>
<path transform="translate(1502,1442)" d="m0 0 10 1 6 4 5 7 1 9-3 7-5 6-6 3h-10l-6-3-6-7-2-6 1-8 4-7 5-4z" fill="#B6974E"/>
<path transform="translate(1663,1394)" d="m0 0h23l5 2 2 3v8l-5 5-7 1h-18l-1-7z" fill="#B6974E"/>
<path transform="translate(1017,500)" d="m0 0 2 2-9 12-5 11 2 4 12 6 1 5-3 8-6 1-7-3-5-5-1-2v-12l4-10 8-11z" fill="#B6974E"/>
<path transform="translate(1034,546)" d="m0 0h6l6 4 2 8-2 9-5-2-4-2-4 1-4 15-4 24h-1l-1-8-1-1v-7l7-33z" fill="#B6974E"/>
<path transform="translate(1027,563)" d="m0 0h1l1 5h2l-5 29-1 6h-1l-1-8-1-1v-7z" fill="#B6974E"/>
<path transform="translate(1023,582)" d="m0 0h1l2 8-1 13h-1l-1-8-1-1v-7z" fill="#B6974E"/>
<path transform="translate(167,1560)" d="m0 0 4 2v10l-2 4v-8l-3-5z" fill="#B6974E"/>
<path transform="translate(1027,563)" d="m0 0h1l1 5h2l-2 11-2-3-1-8z" fill="#B6974E"/>
<path transform="translate(1284,1541)" d="m0 0 6 1-2 2-1 9h-1l-2-7z" fill="#B6974E"/>
</svg>
