<svg width="24" height="24" viewBox="0 0 26 25" fill="none" xmlns="http://www.w3.org/2000/svg">
<path d="M23.2083 5.90546V2.10388C23.2083 1.54038 22.752 1.08304 22.1875 1.08304C21.623 1.08304 21.1667 1.54038 21.1667 2.10388V4.51917L15.8553 0.935024C14.1209 -0.234852 11.8791 -0.234852 10.1447 0.935024L2.9989 5.75744C1.59117 6.70784 0.75 8.28911 0.75 9.9888V19.458C0.75 22.2725 3.03973 24.5622 5.85417 24.5622H8.91667C9.48119 24.5622 9.9375 24.1049 9.9375 23.5414V15.3747C9.9375 14.8122 10.3948 14.3539 10.9583 14.3539H15.0417C15.6052 14.3539 16.0625 14.8122 16.0625 15.3747V23.5414C16.0625 24.1049 16.5188 24.5622 17.0833 24.5622H20.1458C22.9603 24.5622 25.25 22.2725 25.25 19.458V9.9888C25.25 8.37486 24.4905 6.86709 23.2083 5.90546ZM23.2083 19.458C23.2083 21.1465 21.8343 22.5205 20.1458 22.5205H18.1042V15.3747C18.1042 13.6863 16.7301 12.3122 15.0417 12.3122H10.9583C9.26988 12.3122 7.89583 13.6863 7.89583 15.3747V22.5205H5.85417C4.16571 22.5205 2.79167 21.1465 2.79167 19.458V9.9888C2.79167 8.96898 3.29596 8.01961 4.14121 7.44998L11.287 2.62757C12.3283 1.92523 13.6717 1.92523 14.7119 2.62757L21.8578 7.44998C22.703 8.01961 23.2073 8.96898 23.2073 9.9888L23.2083 19.458Z" fill="#D2D2D2"/>
</svg>
