<svg width="24" height="24" viewBox="0 0 27 26" fill="none" xmlns="http://www.w3.org/2000/svg">
<path d="M24.0656 6.04787V2.11308C24.0656 1.52983 23.5933 1.05648 23.009 1.05648C22.4247 1.05648 21.9524 1.52983 21.9524 2.11308V4.613L16.4549 0.903268C14.6597 -0.3076 12.3394 -0.3076 10.5442 0.903268L3.14801 5.89466C1.69095 6.87836 0.820312 8.51504 0.820312 10.2743V20.0753C0.820312 22.9884 3.19027 25.3584 6.10333 25.3584H8.21654C8.80084 25.3584 9.27314 24.885 9.27314 24.3018V14.7923C9.27314 14.2101 9.7465 13.7357 10.3297 13.7357H16.6694C17.2526 13.7357 17.726 14.2101 17.726 14.7923V24.3018C17.726 24.885 18.1983 25.3584 18.7826 25.3584H20.8958C23.8088 25.3584 26.1788 22.9884 26.1788 20.0753V10.2743C26.1788 8.6038 25.3927 7.04319 24.0656 6.04787Z" fill="#B6974E"/>
</svg>
