<svg width="250" height="222" viewBox="0 0 250 222" fill="none" xmlns="http://www.w3.org/2000/svg">
<g clip-path="url(#clip0_205_312)">
<path d="M40.5422 211.955C40.5883 212.003 40.6195 212.062 40.6321 212.127C40.6482 212.172 40.6575 212.22 40.6595 212.268C40.6595 212.479 40.4796 212.592 40.1277 212.592C39.9401 212.592 39.3457 212.592 38.3839 212.51C37.422 212.428 36.7377 212.409 36.3663 212.409C35.7368 212.409 34.8022 212.459 33.5471 212.561C33.2146 212.595 32.8801 212.606 32.5462 212.592C32.2138 212.592 32.0418 212.471 32.0418 212.237C32.0398 212.192 32.0472 212.147 32.0633 212.106C32.0795 212.064 32.1041 212.026 32.1356 211.994C32.1942 211.924 32.6126 211.572 33.3946 210.966C34.0085 210.49 34.3096 210.067 34.3096 209.692C34.3487 209.481 34.3995 209.169 34.4503 208.762C34.5027 208.292 34.5262 207.82 34.5207 207.347C34.5192 205.181 34.1761 203.028 33.5041 200.969C32.4902 197.868 30.8402 195.013 28.6596 192.585C27.2916 191.053 25.7116 189.724 23.9675 188.638C22.1173 187.501 20.1412 186.583 18.079 185.902C16.9153 187.985 15.958 190.176 15.2207 192.445C14.2333 195.293 13.7054 198.279 13.6567 201.293C13.6567 204.292 13.7271 206.442 13.8678 207.742C14.0582 209.846 14.5863 211.906 15.4318 213.843C15.9643 214.955 16.7504 215.927 17.727 216.68C18.3874 217.185 19.0975 217.621 19.8463 217.982C20.077 218.103 20.1943 218.236 20.1943 218.396C20.1943 218.557 20.0965 218.631 19.9049 218.689C19.3341 218.873 18.7906 219.053 18.2705 219.256C17.6577 219.485 17.0573 219.746 16.4719 220.038C15.8656 220.337 15.2849 220.686 14.7359 221.081C14.4074 221.324 14.0946 221.566 13.8053 221.82C13.6966 221.919 13.5602 221.983 13.4143 222.004C13.2422 222.004 13.1523 221.84 13.1523 221.527C13.1523 220.921 13.121 220.214 13.0624 219.428C13.0037 218.642 12.8629 217.388 12.6205 215.672C12.2686 213.64 11.948 211.626 11.6586 209.63C11.3753 207.773 11.2276 205.899 11.2168 204.021C11.2165 200.415 11.6817 196.823 12.601 193.336C13.2896 190.539 14.3412 187.844 15.729 185.32C15.2989 185.238 14.8453 185.179 14.3644 185.116C13.8115 185.053 13.2552 185.023 12.6987 185.026C11.5279 185.028 10.3608 185.159 9.21877 185.417C8.08964 185.648 7.01558 186.093 6.05554 186.731C4.88252 187.54 4.26082 188.485 4.26082 189.568C4.26082 190.651 4.71439 191.346 5.6137 191.522C5.72901 191.549 5.84743 191.559 5.96561 191.553C6.34462 191.56 6.71761 191.458 7.04087 191.26C7.1883 191.161 7.31153 191.029 7.40151 190.876C7.4915 190.722 7.54596 190.55 7.56091 190.373C7.61174 189.982 7.7134 189.775 7.87371 189.775C8.03403 189.775 8.08486 189.889 8.15524 190.1C8.22906 190.369 8.26201 190.649 8.25299 190.928C8.25114 191.125 8.23151 191.321 8.19434 191.514C8.15524 191.714 8.11223 191.905 8.07313 192.108C7.83508 192.828 7.38872 193.46 6.79063 193.926C6.14219 194.424 5.34029 194.681 4.5228 194.653C4.41693 194.672 4.30971 194.682 4.20217 194.684C3.70472 194.691 3.21168 194.59 2.75727 194.387C2.30287 194.185 1.89798 193.886 1.57071 193.512C0.840199 192.688 0.456354 191.614 0.499353 190.514C0.499353 188.481 1.59547 186.788 3.78771 185.433C5.29215 184.524 6.94759 183.893 8.67527 183.569C9.36574 183.442 10.0628 183.354 10.7632 183.307C11.527 183.244 12.309 183.213 13.1093 183.213C14.3606 183.186 15.6116 183.284 16.8434 183.506C19.6938 179.719 22.8297 176.792 26.2822 174.72C30.1969 172.373 34.6835 171.152 39.248 171.191C39.897 171.191 40.2216 171.281 40.2216 171.453C40.2216 171.535 40.1473 171.644 40.0104 171.785C39.4629 172.351 39.0417 173.026 38.7749 173.766C38.5442 174.595 38.423 176.111 38.423 178.3V209.743C38.423 210.134 38.7162 210.525 39.3066 210.986C39.7356 211.287 40.1481 211.61 40.5422 211.955ZM34.3096 197.029V173.653C31.2733 174.282 28.407 175.554 25.903 177.382C24.577 178.281 23.3374 179.302 22.2001 180.43C21.0856 181.609 20.0817 182.887 19.2011 184.249C20.797 184.777 22.3413 185.449 23.815 186.258C25.1533 187.012 26.4224 187.883 27.6077 188.861C28.9734 189.932 30.2153 191.153 31.3106 192.499C32.4302 193.926 33.4331 195.441 34.3096 197.029ZM55.8149 211.67C55.9974 211.815 56.1222 212.02 56.1668 212.248C56.1668 212.479 55.9556 212.592 55.5255 212.592C55.1619 212.592 54.8726 212.592 54.6419 212.561C53.4297 212.459 52.6243 212.409 52.2333 212.409C51.5216 212.409 50.9508 212.409 50.5089 212.471L48.9918 212.592C48.5226 212.592 48.2919 212.471 48.2919 212.237C48.3328 212.033 48.4336 211.847 48.5813 211.701C49.0739 211.31 49.4337 211.005 49.6761 210.783C49.8579 210.658 50.0115 210.496 50.1273 210.308C50.2431 210.121 50.3185 209.911 50.3486 209.692V178.034C50.3661 177.577 50.3556 177.119 50.3173 176.663C50.2782 176.33 50.0475 176.19 49.6174 176.248C49.2218 176.375 48.8514 176.569 48.5226 176.823C48.2048 177.062 47.8612 177.265 47.4982 177.429C47.2088 177.53 47.0564 177.429 47.0564 177.104C47.081 176.96 47.143 176.826 47.2362 176.713C47.7393 176.128 48.2787 175.574 48.8511 175.056C49.6331 174.31 50.2196 173.704 50.6692 173.251C51.3418 172.582 52.0651 171.785 52.8471 170.855C53.1705 170.446 53.5233 170.062 53.9029 169.706C53.9519 169.657 54.0146 169.624 54.0827 169.612C54.1304 169.595 54.1806 169.585 54.2313 169.584C54.4033 169.584 54.4933 169.745 54.4933 170.057C54.3916 170.694 54.3134 171.472 54.243 172.402C54.1726 173.333 54.1414 174.333 54.1414 175.381V209.743C54.1684 209.95 54.2376 210.148 54.3445 210.327C54.4514 210.506 54.5939 210.661 54.7631 210.783C55.0993 211.088 55.4591 211.389 55.8305 211.67H55.8149ZM79.4433 194.184C79.4823 194.42 79.5019 194.659 79.502 194.899C79.5209 195.445 79.4222 195.989 79.2126 196.494C78.8569 197.459 78.1525 198.257 77.2381 198.729C76.1501 199.25 74.9517 199.498 73.7464 199.452C72.8526 199.431 71.9637 199.313 71.0954 199.101C68.9096 198.585 67.4747 198.319 66.7943 198.319C66.0824 198.29 65.3797 198.488 64.7884 198.886C64.4049 199.152 64.117 199.534 63.9673 199.976C63.897 200.23 63.7953 200.367 63.6741 200.367C63.5529 200.367 63.4669 200.238 63.3926 199.976C63.3221 199.675 63.2893 199.367 63.2948 199.058C63.2918 198.619 63.3457 198.181 63.4551 197.756C63.5865 197.296 63.8012 196.864 64.0885 196.482C64.5288 195.929 65.1018 195.496 65.7542 195.223C66.5489 194.899 67.4024 194.743 68.2606 194.766C69.4576 194.822 70.6414 195.04 71.7796 195.415C72.9378 195.796 74.143 196.016 75.3612 196.068C76.214 196.098 77.0519 195.839 77.7385 195.333C78.177 194.974 78.5478 194.54 78.8334 194.051C78.8534 193.987 78.8919 193.931 78.9442 193.889C78.9964 193.847 79.0599 193.822 79.1266 193.816C79.3182 193.828 79.4199 193.949 79.459 194.184H79.4433ZM118.372 211.772C118.455 211.82 118.525 211.889 118.576 211.972C118.626 212.054 118.656 212.148 118.661 212.244C118.661 212.479 118.481 212.6 118.129 212.6C117.777 212.6 117.449 212.6 117.199 212.569C115.895 212.467 115.033 212.416 114.61 212.416C113.828 212.416 113.234 212.416 112.773 212.479L111.209 212.6C110.798 212.6 110.587 212.487 110.587 212.276C110.587 212.155 110.696 211.983 110.919 211.772C111.482 211.381 111.901 211.064 112.182 210.853C112.706 210.439 112.964 210.071 112.964 209.681L112.393 200.625C111.994 201.657 111.329 202.566 110.466 203.259C109.532 204.07 108.34 204.522 107.103 204.533C105.978 204.56 104.876 204.208 103.975 203.533C103.552 203.216 103.212 202.802 102.985 202.325C102.757 201.849 102.649 201.324 102.669 200.797C102.654 199.991 102.958 199.212 103.514 198.628C103.768 198.34 104.082 198.111 104.434 197.956C104.786 197.801 105.166 197.723 105.551 197.729C105.812 197.723 106.073 197.736 106.333 197.768C106.523 197.797 106.7 197.886 106.837 198.022C106.948 198.11 107.023 198.235 107.048 198.374C107.048 198.495 106.954 198.553 106.775 198.553C106.566 198.548 106.359 198.594 106.172 198.686C105.988 198.797 105.844 198.964 105.762 199.163C105.644 199.437 105.589 199.733 105.602 200.031C105.593 200.211 105.614 200.392 105.664 200.566C105.732 200.847 105.862 201.11 106.044 201.335C106.226 201.56 106.455 201.742 106.716 201.868C107.138 202.068 107.601 202.169 108.069 202.161C108.519 202.158 108.96 202.039 109.35 201.816C109.741 201.593 110.067 201.273 110.298 200.887C110.891 200.027 111.2 199.003 111.181 197.959C111.204 196.948 110.932 195.951 110.399 195.091C109.736 194.165 108.946 193.336 108.053 192.628C106.893 191.648 105.625 190.805 104.272 190.115C100.569 188.184 98.4501 187.024 97.9183 186.652C96.6402 185.711 95.4901 184.607 94.497 183.369C93.6729 182.366 92.9755 181.264 92.4208 180.09L90.1725 209.673C90.1725 210.028 90.4228 210.411 90.935 210.845C91.3455 211.177 91.76 211.502 92.1705 211.822C92.2352 211.878 92.2875 211.946 92.3238 212.023C92.3602 212.099 92.38 212.183 92.3817 212.268C92.3817 212.479 92.2096 212.592 91.8773 212.592C91.3756 212.595 90.8742 212.567 90.3758 212.51C89.5938 212.44 88.9799 212.409 88.5264 212.409C87.9555 212.409 87.3025 212.44 86.5714 212.499C85.8402 212.557 85.3788 212.592 85.2497 212.592C84.8783 212.592 84.6867 212.491 84.6867 212.299C84.7109 212.113 84.8045 211.943 84.9487 211.822C85.0464 211.744 85.5626 211.432 86.4814 210.845C87.1852 210.408 87.5567 210.025 87.5958 209.673L90.3055 174.048C90.3055 173.657 90.0239 173.266 89.4843 172.836C89.0308 172.524 88.5811 172.199 88.1276 171.859C88.0561 171.816 87.9968 171.755 87.9551 171.683C87.9134 171.61 87.8907 171.528 87.889 171.445C87.889 171.191 88.151 171.089 88.6711 171.152C89.0229 171.152 89.3162 171.152 89.543 171.179C90.716 171.285 91.4706 171.332 91.7834 171.332C92.2722 171.332 92.9056 171.304 93.6798 171.242C94.1628 171.189 94.6487 171.168 95.1344 171.179C95.4628 171.179 95.6348 171.285 95.6348 171.496C95.6333 171.557 95.6194 171.617 95.5938 171.673C95.5683 171.729 95.5317 171.779 95.4863 171.82C94.9545 172.141 94.54 172.414 94.2507 172.625C93.9962 172.776 93.7792 172.982 93.616 173.228C93.4528 173.475 93.3476 173.755 93.3084 174.048C93.304 175.25 93.5714 176.438 94.0904 177.522C94.6196 178.629 95.3747 179.613 96.3074 180.411C97.3486 181.296 98.4857 182.061 99.6974 182.693C100.843 183.26 101.977 183.823 103.111 184.378C104.406 185.034 105.621 185.838 106.732 186.774C107.924 187.802 109.007 188.952 109.961 190.205C110.756 191.196 111.414 192.29 111.916 193.457L110.712 174.048C110.685 173.684 110.321 173.266 109.652 172.836C108.706 172.23 108.206 171.906 108.143 171.847C108.029 171.744 107.953 171.607 107.924 171.457C107.924 171.265 108.124 171.163 108.515 171.163C108.906 171.163 109.199 171.163 109.461 171.191C110.751 171.296 111.596 171.343 111.987 171.343C112.741 171.343 113.492 171.316 114.274 171.253C115.056 171.191 115.478 171.163 115.58 171.163C115.881 171.163 116.022 171.265 116.022 171.457C116.011 171.616 115.938 171.764 115.819 171.871C115.248 172.285 114.794 172.617 114.466 172.848C113.836 173.305 113.523 173.708 113.523 174.06L115.76 209.684C115.783 209.871 115.85 210.049 115.956 210.204C116.062 210.359 116.204 210.487 116.37 210.576C117.062 210.974 117.715 211.369 118.387 211.764L118.372 211.772ZM152.295 210.701C152.067 210.928 151.821 211.137 151.56 211.326C151.325 211.519 151.1 211.725 150.888 211.944C150.626 212.205 150.407 212.448 150.207 212.69C150.168 212.753 150.047 212.913 149.816 213.182C149.738 213.327 149.648 213.397 149.527 213.397C149.378 213.388 149.235 213.335 149.117 213.245C148.301 212.711 147.575 212.052 146.966 211.291C146.077 210.296 145.566 209.021 145.523 207.687C144.804 209.136 143.76 210.4 142.473 211.381C140.889 212.71 138.895 213.452 136.827 213.483C133.24 213.483 130.477 212.289 128.538 209.899C126.851 207.828 126.008 205.222 126.008 202.083C125.998 200.324 126.224 198.571 126.681 196.873C127.098 195.387 127.663 193.947 128.366 192.574C128.636 192.038 129.32 190.807 130.423 188.868C130.524 188.657 130.383 188.415 130.012 188.165C129.582 187.908 129.129 187.691 128.659 187.516C128.307 187.332 127.955 187.153 127.596 186.981C127.529 186.963 127.47 186.924 127.428 186.869C127.386 186.815 127.362 186.749 127.361 186.68C127.361 186.547 127.525 186.433 127.846 186.355C128.166 186.277 128.507 186.203 128.859 186.125C129.533 185.963 130.196 185.759 130.845 185.515C131.537 185.259 132.211 184.956 132.862 184.608L134.716 183.608C134.819 183.561 134.928 183.531 135.04 183.518C135.119 183.518 135.177 183.569 135.24 183.666C135.28 183.729 135.304 183.801 135.31 183.875C135.315 183.95 135.302 184.024 135.271 184.092C135.234 184.236 135.164 184.37 135.068 184.483C133.418 186.587 132.061 188.905 131.036 191.374C129.945 193.991 129.375 196.796 129.359 199.632C129.359 202.782 130.079 205.374 131.517 207.406C132.956 209.438 134.883 210.456 137.296 210.458C139.002 210.438 140.663 209.913 142.071 208.95C143.477 208.093 144.583 206.82 145.234 205.307V187.215C145.234 186.86 144.991 186.457 144.499 186C144.108 185.687 143.717 185.367 143.357 185.023C143.304 184.98 143.261 184.926 143.23 184.866C143.199 184.805 143.181 184.739 143.177 184.671C143.177 184.436 143.377 184.315 143.768 184.315C143.979 184.315 144.55 184.346 145.465 184.405C146.38 184.464 146.939 184.495 147.119 184.495C147.92 184.495 148.546 184.495 148.984 184.448C149.422 184.401 149.938 184.378 150.52 184.315C150.872 184.315 151.052 184.448 151.052 184.706C151.05 184.78 151.033 184.853 151.002 184.92C150.972 184.987 150.927 185.047 150.872 185.097C150.43 185.453 150.059 185.753 149.789 185.984C149.257 186.441 149.007 186.856 149.007 187.231V204.69C149.007 206.343 149.429 207.656 150.27 208.617C150.85 209.172 151.49 209.659 152.178 210.071C152.249 210.107 152.307 210.164 152.345 210.234C152.382 210.304 152.398 210.383 152.389 210.462C152.383 210.544 152.356 210.624 152.311 210.693L152.295 210.701ZM185.109 211.838C185.218 211.977 185.29 212.141 185.32 212.315C185.32 212.506 185.167 212.608 184.878 212.608C184.796 212.608 184.487 212.577 183.9 212.514C183.365 212.456 182.828 212.426 182.289 212.424C181.897 212.428 181.505 212.458 181.116 212.514C180.686 212.577 180.436 212.608 180.354 212.608C179.904 212.608 179.674 212.495 179.674 212.284C179.69 212.163 179.742 212.05 179.822 211.959C179.998 211.704 180.144 211.43 180.256 211.142C180.363 210.834 180.417 210.511 180.417 210.185L180.237 207.347C179.279 209.169 177.854 210.703 176.109 211.794C174.363 212.884 172.359 213.492 170.301 213.554C167.283 213.554 164.735 212.656 162.657 210.861C161.588 209.961 160.736 208.832 160.166 207.557C159.596 206.281 159.322 204.894 159.365 203.497C159.342 202.036 159.651 200.589 160.268 199.265C160.885 197.94 161.794 196.772 162.927 195.849C165.214 193.881 168.148 192.827 171.165 192.89C172.699 192.887 174.216 193.2 175.623 193.809C176.858 194.293 177.966 195.053 178.86 196.032C178.86 195.161 178.372 193.871 177.367 192.151C176.298 190.247 174.894 188.551 173.222 187.145C171.223 185.488 169.166 184.66 167.052 184.663C165.871 184.628 164.702 184.913 163.67 185.488C162.598 186.125 162.055 186.992 162.055 188.095C162.033 188.655 162.203 189.207 162.536 189.658C162.694 189.861 162.899 190.024 163.133 190.133C163.367 190.242 163.623 190.293 163.881 190.283C164.259 190.286 164.625 190.146 164.905 189.892C165.043 189.782 165.155 189.643 165.231 189.484C165.308 189.325 165.347 189.15 165.347 188.974C165.348 188.718 165.314 188.463 165.246 188.216C165.175 187.973 165.117 187.751 165.058 187.551C164.995 187.422 165.007 187.329 165.085 187.289C165.213 187.26 165.345 187.249 165.476 187.258C166.055 187.333 166.588 187.61 166.982 188.04C167.194 188.241 167.363 188.483 167.478 188.752C167.593 189.021 167.652 189.311 167.65 189.603C167.655 190.048 167.558 190.489 167.367 190.891C167.176 191.293 166.895 191.647 166.548 191.925C165.842 192.532 164.94 192.861 164.01 192.851C163.485 192.867 162.962 192.773 162.475 192.575C161.988 192.377 161.548 192.08 161.183 191.702C160.799 191.281 160.503 190.787 160.312 190.25C160.12 189.714 160.038 189.144 160.069 188.575C160.069 186.879 160.961 185.557 162.747 184.608C164.505 183.735 166.451 183.308 168.413 183.365C170.717 183.406 172.957 184.134 174.845 185.456C177.007 186.889 178.78 188.836 180.002 191.124C181.029 193.093 181.769 195.199 182.2 197.377C182.648 199.522 182.982 201.689 183.201 203.869C183.513 206.628 183.783 208.516 183.982 209.536C184.082 210.058 184.271 210.559 184.542 211.017C184.847 211.447 185.038 211.701 185.109 211.838ZM180.131 202.36C180.168 201.341 179.966 200.327 179.541 199.4C179.116 198.473 178.48 197.659 177.683 197.021C176.026 195.689 173.875 195.032 171.24 195.032C169.156 195.003 167.139 195.764 165.594 197.162C164.826 197.808 164.212 198.615 163.796 199.527C163.379 200.439 163.171 201.432 163.185 202.434C163.173 203.494 163.387 204.545 163.815 205.515C164.243 206.485 164.873 207.352 165.664 208.059C167.231 209.557 169.325 210.38 171.494 210.349C174.102 210.349 176.186 209.602 177.773 208.117C178.551 207.379 179.164 206.484 179.57 205.491C179.976 204.499 180.168 203.432 180.131 202.36ZM198.719 175.916C198.723 176.248 198.655 176.577 198.52 176.881C198.386 177.184 198.187 177.455 197.937 177.675C197.436 178.153 196.766 178.414 196.072 178.402C195.735 178.406 195.4 178.338 195.091 178.203C194.782 178.069 194.504 177.87 194.278 177.62C194.04 177.378 193.852 177.091 193.726 176.775C193.6 176.46 193.537 176.123 193.543 175.783C193.536 175.444 193.602 175.107 193.737 174.795C193.872 174.484 194.072 174.205 194.325 173.977C194.822 173.496 195.49 173.23 196.182 173.239C196.52 173.232 196.855 173.299 197.165 173.434C197.474 173.568 197.751 173.769 197.977 174.02C198.459 174.532 198.719 175.213 198.7 175.916H198.719ZM199.365 211.67C199.547 211.815 199.67 212.02 199.713 212.248C199.713 212.479 199.502 212.592 199.071 212.592C198.712 212.592 198.422 212.592 198.188 212.561C196.976 212.459 196.174 212.409 195.783 212.409C195.068 212.409 194.497 212.409 194.055 212.471C193.613 212.534 193.112 212.549 192.542 212.592C192.068 212.592 191.838 212.471 191.838 212.237C191.881 212.033 191.983 211.847 192.131 211.701C192.62 211.31 192.983 211.005 193.222 210.783C193.405 210.659 193.559 210.497 193.675 210.31C193.791 210.122 193.866 209.911 193.894 209.692V189.81C193.894 188.829 193.664 188.165 193.191 187.833C192.581 187.622 192.158 187.469 191.928 187.387C191.697 187.305 191.576 187.196 191.576 187.035C191.576 186.875 191.67 186.793 191.857 186.645C192.162 186.435 192.481 186.247 192.811 186.082C193.472 185.726 193.984 185.433 194.375 185.191C195.298 184.628 196.022 184.143 196.53 183.756C197.038 183.369 197.382 183.131 197.515 183.041C197.601 182.965 197.705 182.913 197.816 182.889C198.086 182.889 198.176 183.072 198.074 183.428C197.94 184.141 197.847 184.861 197.797 185.585C197.703 186.594 197.664 187.786 197.664 189.169V209.739C197.692 209.946 197.762 210.145 197.869 210.324C197.977 210.502 198.12 210.657 198.289 210.779C198.61 211.088 198.974 211.389 199.345 211.67H199.365ZM244.725 194.305C244.725 196.89 244.074 199.639 242.77 202.552C241.507 205.341 239.832 207.925 237.8 210.216C237.863 210.216 237.965 210.216 238.113 210.239C238.262 210.263 238.453 210.239 238.715 210.239C239.292 210.243 239.868 210.209 240.44 210.138C241.025 210.054 241.58 209.826 242.055 209.473C242.367 209.219 242.688 208.946 243.028 208.692C243.047 208.664 243.071 208.641 243.099 208.623C243.127 208.605 243.158 208.592 243.191 208.587C243.224 208.581 243.257 208.582 243.29 208.589C243.322 208.596 243.353 208.61 243.38 208.629C243.43 208.685 243.466 208.751 243.485 208.823C243.504 208.895 243.506 208.971 243.49 209.043C243.439 209.434 243.38 209.825 243.329 210.216C243.289 210.493 243.265 210.772 243.259 211.052C243.256 211.414 243.273 211.775 243.31 212.135C243.341 212.416 243.38 212.753 243.439 213.124C243.497 213.495 243.411 213.628 243.239 213.628C243.072 213.616 242.916 213.543 242.798 213.425C242.414 213.172 242 212.968 241.566 212.819C241.158 212.678 240.738 212.573 240.311 212.506C239.701 212.434 239.087 212.404 238.473 212.416C237.902 212.416 237.46 212.416 237.12 212.416C236.78 212.416 236.338 212.479 235.802 212.557C235.734 212.57 235.665 212.578 235.595 212.581H235.392C235.02 212.581 234.833 212.448 234.833 212.19C234.861 211.997 234.933 211.814 235.044 211.654C236.019 210.143 236.869 208.697 237.593 207.316C238.464 205.702 239.202 204.02 239.799 202.286C240.38 200.649 240.697 198.93 240.737 197.193C240.737 193.962 240.276 191.448 239.353 189.65C238.258 187.54 236.545 186.486 234.215 186.488C233.272 186.484 232.339 186.679 231.478 187.063C230.58 187.48 229.787 188.095 229.159 188.861C229.554 189.999 229.816 191.18 229.941 192.378C230.097 193.84 230.174 195.309 230.172 196.779C230.172 198.733 229.722 200.973 228.819 203.556C228.103 205.618 227.22 207.618 226.18 209.536C225.316 211.131 224.714 212.108 224.354 212.463C224.303 212.541 224.174 212.584 223.963 212.584C223.654 212.584 223.474 212.522 223.411 212.401C223.38 212.354 223.361 212.3 223.356 212.244C223.351 212.189 223.359 212.132 223.38 212.08C223.501 211.807 223.564 211.635 223.584 211.576C225.307 207.988 226.169 203.215 226.172 197.256C226.172 194.39 225.623 191.943 224.526 189.916C223.353 187.743 221.789 186.664 219.881 186.664C218.577 186.664 217.364 187.205 216.24 188.286C215.287 189.18 214.561 190.288 214.121 191.518V209.684C214.15 209.899 214.225 210.105 214.341 210.288C214.457 210.471 214.611 210.626 214.794 210.744C215.153 211.037 215.517 211.342 215.889 211.635C216.072 211.785 216.197 211.995 216.24 212.229C216.24 212.463 216.025 212.584 215.595 212.584C215.376 212.584 214.813 212.553 213.891 212.491C212.968 212.428 212.416 212.401 212.244 212.401C211.533 212.401 210.962 212.401 210.52 212.463L209.007 212.584C208.553 212.584 208.33 212.471 208.33 212.26C208.363 212.037 208.479 211.835 208.655 211.693C209.124 211.303 209.476 210.998 209.718 210.775C209.894 210.646 210.041 210.483 210.152 210.296C210.262 210.108 210.333 209.9 210.36 209.684V192.175C210.389 191.424 210.266 190.676 209.997 189.974C209.728 189.273 209.32 188.633 208.796 188.095C208.109 187.479 207.347 186.954 206.528 186.531C206.462 186.497 206.407 186.446 206.366 186.383C206.326 186.321 206.302 186.25 206.297 186.176C206.303 186.116 206.323 186.058 206.355 186.008C206.387 185.957 206.43 185.914 206.481 185.882C206.951 185.493 207.4 185.08 207.826 184.643C208.123 184.339 208.346 184.108 208.506 183.924L208.929 183.44C209.058 183.287 209.167 183.217 209.269 183.217C209.395 183.233 209.51 183.298 209.589 183.397C210.417 184.138 211.166 184.962 211.826 185.855C212.858 187.215 213.472 188.388 213.644 189.373C214.236 188.074 215.028 186.875 215.99 185.82C217.554 184.163 219.361 183.334 221.398 183.334C223.011 183.31 224.589 183.809 225.894 184.757C226.936 185.552 227.84 186.512 228.573 187.598C229.284 186.489 230.19 185.517 231.247 184.729C232.421 183.831 233.855 183.341 235.333 183.334C238.704 183.334 241.219 184.647 242.88 187.274C244.1 189.244 244.725 191.577 244.725 194.305Z" fill="url(#paint0_linear_205_312)"/>
<path fill-rule="evenodd" clip-rule="evenodd" d="M218.293 169.089H219.857C220.492 169.121 221.129 169.077 221.753 168.96C221.996 168.881 222.205 168.725 222.348 168.514C222.493 168.28 222.567 168.008 222.559 167.732C222.572 167.421 222.472 167.116 222.277 166.872C222.074 166.647 221.797 166.501 221.495 166.462C221.323 166.439 220.811 166.427 219.955 166.427H218.293V169.089ZM216.174 175.158V164.637H220.623C221.445 164.599 222.268 164.694 223.059 164.918C223.567 165.107 223.996 165.462 224.275 165.927C224.584 166.424 224.743 166.999 224.733 167.584C224.758 168.299 224.512 168.997 224.045 169.538C223.494 170.097 222.762 170.442 221.98 170.511C222.397 170.747 222.777 171.043 223.106 171.391C223.557 171.928 223.961 172.501 224.315 173.106L225.585 175.158H223.063L221.55 172.86C221.212 172.323 220.838 171.808 220.432 171.32C220.259 171.126 220.042 170.976 219.798 170.882C219.449 170.789 219.088 170.75 218.727 170.765H218.293V175.158H216.174ZM220.866 161.194C222.592 161.181 224.282 161.681 225.723 162.631C227.164 163.58 228.29 164.936 228.959 166.526C229.628 168.117 229.809 169.87 229.48 171.563C229.151 173.256 228.325 174.814 227.109 176.038C225.893 177.262 224.341 178.097 222.649 178.438C220.957 178.778 219.202 178.609 217.607 177.951C216.011 177.293 214.647 176.177 213.688 174.743C212.728 173.309 212.216 171.623 212.217 169.898C212.213 168.757 212.434 167.627 212.867 166.573C213.3 165.518 213.937 164.559 214.742 163.75C215.546 162.942 216.502 162.3 217.555 161.861C218.608 161.423 219.737 161.196 220.878 161.194H220.866Z" fill="url(#paint1_linear_205_312)"/>
<path fill-rule="evenodd" clip-rule="evenodd" d="M242.989 171.351L245.144 172.016C244.91 173.085 244.33 174.046 243.494 174.752C242.646 175.367 241.616 175.679 240.569 175.639C239.894 175.659 239.224 175.534 238.601 175.274C237.979 175.014 237.419 174.624 236.96 174.13C236.021 173.124 235.551 171.749 235.548 170.003C235.548 168.158 236.025 166.728 236.968 165.704C237.444 165.196 238.024 164.797 238.668 164.533C239.312 164.269 240.006 164.147 240.702 164.175C241.301 164.15 241.9 164.243 242.463 164.449C243.027 164.655 243.544 164.969 243.986 165.375C244.539 165.944 244.928 166.652 245.112 167.423L242.915 167.951C242.807 167.416 242.518 166.935 242.098 166.587C241.669 166.252 241.136 166.076 240.592 166.091C240.216 166.078 239.842 166.151 239.497 166.304C239.153 166.457 238.849 166.686 238.606 166.974C238.085 167.563 237.824 168.518 237.824 169.839C237.824 171.238 238.078 172.235 238.575 172.829C238.811 173.116 239.11 173.346 239.449 173.5C239.788 173.655 240.157 173.73 240.53 173.72C241.093 173.731 241.639 173.529 242.059 173.153C242.541 172.666 242.86 172.042 242.973 171.367M240.835 161.205C242.56 161.193 244.25 161.694 245.691 162.644C247.131 163.594 248.257 164.95 248.925 166.541C249.593 168.131 249.774 169.884 249.444 171.577C249.115 173.27 248.289 174.827 247.073 176.051C245.856 177.274 244.304 178.109 242.612 178.449C240.92 178.79 239.166 178.62 237.571 177.962C235.975 177.304 234.612 176.188 233.652 174.754C232.693 173.32 232.181 171.634 232.182 169.909C232.176 168.767 232.396 167.635 232.829 166.579C233.262 165.522 233.9 164.561 234.705 163.751C235.51 162.942 236.468 162.299 237.522 161.86C238.577 161.421 239.708 161.194 240.85 161.193L240.835 161.205Z" fill="url(#paint2_linear_205_312)"/>
<path d="M117.043 35.5152L116.996 35.5387V35.3511C117.02 35.398 117.02 35.4683 117.043 35.5152Z" fill="url(#paint3_linear_205_312)"/>
<path d="M138.986 35.3315V35.5387L138.916 35.5152C138.939 35.4449 138.963 35.398 138.986 35.3315Z" fill="url(#paint4_linear_205_312)"/>
<path fill-rule="evenodd" clip-rule="evenodd" d="M113.638 80.5164C113.802 80.5851 113.971 80.6425 114.143 80.6884C119.206 81.0792 123.726 79.555 127.855 76.6901C128.044 76.5542 128.172 76.3492 128.211 76.1195C128.391 73.9164 127.997 71.7043 127.069 69.698C126.842 69.1385 126.404 68.6906 125.85 68.4508C125.295 68.211 124.669 68.1985 124.105 68.4161C123.611 68.5654 123.133 68.7631 122.678 69.0063C120.007 70.3884 117.784 72.5017 116.27 75.0994C115.273 76.8191 114.522 78.6795 113.638 80.5164ZM129.357 88.2394C127.707 89.8223 126.229 91.3114 124.665 92.7184C120.754 96.2672 116.598 99.4291 111.64 101.348C108.059 102.728 104.524 101.516 102.401 98.2918C100.864 95.9467 100.231 93.3437 99.9178 90.6157C99.8123 89.6738 99.7419 88.724 99.5503 87.8017C99.2023 86.1015 98.1935 85.7107 96.782 86.7347C93.6598 89.0597 91.1482 92.1067 89.4623 95.6145C88.3401 97.8501 87.3822 100.168 86.3343 102.435C86.088 102.966 86.2404 103.216 86.7253 103.412C88.3441 104.123 89.8221 103.697 91.2336 102.857C93.5288 101.489 95.1867 99.4408 96.8797 97.4319C97.2707 96.9746 97.6617 96.5095 98.2365 95.8021C98.561 97.7289 98.8778 99.39 99.1124 101.059C99.3352 102.622 99.5034 104.213 99.6128 105.792C99.6342 106.267 99.5203 106.739 99.2844 107.152C97.0048 111.01 93.7673 114.031 90.6275 117.146C88.8797 118.881 87.2923 120.781 85.6188 122.598C85.3723 122.818 85.2121 123.119 85.167 123.446C85.1219 123.773 85.1947 124.106 85.3724 124.384C89.7673 133.655 96.7976 140.049 106.209 143.899C110.44 145.605 114.895 146.693 119.437 147.131C123.703 147.56 128.006 147.468 132.25 146.857C138.588 145.966 144.68 144.321 150.381 141.354C155.129 138.833 159.419 135.529 163.069 131.583C167.394 127.011 170.889 121.848 174.017 116.395C174.133 116.155 174.324 115.959 174.561 115.836C174.295 117.247 174.084 118.67 173.751 120.065C172.062 127.214 169.059 133.745 164.43 139.455C159.234 145.891 152.413 150.824 144.672 153.744C138.507 156.13 131.936 157.295 125.325 157.172C117.893 157.018 110.568 155.371 103.785 152.329C97.8729 149.738 92.4965 146.349 88.1212 141.507C84.6217 137.641 82.2014 133.217 81.5601 127.964C80.9939 123.466 81.9241 118.906 84.2072 114.988C84.8524 113.855 85.5562 112.753 86.2326 111.631C86.1974 111.588 86.1662 111.518 86.1232 111.51C84.1877 111.119 83.3861 109.782 82.9638 107.945C82.0137 103.787 82.6784 99.8004 84.0547 95.8842C86.1271 90.0021 88.9345 84.5499 93.4584 80.1608C94.5742 79.1277 95.7822 78.1988 97.0674 77.3858C98.5024 76.4322 99.7145 76.7097 100.434 78.3043C101.085 79.7786 101.561 81.3237 101.853 82.9084C102.287 85.183 102.42 87.5163 102.827 89.7988C103.32 92.5347 104.946 94.3365 108.102 93.6799C111.175 93.0389 113.693 91.2684 116.258 89.4002C114.631 89.1461 113.13 88.8726 111.621 88.6967C110.948 88.6185 110.643 88.3488 110.581 87.6961C110.092 82.5879 110.166 77.5343 112.168 72.7114C114.146 67.8054 117.617 63.6459 122.092 60.8221C123.056 60.2489 124.132 59.8902 125.247 59.7707C127.202 59.5362 128.375 60.3687 129.11 62.2565C130.021 64.5194 130.307 66.9192 130.534 69.3228C130.69 70.9839 130.788 72.6528 130.925 74.4819C133.947 72.2971 136.203 69.5925 138.6 66.6651C138.647 67.2553 138.698 67.6227 138.702 67.994C138.725 70.5657 138.76 73.1335 138.729 75.7052C138.727 76.2383 138.568 76.7589 138.272 77.2021C136.59 79.4885 134.897 81.7671 133.102 83.9636C132.422 84.8 131.929 85.484 132.121 86.6995C132.532 89.4901 132.856 92.3041 134.056 94.868C134.684 96.2171 135.551 97.4418 136.614 98.4833C138.401 100.187 140.88 99.8903 142.53 98.0494C144.094 96.3141 144.661 94.1801 145.012 91.9524C145.161 91.0183 145.259 90.0724 145.458 89.1461C145.591 88.8246 145.78 88.5294 146.017 88.2746C146.217 88.5169 146.506 88.724 146.596 89.0015C147.097 90.5297 147.546 92.0696 148.031 93.6681C148.134 93.6412 148.232 93.5976 148.32 93.5392C151.3 90.9792 153.978 88.1651 155.691 84.5499C156.016 83.8929 156.29 83.2121 156.512 82.5136C156.624 82.1163 156.616 81.6948 156.488 81.302C153.837 74.0598 150.119 67.3725 145.9 60.955C142.023 55.1756 137.846 49.6025 133.388 44.2584C131.362 41.7805 129.361 39.283 127.245 36.6683C126.6 37.3835 125.963 38.0558 125.364 38.7593C118.451 46.9044 111.718 55.194 105.423 63.8276C103.202 66.8723 100.473 69.0883 96.8562 70.1592C96.6945 70.2196 96.5177 70.2264 96.3519 70.1788C105.568 54.0958 116.223 39.0446 127.828 24.4272C128.688 25.7014 129.392 26.7723 130.143 27.8471C134.885 34.7688 139.656 41.6749 144.367 48.6201C148.168 54.2287 151.796 59.9544 154.85 66.0202C157.27 70.8315 159.386 75.7912 160.219 81.1574C161.224 87.6531 159.558 93.504 155.374 98.5184C153.626 100.617 151.534 102.427 149.56 104.322C148.684 105.163 148.488 105.104 147.749 104.045C147.358 104.639 147.007 105.217 146.608 105.776C144.555 108.633 141.188 109.352 138.139 107.617C135.793 106.284 134.369 104.186 133.302 101.809C131.509 97.6842 130.239 93.3514 129.521 88.9116C129.486 88.7592 129.439 88.5951 129.357 88.2433V88.2394Z" fill="url(#paint5_linear_205_312)"/>
<path fill-rule="evenodd" clip-rule="evenodd" d="M127.736 13.2924C126.321 15.3013 124.929 17.15 123.666 19.0846C116.894 29.4614 110.047 39.799 103.447 50.2735C99.6778 56.2572 96.3191 62.5028 92.8001 68.6429C91.176 71.5027 88.5932 73.6968 85.5078 74.8377C85.5977 74.5524 85.6408 74.3296 85.7307 74.1264C89.7463 65.1762 94.3328 56.5387 99.0718 47.9402C103.428 40.027 107.859 32.1543 112.366 24.3219C116.894 16.4426 121.504 8.60235 126.755 1.17642C127.017 0.809033 127.31 0.461187 127.654 0.00390625C128.069 0.590164 128.436 1.09044 128.788 1.61416C134.329 10.0563 139.901 18.4827 145.394 26.9561C150.877 35.3331 155.929 43.9845 160.53 52.8765C165.985 63.5268 170.52 74.5446 173.304 86.2424C174.086 89.4902 173.902 92.7342 173.644 95.9938C173.389 99.0376 172.77 102.04 171.799 104.936C169.394 112.21 165.152 118.225 159.443 123.216C153.152 128.746 145.824 132.463 137.903 134.976C132.145 136.82 126.181 137.946 120.147 138.329C118.619 138.454 117.083 138.471 115.553 138.38C116.335 138.13 117.081 137.872 117.852 137.63C124.686 135.532 131.264 132.678 137.465 129.121C146.11 124.087 153.695 117.822 159.646 109.673C164.377 103.197 167.654 96.0641 169.03 88.1145C169.13 87.0891 169.006 86.0543 168.667 85.0816C166.422 77.3742 163.314 70.0148 159.717 62.8546C156.342 56.1479 152.615 49.6248 148.55 43.3127C144.988 37.7667 141.273 32.3223 137.539 26.8975C134.634 22.6725 131.596 18.5414 128.616 14.3711C128.374 14.035 128.108 13.7106 127.775 13.2807" fill="url(#paint6_linear_205_312)"/>
<path fill-rule="evenodd" clip-rule="evenodd" d="M116.08 105.284C115.889 108.247 115.721 111.018 115.513 113.785C115.494 113.928 115.446 114.066 115.372 114.19C115.298 114.314 115.2 114.422 115.083 114.508C110.688 117.278 106.282 120.034 101.863 122.778C101.775 122.825 101.678 122.855 101.578 122.864C101.578 120.109 101.558 117.361 101.609 114.617C101.609 114.328 102 113.969 102.309 113.781C105.3 111.913 108.315 110.08 111.302 108.231C112.866 107.277 114.395 106.316 116.065 105.284" fill="url(#paint7_linear_205_312)"/>
<path fill-rule="evenodd" clip-rule="evenodd" d="M149.68 76.608C148.75 79.1484 147.886 81.5286 146.983 83.8932C146.917 84.0102 146.823 84.109 146.71 84.1807C146.597 84.2524 146.467 84.2946 146.333 84.3036C144.531 83.8893 142.744 83.4203 140.859 82.9396L143.987 74.7007L149.68 76.608Z" fill="url(#paint8_linear_205_312)"/>
<path fill-rule="evenodd" clip-rule="evenodd" d="M132.293 117.791C132.191 117.759 132.152 117.759 132.132 117.74C130.318 115.958 129.634 117.079 129.321 118.846C129.059 120.351 128.809 121.855 128.582 123.364C128.394 124.865 128.125 126.355 127.776 127.827C127.679 127.605 127.585 127.378 127.483 127.151C126.662 125.287 125.841 123.419 125.004 121.558C124.817 121.14 124.613 120.847 123.984 120.988C123.12 121.175 121.212 119.401 121.157 118.494C121.096 117.886 121.096 117.273 121.157 116.665C121.27 115.836 121.821 115.492 122.521 115.938C123.363 116.416 124.102 117.053 124.699 117.814C125.685 119.233 126.459 120.796 127.323 122.301C127.452 122.531 127.565 122.77 127.749 123.126C128.038 121.23 128.261 119.483 128.59 117.755C128.781 116.797 129.057 115.858 129.415 114.949C129.993 113.452 131.002 113.253 132.128 114.355C133.161 115.367 133.172 115.59 132.277 117.791" fill="url(#paint9_linear_205_312)"/>
<path fill-rule="evenodd" clip-rule="evenodd" d="M111.401 124.99C111.897 125.94 111.937 126.554 111.401 127.37C110.556 128.695 109.966 130.184 109.285 131.611C109.198 131.84 109.152 132.082 109.149 132.326C109.067 133.421 109.501 133.89 110.533 133.518C112.066 132.971 113.524 132.213 115.01 131.533C115.259 131.393 115.521 131.277 115.792 131.185C114.976 132.794 113.615 134.061 111.952 134.761C110.998 135.211 109.954 135.801 108.957 135.015C107.96 134.23 108.03 133.014 108.21 131.889C108.343 131.052 108.601 130.235 108.793 129.399C108.765 129.368 108.73 129.297 108.687 129.289C106.893 128.957 106.459 128.285 107.053 126.554C107.319 125.873 107.647 125.219 108.034 124.599C108.347 124.052 108.797 123.654 109.454 124.052C110.111 124.451 109.938 125.018 109.716 125.506C109.239 125.557 108.707 125.463 108.433 125.69C108.134 126.008 107.963 126.426 107.952 126.862C107.952 127.058 108.398 127.453 108.636 127.445C109.099 127.457 109.55 127.304 109.911 127.015C110.452 126.376 110.941 125.695 111.373 124.979" fill="url(#paint10_linear_205_312)"/>
<path fill-rule="evenodd" clip-rule="evenodd" d="M131.373 50.1484C131.119 49.9686 130.982 49.867 130.822 49.7575C130.04 49.2377 129.501 49.3667 129.289 50.3321C128.98 51.7274 128.769 53.1461 128.543 54.557C128.417 55.5463 128.229 56.5267 127.98 57.4922C127.589 56.5425 127.197 55.5849 126.806 54.6352C126.615 54.1896 126.396 53.7519 126.169 53.322C126.076 53.09 125.921 52.8879 125.721 52.7377C125.521 52.5874 125.284 52.4949 125.035 52.47C123.616 52.2667 122.717 50.6096 123.127 49.2377C123.307 48.6319 123.796 48.5342 124.191 48.8469C124.937 49.404 125.603 50.0616 126.169 50.8011C126.845 51.8634 127.463 52.962 128.019 54.0919C128.105 53.5565 128.148 53.1969 128.222 52.8413C128.539 51.2779 128.812 49.7341 129.215 48.2098C129.375 47.5923 129.716 46.8692 130.619 47.1585C131.022 47.2874 131.359 47.5678 131.559 47.9405C131.758 48.3131 131.806 48.7489 131.69 49.1557C131.612 49.4449 131.514 49.7302 131.389 50.1249" fill="url(#paint11_linear_205_312)"/>
<path fill-rule="evenodd" clip-rule="evenodd" d="M126.666 102.638C126.388 102.966 126.083 103.275 125.837 103.627C125.028 104.68 124.284 105.782 123.608 106.925C122.99 108.098 123.076 108.981 124.582 109.481C124.727 109.522 124.868 109.58 125 109.653C125.532 109.966 126.466 110.255 126.498 110.619C126.564 111.4 126.189 112.26 125.958 113.073C125.923 113.19 125.684 113.292 125.528 113.316C125.347 113.324 125.167 113.297 124.996 113.237C121.868 112.385 121.004 110.607 122.161 107.523C122.782 105.827 123.835 104.323 125.215 103.158C125.611 102.87 126.029 102.615 126.466 102.396L126.666 102.638Z" fill="url(#paint12_linear_205_312)"/>
<path fill-rule="evenodd" clip-rule="evenodd" d="M127.737 40.6704C127.11 41.476 126.53 42.3163 125.997 43.1874C125.309 44.4615 125.466 44.7117 126.779 45.2901C127.233 45.4934 127.972 45.5676 127.687 46.3649C127.526 46.8066 127.71 47.5765 126.85 47.5374C125.802 47.4866 124.863 46.7558 124.719 45.8646C124.398 43.9456 126.107 41.2489 127.726 40.6704" fill="url(#paint13_linear_205_312)"/>
<path d="M40.5422 211.955C40.5883 212.003 40.6195 212.062 40.6321 212.127C40.6482 212.172 40.6575 212.22 40.6595 212.268C40.6595 212.479 40.4796 212.592 40.1277 212.592C39.9401 212.592 39.3457 212.592 38.3839 212.51C37.422 212.428 36.7377 212.409 36.3663 212.409C35.7368 212.409 34.8022 212.459 33.5471 212.561C33.2146 212.595 32.8801 212.606 32.5462 212.592C32.2138 212.592 32.0418 212.471 32.0418 212.237C32.0398 212.192 32.0472 212.147 32.0633 212.106C32.0795 212.064 32.1041 212.026 32.1356 211.994C32.1942 211.924 32.6126 211.572 33.3946 210.966C34.0085 210.49 34.3096 210.067 34.3096 209.692C34.3487 209.481 34.3995 209.169 34.4503 208.762C34.5027 208.292 34.5262 207.82 34.5207 207.347C34.5192 205.181 34.1761 203.028 33.5041 200.969C32.4902 197.868 30.8402 195.013 28.6596 192.585C27.2916 191.053 25.7116 189.724 23.9675 188.638C22.1173 187.501 20.1412 186.583 18.079 185.902C16.9153 187.985 15.958 190.176 15.2207 192.445C14.2333 195.293 13.7054 198.279 13.6567 201.293C13.6567 204.292 13.7271 206.442 13.8678 207.742C14.0582 209.846 14.5863 211.906 15.4318 213.843C15.9643 214.955 16.7504 215.927 17.727 216.68C18.3874 217.185 19.0975 217.621 19.8463 217.982C20.077 218.103 20.1943 218.236 20.1943 218.396C20.1943 218.557 20.0965 218.631 19.9049 218.689C19.3341 218.873 18.7906 219.053 18.2705 219.256C17.6577 219.485 17.0573 219.746 16.4719 220.038C15.8656 220.337 15.2849 220.686 14.7359 221.081C14.4074 221.324 14.0946 221.566 13.8053 221.82C13.6966 221.919 13.5602 221.983 13.4143 222.004C13.2422 222.004 13.1523 221.84 13.1523 221.527C13.1523 220.921 13.121 220.214 13.0624 219.428C13.0037 218.642 12.8629 217.388 12.6205 215.672C12.2686 213.64 11.948 211.626 11.6586 209.63C11.3753 207.773 11.2276 205.899 11.2168 204.021C11.2165 200.415 11.6817 196.823 12.601 193.336C13.2896 190.539 14.3412 187.844 15.729 185.32C15.2989 185.238 14.8453 185.179 14.3644 185.116C13.8115 185.053 13.2552 185.023 12.6987 185.026C11.5279 185.028 10.3608 185.159 9.21877 185.417C8.08964 185.648 7.01558 186.093 6.05554 186.731C4.88252 187.54 4.26082 188.485 4.26082 189.568C4.26082 190.651 4.71439 191.346 5.6137 191.522C5.72901 191.549 5.84743 191.559 5.96561 191.553C6.34462 191.56 6.71761 191.458 7.04087 191.26C7.1883 191.161 7.31153 191.029 7.40151 190.876C7.4915 190.722 7.54596 190.55 7.56091 190.373C7.61174 189.982 7.7134 189.775 7.87371 189.775C8.03403 189.775 8.08486 189.889 8.15524 190.1C8.22906 190.369 8.26201 190.649 8.25299 190.928C8.25114 191.125 8.23151 191.321 8.19434 191.514C8.15524 191.714 8.11223 191.905 8.07313 192.108C7.83508 192.828 7.38872 193.46 6.79063 193.926C6.14219 194.424 5.34029 194.681 4.5228 194.653C4.41693 194.672 4.30971 194.682 4.20217 194.684C3.70472 194.691 3.21168 194.59 2.75727 194.387C2.30287 194.185 1.89798 193.886 1.57071 193.512C0.840199 192.688 0.456354 191.614 0.499353 190.514C0.499353 188.481 1.59547 186.788 3.78771 185.433C5.29215 184.524 6.94759 183.893 8.67527 183.569C9.36574 183.442 10.0628 183.354 10.7632 183.307C11.527 183.244 12.309 183.213 13.1093 183.213C14.3606 183.186 15.6116 183.284 16.8434 183.506C19.6938 179.719 22.8297 176.792 26.2822 174.72C30.1969 172.373 34.6835 171.152 39.248 171.191C39.897 171.191 40.2216 171.281 40.2216 171.453C40.2216 171.535 40.1473 171.644 40.0104 171.785C39.4629 172.351 39.0417 173.026 38.7749 173.766C38.5442 174.595 38.423 176.111 38.423 178.3V209.743C38.423 210.134 38.7162 210.525 39.3066 210.986C39.7356 211.287 40.1481 211.61 40.5422 211.955ZM34.3096 197.029V173.653C31.2733 174.282 28.407 175.554 25.903 177.382C24.577 178.281 23.3374 179.302 22.2001 180.43C21.0856 181.609 20.0817 182.887 19.2011 184.249C20.797 184.777 22.3413 185.449 23.815 186.258C25.1533 187.012 26.4224 187.883 27.6077 188.861C28.9734 189.932 30.2153 191.153 31.3106 192.499C32.4302 193.926 33.4331 195.441 34.3096 197.029ZM55.8149 211.67C55.9974 211.815 56.1222 212.02 56.1668 212.248C56.1668 212.479 55.9556 212.592 55.5255 212.592C55.1619 212.592 54.8726 212.592 54.6419 212.561C53.4297 212.459 52.6243 212.409 52.2333 212.409C51.5216 212.409 50.9508 212.409 50.5089 212.471L48.9918 212.592C48.5226 212.592 48.2919 212.471 48.2919 212.237C48.3328 212.033 48.4336 211.847 48.5813 211.701C49.0739 211.31 49.4337 211.005 49.6761 210.783C49.8579 210.658 50.0115 210.496 50.1273 210.308C50.2431 210.121 50.3185 209.911 50.3486 209.692V178.034C50.3661 177.577 50.3556 177.119 50.3173 176.663C50.2782 176.33 50.0475 176.19 49.6174 176.248C49.2218 176.375 48.8514 176.569 48.5226 176.823C48.2048 177.062 47.8612 177.265 47.4982 177.429C47.2088 177.53 47.0564 177.429 47.0564 177.104C47.081 176.96 47.143 176.826 47.2362 176.713C47.7393 176.128 48.2787 175.574 48.8511 175.056C49.6331 174.31 50.2196 173.704 50.6692 173.251C51.3418 172.582 52.0651 171.785 52.8471 170.855C53.1705 170.446 53.5233 170.062 53.9029 169.706C53.9519 169.657 54.0146 169.624 54.0827 169.612C54.1304 169.595 54.1806 169.585 54.2313 169.584C54.4033 169.584 54.4933 169.745 54.4933 170.057C54.3916 170.694 54.3134 171.472 54.243 172.402C54.1726 173.333 54.1414 174.333 54.1414 175.381V209.743C54.1684 209.95 54.2376 210.148 54.3445 210.327C54.4514 210.506 54.5939 210.661 54.7631 210.783C55.0993 211.088 55.4591 211.389 55.8305 211.67H55.8149ZM79.4433 194.184C79.4823 194.42 79.5019 194.659 79.502 194.899C79.5209 195.445 79.4222 195.989 79.2126 196.494C78.8569 197.459 78.1525 198.257 77.2381 198.729C76.1501 199.25 74.9517 199.498 73.7464 199.452C72.8526 199.431 71.9637 199.313 71.0954 199.101C68.9096 198.585 67.4747 198.319 66.7943 198.319C66.0824 198.29 65.3797 198.488 64.7884 198.886C64.4049 199.152 64.117 199.534 63.9673 199.976C63.897 200.23 63.7953 200.367 63.6741 200.367C63.5529 200.367 63.4669 200.238 63.3926 199.976C63.3221 199.675 63.2893 199.367 63.2948 199.058C63.2918 198.619 63.3457 198.181 63.4551 197.756C63.5865 197.296 63.8012 196.864 64.0885 196.482C64.5288 195.929 65.1018 195.496 65.7542 195.223C66.5489 194.899 67.4024 194.743 68.2606 194.766C69.4576 194.822 70.6414 195.04 71.7796 195.415C72.9378 195.796 74.143 196.016 75.3612 196.068C76.214 196.098 77.0519 195.839 77.7385 195.333C78.177 194.974 78.5478 194.54 78.8334 194.051C78.8534 193.987 78.8919 193.931 78.9442 193.889C78.9964 193.847 79.0599 193.822 79.1266 193.816C79.3182 193.828 79.4199 193.949 79.459 194.184H79.4433ZM118.372 211.772C118.455 211.82 118.525 211.889 118.576 211.972C118.626 212.054 118.656 212.148 118.661 212.244C118.661 212.479 118.481 212.6 118.129 212.6C117.777 212.6 117.449 212.6 117.199 212.569C115.895 212.467 115.033 212.416 114.61 212.416C113.828 212.416 113.234 212.416 112.773 212.479L111.209 212.6C110.798 212.6 110.587 212.487 110.587 212.276C110.587 212.155 110.696 211.983 110.919 211.772C111.482 211.381 111.901 211.064 112.182 210.853C112.706 210.439 112.964 210.071 112.964 209.681L112.393 200.625C111.994 201.657 111.329 202.566 110.466 203.259C109.532 204.07 108.34 204.522 107.103 204.533C105.978 204.56 104.876 204.208 103.975 203.533C103.552 203.216 103.212 202.802 102.985 202.325C102.757 201.849 102.649 201.324 102.669 200.797C102.654 199.991 102.958 199.212 103.514 198.628C103.768 198.34 104.082 198.111 104.434 197.956C104.786 197.801 105.166 197.723 105.551 197.729C105.812 197.723 106.073 197.736 106.333 197.768C106.523 197.797 106.7 197.886 106.837 198.022C106.948 198.11 107.023 198.235 107.048 198.374C107.048 198.495 106.954 198.553 106.775 198.553C106.566 198.548 106.359 198.594 106.172 198.686C105.988 198.797 105.844 198.964 105.762 199.163C105.644 199.437 105.589 199.733 105.602 200.031C105.593 200.211 105.614 200.392 105.664 200.566C105.732 200.847 105.862 201.11 106.044 201.335C106.226 201.56 106.455 201.742 106.716 201.868C107.138 202.068 107.601 202.169 108.069 202.161C108.519 202.158 108.96 202.039 109.35 201.816C109.741 201.593 110.067 201.273 110.298 200.887C110.891 200.027 111.2 199.003 111.181 197.959C111.204 196.948 110.932 195.951 110.399 195.091C109.736 194.165 108.946 193.336 108.053 192.628C106.893 191.648 105.625 190.805 104.272 190.115C100.569 188.184 98.4501 187.024 97.9183 186.652C96.6402 185.711 95.4901 184.607 94.497 183.369C93.6729 182.366 92.9755 181.264 92.4208 180.09L90.1725 209.673C90.1725 210.028 90.4228 210.411 90.935 210.845C91.3455 211.177 91.76 211.502 92.1705 211.822C92.2352 211.878 92.2875 211.946 92.3238 212.023C92.3602 212.099 92.38 212.183 92.3817 212.268C92.3817 212.479 92.2096 212.592 91.8773 212.592C91.3756 212.595 90.8742 212.567 90.3758 212.51C89.5938 212.44 88.9799 212.409 88.5264 212.409C87.9555 212.409 87.3025 212.44 86.5714 212.499C85.8402 212.557 85.3788 212.592 85.2497 212.592C84.8783 212.592 84.6867 212.491 84.6867 212.299C84.7109 212.113 84.8045 211.943 84.9487 211.822C85.0464 211.744 85.5626 211.432 86.4814 210.845C87.1852 210.408 87.5567 210.025 87.5958 209.673L90.3055 174.048C90.3055 173.657 90.0239 173.266 89.4843 172.836C89.0308 172.524 88.5811 172.199 88.1276 171.859C88.0561 171.816 87.9968 171.755 87.9551 171.683C87.9134 171.61 87.8907 171.528 87.889 171.445C87.889 171.191 88.151 171.089 88.6711 171.152C89.0229 171.152 89.3162 171.152 89.543 171.179C90.716 171.285 91.4706 171.332 91.7834 171.332C92.2722 171.332 92.9056 171.304 93.6798 171.242C94.1628 171.189 94.6487 171.168 95.1344 171.179C95.4628 171.179 95.6348 171.285 95.6348 171.496C95.6333 171.557 95.6194 171.617 95.5938 171.673C95.5683 171.729 95.5317 171.779 95.4863 171.82C94.9545 172.141 94.54 172.414 94.2507 172.625C93.9962 172.776 93.7792 172.982 93.616 173.228C93.4528 173.475 93.3476 173.755 93.3084 174.048C93.304 175.25 93.5714 176.438 94.0904 177.522C94.6196 178.629 95.3747 179.613 96.3074 180.411C97.3486 181.296 98.4857 182.061 99.6974 182.693C100.843 183.26 101.977 183.823 103.111 184.378C104.406 185.034 105.621 185.838 106.732 186.774C107.924 187.802 109.007 188.952 109.961 190.205C110.756 191.196 111.414 192.29 111.916 193.457L110.712 174.048C110.685 173.684 110.321 173.266 109.652 172.836C108.706 172.23 108.206 171.906 108.143 171.847C108.029 171.744 107.953 171.607 107.924 171.457C107.924 171.265 108.124 171.163 108.515 171.163C108.906 171.163 109.199 171.163 109.461 171.191C110.751 171.296 111.596 171.343 111.987 171.343C112.741 171.343 113.492 171.316 114.274 171.253C115.056 171.191 115.478 171.163 115.58 171.163C115.881 171.163 116.022 171.265 116.022 171.457C116.011 171.616 115.938 171.764 115.819 171.871C115.248 172.285 114.794 172.617 114.466 172.848C113.836 173.305 113.523 173.708 113.523 174.06L115.76 209.684C115.783 209.871 115.85 210.049 115.956 210.204C116.062 210.359 116.204 210.487 116.37 210.576C117.062 210.974 117.715 211.369 118.387 211.764L118.372 211.772ZM152.295 210.701C152.067 210.928 151.821 211.137 151.56 211.326C151.325 211.519 151.1 211.725 150.888 211.944C150.626 212.205 150.407 212.448 150.207 212.69C150.168 212.753 150.047 212.913 149.816 213.182C149.738 213.327 149.648 213.397 149.527 213.397C149.378 213.388 149.235 213.335 149.117 213.245C148.301 212.711 147.575 212.052 146.966 211.291C146.077 210.296 145.566 209.021 145.523 207.687C144.804 209.136 143.76 210.4 142.473 211.381C140.889 212.71 138.895 213.452 136.827 213.483C133.24 213.483 130.477 212.289 128.538 209.899C126.851 207.828 126.008 205.222 126.008 202.083C125.998 200.324 126.224 198.571 126.681 196.873C127.098 195.387 127.663 193.947 128.366 192.574C128.636 192.038 129.32 190.807 130.423 188.868C130.524 188.657 130.383 188.415 130.012 188.165C129.582 187.908 129.129 187.691 128.659 187.516C128.307 187.332 127.955 187.153 127.596 186.981C127.529 186.963 127.47 186.924 127.428 186.869C127.386 186.815 127.362 186.749 127.361 186.68C127.361 186.547 127.525 186.433 127.846 186.355C128.166 186.277 128.507 186.203 128.859 186.125C129.533 185.963 130.196 185.759 130.845 185.515C131.537 185.259 132.211 184.956 132.862 184.608L134.716 183.608C134.819 183.561 134.928 183.531 135.04 183.518C135.119 183.518 135.177 183.569 135.24 183.666C135.28 183.729 135.304 183.801 135.31 183.875C135.315 183.95 135.302 184.024 135.271 184.092C135.234 184.236 135.164 184.37 135.068 184.483C133.418 186.587 132.061 188.905 131.036 191.374C129.945 193.991 129.375 196.796 129.359 199.632C129.359 202.782 130.079 205.374 131.517 207.406C132.956 209.438 134.883 210.456 137.296 210.458C139.002 210.438 140.663 209.913 142.071 208.95C143.477 208.093 144.583 206.82 145.234 205.307V187.215C145.234 186.86 144.991 186.457 144.499 186C144.108 185.687 143.717 185.367 143.357 185.023C143.304 184.98 143.261 184.926 143.23 184.866C143.199 184.805 143.181 184.739 143.177 184.671C143.177 184.436 143.377 184.315 143.768 184.315C143.979 184.315 144.55 184.346 145.465 184.405C146.38 184.464 146.939 184.495 147.119 184.495C147.92 184.495 148.546 184.495 148.984 184.448C149.422 184.401 149.938 184.378 150.52 184.315C150.872 184.315 151.052 184.448 151.052 184.706C151.05 184.78 151.033 184.853 151.002 184.92C150.972 184.987 150.927 185.047 150.872 185.097C150.43 185.453 150.059 185.753 149.789 185.984C149.257 186.441 149.007 186.856 149.007 187.231V204.69C149.007 206.343 149.429 207.656 150.27 208.617C150.85 209.172 151.49 209.659 152.178 210.071C152.249 210.107 152.307 210.164 152.345 210.234C152.382 210.304 152.398 210.383 152.389 210.462C152.383 210.544 152.356 210.624 152.311 210.693L152.295 210.701ZM185.109 211.838C185.218 211.977 185.29 212.141 185.32 212.315C185.32 212.506 185.167 212.608 184.878 212.608C184.796 212.608 184.487 212.577 183.9 212.514C183.365 212.456 182.828 212.426 182.289 212.424C181.897 212.428 181.505 212.458 181.116 212.514C180.686 212.577 180.436 212.608 180.354 212.608C179.904 212.608 179.674 212.495 179.674 212.284C179.69 212.163 179.742 212.05 179.822 211.959C179.998 211.704 180.144 211.43 180.256 211.142C180.363 210.834 180.417 210.511 180.417 210.185L180.237 207.347C179.279 209.169 177.854 210.703 176.109 211.794C174.363 212.884 172.359 213.492 170.301 213.554C167.283 213.554 164.735 212.656 162.657 210.861C161.588 209.961 160.736 208.832 160.166 207.557C159.596 206.281 159.322 204.894 159.365 203.497C159.342 202.036 159.651 200.589 160.268 199.265C160.885 197.94 161.794 196.772 162.927 195.849C165.214 193.881 168.148 192.827 171.165 192.89C172.699 192.887 174.216 193.2 175.623 193.809C176.858 194.293 177.966 195.053 178.86 196.032C178.86 195.161 178.372 193.871 177.367 192.151C176.298 190.247 174.894 188.551 173.222 187.145C171.223 185.488 169.166 184.66 167.052 184.663C165.871 184.628 164.702 184.913 163.67 185.488C162.598 186.125 162.055 186.992 162.055 188.095C162.033 188.655 162.203 189.207 162.536 189.658C162.694 189.861 162.899 190.024 163.133 190.133C163.367 190.242 163.623 190.293 163.881 190.283C164.259 190.286 164.625 190.146 164.905 189.892C165.043 189.782 165.155 189.643 165.231 189.484C165.308 189.325 165.347 189.15 165.347 188.974C165.348 188.718 165.314 188.463 165.246 188.216C165.175 187.973 165.117 187.751 165.058 187.551C164.995 187.422 165.007 187.329 165.085 187.289C165.213 187.26 165.345 187.249 165.476 187.258C166.055 187.333 166.588 187.61 166.982 188.04C167.194 188.241 167.363 188.483 167.478 188.752C167.593 189.021 167.652 189.311 167.65 189.603C167.655 190.048 167.558 190.489 167.367 190.891C167.176 191.293 166.895 191.647 166.548 191.925C165.842 192.532 164.94 192.861 164.01 192.851C163.485 192.867 162.962 192.773 162.475 192.575C161.988 192.377 161.548 192.08 161.183 191.702C160.799 191.281 160.503 190.787 160.312 190.25C160.12 189.714 160.038 189.144 160.069 188.575C160.069 186.879 160.961 185.557 162.747 184.608C164.505 183.735 166.451 183.308 168.413 183.365C170.717 183.406 172.957 184.134 174.845 185.456C177.007 186.889 178.78 188.836 180.002 191.124C181.029 193.093 181.769 195.199 182.2 197.377C182.648 199.522 182.982 201.689 183.201 203.869C183.513 206.628 183.783 208.516 183.982 209.536C184.082 210.058 184.271 210.559 184.542 211.017C184.847 211.447 185.038 211.701 185.109 211.838ZM180.131 202.36C180.168 201.341 179.966 200.327 179.541 199.4C179.116 198.473 178.48 197.659 177.683 197.021C176.026 195.689 173.875 195.032 171.24 195.032C169.156 195.003 167.139 195.764 165.594 197.162C164.826 197.808 164.212 198.615 163.796 199.527C163.379 200.439 163.171 201.432 163.185 202.434C163.173 203.494 163.387 204.545 163.815 205.515C164.243 206.485 164.873 207.352 165.664 208.059C167.231 209.557 169.325 210.38 171.494 210.349C174.102 210.349 176.186 209.602 177.773 208.117C178.551 207.379 179.164 206.484 179.57 205.491C179.976 204.499 180.168 203.432 180.131 202.36ZM198.719 175.916C198.723 176.248 198.655 176.577 198.52 176.881C198.386 177.184 198.187 177.455 197.937 177.675C197.436 178.153 196.766 178.414 196.072 178.402C195.735 178.406 195.4 178.338 195.091 178.203C194.782 178.069 194.504 177.87 194.278 177.62C194.04 177.378 193.852 177.091 193.726 176.775C193.6 176.46 193.537 176.123 193.543 175.783C193.536 175.444 193.602 175.107 193.737 174.795C193.872 174.484 194.072 174.205 194.325 173.977C194.822 173.496 195.49 173.23 196.182 173.239C196.52 173.232 196.855 173.299 197.165 173.434C197.474 173.568 197.751 173.769 197.977 174.02C198.459 174.532 198.719 175.213 198.7 175.916H198.719ZM199.365 211.67C199.547 211.815 199.67 212.02 199.713 212.248C199.713 212.479 199.502 212.592 199.071 212.592C198.712 212.592 198.422 212.592 198.188 212.561C196.976 212.459 196.174 212.409 195.783 212.409C195.068 212.409 194.497 212.409 194.055 212.471C193.613 212.534 193.112 212.549 192.542 212.592C192.068 212.592 191.838 212.471 191.838 212.237C191.881 212.033 191.983 211.847 192.131 211.701C192.62 211.31 192.983 211.005 193.222 210.783C193.405 210.659 193.559 210.497 193.675 210.31C193.791 210.122 193.866 209.911 193.894 209.692V189.81C193.894 188.829 193.664 188.165 193.191 187.833C192.581 187.622 192.158 187.469 191.928 187.387C191.697 187.305 191.576 187.196 191.576 187.035C191.576 186.875 191.67 186.793 191.857 186.645C192.162 186.435 192.481 186.247 192.811 186.082C193.472 185.726 193.984 185.433 194.375 185.191C195.298 184.628 196.022 184.143 196.53 183.756C197.038 183.369 197.382 183.131 197.515 183.041C197.601 182.965 197.705 182.913 197.816 182.889C198.086 182.889 198.176 183.072 198.074 183.428C197.94 184.141 197.847 184.861 197.797 185.585C197.703 186.594 197.664 187.786 197.664 189.169V209.739C197.692 209.946 197.762 210.145 197.869 210.324C197.977 210.502 198.12 210.657 198.289 210.779C198.61 211.088 198.974 211.389 199.345 211.67H199.365ZM244.725 194.305C244.725 196.89 244.074 199.639 242.77 202.552C241.507 205.341 239.832 207.925 237.8 210.216C237.863 210.216 237.965 210.216 238.113 210.239C238.262 210.263 238.453 210.239 238.715 210.239C239.292 210.243 239.868 210.209 240.44 210.138C241.025 210.054 241.58 209.826 242.055 209.473C242.367 209.219 242.688 208.946 243.028 208.692C243.047 208.664 243.071 208.641 243.099 208.623C243.127 208.605 243.158 208.592 243.191 208.587C243.224 208.581 243.257 208.582 243.29 208.589C243.322 208.596 243.353 208.61 243.38 208.629C243.43 208.685 243.466 208.751 243.485 208.823C243.504 208.895 243.506 208.971 243.49 209.043C243.439 209.434 243.38 209.825 243.329 210.216C243.289 210.493 243.265 210.772 243.259 211.052C243.256 211.414 243.273 211.775 243.31 212.135C243.341 212.416 243.38 212.753 243.439 213.124C243.497 213.495 243.411 213.628 243.239 213.628C243.072 213.616 242.916 213.543 242.798 213.425C242.414 213.172 242 212.968 241.566 212.819C241.158 212.678 240.738 212.573 240.311 212.506C239.701 212.434 239.087 212.404 238.473 212.416C237.902 212.416 237.46 212.416 237.12 212.416C236.78 212.416 236.338 212.479 235.802 212.557C235.734 212.57 235.665 212.578 235.595 212.581H235.392C235.02 212.581 234.833 212.448 234.833 212.19C234.861 211.997 234.933 211.814 235.044 211.654C236.019 210.143 236.869 208.697 237.593 207.316C238.464 205.702 239.202 204.02 239.799 202.286C240.38 200.649 240.697 198.93 240.737 197.193C240.737 193.962 240.276 191.448 239.353 189.65C238.258 187.54 236.545 186.486 234.215 186.488C233.272 186.484 232.339 186.679 231.478 187.063C230.58 187.48 229.787 188.095 229.159 188.861C229.554 189.999 229.816 191.18 229.941 192.378C230.097 193.84 230.174 195.309 230.172 196.779C230.172 198.733 229.722 200.973 228.819 203.556C228.103 205.618 227.22 207.618 226.18 209.536C225.316 211.131 224.714 212.108 224.354 212.463C224.303 212.541 224.174 212.584 223.963 212.584C223.654 212.584 223.474 212.522 223.411 212.401C223.38 212.354 223.361 212.3 223.356 212.244C223.351 212.189 223.359 212.132 223.38 212.08C223.501 211.807 223.564 211.635 223.584 211.576C225.307 207.988 226.169 203.215 226.172 197.256C226.172 194.39 225.623 191.943 224.526 189.916C223.353 187.743 221.789 186.664 219.881 186.664C218.577 186.664 217.364 187.205 216.24 188.286C215.287 189.18 214.561 190.288 214.121 191.518V209.684C214.15 209.899 214.225 210.105 214.341 210.288C214.457 210.471 214.611 210.626 214.794 210.744C215.153 211.037 215.517 211.342 215.889 211.635C216.072 211.785 216.197 211.995 216.24 212.229C216.24 212.463 216.025 212.584 215.595 212.584C215.376 212.584 214.813 212.553 213.891 212.491C212.968 212.428 212.416 212.401 212.244 212.401C211.533 212.401 210.962 212.401 210.52 212.463L209.007 212.584C208.553 212.584 208.33 212.471 208.33 212.26C208.363 212.037 208.479 211.835 208.655 211.693C209.124 211.303 209.476 210.998 209.718 210.775C209.894 210.646 210.041 210.483 210.152 210.296C210.262 210.108 210.333 209.9 210.36 209.684V192.175C210.389 191.424 210.266 190.676 209.997 189.974C209.728 189.273 209.32 188.633 208.796 188.095C208.109 187.479 207.347 186.954 206.528 186.531C206.462 186.497 206.407 186.446 206.366 186.383C206.326 186.321 206.302 186.25 206.297 186.176C206.303 186.116 206.323 186.058 206.355 186.008C206.387 185.957 206.43 185.914 206.481 185.882C206.951 185.493 207.4 185.08 207.826 184.643C208.123 184.339 208.346 184.108 208.506 183.924L208.929 183.44C209.058 183.287 209.167 183.217 209.269 183.217C209.395 183.233 209.51 183.298 209.589 183.397C210.417 184.138 211.166 184.962 211.826 185.855C212.858 187.215 213.472 188.388 213.644 189.373C214.236 188.074 215.028 186.875 215.99 185.82C217.554 184.163 219.361 183.334 221.398 183.334C223.011 183.31 224.589 183.809 225.894 184.757C226.936 185.552 227.84 186.512 228.573 187.598C229.284 186.489 230.19 185.517 231.247 184.729C232.421 183.831 233.855 183.341 235.333 183.334C238.704 183.334 241.219 184.647 242.88 187.274C244.1 189.244 244.725 191.577 244.725 194.305Z" fill="url(#paint14_linear_205_312)"/>
<path fill-rule="evenodd" clip-rule="evenodd" d="M218.293 169.089H219.857C220.492 169.121 221.129 169.077 221.753 168.96C221.996 168.881 222.205 168.725 222.348 168.514C222.493 168.28 222.567 168.008 222.559 167.732C222.572 167.421 222.472 167.116 222.277 166.872C222.074 166.647 221.797 166.501 221.495 166.462C221.323 166.439 220.811 166.427 219.955 166.427H218.293V169.089ZM216.174 175.158V164.637H220.623C221.445 164.599 222.268 164.694 223.059 164.918C223.567 165.107 223.996 165.462 224.275 165.927C224.584 166.424 224.743 166.999 224.733 167.584C224.758 168.299 224.512 168.997 224.045 169.538C223.494 170.097 222.762 170.442 221.98 170.511C222.397 170.747 222.777 171.043 223.106 171.391C223.557 171.928 223.961 172.501 224.315 173.106L225.585 175.158H223.063L221.55 172.86C221.212 172.323 220.838 171.808 220.432 171.32C220.259 171.126 220.042 170.976 219.798 170.882C219.449 170.789 219.088 170.75 218.727 170.765H218.293V175.158H216.174ZM220.866 161.194C222.592 161.181 224.282 161.681 225.723 162.631C227.164 163.58 228.29 164.936 228.959 166.526C229.628 168.117 229.809 169.87 229.48 171.563C229.151 173.256 228.325 174.814 227.109 176.038C225.893 177.262 224.341 178.097 222.649 178.438C220.957 178.778 219.202 178.609 217.607 177.951C216.011 177.293 214.647 176.177 213.688 174.743C212.728 173.309 212.216 171.623 212.217 169.898C212.213 168.757 212.434 167.627 212.867 166.573C213.3 165.518 213.937 164.559 214.742 163.75C215.546 162.942 216.502 162.3 217.555 161.861C218.608 161.423 219.737 161.196 220.878 161.194H220.866Z" fill="url(#paint15_linear_205_312)"/>
<path fill-rule="evenodd" clip-rule="evenodd" d="M242.989 171.351L245.144 172.016C244.91 173.085 244.33 174.046 243.494 174.752C242.646 175.367 241.616 175.679 240.569 175.639C239.894 175.659 239.224 175.534 238.601 175.274C237.979 175.014 237.419 174.624 236.96 174.13C236.021 173.124 235.551 171.749 235.548 170.003C235.548 168.158 236.025 166.728 236.968 165.704C237.444 165.196 238.024 164.797 238.668 164.533C239.312 164.269 240.006 164.147 240.702 164.175C241.301 164.15 241.9 164.243 242.463 164.449C243.027 164.655 243.544 164.969 243.986 165.375C244.539 165.944 244.928 166.652 245.112 167.423L242.915 167.951C242.807 167.416 242.518 166.935 242.098 166.587C241.669 166.252 241.136 166.076 240.592 166.091C240.216 166.078 239.842 166.151 239.497 166.304C239.153 166.457 238.849 166.686 238.606 166.974C238.085 167.563 237.824 168.518 237.824 169.839C237.824 171.238 238.078 172.235 238.575 172.829C238.811 173.116 239.11 173.346 239.449 173.5C239.788 173.655 240.157 173.73 240.53 173.72C241.093 173.731 241.639 173.529 242.059 173.153C242.541 172.666 242.86 172.042 242.973 171.367M240.835 161.205C242.56 161.193 244.25 161.694 245.691 162.644C247.131 163.594 248.257 164.95 248.925 166.541C249.593 168.131 249.774 169.884 249.444 171.577C249.115 173.27 248.289 174.827 247.073 176.051C245.856 177.274 244.304 178.109 242.612 178.449C240.92 178.79 239.166 178.62 237.571 177.962C235.975 177.304 234.612 176.188 233.652 174.754C232.693 173.32 232.181 171.634 232.182 169.909C232.176 168.767 232.396 167.635 232.829 166.579C233.262 165.522 233.9 164.561 234.705 163.751C235.51 162.942 236.468 162.299 237.522 161.86C238.577 161.421 239.708 161.194 240.85 161.193L240.835 161.205Z" fill="url(#paint16_linear_205_312)"/>
<path d="M117.043 35.5152L116.996 35.5387V35.3511C117.02 35.398 117.02 35.4683 117.043 35.5152Z" fill="url(#paint17_linear_205_312)"/>
<path d="M138.986 35.3315V35.5387L138.916 35.5152C138.939 35.4449 138.963 35.398 138.986 35.3315Z" fill="url(#paint18_linear_205_312)"/>
<path fill-rule="evenodd" clip-rule="evenodd" d="M113.638 80.5164C113.802 80.5851 113.971 80.6425 114.143 80.6884C119.206 81.0792 123.726 79.555 127.855 76.6901C128.044 76.5542 128.172 76.3492 128.211 76.1195C128.391 73.9164 127.997 71.7043 127.069 69.698C126.842 69.1385 126.404 68.6906 125.85 68.4508C125.295 68.211 124.669 68.1985 124.105 68.4161C123.611 68.5654 123.133 68.7631 122.678 69.0063C120.007 70.3884 117.784 72.5017 116.27 75.0994C115.273 76.8191 114.522 78.6795 113.638 80.5164ZM129.357 88.2394C127.707 89.8223 126.229 91.3114 124.665 92.7184C120.754 96.2672 116.598 99.4291 111.64 101.348C108.059 102.728 104.524 101.516 102.401 98.2918C100.864 95.9467 100.231 93.3437 99.9178 90.6157C99.8123 89.6738 99.7419 88.724 99.5503 87.8017C99.2023 86.1015 98.1935 85.7107 96.782 86.7347C93.6598 89.0597 91.1482 92.1067 89.4623 95.6145C88.3401 97.8501 87.3822 100.168 86.3343 102.435C86.088 102.966 86.2404 103.216 86.7253 103.412C88.3441 104.123 89.8221 103.697 91.2336 102.857C93.5288 101.489 95.1867 99.4408 96.8797 97.4319C97.2707 96.9746 97.6617 96.5095 98.2365 95.8021C98.561 97.7289 98.8778 99.39 99.1124 101.059C99.3352 102.622 99.5034 104.213 99.6128 105.792C99.6342 106.267 99.5203 106.739 99.2844 107.152C97.0048 111.01 93.7673 114.031 90.6275 117.146C88.8797 118.881 87.2923 120.781 85.6188 122.598C85.3723 122.818 85.2121 123.119 85.167 123.446C85.1219 123.773 85.1947 124.106 85.3724 124.384C89.7673 133.655 96.7976 140.049 106.209 143.899C110.44 145.605 114.895 146.693 119.437 147.131C123.703 147.56 128.006 147.468 132.25 146.857C138.588 145.966 144.68 144.321 150.381 141.354C155.129 138.833 159.419 135.529 163.069 131.583C167.394 127.011 170.889 121.848 174.017 116.395C174.133 116.155 174.324 115.959 174.561 115.836C174.295 117.247 174.084 118.67 173.751 120.065C172.062 127.214 169.059 133.745 164.43 139.455C159.234 145.891 152.413 150.824 144.672 153.744C138.507 156.13 131.936 157.295 125.325 157.172C117.893 157.018 110.568 155.371 103.785 152.329C97.8729 149.738 92.4965 146.349 88.1212 141.507C84.6217 137.641 82.2014 133.217 81.5601 127.964C80.9939 123.466 81.9241 118.906 84.2072 114.988C84.8524 113.855 85.5562 112.753 86.2326 111.631C86.1974 111.588 86.1662 111.518 86.1232 111.51C84.1877 111.119 83.3861 109.782 82.9638 107.945C82.0137 103.787 82.6784 99.8004 84.0547 95.8842C86.1271 90.0021 88.9345 84.5499 93.4584 80.1608C94.5742 79.1277 95.7822 78.1988 97.0674 77.3858C98.5024 76.4322 99.7145 76.7097 100.434 78.3043C101.085 79.7786 101.561 81.3237 101.853 82.9084C102.287 85.183 102.42 87.5163 102.827 89.7988C103.32 92.5347 104.946 94.3365 108.102 93.6799C111.175 93.0389 113.693 91.2684 116.258 89.4002C114.631 89.1461 113.13 88.8726 111.621 88.6967C110.948 88.6185 110.643 88.3488 110.581 87.6961C110.092 82.5879 110.166 77.5343 112.168 72.7114C114.146 67.8054 117.617 63.6459 122.092 60.8221C123.056 60.2489 124.132 59.8902 125.247 59.7707C127.202 59.5362 128.375 60.3687 129.11 62.2565C130.021 64.5194 130.307 66.9192 130.534 69.3228C130.69 70.9839 130.788 72.6528 130.925 74.4819C133.947 72.2971 136.203 69.5925 138.6 66.6651C138.647 67.2553 138.698 67.6227 138.702 67.994C138.725 70.5657 138.76 73.1335 138.729 75.7052C138.727 76.2383 138.568 76.7589 138.272 77.2021C136.59 79.4885 134.897 81.7671 133.102 83.9636C132.422 84.8 131.929 85.484 132.121 86.6995C132.532 89.4901 132.856 92.3041 134.056 94.868C134.684 96.2171 135.551 97.4418 136.614 98.4833C138.401 100.187 140.88 99.8903 142.53 98.0494C144.094 96.3141 144.661 94.1801 145.012 91.9524C145.161 91.0183 145.259 90.0724 145.458 89.1461C145.591 88.8246 145.78 88.5294 146.017 88.2746C146.217 88.5169 146.506 88.724 146.596 89.0015C147.097 90.5297 147.546 92.0696 148.031 93.6681C148.134 93.6412 148.232 93.5976 148.32 93.5392C151.3 90.9792 153.978 88.1651 155.691 84.5499C156.016 83.8929 156.29 83.2121 156.512 82.5136C156.624 82.1163 156.616 81.6948 156.488 81.302C153.837 74.0598 150.119 67.3725 145.9 60.955C142.023 55.1756 137.846 49.6025 133.388 44.2584C131.362 41.7805 129.361 39.283 127.245 36.6683C126.6 37.3835 125.963 38.0558 125.364 38.7593C118.451 46.9044 111.718 55.194 105.423 63.8276C103.202 66.8723 100.473 69.0883 96.8562 70.1592C96.6945 70.2196 96.5177 70.2264 96.3519 70.1788C105.568 54.0958 116.223 39.0446 127.828 24.4272C128.688 25.7014 129.392 26.7723 130.143 27.8471C134.885 34.7688 139.656 41.6749 144.367 48.6201C148.168 54.2287 151.796 59.9544 154.85 66.0202C157.27 70.8315 159.386 75.7912 160.219 81.1574C161.224 87.6531 159.558 93.504 155.374 98.5184C153.626 100.617 151.534 102.427 149.56 104.322C148.684 105.163 148.488 105.104 147.749 104.045C147.358 104.639 147.007 105.217 146.608 105.776C144.555 108.633 141.188 109.352 138.139 107.617C135.793 106.284 134.369 104.186 133.302 101.809C131.509 97.6842 130.239 93.3514 129.521 88.9116C129.486 88.7592 129.439 88.5951 129.357 88.2433V88.2394Z" fill="url(#paint19_linear_205_312)"/>
<path fill-rule="evenodd" clip-rule="evenodd" d="M127.736 13.2924C126.321 15.3013 124.929 17.15 123.666 19.0846C116.894 29.4614 110.047 39.799 103.447 50.2735C99.6778 56.2572 96.3191 62.5028 92.8001 68.6429C91.176 71.5027 88.5932 73.6968 85.5078 74.8377C85.5977 74.5524 85.6408 74.3296 85.7307 74.1264C89.7463 65.1762 94.3328 56.5387 99.0718 47.9402C103.428 40.027 107.859 32.1543 112.366 24.3219C116.894 16.4426 121.504 8.60235 126.755 1.17642C127.017 0.809033 127.31 0.461187 127.654 0.00390625C128.069 0.590164 128.436 1.09044 128.788 1.61416C134.329 10.0563 139.901 18.4827 145.394 26.9561C150.877 35.3331 155.929 43.9845 160.53 52.8765C165.985 63.5268 170.52 74.5446 173.304 86.2424C174.086 89.4902 173.902 92.7342 173.644 95.9938C173.389 99.0376 172.77 102.04 171.799 104.936C169.394 112.21 165.152 118.225 159.443 123.216C153.152 128.746 145.824 132.463 137.903 134.976C132.145 136.82 126.181 137.946 120.147 138.329C118.619 138.454 117.083 138.471 115.553 138.38C116.335 138.13 117.081 137.872 117.852 137.63C124.686 135.532 131.264 132.678 137.465 129.121C146.11 124.087 153.695 117.822 159.646 109.673C164.377 103.197 167.654 96.0641 169.03 88.1145C169.13 87.0891 169.006 86.0543 168.667 85.0816C166.422 77.3742 163.314 70.0148 159.717 62.8546C156.342 56.1479 152.615 49.6248 148.55 43.3127C144.988 37.7667 141.273 32.3223 137.539 26.8975C134.634 22.6725 131.596 18.5414 128.616 14.3711C128.374 14.035 128.108 13.7106 127.775 13.2807" fill="url(#paint20_linear_205_312)"/>
<path fill-rule="evenodd" clip-rule="evenodd" d="M116.08 105.284C115.889 108.247 115.721 111.018 115.513 113.785C115.494 113.928 115.446 114.066 115.372 114.19C115.298 114.314 115.2 114.422 115.083 114.508C110.688 117.278 106.282 120.034 101.863 122.778C101.775 122.825 101.678 122.855 101.578 122.864C101.578 120.109 101.558 117.361 101.609 114.617C101.609 114.328 102 113.969 102.309 113.781C105.3 111.913 108.315 110.08 111.302 108.231C112.866 107.277 114.395 106.316 116.065 105.284" fill="url(#paint21_linear_205_312)"/>
<path fill-rule="evenodd" clip-rule="evenodd" d="M149.68 76.608C148.75 79.1484 147.886 81.5286 146.983 83.8932C146.917 84.0102 146.823 84.109 146.71 84.1807C146.597 84.2524 146.467 84.2946 146.333 84.3036C144.531 83.8893 142.744 83.4203 140.859 82.9396L143.987 74.7007L149.68 76.608Z" fill="url(#paint22_linear_205_312)"/>
<path fill-rule="evenodd" clip-rule="evenodd" d="M132.293 117.791C132.191 117.759 132.152 117.759 132.132 117.74C130.318 115.958 129.634 117.079 129.321 118.846C129.059 120.351 128.809 121.855 128.582 123.364C128.394 124.865 128.125 126.355 127.776 127.827C127.679 127.605 127.585 127.378 127.483 127.151C126.662 125.287 125.841 123.419 125.004 121.558C124.817 121.14 124.613 120.847 123.984 120.988C123.12 121.175 121.212 119.401 121.157 118.494C121.096 117.886 121.096 117.273 121.157 116.665C121.27 115.836 121.821 115.492 122.521 115.938C123.363 116.416 124.102 117.053 124.699 117.814C125.685 119.233 126.459 120.796 127.323 122.301C127.452 122.531 127.565 122.77 127.749 123.126C128.038 121.23 128.261 119.483 128.59 117.755C128.781 116.797 129.057 115.858 129.415 114.949C129.993 113.452 131.002 113.253 132.128 114.355C133.161 115.367 133.172 115.59 132.277 117.791" fill="url(#paint23_linear_205_312)"/>
<path fill-rule="evenodd" clip-rule="evenodd" d="M111.401 124.99C111.897 125.94 111.937 126.554 111.401 127.37C110.556 128.695 109.966 130.184 109.285 131.611C109.198 131.84 109.152 132.082 109.149 132.326C109.067 133.421 109.501 133.89 110.533 133.518C112.066 132.971 113.524 132.213 115.01 131.533C115.259 131.393 115.521 131.277 115.792 131.185C114.976 132.794 113.615 134.061 111.952 134.761C110.998 135.211 109.954 135.801 108.957 135.015C107.96 134.23 108.03 133.014 108.21 131.889C108.343 131.052 108.601 130.235 108.793 129.399C108.765 129.368 108.73 129.297 108.687 129.289C106.893 128.957 106.459 128.285 107.053 126.554C107.319 125.873 107.647 125.219 108.034 124.599C108.347 124.052 108.797 123.654 109.454 124.052C110.111 124.451 109.938 125.018 109.716 125.506C109.239 125.557 108.707 125.463 108.433 125.69C108.134 126.008 107.963 126.426 107.952 126.862C107.952 127.058 108.398 127.453 108.636 127.445C109.099 127.457 109.55 127.304 109.911 127.015C110.452 126.376 110.941 125.695 111.373 124.979" fill="url(#paint24_linear_205_312)"/>
<path fill-rule="evenodd" clip-rule="evenodd" d="M131.373 50.1484C131.119 49.9686 130.982 49.867 130.822 49.7575C130.04 49.2377 129.501 49.3667 129.289 50.3321C128.98 51.7274 128.769 53.1461 128.543 54.557C128.417 55.5463 128.229 56.5267 127.98 57.4922C127.589 56.5425 127.197 55.5849 126.806 54.6352C126.615 54.1896 126.396 53.7519 126.169 53.322C126.076 53.09 125.921 52.8879 125.721 52.7377C125.521 52.5874 125.284 52.4949 125.035 52.47C123.616 52.2667 122.717 50.6096 123.127 49.2377C123.307 48.6319 123.796 48.5342 124.191 48.8469C124.937 49.404 125.603 50.0616 126.169 50.8011C126.845 51.8634 127.463 52.962 128.019 54.0919C128.105 53.5565 128.148 53.1969 128.222 52.8413C128.539 51.2779 128.812 49.7341 129.215 48.2098C129.375 47.5923 129.716 46.8692 130.619 47.1585C131.022 47.2874 131.359 47.5678 131.559 47.9405C131.758 48.3131 131.806 48.7489 131.69 49.1557C131.612 49.4449 131.514 49.7302 131.389 50.1249" fill="url(#paint25_linear_205_312)"/>
<path fill-rule="evenodd" clip-rule="evenodd" d="M126.666 102.638C126.388 102.966 126.083 103.275 125.837 103.627C125.028 104.68 124.284 105.782 123.608 106.925C122.99 108.098 123.076 108.981 124.582 109.481C124.727 109.522 124.868 109.58 125 109.653C125.532 109.966 126.466 110.255 126.498 110.619C126.564 111.4 126.189 112.26 125.958 113.073C125.923 113.19 125.684 113.292 125.528 113.316C125.347 113.324 125.167 113.297 124.996 113.237C121.868 112.385 121.004 110.607 122.161 107.523C122.782 105.827 123.835 104.323 125.215 103.158C125.611 102.87 126.029 102.615 126.466 102.396L126.666 102.638Z" fill="url(#paint26_linear_205_312)"/>
<path fill-rule="evenodd" clip-rule="evenodd" d="M127.737 40.6704C127.11 41.476 126.53 42.3163 125.997 43.1874C125.309 44.4615 125.466 44.7117 126.779 45.2901C127.233 45.4934 127.972 45.5676 127.687 46.3649C127.526 46.8066 127.71 47.5765 126.85 47.5374C125.802 47.4866 124.863 46.7558 124.719 45.8646C124.398 43.9456 126.107 41.2489 127.726 40.6704" fill="url(#paint27_linear_205_312)"/>
<path d="M243.244 217.419H32.207V220.484H243.244V217.419Z" fill="url(#paint28_linear_205_312)"/>
</g>
<defs>
<linearGradient id="paint0_linear_205_312" x1="122.611" y1="169.584" x2="122.611" y2="222.004" gradientUnits="userSpaceOnUse">
<stop stop-color="#E2BA62"/>
<stop offset="1" stop-color="#B6974E"/>
</linearGradient>
<linearGradient id="paint1_linear_205_312" x1="220.928" y1="161.193" x2="220.928" y2="178.609" gradientUnits="userSpaceOnUse">
<stop stop-color="#E2BA62"/>
<stop offset="1" stop-color="#B6974E"/>
</linearGradient>
<linearGradient id="paint2_linear_205_312" x1="240.893" y1="161.193" x2="240.893" y2="178.621" gradientUnits="userSpaceOnUse">
<stop stop-color="#E2BA62"/>
<stop offset="1" stop-color="#B6974E"/>
</linearGradient>
<linearGradient id="paint3_linear_205_312" x1="117.02" y1="35.3511" x2="117.02" y2="35.5387" gradientUnits="userSpaceOnUse">
<stop stop-color="#E2BA62"/>
<stop offset="1" stop-color="#B6974E"/>
</linearGradient>
<linearGradient id="paint4_linear_205_312" x1="138.951" y1="35.3315" x2="138.951" y2="35.5387" gradientUnits="userSpaceOnUse">
<stop stop-color="#E2BA62"/>
<stop offset="1" stop-color="#B6974E"/>
</linearGradient>
<linearGradient id="paint5_linear_205_312" x1="127.98" y1="24.4272" x2="127.98" y2="157.18" gradientUnits="userSpaceOnUse">
<stop stop-color="#E2BA62"/>
<stop offset="1" stop-color="#B6974E"/>
</linearGradient>
<linearGradient id="paint6_linear_205_312" x1="129.687" y1="0.00390625" x2="129.687" y2="138.438" gradientUnits="userSpaceOnUse">
<stop stop-color="#E2BA62"/>
<stop offset="1" stop-color="#B6974E"/>
</linearGradient>
<linearGradient id="paint7_linear_205_312" x1="108.827" y1="105.284" x2="108.827" y2="122.864" gradientUnits="userSpaceOnUse">
<stop stop-color="#E2BA62"/>
<stop offset="1" stop-color="#B6974E"/>
</linearGradient>
<linearGradient id="paint8_linear_205_312" x1="145.27" y1="74.7007" x2="145.27" y2="84.3036" gradientUnits="userSpaceOnUse">
<stop stop-color="#E2BA62"/>
<stop offset="1" stop-color="#B6974E"/>
</linearGradient>
<linearGradient id="paint9_linear_205_312" x1="127.019" y1="113.655" x2="127.019" y2="127.827" gradientUnits="userSpaceOnUse">
<stop stop-color="#E2BA62"/>
<stop offset="1" stop-color="#B6974E"/>
</linearGradient>
<linearGradient id="paint10_linear_205_312" x1="111.297" y1="123.891" x2="111.297" y2="135.4" gradientUnits="userSpaceOnUse">
<stop stop-color="#E2BA62"/>
<stop offset="1" stop-color="#B6974E"/>
</linearGradient>
<linearGradient id="paint11_linear_205_312" x1="127.39" y1="47.0928" x2="127.39" y2="57.4922" gradientUnits="userSpaceOnUse">
<stop stop-color="#E2BA62"/>
<stop offset="1" stop-color="#B6974E"/>
</linearGradient>
<linearGradient id="paint12_linear_205_312" x1="124.168" y1="102.396" x2="124.168" y2="113.317" gradientUnits="userSpaceOnUse">
<stop stop-color="#E2BA62"/>
<stop offset="1" stop-color="#B6974E"/>
</linearGradient>
<linearGradient id="paint13_linear_205_312" x1="126.215" y1="40.6704" x2="126.215" y2="47.5389" gradientUnits="userSpaceOnUse">
<stop stop-color="#E2BA62"/>
<stop offset="1" stop-color="#B6974E"/>
</linearGradient>
<linearGradient id="paint14_linear_205_312" x1="122.611" y1="169.584" x2="122.611" y2="222.004" gradientUnits="userSpaceOnUse">
<stop stop-color="#E2BA62"/>
<stop offset="1" stop-color="#B6974E"/>
</linearGradient>
<linearGradient id="paint15_linear_205_312" x1="220.928" y1="161.193" x2="220.928" y2="178.609" gradientUnits="userSpaceOnUse">
<stop stop-color="#E2BA62"/>
<stop offset="1" stop-color="#B6974E"/>
</linearGradient>
<linearGradient id="paint16_linear_205_312" x1="240.893" y1="161.193" x2="240.893" y2="178.621" gradientUnits="userSpaceOnUse">
<stop stop-color="#E2BA62"/>
<stop offset="1" stop-color="#B6974E"/>
</linearGradient>
<linearGradient id="paint17_linear_205_312" x1="117.02" y1="35.3511" x2="117.02" y2="35.5387" gradientUnits="userSpaceOnUse">
<stop stop-color="#E2BA62"/>
<stop offset="1" stop-color="#B6974E"/>
</linearGradient>
<linearGradient id="paint18_linear_205_312" x1="138.951" y1="35.3315" x2="138.951" y2="35.5387" gradientUnits="userSpaceOnUse">
<stop stop-color="#E2BA62"/>
<stop offset="1" stop-color="#B6974E"/>
</linearGradient>
<linearGradient id="paint19_linear_205_312" x1="127.98" y1="24.4272" x2="127.98" y2="157.18" gradientUnits="userSpaceOnUse">
<stop stop-color="#E2BA62"/>
<stop offset="1" stop-color="#B6974E"/>
</linearGradient>
<linearGradient id="paint20_linear_205_312" x1="129.687" y1="0.00390625" x2="129.687" y2="138.438" gradientUnits="userSpaceOnUse">
<stop stop-color="#E2BA62"/>
<stop offset="1" stop-color="#B6974E"/>
</linearGradient>
<linearGradient id="paint21_linear_205_312" x1="108.827" y1="105.284" x2="108.827" y2="122.864" gradientUnits="userSpaceOnUse">
<stop stop-color="#E2BA62"/>
<stop offset="1" stop-color="#B6974E"/>
</linearGradient>
<linearGradient id="paint22_linear_205_312" x1="145.27" y1="74.7007" x2="145.27" y2="84.3036" gradientUnits="userSpaceOnUse">
<stop stop-color="#E2BA62"/>
<stop offset="1" stop-color="#B6974E"/>
</linearGradient>
<linearGradient id="paint23_linear_205_312" x1="127.019" y1="113.655" x2="127.019" y2="127.827" gradientUnits="userSpaceOnUse">
<stop stop-color="#E2BA62"/>
<stop offset="1" stop-color="#B6974E"/>
</linearGradient>
<linearGradient id="paint24_linear_205_312" x1="111.297" y1="123.891" x2="111.297" y2="135.4" gradientUnits="userSpaceOnUse">
<stop stop-color="#E2BA62"/>
<stop offset="1" stop-color="#B6974E"/>
</linearGradient>
<linearGradient id="paint25_linear_205_312" x1="127.39" y1="47.0928" x2="127.39" y2="57.4922" gradientUnits="userSpaceOnUse">
<stop stop-color="#E2BA62"/>
<stop offset="1" stop-color="#B6974E"/>
</linearGradient>
<linearGradient id="paint26_linear_205_312" x1="124.168" y1="102.396" x2="124.168" y2="113.317" gradientUnits="userSpaceOnUse">
<stop stop-color="#E2BA62"/>
<stop offset="1" stop-color="#B6974E"/>
</linearGradient>
<linearGradient id="paint27_linear_205_312" x1="126.215" y1="40.6704" x2="126.215" y2="47.5389" gradientUnits="userSpaceOnUse">
<stop stop-color="#E2BA62"/>
<stop offset="1" stop-color="#B6974E"/>
</linearGradient>
<linearGradient id="paint28_linear_205_312" x1="137.726" y1="217.419" x2="137.726" y2="220.484" gradientUnits="userSpaceOnUse">
<stop stop-color="#E2BA62"/>
<stop offset="1" stop-color="#B6974E"/>
</linearGradient>
<clipPath id="clip0_205_312">
<rect width="249" height="222" fill="white" transform="translate(0.5)"/>
</clipPath>
</defs>
</svg>
