<?xml version="1.0" encoding="UTF-8"?>
<svg xmlns="http://www.w3.org/2000/svg" xmlns:xlink="http://www.w3.org/1999/xlink" width="100px" height="100px" viewBox="0 0 100 100" version="1.1">
<g id="surface1">
<path style=" stroke:none;fill-rule:nonzero;fill:rgb(90.196078%,70.980392%,14.117647%);fill-opacity:1;" d="M 6.136719 2.9375 C 6.386719 2.925781 6.386719 2.925781 6.640625 2.914062 C 8.226562 3.15625 9.296875 4.414062 10.375 5.5 C 10.546875 5.671875 10.71875 5.84375 10.894531 6.019531 C 11.363281 6.484375 11.828125 6.953125 12.296875 7.421875 C 12.785156 7.914062 13.273438 8.402344 13.765625 8.890625 C 14.585938 9.710938 15.40625 10.535156 16.226562 11.359375 C 17.171875 12.308594 18.121094 13.261719 19.074219 14.210938 C 19.988281 15.125 20.902344 16.039062 21.816406 16.953125 C 22.203125 17.34375 22.59375 17.734375 22.984375 18.121094 C 23.527344 18.664062 24.066406 19.207031 24.605469 19.75 C 24.769531 19.914062 24.929688 20.074219 25.097656 20.242188 C 25.246094 20.390625 25.390625 20.539062 25.542969 20.6875 C 25.734375 20.882812 25.734375 20.882812 25.929688 21.078125 C 26.199219 21.398438 26.199219 21.398438 26.199219 21.800781 C 26.332031 21.800781 26.464844 21.800781 26.601562 21.800781 C 26.652344 21.683594 26.707031 21.570312 26.761719 21.453125 C 28.660156 17.855469 32.359375 15.023438 35.800781 13 C 35.972656 12.894531 35.972656 12.894531 36.148438 12.789062 C 39.21875 10.957031 43.179688 9.398438 46.800781 9.398438 C 46.796875 9.28125 46.792969 9.160156 46.789062 9.035156 C 46.769531 8.488281 46.761719 7.9375 46.75 7.386719 C 46.742188 7.199219 46.738281 7.011719 46.730469 6.816406 C 46.710938 5.558594 46.851562 4.820312 47.601562 3.800781 C 48.558594 3.050781 49.316406 2.871094 50.527344 2.921875 C 51.496094 3.082031 52.035156 3.613281 52.664062 4.324219 C 53.144531 5 53.222656 5.339844 53.21875 6.15625 C 53.21875 6.347656 53.21875 6.535156 53.21875 6.726562 C 53.214844 6.925781 53.214844 7.121094 53.210938 7.324219 C 53.210938 7.523438 53.210938 7.722656 53.210938 7.925781 C 53.207031 8.417969 53.203125 8.910156 53.199219 9.398438 C 53.324219 9.402344 53.453125 9.40625 53.582031 9.410156 C 58.96875 9.597656 64.386719 12.59375 68.398438 16 C 68.507812 16.089844 68.613281 16.179688 68.722656 16.273438 C 74.070312 20.863281 77.375 27.425781 78.199219 34.398438 C 78.25 35.3125 78.257812 36.222656 78.253906 37.140625 C 78.253906 37.539062 78.257812 37.9375 78.257812 38.335938 C 78.261719 38.761719 78.261719 39.183594 78.261719 39.609375 C 78.261719 40.496094 78.265625 41.382812 78.269531 42.273438 C 78.277344 44.476562 78.285156 46.679688 78.289062 48.882812 C 78.292969 50.601562 78.296875 52.316406 78.304688 54.035156 C 78.308594 54.914062 78.3125 55.796875 78.3125 56.675781 C 78.3125 57.355469 78.316406 58.035156 78.320312 58.714844 C 78.320312 58.953125 78.316406 59.195312 78.316406 59.441406 C 78.332031 61.410156 78.683594 63.136719 79.613281 64.886719 C 79.714844 65.082031 79.816406 65.273438 79.917969 65.472656 C 80.011719 65.648438 80.105469 65.820312 80.199219 66 C 80.335938 66.265625 80.46875 66.53125 80.601562 66.800781 C 80.730469 66.800781 80.863281 66.800781 81 66.800781 C 81.269531 67.074219 81.269531 67.074219 81.585938 67.460938 C 82.175781 68.164062 82.804688 68.777344 83.476562 69.398438 C 85.699219 71.554688 87.132812 74.753906 87.601562 77.800781 C 87.566406 78.144531 87.523438 78.488281 87.464844 78.828125 C 87.234375 80.769531 87.171875 82.40625 88.414062 84.015625 C 89.417969 85.136719 90.519531 86.152344 91.644531 87.152344 C 92.28125 87.722656 92.902344 88.3125 93.523438 88.898438 C 94.007812 89.355469 94.496094 89.804688 94.992188 90.25 C 95.167969 90.410156 95.34375 90.570312 95.523438 90.734375 C 95.757812 90.941406 95.757812 90.941406 95.992188 91.15625 C 96.882812 92.128906 97.113281 93.042969 97.070312 94.320312 C 96.925781 95.296875 96.390625 95.832031 95.675781 96.460938 C 95.039062 96.914062 94.660156 97.046875 93.886719 97.085938 C 93.726562 97.101562 93.566406 97.113281 93.398438 97.125 C 91.460938 96.722656 90.433594 95.121094 89.355469 93.605469 C 86.523438 89.699219 82.917969 85.085938 77.9375 84.152344 C 71.859375 83.25 65.488281 83.808594 59.398438 84.398438 C 59.402344 84.617188 59.402344 84.617188 59.40625 84.835938 C 59.410156 85.496094 59.414062 86.15625 59.417969 86.8125 C 59.421875 87.039062 59.425781 87.265625 59.425781 87.5 C 59.441406 90.425781 58.527344 92.382812 56.550781 94.550781 C 54.625 96.375 52.171875 97.097656 49.578125 97.070312 C 46.929688 96.980469 44.609375 95.8125 42.800781 93.882812 C 40.992188 91.703125 40.5 89.5625 40.5625 86.773438 C 40.566406 86.546875 40.566406 86.316406 40.570312 86.078125 C 40.578125 85.519531 40.585938 84.960938 40.601562 84.398438 C 40.46875 84.402344 40.335938 84.402344 40.199219 84.402344 C 36.964844 84.417969 33.734375 84.433594 30.503906 84.441406 C 28.941406 84.445312 27.375 84.453125 25.8125 84.460938 C 24.453125 84.46875 23.089844 84.472656 21.726562 84.476562 C 21.003906 84.476562 20.285156 84.480469 19.5625 84.484375 C 18.757812 84.492188 17.953125 84.492188 17.144531 84.492188 C 16.789062 84.496094 16.789062 84.496094 16.425781 84.5 C 15.105469 84.492188 14.265625 84.40625 13.199219 83.601562 C 12.324219 82.472656 12.273438 81.5 12.300781 80.101562 C 12.300781 79.90625 12.304688 79.710938 12.308594 79.507812 C 12.429688 75.273438 14.3125 71.640625 17.296875 68.71875 C 19.519531 66.546875 21.46875 64.117188 21.625 60.863281 C 21.625 60.671875 21.628906 60.476562 21.628906 60.277344 C 21.628906 60.054688 21.628906 59.832031 21.632812 59.601562 C 21.632812 59.355469 21.632812 59.113281 21.632812 58.863281 C 21.632812 58.464844 21.632812 58.070312 21.636719 57.671875 C 21.636719 57.25 21.640625 56.824219 21.640625 56.398438 C 21.640625 55.507812 21.644531 54.617188 21.652344 53.726562 C 21.664062 51.199219 21.671875 48.667969 21.679688 46.136719 C 21.683594 44.738281 21.691406 43.339844 21.699219 41.941406 C 21.703125 41.207031 21.707031 40.46875 21.707031 39.730469 C 21.707031 36.117188 21.75 32.644531 22.9375 29.1875 C 22.984375 29.050781 23.027344 28.914062 23.074219 28.773438 C 23.179688 28.445312 23.289062 28.125 23.398438 27.800781 C 23.285156 27.75 23.167969 27.699219 23.050781 27.648438 C 22.542969 27.371094 22.203125 27.054688 21.796875 26.648438 C 21.636719 26.492188 21.480469 26.335938 21.316406 26.171875 C 21.144531 26 20.972656 25.828125 20.796875 25.652344 C 20.613281 25.46875 20.433594 25.289062 20.242188 25.101562 C 19.746094 24.605469 19.246094 24.109375 18.75 23.609375 C 18.332031 23.191406 17.917969 22.777344 17.5 22.363281 C 16.515625 21.378906 15.535156 20.398438 14.550781 19.414062 C 13.539062 18.402344 12.527344 17.390625 11.511719 16.382812 C 10.640625 15.511719 9.769531 14.644531 8.902344 13.773438 C 8.382812 13.253906 7.863281 12.734375 7.34375 12.21875 C 6.761719 11.640625 6.183594 11.058594 5.605469 10.476562 C 5.347656 10.222656 5.347656 10.222656 5.082031 9.960938 C 3.164062 8.027344 3.164062 8.027344 2.894531 6.667969 C 2.910156 5.546875 3.03125 4.875 3.800781 4 C 4.59375 3.300781 5.082031 2.96875 6.136719 2.9375 Z M 6.136719 2.9375 "/>
<path style=" stroke:none;fill-rule:nonzero;fill:rgb(99.607843%,78.431373%,15.686275%);fill-opacity:1;" d="M 23.398438 28 C 24.070312 28.222656 24.339844 28.472656 24.800781 29 C 24.800781 29.132812 24.800781 29.265625 24.800781 29.398438 C 24.910156 29.445312 25.023438 29.492188 25.136719 29.539062 C 26.09375 30.082031 26.722656 30.953125 27.398438 31.800781 C 27.910156 32.335938 28.425781 32.820312 29 33.289062 C 29.617188 33.8125 30.089844 34.371094 30.601562 35 C 31.109375 35.539062 31.625 36.019531 32.199219 36.488281 C 32.800781 37 32.800781 37 33.289062 37.585938 C 33.777344 38.171875 34.277344 38.628906 34.859375 39.113281 C 35.675781 39.800781 36.335938 40.570312 37 41.398438 C 37.570312 42.003906 38.171875 42.554688 38.800781 43.101562 C 39.65625 43.84375 40.449219 44.613281 41.175781 45.488281 C 41.691406 46.101562 42.253906 46.597656 42.871094 47.105469 C 43.371094 47.550781 43.769531 48.085938 44.199219 48.601562 C 44.429688 48.804688 44.664062 49.003906 44.898438 49.199219 C 45.558594 49.746094 46.0625 50.332031 46.601562 51 C 47.226562 51.660156 47.894531 52.261719 48.574219 52.863281 C 49.347656 53.550781 50.03125 54.269531 50.695312 55.058594 C 51.085938 55.496094 51.539062 55.835938 52 56.199219 C 52.335938 56.597656 52.671875 56.996094 53 57.398438 C 53.332031 57.738281 53.664062 58.070312 54 58.398438 C 54.296875 58.699219 54.597656 58.996094 54.894531 59.292969 C 55.058594 59.457031 55.222656 59.621094 55.390625 59.789062 C 55.894531 60.296875 56.402344 60.800781 56.90625 61.304688 C 57.0625 61.460938 57.21875 61.617188 57.378906 61.777344 C 57.628906 62.027344 57.875 62.277344 58.121094 62.523438 C 58.523438 62.933594 58.925781 63.300781 59.375 63.664062 C 60.007812 64.175781 60.515625 64.773438 61.042969 65.390625 C 61.597656 66.023438 62.199219 66.609375 62.800781 67.199219 C 63.132812 67.53125 63.46875 67.867188 63.800781 68.199219 C 63.964844 68.363281 64.128906 68.53125 64.300781 68.699219 C 65.800781 70.199219 65.800781 70.199219 66.308594 70.714844 C 66.882812 71.28125 67.488281 71.804688 68.105469 72.328125 C 68.511719 72.714844 68.867188 73.101562 69.230469 73.527344 C 69.996094 74.40625 70.804688 75.230469 71.632812 76.050781 C 71.785156 76.203125 71.933594 76.355469 72.089844 76.507812 C 72.566406 76.984375 73.046875 77.460938 73.523438 77.9375 C 73.847656 78.257812 74.167969 78.582031 74.492188 78.902344 C 75.210938 79.617188 75.929688 80.335938 76.648438 81.050781 C 76.960938 81.359375 77.265625 81.667969 77.574219 81.976562 C 78.054688 82.453125 78.5625 82.871094 79.089844 83.292969 C 79.398438 83.601562 79.398438 83.601562 79.800781 84.398438 C 73.066406 84.398438 66.335938 84.398438 59.398438 84.398438 C 59.398438 86.050781 59.398438 87.699219 59.398438 89.398438 C 58.84375 91.863281 57.441406 94.128906 55.292969 95.53125 C 52.828125 96.945312 50.136719 97.523438 47.335938 96.773438 C 44.742188 95.835938 42.882812 94.335938 41.457031 91.96875 C 40.671875 90.234375 40.519531 88.667969 40.5625 86.773438 C 40.566406 86.546875 40.566406 86.316406 40.570312 86.078125 C 40.578125 85.519531 40.585938 84.960938 40.601562 84.398438 C 40.46875 84.402344 40.335938 84.402344 40.199219 84.402344 C 36.964844 84.417969 33.734375 84.433594 30.503906 84.441406 C 28.941406 84.445312 27.375 84.453125 25.8125 84.460938 C 24.453125 84.46875 23.089844 84.472656 21.726562 84.476562 C 21.003906 84.476562 20.285156 84.480469 19.5625 84.484375 C 18.757812 84.492188 17.953125 84.492188 17.144531 84.492188 C 16.789062 84.496094 16.789062 84.496094 16.425781 84.5 C 15.105469 84.492188 14.265625 84.40625 13.199219 83.601562 C 12.324219 82.472656 12.273438 81.5 12.300781 80.101562 C 12.300781 79.90625 12.304688 79.710938 12.308594 79.507812 C 12.429688 75.273438 14.3125 71.640625 17.296875 68.71875 C 19.519531 66.546875 21.46875 64.117188 21.625 60.863281 C 21.625 60.671875 21.628906 60.476562 21.628906 60.277344 C 21.628906 60.054688 21.628906 59.832031 21.632812 59.601562 C 21.632812 59.234375 21.632812 59.234375 21.632812 58.863281 C 21.632812 58.464844 21.632812 58.070312 21.636719 57.671875 C 21.636719 57.25 21.640625 56.824219 21.640625 56.398438 C 21.640625 55.507812 21.644531 54.617188 21.652344 53.726562 C 21.664062 51.199219 21.671875 48.667969 21.679688 46.136719 C 21.683594 44.738281 21.691406 43.339844 21.699219 41.941406 C 21.703125 41.207031 21.707031 40.46875 21.707031 39.730469 C 21.714844 29.6875 21.714844 29.6875 23.398438 28 Z M 23.398438 28 "/>
<path style=" stroke:none;fill-rule:nonzero;fill:rgb(84.705882%,29.411765%,28.235294%);fill-opacity:1;" d="M 6.136719 2.9375 C 6.386719 2.925781 6.386719 2.925781 6.640625 2.914062 C 8.226562 3.15625 9.296875 4.414062 10.375 5.5 C 10.546875 5.671875 10.71875 5.84375 10.894531 6.019531 C 11.363281 6.484375 11.828125 6.953125 12.296875 7.421875 C 12.785156 7.914062 13.273438 8.402344 13.765625 8.890625 C 14.585938 9.710938 15.40625 10.535156 16.226562 11.359375 C 17.171875 12.308594 18.121094 13.261719 19.074219 14.210938 C 19.988281 15.125 20.902344 16.039062 21.816406 16.953125 C 22.203125 17.34375 22.59375 17.734375 22.984375 18.121094 C 23.527344 18.664062 24.066406 19.207031 24.605469 19.75 C 24.769531 19.914062 24.929688 20.074219 25.097656 20.242188 C 25.246094 20.390625 25.390625 20.539062 25.542969 20.6875 C 25.734375 20.882812 25.734375 20.882812 25.929688 21.078125 C 26.199219 21.398438 26.199219 21.398438 26.199219 21.800781 C 26.332031 21.800781 26.464844 21.800781 26.601562 21.800781 C 26.867188 22.101562 27.117188 22.417969 27.363281 22.738281 C 28.109375 23.691406 28.859375 24.523438 29.800781 25.289062 C 30.414062 25.8125 30.890625 26.371094 31.398438 27 C 31.910156 27.539062 32.429688 28.023438 33 28.5 C 33.570312 28.976562 34.078125 29.472656 34.601562 30 C 34.777344 30.175781 34.953125 30.347656 35.136719 30.53125 C 36.042969 31.425781 36.921875 32.324219 37.734375 33.304688 C 38.035156 33.652344 38.035156 33.652344 38.585938 34.085938 C 39.226562 34.621094 39.730469 35.199219 40.269531 35.832031 C 40.671875 36.277344 41.128906 36.628906 41.601562 37 C 41.839844 37.292969 42.078125 37.582031 42.316406 37.875 C 42.628906 38.230469 42.964844 38.53125 43.324219 38.835938 C 44.773438 40.074219 46.121094 41.433594 47.335938 42.902344 C 47.773438 43.390625 48.296875 43.78125 48.800781 44.199219 C 49.042969 44.496094 49.285156 44.789062 49.523438 45.085938 C 49.824219 45.425781 50.140625 45.703125 50.488281 45.996094 C 51.515625 46.882812 52.472656 47.84375 53.429688 48.804688 C 53.738281 49.113281 54.046875 49.421875 54.355469 49.726562 C 54.554688 49.925781 54.753906 50.125 54.953125 50.324219 C 55.128906 50.503906 55.308594 50.679688 55.488281 50.863281 C 55.851562 51.246094 56.1875 51.621094 56.519531 52.027344 C 56.90625 52.484375 57.257812 52.855469 57.714844 53.230469 C 58.851562 54.199219 59.886719 55.265625 60.9375 56.324219 C 61.144531 56.53125 61.347656 56.738281 61.554688 56.945312 C 61.933594 57.324219 62.3125 57.707031 62.691406 58.085938 C 63.039062 58.4375 63.390625 58.789062 63.742188 59.136719 C 64.199219 59.601562 64.199219 59.601562 64.574219 60.085938 C 65.019531 60.621094 65.488281 61.039062 66.023438 61.476562 C 66.507812 61.894531 66.949219 62.347656 67.398438 62.800781 C 67.582031 62.984375 67.765625 63.167969 67.957031 63.355469 C 82.398438 77.800781 82.398438 77.800781 82.863281 78.265625 C 83.308594 78.707031 83.75 79.144531 84.199219 79.582031 C 84.484375 79.867188 84.773438 80.152344 85.0625 80.4375 C 85.210938 80.582031 85.359375 80.726562 85.511719 80.875 C 85.652344 81.015625 85.792969 81.152344 85.933594 81.296875 C 86.0625 81.421875 86.191406 81.546875 86.320312 81.675781 C 86.601562 82 86.601562 82 86.601562 82.398438 C 86.746094 82.449219 86.890625 82.496094 87.042969 82.546875 C 87.667969 82.832031 88.027344 83.148438 88.511719 83.632812 C 88.6875 83.804688 88.859375 83.980469 89.039062 84.15625 C 89.316406 84.4375 89.316406 84.4375 89.601562 84.722656 C 89.796875 84.914062 89.992188 85.109375 90.183594 85.304688 C 90.589844 85.710938 90.996094 86.117188 91.402344 86.523438 C 91.917969 87.042969 92.441406 87.5625 92.960938 88.078125 C 93.363281 88.480469 93.761719 88.882812 94.164062 89.28125 C 94.445312 89.566406 94.730469 89.851562 95.015625 90.132812 C 95.1875 90.308594 95.363281 90.480469 95.539062 90.664062 C 95.691406 90.816406 95.84375 90.96875 96 91.125 C 96.851562 92.140625 97.113281 93.027344 97.070312 94.320312 C 96.925781 95.296875 96.390625 95.832031 95.675781 96.460938 C 95.039062 96.914062 94.660156 97.046875 93.886719 97.085938 C 93.726562 97.101562 93.566406 97.113281 93.398438 97.125 C 91.359375 96.703125 89.800781 94.691406 88.386719 93.269531 C 88.140625 93.019531 87.894531 92.773438 87.644531 92.527344 C 87.128906 92.011719 86.613281 91.496094 86.101562 90.980469 C 85.441406 90.316406 84.78125 89.660156 84.121094 89 C 83.609375 88.492188 83.101562 87.984375 82.59375 87.472656 C 82.347656 87.230469 82.105469 86.984375 81.863281 86.742188 C 81.519531 86.40625 81.183594 86.0625 80.84375 85.722656 C 80.746094 85.625 80.644531 85.523438 80.539062 85.421875 C 79.976562 84.847656 79.667969 84.351562 79.398438 83.601562 C 79.011719 83.371094 79.011719 83.371094 78.601562 83.199219 C 78.316406 82.902344 78.316406 82.902344 78.050781 82.5625 C 77.617188 82.035156 77.171875 81.582031 76.652344 81.140625 C 75.84375 80.445312 75.085938 79.714844 74.335938 78.964844 C 74.203125 78.832031 74.074219 78.699219 73.9375 78.5625 C 73.660156 78.289062 73.382812 78.011719 73.105469 77.734375 C 72.6875 77.3125 72.269531 76.894531 71.847656 76.476562 C 71.578125 76.207031 71.308594 75.933594 71.035156 75.664062 C 70.914062 75.539062 70.789062 75.417969 70.664062 75.289062 C 69.910156 74.535156 69.199219 73.753906 68.503906 72.945312 C 68.125 72.511719 67.710938 72.136719 67.273438 71.761719 C 66.621094 71.199219 66.007812 70.613281 65.398438 70 C 65.207031 69.8125 65.015625 69.625 64.820312 69.433594 C 64.625 69.246094 64.433594 69.054688 64.238281 68.863281 C 64.136719 68.765625 64.035156 68.667969 63.933594 68.570312 C 63.679688 68.320312 63.441406 68.0625 63.199219 67.800781 C 63.199219 67.667969 63.199219 67.535156 63.199219 67.398438 C 63.085938 67.351562 62.96875 67.300781 62.851562 67.25 C 62.339844 66.964844 62.003906 66.644531 61.601562 66.226562 C 61.46875 66.089844 61.335938 65.953125 61.199219 65.8125 C 61.066406 65.675781 60.9375 65.539062 60.800781 65.398438 C 60.652344 65.257812 60.503906 65.117188 60.351562 64.972656 C 60 64.601562 60 64.601562 60 64.199219 C 59.832031 64.136719 59.832031 64.136719 59.664062 64.074219 C 59.148438 63.769531 58.859375 63.398438 58.488281 62.933594 C 58.191406 62.589844 57.875 62.308594 57.523438 62.011719 C 56.664062 61.277344 55.863281 60.488281 55.0625 59.6875 C 54.933594 59.558594 54.804688 59.433594 54.671875 59.300781 C 54.105469 58.730469 53.554688 58.160156 53.046875 57.53125 C 52.617188 56.972656 52.617188 56.972656 52 56.601562 C 52 56.46875 52 56.335938 52 56.199219 C 51.882812 56.148438 51.769531 56.097656 51.648438 56.046875 C 50.667969 55.507812 49.886719 54.566406 49.199219 53.6875 C 48.71875 53.101562 48.167969 52.644531 47.589844 52.152344 C 47.066406 51.679688 46.648438 51.140625 46.199219 50.601562 C 45.851562 50.292969 45.496094 49.996094 45.136719 49.699219 C 44.632812 49.25 44.230469 48.71875 43.800781 48.199219 C 43.453125 47.886719 43.097656 47.585938 42.738281 47.289062 C 42.09375 46.738281 41.519531 46.15625 41 45.488281 C 40.578125 44.972656 40.125 44.609375 39.601562 44.199219 C 39.03125 43.660156 38.507812 43.097656 38 42.5 C 37.320312 41.699219 36.617188 40.976562 35.800781 40.3125 C 35.199219 39.800781 35.199219 39.800781 34.710938 39.210938 C 34.222656 38.628906 33.722656 38.171875 33.140625 37.6875 C 32.503906 37.148438 31.933594 36.574219 31.425781 35.914062 C 30.972656 35.367188 30.488281 34.945312 29.945312 34.496094 C 29.132812 33.800781 28.464844 33.03125 27.800781 32.199219 C 27.289062 31.664062 26.777344 31.179688 26.199219 30.710938 C 25.753906 30.332031 25.425781 30.007812 25.0625 29.5625 C 24.625 28.972656 24.625 28.972656 24 28.601562 C 24 28.46875 24 28.335938 24 28.199219 C 23.851562 28.148438 23.703125 28.101562 23.554688 28.046875 C 22.953125 27.78125 22.617188 27.496094 22.15625 27.03125 C 21.996094 26.871094 21.832031 26.710938 21.664062 26.546875 C 21.492188 26.371094 21.316406 26.195312 21.136719 26.015625 C 20.949219 25.828125 20.765625 25.644531 20.574219 25.453125 C 20.0625 24.945312 19.554688 24.4375 19.046875 23.929688 C 18.515625 23.394531 17.980469 22.863281 17.449219 22.332031 C 16.554688 21.4375 15.660156 20.539062 14.765625 19.644531 C 13.734375 18.609375 12.699219 17.578125 11.664062 16.542969 C 10.777344 15.65625 9.886719 14.769531 9 13.882812 C 8.46875 13.351562 7.941406 12.820312 7.410156 12.292969 C 6.816406 11.699219 6.226562 11.109375 5.636719 10.515625 C 5.460938 10.339844 5.289062 10.167969 5.105469 9.988281 C 3.164062 8.027344 3.164062 8.027344 2.894531 6.667969 C 2.910156 5.546875 3.03125 4.875 3.800781 4 C 4.59375 3.300781 5.082031 2.96875 6.136719 2.9375 Z M 6.136719 2.9375 "/>
<path style=" stroke:none;fill-rule:nonzero;fill:rgb(90.196078%,70.980392%,14.117647%);fill-opacity:1;" d="M 50 54.601562 C 50.460938 54.996094 50.925781 55.390625 51.398438 55.800781 C 51.746094 56.085938 51.746094 56.085938 52.101562 56.375 C 52.589844 56.792969 53.011719 57.230469 53.429688 57.722656 C 54.25 58.671875 55.132812 59.554688 56.023438 60.4375 C 56.183594 60.59375 56.339844 60.75 56.5 60.910156 C 56.800781 61.210938 57.101562 61.507812 57.40625 61.808594 C 57.730469 62.128906 58.054688 62.457031 58.375 62.78125 C 58.808594 63.222656 58.808594 63.222656 59.375 63.664062 C 60.007812 64.175781 60.515625 64.773438 61.042969 65.390625 C 61.597656 66.023438 62.199219 66.609375 62.800781 67.199219 C 63.132812 67.53125 63.46875 67.867188 63.800781 68.199219 C 63.964844 68.363281 64.128906 68.53125 64.300781 68.699219 C 65.800781 70.199219 65.800781 70.199219 66.308594 70.714844 C 66.882812 71.28125 67.488281 71.804688 68.105469 72.328125 C 68.511719 72.714844 68.867188 73.101562 69.230469 73.527344 C 69.996094 74.40625 70.804688 75.230469 71.632812 76.050781 C 71.785156 76.203125 71.933594 76.355469 72.089844 76.507812 C 72.566406 76.984375 73.046875 77.460938 73.523438 77.9375 C 73.847656 78.257812 74.167969 78.582031 74.492188 78.902344 C 75.210938 79.617188 75.929688 80.335938 76.648438 81.050781 C 76.960938 81.359375 77.265625 81.667969 77.574219 81.976562 C 78.054688 82.453125 78.5625 82.871094 79.089844 83.292969 C 79.398438 83.601562 79.398438 83.601562 79.800781 84.398438 C 73.066406 84.398438 66.335938 84.398438 59.398438 84.398438 C 59.398438 86.050781 59.398438 87.699219 59.398438 89.398438 C 58.84375 91.863281 57.441406 94.128906 55.292969 95.53125 C 52.828125 96.945312 50.136719 97.523438 47.335938 96.773438 C 44.339844 95.6875 42.347656 93.835938 40.992188 90.960938 C 40.359375 89.265625 40.550781 87.378906 40.601562 85.601562 C 40.730469 85.601562 40.863281 85.601562 41 85.601562 C 41 85.203125 41 84.808594 41 84.398438 C 43.96875 84.398438 46.941406 84.398438 50 84.398438 C 50 74.566406 50 64.730469 50 54.601562 Z M 50 54.601562 "/>
<path style=" stroke:none;fill-rule:nonzero;fill:rgb(99.607843%,78.431373%,15.686275%);fill-opacity:1;" d="M 45 9.800781 C 46.648438 9.800781 48.300781 9.800781 50 9.800781 C 50 21.414062 50 33.03125 50 45 C 49.199219 44.601562 49.199219 44.601562 48.925781 44.210938 C 48.617188 43.757812 48.617188 43.757812 48.050781 43.550781 C 47.324219 43.160156 46.984375 42.757812 46.464844 42.128906 C 45.839844 41.414062 45.171875 40.746094 44.5 40.074219 C 44.375 39.949219 44.25 39.820312 44.117188 39.691406 C 43.40625 38.980469 42.675781 38.304688 41.90625 37.660156 C 41.261719 37.113281 40.699219 36.523438 40.175781 35.863281 C 39.808594 35.363281 39.808594 35.363281 39.199219 35 C 39.199219 34.867188 39.199219 34.734375 39.199219 34.601562 C 39.003906 34.535156 38.804688 34.46875 38.601562 34.398438 C 38.3125 34.109375 38.3125 34.109375 38.023438 33.75 C 37.519531 33.125 36.972656 32.566406 36.398438 32 C 36.226562 31.824219 36.054688 31.652344 35.878906 31.46875 C 34.925781 30.507812 33.960938 29.578125 32.929688 28.699219 C 32.5 28.308594 32.15625 27.859375 31.800781 27.398438 C 31.503906 27.203125 31.503906 27.203125 31.199219 27 C 31.199219 26.867188 31.199219 26.734375 31.199219 26.601562 C 31.089844 26.554688 30.976562 26.507812 30.863281 26.460938 C 29.90625 25.917969 29.277344 25.046875 28.601562 24.199219 C 28.089844 23.675781 27.578125 23.179688 27.023438 22.699219 C 26.601562 22.199219 26.601562 22.199219 26.628906 21.726562 C 26.953125 20.722656 27.722656 19.992188 28.398438 19.199219 C 28.535156 19.039062 28.667969 18.875 28.808594 18.710938 C 30.800781 16.390625 33.167969 14.539062 35.800781 13 C 35.917969 12.929688 36.039062 12.859375 36.160156 12.789062 C 38.695312 11.308594 41.355469 10.097656 44.332031 10.019531 C 44.792969 10.054688 44.792969 10.054688 45 9.800781 Z M 45 9.800781 "/>
<path style=" stroke:none;fill-rule:nonzero;fill:rgb(92.941176%,32.941176%,30.980392%);fill-opacity:1;" d="M 6.136719 2.9375 C 6.386719 2.925781 6.386719 2.925781 6.640625 2.914062 C 8.226562 3.15625 9.296875 4.414062 10.375 5.5 C 10.546875 5.671875 10.71875 5.84375 10.894531 6.019531 C 11.363281 6.484375 11.828125 6.953125 12.296875 7.421875 C 12.785156 7.914062 13.273438 8.402344 13.765625 8.890625 C 14.585938 9.710938 15.40625 10.535156 16.226562 11.359375 C 17.171875 12.308594 18.121094 13.261719 19.074219 14.210938 C 19.988281 15.125 20.902344 16.039062 21.816406 16.953125 C 22.203125 17.34375 22.59375 17.734375 22.984375 18.121094 C 23.527344 18.664062 24.066406 19.207031 24.605469 19.75 C 24.769531 19.914062 24.929688 20.074219 25.097656 20.242188 C 25.246094 20.390625 25.390625 20.539062 25.542969 20.6875 C 25.734375 20.882812 25.734375 20.882812 25.929688 21.078125 C 26.199219 21.398438 26.199219 21.398438 26.199219 21.800781 C 26.332031 21.800781 26.464844 21.800781 26.601562 21.800781 C 26.867188 22.101562 27.117188 22.417969 27.363281 22.738281 C 28.109375 23.691406 28.859375 24.523438 29.800781 25.289062 C 30.414062 25.8125 30.890625 26.371094 31.398438 27 C 31.910156 27.539062 32.429688 28.023438 33 28.5 C 33.570312 28.976562 34.078125 29.472656 34.601562 30 C 34.777344 30.175781 34.953125 30.347656 35.136719 30.53125 C 36.042969 31.425781 36.921875 32.324219 37.734375 33.304688 C 38.035156 33.652344 38.035156 33.652344 38.585938 34.085938 C 39.226562 34.621094 39.730469 35.199219 40.269531 35.832031 C 40.671875 36.277344 41.128906 36.628906 41.601562 37 C 41.839844 37.292969 42.078125 37.582031 42.316406 37.875 C 42.628906 38.230469 42.964844 38.53125 43.324219 38.835938 C 44.773438 40.074219 46.121094 41.433594 47.335938 42.902344 C 47.773438 43.390625 48.296875 43.78125 48.800781 44.199219 C 49.878906 45.339844 50.027344 46.1875 50.019531 47.722656 C 50.019531 47.972656 50.019531 47.972656 50.019531 48.230469 C 50.015625 48.765625 50.015625 49.300781 50.011719 49.835938 C 50.011719 50.199219 50.011719 50.5625 50.007812 50.929688 C 50.007812 51.820312 50.003906 52.710938 50 53.601562 C 48.269531 53.054688 47.34375 51.976562 46.199219 50.601562 C 45.851562 50.292969 45.496094 49.996094 45.136719 49.699219 C 44.632812 49.25 44.230469 48.71875 43.800781 48.199219 C 43.453125 47.886719 43.097656 47.585938 42.738281 47.289062 C 42.09375 46.738281 41.519531 46.15625 41 45.488281 C 40.578125 44.972656 40.125 44.609375 39.601562 44.199219 C 39.03125 43.660156 38.507812 43.097656 38 42.5 C 37.320312 41.699219 36.617188 40.976562 35.800781 40.3125 C 35.199219 39.800781 35.199219 39.800781 34.710938 39.210938 C 34.222656 38.628906 33.722656 38.171875 33.140625 37.6875 C 32.503906 37.148438 31.933594 36.574219 31.425781 35.914062 C 30.972656 35.367188 30.488281 34.945312 29.945312 34.496094 C 29.132812 33.800781 28.464844 33.03125 27.800781 32.199219 C 27.289062 31.664062 26.777344 31.179688 26.199219 30.710938 C 25.753906 30.332031 25.425781 30.007812 25.0625 29.5625 C 24.625 28.972656 24.625 28.972656 24 28.601562 C 24 28.46875 24 28.335938 24 28.199219 C 23.851562 28.148438 23.703125 28.101562 23.554688 28.046875 C 22.953125 27.78125 22.617188 27.496094 22.15625 27.03125 C 21.996094 26.871094 21.832031 26.710938 21.664062 26.546875 C 21.492188 26.371094 21.316406 26.195312 21.136719 26.015625 C 20.949219 25.828125 20.765625 25.644531 20.574219 25.453125 C 20.0625 24.945312 19.554688 24.4375 19.046875 23.929688 C 18.515625 23.394531 17.980469 22.863281 17.449219 22.332031 C 16.554688 21.4375 15.660156 20.539062 14.765625 19.644531 C 13.734375 18.609375 12.699219 17.578125 11.664062 16.542969 C 10.777344 15.65625 9.886719 14.769531 9 13.882812 C 8.46875 13.351562 7.941406 12.820312 7.410156 12.292969 C 6.816406 11.699219 6.226562 11.109375 5.636719 10.515625 C 5.460938 10.339844 5.289062 10.167969 5.105469 9.988281 C 3.164062 8.027344 3.164062 8.027344 2.894531 6.667969 C 2.910156 5.546875 3.03125 4.875 3.800781 4 C 4.59375 3.300781 5.082031 2.96875 6.136719 2.9375 Z M 6.136719 2.9375 "/>
<path style=" stroke:none;fill-rule:nonzero;fill:rgb(90.196078%,62.745098%,0.784314%);fill-opacity:1;" d="M 41 84.398438 C 47.007812 84.398438 53.011719 84.398438 59.199219 84.398438 C 59.632812 87.433594 59.695312 90.222656 57.9375 92.863281 C 56.332031 94.984375 54.292969 96.558594 51.601562 97 C 48.640625 97.21875 46.054688 96.722656 43.703125 94.792969 C 42.066406 93.238281 40.695312 91.253906 40.578125 88.941406 C 40.550781 87.828125 40.570312 86.714844 40.601562 85.601562 C 40.730469 85.601562 40.863281 85.601562 41 85.601562 C 41 85.203125 41 84.808594 41 84.398438 Z M 41 84.398438 "/>
<path style=" stroke:none;fill-rule:nonzero;fill:rgb(99.607843%,69.803922%,0.392157%);fill-opacity:1;" d="M 41 84.398438 C 43.96875 84.398438 46.941406 84.398438 50 84.398438 C 50 88.425781 50 92.453125 50 96.601562 C 46.566406 96.410156 45.007812 96.242188 42.800781 93.882812 C 40.648438 91.289062 40.511719 88.835938 40.601562 85.601562 C 40.730469 85.601562 40.863281 85.601562 41 85.601562 C 41 85.203125 41 84.808594 41 84.398438 Z M 41 84.398438 "/>
<path style=" stroke:none;fill-rule:nonzero;fill:rgb(47.45098%,56.470588%,60.392157%);fill-opacity:1;" d="M 51.675781 3.335938 C 52.304688 3.894531 52.824219 4.445312 53.199219 5.199219 C 53.21875 5.519531 53.222656 5.839844 53.21875 6.15625 C 53.21875 6.328125 53.21875 6.496094 53.21875 6.671875 C 53.214844 6.886719 53.214844 7.101562 53.210938 7.324219 C 53.207031 8.007812 53.203125 8.695312 53.199219 9.398438 C 51.089844 9.398438 48.976562 9.398438 46.800781 9.398438 C 46.785156 8.734375 46.765625 8.070312 46.75 7.386719 C 46.742188 7.179688 46.734375 6.972656 46.726562 6.761719 C 46.714844 5.527344 46.863281 4.804688 47.601562 3.800781 C 48.851562 2.824219 50.230469 2.613281 51.675781 3.335938 Z M 51.675781 3.335938 "/>
<path style=" stroke:none;fill-rule:nonzero;fill:rgb(43.529412%,51.372549%,54.117647%);fill-opacity:1;" d="M 50 3.199219 C 50.59375 3.300781 50.59375 3.300781 51.199219 3.398438 C 51.199219 3.53125 51.199219 3.664062 51.199219 3.800781 C 51.316406 3.824219 51.429688 3.847656 51.550781 3.875 C 52.664062 4.183594 52.664062 4.183594 53.019531 4.753906 C 53.226562 5.269531 53.246094 5.644531 53.238281 6.195312 C 53.238281 6.367188 53.238281 6.535156 53.234375 6.707031 C 53.230469 7.027344 53.230469 7.027344 53.226562 7.351562 C 53.214844 8.027344 53.207031 8.703125 53.199219 9.398438 C 51.484375 9.398438 49.769531 9.398438 48 9.398438 C 48 9.335938 48 9.269531 48 9.199219 C 48.660156 9.199219 49.320312 9.199219 50 9.199219 C 50 7.21875 50 5.238281 50 3.199219 Z M 50 3.199219 "/>
<path style=" stroke:none;fill-rule:nonzero;fill:rgb(87.45098%,74.117647%,30.980392%);fill-opacity:1;" d="M 76.800781 28.800781 C 77.160156 29.335938 77.277344 29.59375 77.40625 30.195312 C 77.441406 30.351562 77.476562 30.503906 77.507812 30.664062 C 77.5625 30.90625 77.5625 30.90625 77.613281 31.148438 C 77.648438 31.308594 77.683594 31.464844 77.71875 31.625 C 78.113281 33.445312 78.230469 35.140625 78.230469 37.003906 C 78.234375 37.402344 78.234375 37.800781 78.234375 38.199219 C 78.238281 38.628906 78.238281 39.054688 78.238281 39.480469 C 78.242188 40.375 78.246094 41.265625 78.25 42.160156 C 78.261719 44.699219 78.273438 47.238281 78.28125 49.773438 C 78.285156 51.179688 78.289062 52.582031 78.296875 53.984375 C 78.300781 54.726562 78.304688 55.46875 78.304688 56.210938 C 78.304688 57.039062 78.3125 57.867188 78.316406 58.695312 C 78.316406 58.9375 78.316406 59.179688 78.316406 59.429688 C 78.332031 61.316406 78.617188 63.046875 79.550781 64.710938 C 79.820312 65.199219 79.820312 65.199219 80 65.601562 C 79.902344 65.796875 79.902344 65.796875 79.800781 66 C 79.039062 65.375 78.734375 64.675781 78.367188 63.785156 C 78.230469 63.40625 78.230469 63.40625 78 63.199219 C 77.71875 61.824219 77.773438 60.429688 77.777344 59.035156 C 77.777344 58.753906 77.777344 58.472656 77.777344 58.195312 C 77.777344 57.4375 77.777344 56.679688 77.78125 55.921875 C 77.78125 55.132812 77.78125 54.339844 77.78125 53.546875 C 77.78125 52.046875 77.785156 50.550781 77.785156 49.050781 C 77.789062 47.34375 77.789062 45.636719 77.789062 43.929688 C 77.792969 40.417969 77.796875 36.910156 77.800781 33.398438 C 77.667969 33.398438 77.535156 33.398438 77.398438 33.398438 C 77.386719 33.199219 77.386719 33.199219 77.371094 32.996094 C 77.289062 31.914062 77.289062 31.914062 76.988281 30.875 C 76.710938 30.171875 76.773438 29.550781 76.800781 28.800781 Z M 76.800781 28.800781 "/>
<path style=" stroke:none;fill-rule:nonzero;fill:rgb(96.078431%,81.568627%,34.901961%);fill-opacity:1;" d="M 22.398438 31 C 22.464844 31 22.53125 31 22.601562 31 C 22.605469 31.398438 22.609375 31.800781 22.613281 32.199219 C 22.613281 32.421875 22.617188 32.644531 22.621094 32.875 C 22.601562 33.601562 22.601562 33.601562 22.5 34.28125 C 22.351562 35.453125 22.367188 36.628906 22.363281 37.808594 C 22.359375 38.203125 22.355469 38.601562 22.355469 38.996094 C 22.351562 39.417969 22.351562 39.84375 22.347656 40.265625 C 22.34375 41.148438 22.339844 42.03125 22.332031 42.914062 C 22.320312 44.949219 22.308594 46.980469 22.296875 49.015625 C 22.289062 50.882812 22.277344 52.75 22.265625 54.613281 C 22.257812 55.492188 22.253906 56.371094 22.25 57.25 C 22.25 57.664062 22.246094 58.078125 22.242188 58.492188 C 22.238281 58.996094 22.238281 59.5 22.234375 60.003906 C 22.234375 60.226562 22.230469 60.449219 22.230469 60.679688 C 22.230469 60.875 22.226562 61.066406 22.226562 61.265625 C 22.199219 61.796875 22.117188 62.285156 22 62.800781 C 21.867188 62.800781 21.734375 62.800781 21.601562 62.800781 C 21.5 62.996094 21.5 62.996094 21.398438 63.199219 C 21.433594 62.957031 21.464844 62.714844 21.496094 62.464844 C 21.632812 61.234375 21.628906 60.007812 21.632812 58.769531 C 21.632812 58.375 21.632812 57.976562 21.636719 57.582031 C 21.636719 57.160156 21.640625 56.734375 21.640625 56.3125 C 21.640625 55.425781 21.644531 54.539062 21.652344 53.652344 C 21.664062 51.132812 21.671875 48.613281 21.679688 46.09375 C 21.683594 44.699219 21.691406 43.304688 21.699219 41.910156 C 21.703125 41.175781 21.707031 40.441406 21.707031 39.703125 C 21.710938 33.839844 21.710938 33.839844 22.398438 31 Z M 22.398438 31 "/>
<path style=" stroke:none;fill-rule:nonzero;fill:rgb(98.431373%,76.470588%,21.568627%);fill-opacity:1;" d="M 23.398438 28 C 24.070312 28.222656 24.339844 28.472656 24.800781 29 C 24.800781 29.132812 24.800781 29.265625 24.800781 29.398438 C 24.910156 29.445312 25.023438 29.492188 25.136719 29.539062 C 26.085938 30.078125 26.742188 30.945312 27.398438 31.800781 C 27.203125 31.800781 27.003906 31.800781 26.800781 31.800781 C 26.800781 31.667969 26.800781 31.535156 26.800781 31.398438 C 26.667969 31.398438 26.535156 31.398438 26.398438 31.398438 C 25.445312 30.539062 25.445312 30.539062 25.199219 29.800781 C 25.066406 29.800781 24.9375 29.800781 24.800781 29.800781 C 24.734375 29.996094 24.667969 30.195312 24.601562 30.398438 C 24.402344 30.53125 24.203125 30.664062 24 30.800781 C 23.90625 31.003906 23.808594 31.203125 23.710938 31.414062 C 23.398438 32 23.398438 32 22.980469 32.136719 C 22.855469 32.15625 22.730469 32.179688 22.601562 32.199219 C 22.515625 30.765625 22.675781 29.542969 23.199219 28.199219 C 23.265625 28.132812 23.332031 28.066406 23.398438 28 Z M 23.398438 28 "/>
<path style=" stroke:none;fill-rule:nonzero;fill:rgb(87.058824%,72.156863%,26.27451%);fill-opacity:1;" d="M 76.800781 81.398438 C 77.46875 81.683594 77.839844 82.019531 78.300781 82.574219 C 78.683594 83.03125 79.066406 83.464844 79.488281 83.886719 C 79.800781 84.199219 79.800781 84.199219 79.800781 84.398438 C 73.132812 84.398438 66.46875 84.398438 59.601562 84.398438 C 59.601562 84.335938 59.601562 84.269531 59.601562 84.199219 C 66.003906 84.199219 72.402344 84.199219 79 84.199219 C 78.539062 83.671875 78.074219 83.144531 77.601562 82.601562 C 77.402344 82.203125 77.402344 82.203125 77.199219 81.800781 C 77.066406 81.800781 76.9375 81.800781 76.800781 81.800781 C 76.800781 81.667969 76.800781 81.535156 76.800781 81.398438 Z M 76.800781 81.398438 "/>
<path style=" stroke:none;fill-rule:nonzero;fill:rgb(81.960784%,38.431373%,20%);fill-opacity:1;" d="M 68.601562 72.800781 C 69.160156 72.878906 69.363281 72.960938 69.75 73.386719 C 70 73.800781 70 73.800781 70 74.199219 C 70.132812 74.199219 70.265625 74.199219 70.398438 74.199219 C 70.464844 74.332031 70.53125 74.464844 70.601562 74.601562 C 70.796875 74.664062 70.996094 74.730469 71.199219 74.800781 C 71.199219 74.996094 71.199219 75.195312 71.199219 75.398438 C 71.398438 75.464844 71.597656 75.53125 71.800781 75.601562 C 71.800781 75.730469 71.800781 75.863281 71.800781 76 C 71.921875 76.015625 72.039062 76.035156 72.164062 76.054688 C 72.71875 76.242188 72.851562 76.464844 73.175781 76.949219 C 73.550781 77.484375 73.898438 77.921875 74.414062 78.324219 C 74.871094 78.695312 75.1875 79 75.550781 79.449219 C 75.941406 80.003906 75.941406 80.003906 76.398438 80.199219 C 76.398438 80.332031 76.398438 80.464844 76.398438 80.601562 C 76.53125 80.601562 76.664062 80.601562 76.800781 80.601562 C 76.867188 80.730469 76.933594 80.863281 77 81 C 77.199219 81.066406 77.394531 81.132812 77.601562 81.199219 C 77.871094 81.597656 78.140625 81.996094 78.398438 82.398438 C 78.597656 82.5 78.597656 82.5 78.800781 82.601562 C 78.734375 82.796875 78.667969 82.996094 78.601562 83.199219 C 78.433594 82.996094 78.269531 82.796875 78.101562 82.585938 C 77.648438 82.058594 77.179688 81.59375 76.648438 81.140625 C 75.835938 80.441406 75.078125 79.703125 74.324219 78.941406 C 74.191406 78.808594 74.058594 78.675781 73.917969 78.539062 C 73.5 78.117188 73.082031 77.695312 72.664062 77.273438 C 72.378906 76.992188 72.097656 76.707031 71.8125 76.421875 C 70.511719 75.117188 70.511719 75.117188 69.917969 74.519531 C 69.710938 74.3125 69.503906 74.105469 69.292969 73.90625 C 69.054688 73.675781 68.824219 73.4375 68.601562 73.199219 C 68.601562 73.066406 68.601562 72.9375 68.601562 72.800781 Z M 68.601562 72.800781 "/>
<path style=" stroke:none;fill-rule:nonzero;fill:rgb(81.568627%,38.039216%,20%);fill-opacity:1;" d="M 52 56.398438 C 52.886719 56.679688 53.390625 57.105469 54 57.800781 C 54 57.933594 54 58.0625 54 58.199219 C 54.132812 58.199219 54.265625 58.199219 54.398438 58.199219 C 54.824219 58.574219 54.824219 58.574219 55.199219 59 C 55.199219 59.132812 55.199219 59.265625 55.199219 59.398438 C 55.398438 59.464844 55.597656 59.53125 55.800781 59.601562 C 56.046875 59.886719 56.296875 60.175781 56.535156 60.472656 C 57.089844 61.15625 57.554688 61.71875 58.398438 62 C 58.648438 62.289062 58.894531 62.578125 59.132812 62.875 C 59.433594 63.253906 59.433594 63.253906 59.960938 63.75 C 60.398438 64.199219 60.398438 64.199219 60.398438 64.601562 C 60.53125 64.601562 60.664062 64.601562 60.800781 64.601562 C 60.699219 64.796875 60.699219 64.796875 60.601562 65 C 60.402344 64.867188 60.203125 64.734375 60 64.601562 C 60 64.46875 60 64.335938 60 64.199219 C 59.886719 64.160156 59.777344 64.117188 59.664062 64.074219 C 59.148438 63.769531 58.859375 63.398438 58.488281 62.933594 C 58.191406 62.589844 57.875 62.308594 57.523438 62.011719 C 56.664062 61.277344 55.863281 60.488281 55.0625 59.6875 C 54.933594 59.558594 54.804688 59.433594 54.671875 59.300781 C 53.9375 58.5625 53.257812 57.808594 52.601562 57 C 52.402344 56.796875 52.207031 56.59375 52 56.398438 Z M 52 56.398438 "/>
<path style=" stroke:none;fill-rule:nonzero;fill:rgb(74.901961%,35.294118%,34.509804%);fill-opacity:1;" d="M 96.398438 92 C 96.53125 92.066406 96.664062 92.132812 96.800781 92.199219 C 97.089844 93.070312 97.101562 93.890625 97 94.800781 C 96.5 95.796875 95.800781 96.5 94.800781 97 C 93.699219 97.164062 92.824219 97.109375 91.875 96.5 C 90.964844 95.820312 90.171875 95.027344 89.398438 94.199219 C 90.105469 94.199219 90.195312 94.308594 90.699219 94.761719 C 90.875 94.917969 90.875 94.917969 91.054688 95.078125 C 91.277344 95.285156 91.488281 95.496094 91.695312 95.714844 C 92.515625 96.476562 93.378906 96.519531 94.460938 96.503906 C 95.242188 96.351562 95.542969 95.980469 95.996094 95.34375 C 96.425781 94.617188 96.421875 94.128906 96.414062 93.273438 C 96.410156 93.039062 96.410156 92.800781 96.40625 92.554688 C 96.40625 92.371094 96.402344 92.1875 96.398438 92 Z M 96.398438 92 "/>
<path style=" stroke:none;fill-rule:nonzero;fill:rgb(98.823529%,77.254902%,18.823529%);fill-opacity:1;" d="M 28.199219 19.398438 C 28.335938 19.898438 28.398438 20.277344 28.398438 20.800781 C 28.464844 20.933594 28.53125 21.0625 28.601562 21.199219 C 28.402344 21.199219 28.203125 21.199219 28 21.199219 C 28.03125 21.417969 28.066406 21.636719 28.101562 21.863281 C 28.199219 22.601562 28.199219 22.601562 28.199219 23.199219 C 28.265625 23.398438 28.332031 23.597656 28.398438 23.800781 C 28.53125 23.800781 28.664062 23.800781 28.800781 23.800781 C 28.734375 23.933594 28.667969 24.0625 28.601562 24.199219 C 28.265625 23.867188 27.933594 23.535156 27.601562 23.199219 C 27.410156 23.035156 27.21875 22.871094 27.023438 22.699219 C 26.601562 22.199219 26.601562 22.199219 26.628906 21.730469 C 26.828125 21.113281 27.105469 20.734375 27.511719 20.238281 C 27.703125 20 27.703125 20 27.902344 19.757812 C 28 19.640625 28.097656 19.523438 28.199219 19.398438 Z M 28.199219 19.398438 "/>
<path style=" stroke:none;fill-rule:nonzero;fill:rgb(94.509804%,80.784314%,34.117647%);fill-opacity:1;" d="M 14.800781 71.601562 C 14.867188 71.863281 14.933594 72.128906 15 72.398438 C 14.867188 72.398438 14.734375 72.398438 14.601562 72.398438 C 14.664062 72.730469 14.730469 73.058594 14.800781 73.398438 C 14.667969 73.398438 14.535156 73.398438 14.398438 73.398438 C 14.398438 73.53125 14.398438 73.664062 14.398438 73.800781 C 14.269531 73.800781 14.136719 73.800781 14 73.800781 C 13.730469 74.492188 13.601562 75 13.601562 75.75 C 13.601562 75.964844 13.601562 76.179688 13.601562 76.398438 C 13.46875 76.53125 13.335938 76.664062 13.199219 76.800781 C 13.117188 77.234375 13.117188 77.234375 13.085938 77.710938 C 13.019531 78.582031 13.019531 78.582031 12.800781 78.800781 C 12.753906 79.371094 12.714844 79.941406 12.6875 80.511719 C 12.679688 80.671875 12.671875 80.835938 12.660156 81 C 12.640625 81.402344 12.621094 81.800781 12.601562 82.199219 C 12.535156 82.199219 12.46875 82.199219 12.398438 82.199219 C 12.253906 78.140625 12.859375 75.183594 14.800781 71.601562 Z M 14.800781 71.601562 "/>
<path style=" stroke:none;fill-rule:nonzero;fill:rgb(81.568627%,38.431373%,19.607843%);fill-opacity:1;" d="M 56.800781 52.601562 C 57.699219 53.078125 58.339844 53.6875 59.042969 54.40625 C 59.160156 54.519531 59.277344 54.636719 59.394531 54.757812 C 59.765625 55.128906 60.132812 55.503906 60.5 55.875 C 60.746094 56.125 60.996094 56.371094 61.242188 56.621094 C 61.796875 57.183594 62.355469 57.746094 62.910156 58.308594 C 63.1875 58.589844 63.472656 58.867188 63.753906 59.144531 C 64.199219 59.597656 64.496094 60.042969 64.800781 60.601562 C 64.601562 60.535156 64.402344 60.46875 64.199219 60.398438 C 64.132812 60.269531 64.066406 60.136719 64 60 C 63.800781 59.933594 63.605469 59.867188 63.398438 59.800781 C 63.21875 59.519531 63.039062 59.234375 62.863281 58.953125 C 62.4375 58.378906 61.890625 57.953125 61.339844 57.503906 C 61 57.199219 61 57.199219 60.800781 56.800781 C 60.601562 56.734375 60.402344 56.667969 60.199219 56.601562 C 60.0625 56.1875 60.0625 56.1875 60 55.800781 C 59.867188 55.800781 59.734375 55.800781 59.601562 55.800781 C 59.332031 55.523438 59.332031 55.523438 59.039062 55.148438 C 58.542969 54.546875 58.011719 54.085938 57.398438 53.601562 C 57.398438 53.46875 57.398438 53.335938 57.398438 53.199219 C 57.203125 53.132812 57.003906 53.066406 56.800781 53 C 56.800781 52.867188 56.800781 52.734375 56.800781 52.601562 Z M 56.800781 52.601562 "/>
<path style=" stroke:none;fill-rule:nonzero;fill:rgb(81.568627%,38.039216%,19.607843%);fill-opacity:1;" d="M 60.800781 65.199219 C 61.730469 65.445312 62.125 65.933594 62.703125 66.652344 C 63.089844 67.105469 63.53125 67.441406 64 67.800781 C 64.460938 68.226562 64.460938 68.226562 64.800781 68.601562 C 64.800781 68.730469 64.800781 68.863281 64.800781 69 C 64.910156 69.046875 65.023438 69.089844 65.136719 69.136719 C 65.9375 69.589844 66.507812 70.125 66.800781 71 C 66.933594 71 67.0625 71 67.199219 71 C 67.625 71.375 67.625 71.375 68 71.800781 C 68 71.933594 68 72.0625 68 72.199219 C 67.292969 71.9375 66.953125 71.519531 66.496094 70.941406 C 66.046875 70.425781 65.53125 70.003906 65.015625 69.5625 C 64.597656 69.199219 64.195312 68.824219 63.800781 68.4375 C 63.683594 68.324219 63.570312 68.210938 63.449219 68.097656 C 63.199219 67.800781 63.199219 67.800781 63.199219 67.398438 C 63.085938 67.351562 62.972656 67.300781 62.851562 67.25 C 62.328125 66.960938 61.96875 66.617188 61.550781 66.1875 C 61.410156 66.046875 61.265625 65.902344 61.121094 65.753906 C 60.800781 65.398438 60.800781 65.398438 60.800781 65.199219 Z M 60.800781 65.199219 "/>
<path style=" stroke:none;fill-rule:nonzero;fill:rgb(81.568627%,39.215686%,19.215686%);fill-opacity:1;" d="M 65.199219 60.800781 C 65.976562 61.433594 66.691406 62.089844 67.398438 62.800781 C 67.6875 63.085938 67.976562 63.371094 68.265625 63.65625 C 68.707031 64.09375 69.148438 64.53125 69.589844 64.96875 C 69.824219 65.199219 70.054688 65.429688 70.289062 65.660156 C 70.628906 65.992188 70.964844 66.328125 71.300781 66.664062 C 71.40625 66.765625 71.511719 66.867188 71.617188 66.972656 C 72.125 67.480469 72.53125 67.929688 72.800781 68.601562 C 72.601562 68.535156 72.402344 68.46875 72.199219 68.398438 C 72.199219 68.269531 72.199219 68.136719 72.199219 68 C 72.066406 68 71.9375 68 71.800781 68 C 71.273438 67.523438 71.273438 67.523438 70.800781 67 C 70.800781 66.867188 70.800781 66.734375 70.800781 66.601562 C 70.667969 66.601562 70.535156 66.601562 70.398438 66.601562 C 70.109375 66.300781 70.109375 66.300781 69.773438 65.886719 C 69.144531 65.140625 68.46875 64.511719 67.71875 63.890625 C 67.398438 63.601562 67.398438 63.601562 67.199219 63.199219 C 67.003906 63.132812 66.804688 63.066406 66.601562 63 C 66.324219 62.605469 66.058594 62.203125 65.800781 61.800781 C 65.683594 61.683594 65.570312 61.570312 65.449219 61.449219 C 65.367188 61.367188 65.285156 61.285156 65.199219 61.199219 C 65.199219 61.066406 65.199219 60.9375 65.199219 60.800781 Z M 65.199219 60.800781 "/>
<path style=" stroke:none;fill-rule:nonzero;fill:rgb(81.568627%,38.823529%,19.607843%);fill-opacity:1;" d="M 74.800781 70.398438 C 75.578125 71.035156 76.292969 71.683594 77 72.398438 C 77.179688 72.578125 77.359375 72.757812 77.542969 72.945312 C 78.097656 73.496094 78.648438 74.046875 79.199219 74.601562 C 79.375 74.773438 79.550781 74.949219 79.734375 75.128906 C 80.261719 75.660156 80.726562 76.21875 81.199219 76.800781 C 80.703125 76.558594 80.265625 76.308594 79.800781 76 C 79.800781 75.867188 79.800781 75.734375 79.800781 75.601562 C 79.675781 75.550781 79.550781 75.5 79.425781 75.449219 C 78.929688 75.160156 78.808594 74.925781 78.601562 74.398438 C 78.46875 74.398438 78.335938 74.398438 78.199219 74.398438 C 77.652344 73.894531 77.214844 73.421875 76.800781 72.800781 C 76.601562 72.734375 76.402344 72.667969 76.199219 72.601562 C 75.398438 71.707031 75.398438 71.707031 75.398438 71.199219 C 75.269531 71.199219 75.136719 71.199219 75 71.199219 C 74.933594 70.9375 74.867188 70.671875 74.800781 70.398438 Z M 74.800781 70.398438 "/>
<path style=" stroke:none;fill-rule:nonzero;fill:rgb(95.686275%,81.960784%,31.764706%);fill-opacity:1;" d="M 41.601562 10.800781 C 41.269531 10.867188 40.941406 10.933594 40.601562 11 C 40.535156 11.199219 40.46875 11.394531 40.398438 11.601562 C 40.203125 11.664062 40.003906 11.730469 39.800781 11.800781 C 39.464844 12.101562 39.464844 12.101562 39.199219 12.398438 C 39.003906 12.335938 38.804688 12.269531 38.601562 12.199219 C 38.179688 12.378906 37.800781 12.605469 37.40625 12.835938 C 36.910156 13.035156 36.699219 12.945312 36.199219 12.800781 C 36.699219 12.542969 37.199219 12.289062 37.699219 12.039062 C 37.839844 11.964844 37.976562 11.894531 38.121094 11.820312 C 40.722656 10.507812 40.722656 10.507812 41.601562 10.800781 Z M 41.601562 10.800781 "/>
<path style=" stroke:none;fill-rule:nonzero;fill:rgb(81.568627%,39.607843%,19.607843%);fill-opacity:1;" d="M 51 46.601562 C 52.148438 47.558594 53.214844 48.582031 54.273438 49.636719 C 54.4375 49.796875 54.601562 49.960938 54.769531 50.125 C 55.003906 50.359375 55.003906 50.359375 55.242188 50.597656 C 55.382812 50.734375 55.523438 50.875 55.667969 51.019531 C 56 51.398438 56 51.398438 56.199219 52 C 55.585938 51.730469 55.230469 51.457031 54.8125 50.9375 C 54.304688 50.320312 53.773438 49.757812 53.199219 49.199219 C 53.027344 49.023438 52.851562 48.84375 52.675781 48.664062 C 52.207031 48.175781 52.207031 48.175781 51.601562 47.800781 C 51.601562 47.667969 51.601562 47.535156 51.601562 47.398438 C 51.46875 47.398438 51.335938 47.398438 51.199219 47.398438 C 51.132812 47.136719 51.066406 46.871094 51 46.601562 Z M 51 46.601562 "/>
<path style=" stroke:none;fill-rule:nonzero;fill:rgb(79.215686%,38.431373%,24.313725%);fill-opacity:1;" d="M 84.398438 80 C 86.074219 81.410156 86.074219 81.410156 86.601562 82 C 86.601562 82.132812 86.601562 82.265625 86.601562 82.398438 C 86.734375 82.4375 86.871094 82.472656 87.011719 82.511719 C 87.835938 82.917969 88.378906 83.53125 89 84.199219 C 88.257812 84.199219 88.152344 84.035156 87.625 83.539062 C 87.15625 83.109375 86.765625 82.78125 86.210938 82.460938 C 85.800781 82.199219 85.800781 82.199219 85.636719 81.761719 C 85.617188 81.582031 85.617188 81.582031 85.601562 81.398438 C 85.46875 81.398438 85.335938 81.398438 85.199219 81.398438 C 84.398438 80.507812 84.398438 80.507812 84.398438 80 Z M 84.398438 80 "/>
<path style=" stroke:none;fill-rule:nonzero;fill:rgb(90.196078%,41.568627%,22.352941%);fill-opacity:1;" d="M 36.601562 40.800781 C 37.160156 40.878906 37.363281 40.960938 37.75 41.386719 C 38 41.800781 38 41.800781 38 42.199219 C 38.132812 42.199219 38.265625 42.199219 38.398438 42.199219 C 38.742188 42.523438 39.074219 42.859375 39.398438 43.199219 C 39.585938 43.386719 39.769531 43.570312 39.960938 43.761719 C 40.105469 43.90625 40.25 44.050781 40.398438 44.199219 C 40.335938 44.398438 40.269531 44.597656 40.199219 44.800781 C 40.066406 44.632812 39.9375 44.460938 39.800781 44.289062 C 39.371094 43.769531 38.910156 43.335938 38.398438 42.898438 C 37.714844 42.316406 37.148438 41.71875 36.601562 41 C 36.601562 40.933594 36.601562 40.867188 36.601562 40.800781 Z M 36.601562 40.800781 "/>
<path style=" stroke:none;fill-rule:nonzero;fill:rgb(84.705882%,39.607843%,39.607843%);fill-opacity:1;" d="M 6.136719 2.925781 C 7.191406 2.945312 7.753906 3.179688 8.601562 3.800781 C 8.988281 4.25 8.988281 4.25 9.199219 4.601562 C 8.871094 4.601562 8.539062 4.601562 8.199219 4.601562 C 8.132812 4.46875 8.066406 4.335938 8 4.199219 C 7.621094 3.675781 7.425781 3.605469 6.773438 3.496094 C 6.421875 3.480469 6.421875 3.480469 6.0625 3.460938 C 5.707031 3.441406 5.707031 3.441406 5.347656 3.421875 C 5.167969 3.414062 4.984375 3.40625 4.800781 3.398438 C 5.292969 2.90625 5.457031 2.933594 6.136719 2.925781 Z M 6.136719 2.925781 "/>
<path style=" stroke:none;fill-rule:nonzero;fill:rgb(87.058824%,72.156863%,29.411765%);fill-opacity:1;" d="M 76.800781 28.800781 C 77.3125 29.570312 77.441406 30.292969 77.636719 31.1875 C 77.695312 31.429688 77.695312 31.429688 77.753906 31.679688 C 77.789062 31.835938 77.824219 31.992188 77.859375 32.15625 C 77.890625 32.296875 77.921875 32.441406 77.957031 32.589844 C 78.003906 33.042969 77.9375 33.367188 77.800781 33.800781 C 77.800781 33.667969 77.800781 33.535156 77.800781 33.398438 C 77.667969 33.398438 77.535156 33.398438 77.398438 33.398438 C 77.386719 33.199219 77.386719 33.199219 77.371094 32.996094 C 77.289062 31.914062 77.289062 31.914062 76.988281 30.875 C 76.710938 30.171875 76.773438 29.550781 76.800781 28.800781 Z M 76.800781 28.800781 "/>
<path style=" stroke:none;fill-rule:nonzero;fill:rgb(86.666667%,71.764706%,29.803922%);fill-opacity:1;" d="M 64 13 C 65.589844 13.683594 66.859375 14.726562 68.199219 15.800781 C 67.601562 16 67.601562 16 67 15.800781 C 67 15.601562 67 15.402344 67 15.199219 C 66.734375 15.199219 66.472656 15.199219 66.199219 15.199219 C 66.199219 15.003906 66.199219 14.804688 66.199219 14.601562 C 66.003906 14.601562 65.804688 14.601562 65.601562 14.601562 C 65.394531 14.40625 65.195312 14.203125 65 14 C 64.824219 13.898438 64.644531 13.792969 64.460938 13.6875 C 64.308594 13.59375 64.15625 13.496094 64 13.398438 C 64 13.269531 64 13.136719 64 13 Z M 64 13 "/>
<path style=" stroke:none;fill-rule:nonzero;fill:rgb(87.45098%,65.490196%,15.294118%);fill-opacity:1;" d="M 57.398438 92.800781 C 57.53125 92.867188 57.664062 92.933594 57.800781 93 C 56.902344 94.105469 55.976562 94.992188 54.800781 95.800781 C 54.667969 95.734375 54.535156 95.667969 54.398438 95.601562 C 54.597656 95.535156 54.796875 95.46875 55 95.398438 C 55.066406 95.203125 55.132812 95.003906 55.199219 94.800781 C 55.332031 94.867188 55.464844 94.933594 55.601562 95 C 55.601562 94.800781 55.601562 94.605469 55.601562 94.398438 C 55.730469 94.398438 55.863281 94.398438 56 94.398438 C 56 94.269531 56 94.136719 56 94 C 56.304688 93.699219 56.304688 93.699219 56.699219 93.375 C 56.828125 93.265625 56.960938 93.160156 57.09375 93.046875 C 57.246094 92.925781 57.246094 92.925781 57.398438 92.800781 Z M 57.398438 92.800781 "/>
<path style=" stroke:none;fill-rule:nonzero;fill:rgb(83.529412%,40%,36.862745%);fill-opacity:1;" d="M 17.398438 22 C 18.074219 22.148438 18.074219 22.148438 18.800781 22.398438 C 19 22.765625 19 22.765625 19.199219 23.199219 C 19.425781 23.472656 19.660156 23.738281 19.898438 24 C 20.371094 24.507812 20.714844 24.964844 21 25.601562 C 20.09375 24.855469 19.242188 24.066406 18.414062 23.238281 C 18.261719 23.089844 18.261719 23.089844 18.113281 22.9375 C 17.398438 22.226562 17.398438 22.226562 17.398438 22 Z M 17.398438 22 "/>
<path style=" stroke:none;fill-rule:nonzero;fill:rgb(89.803922%,76.078431%,25.882353%);fill-opacity:1;" d="M 69.601562 17.199219 C 70.558594 17.976562 71.484375 18.785156 72.199219 19.800781 C 72.199219 19.933594 72.199219 20.0625 72.199219 20.199219 C 71.527344 19.910156 71.074219 19.558594 70.601562 19 C 70.601562 18.800781 70.601562 18.605469 70.601562 18.398438 C 70.269531 18.335938 69.941406 18.269531 69.601562 18.199219 C 69.601562 17.871094 69.601562 17.539062 69.601562 17.199219 Z M 69.601562 17.199219 "/>
<path style=" stroke:none;fill-rule:nonzero;fill:rgb(89.803922%,73.333333%,21.960784%);fill-opacity:1;" d="M 59.601562 11 C 60.390625 11.125 61.039062 11.371094 61.761719 11.710938 C 62.054688 11.847656 62.054688 11.847656 62.355469 11.988281 C 62.574219 12.09375 62.574219 12.09375 62.800781 12.199219 C 62.199219 12.386719 62.027344 12.410156 61.398438 12.199219 C 61.398438 12.066406 61.398438 11.9375 61.398438 11.800781 C 61.246094 11.902344 61.09375 12.007812 60.9375 12.113281 C 60.761719 12.207031 60.582031 12.300781 60.398438 12.398438 C 60.203125 12.335938 60.003906 12.269531 59.800781 12.199219 C 59.867188 12.066406 59.933594 11.9375 60 11.800781 C 59.820312 11.375 59.820312 11.375 59.601562 11 Z M 59.601562 11 "/>
<path style=" stroke:none;fill-rule:nonzero;fill:rgb(81.568627%,38.823529%,20%);fill-opacity:1;" d="M 81.199219 76.800781 C 82.394531 77.769531 83.429688 78.808594 84.398438 80 C 83.425781 79.648438 83.425781 79.648438 83.199219 79.199219 C 83.003906 79.132812 82.804688 79.066406 82.601562 79 C 81.800781 78.109375 81.800781 78.109375 81.800781 77.601562 C 81.667969 77.601562 81.535156 77.601562 81.398438 77.601562 C 81.335938 77.335938 81.269531 77.070312 81.199219 76.800781 Z M 81.199219 76.800781 "/>
<path style=" stroke:none;fill-rule:nonzero;fill:rgb(90.980392%,44.313725%,22.352941%);fill-opacity:1;" d="M 42.800781 38.398438 C 43.933594 39.339844 44.96875 40.347656 46 41.398438 C 45.800781 41.5 45.800781 41.5 45.601562 41.601562 C 45.46875 41.535156 45.335938 41.46875 45.199219 41.398438 C 45.199219 41.269531 45.199219 41.136719 45.199219 41 C 45.066406 41 44.9375 41 44.800781 41 C 44.476562 40.664062 44.476562 40.664062 44.113281 40.226562 C 43.683594 39.707031 43.367188 39.378906 42.800781 39 C 42.800781 38.800781 42.800781 38.605469 42.800781 38.398438 Z M 42.800781 38.398438 "/>
<path style=" stroke:none;fill-rule:nonzero;fill:rgb(88.627451%,41.960784%,27.45098%);fill-opacity:1;" d="M 22 26.601562 C 23.441406 27.292969 24.644531 28.105469 25.601562 29.398438 C 25.535156 29.53125 25.46875 29.664062 25.398438 29.800781 C 25.164062 29.609375 24.933594 29.417969 24.699219 29.226562 C 24.570312 29.117188 24.441406 29.011719 24.304688 28.902344 C 24.207031 28.800781 24.105469 28.703125 24 28.601562 C 24 28.46875 24 28.335938 24 28.199219 C 23.855469 28.160156 23.710938 28.117188 23.5625 28.074219 C 22.816406 27.710938 22.5 27.257812 22 26.601562 Z M 22 26.601562 "/>
<path style=" stroke:none;fill-rule:nonzero;fill:rgb(90.980392%,71.372549%,16.470588%);fill-opacity:1;" d="M 68.199219 16 C 68.660156 16.328125 69.125 16.660156 69.601562 17 C 69.535156 17.199219 69.46875 17.394531 69.398438 17.601562 C 69.203125 17.535156 69.003906 17.46875 68.800781 17.398438 C 68.734375 17.464844 68.667969 17.53125 68.601562 17.601562 C 68.265625 17.609375 67.933594 17.609375 67.601562 17.601562 C 67.75 17.484375 67.75 17.484375 67.898438 17.363281 C 68.292969 16.890625 68.25 16.597656 68.199219 16 Z M 68.199219 16 "/>
<path style=" stroke:none;fill-rule:nonzero;fill:rgb(93.333333%,65.490196%,24.313725%);fill-opacity:1;" d="M 76.800781 81.398438 C 77.46875 81.683594 77.839844 82.019531 78.300781 82.574219 C 78.78125 83.140625 79.261719 83.683594 79.800781 84.199219 C 79.601562 84.265625 79.402344 84.332031 79.199219 84.398438 C 78.902344 84.082031 78.609375 83.757812 78.3125 83.4375 C 78.066406 83.167969 78.066406 83.167969 77.8125 82.894531 C 77.398438 82.398438 77.398438 82.398438 77.199219 81.800781 C 77.066406 81.800781 76.9375 81.800781 76.800781 81.800781 C 76.800781 81.667969 76.800781 81.535156 76.800781 81.398438 Z M 76.800781 81.398438 "/>
<path style=" stroke:none;fill-rule:nonzero;fill:rgb(84.705882%,72.156863%,29.019608%);fill-opacity:1;" d="M 75 24.601562 C 75.566406 25.277344 75.90625 26.019531 76.25 26.824219 C 76.304688 26.953125 76.363281 27.078125 76.421875 27.207031 C 76.558594 27.535156 76.679688 27.867188 76.800781 28.199219 C 76.734375 28.332031 76.667969 28.464844 76.601562 28.601562 C 76.398438 28.25 76.199219 27.902344 76 27.550781 C 75.832031 27.257812 75.832031 27.257812 75.664062 26.960938 C 75.398438 26.398438 75.398438 26.398438 75.398438 25.601562 C 75.269531 25.601562 75.136719 25.601562 75 25.601562 C 75 25.269531 75 24.941406 75 24.601562 Z M 75 24.601562 "/>
<path style=" stroke:none;fill-rule:nonzero;fill:rgb(99.215686%,71.372549%,25.490196%);fill-opacity:1;" d="M 38.199219 42.800781 C 39.527344 43.710938 40.539062 44.632812 41.398438 46 C 40.628906 45.6875 40.171875 45.199219 39.601562 44.601562 C 39.476562 44.480469 39.351562 44.359375 39.226562 44.238281 C 39.097656 44.113281 38.96875 43.988281 38.835938 43.863281 C 38.714844 43.746094 38.59375 43.628906 38.472656 43.511719 C 38.199219 43.199219 38.199219 43.199219 38.199219 42.800781 Z M 38.199219 42.800781 "/>
<path style=" stroke:none;fill-rule:nonzero;fill:rgb(99.215686%,71.764706%,24.313725%);fill-opacity:1;" d="M 30.398438 35 C 31.113281 35.265625 31.476562 35.695312 31.941406 36.28125 C 32.230469 36.648438 32.230469 36.648438 32.738281 37.136719 C 33.199219 37.601562 33.199219 37.601562 33.601562 38.199219 C 33.210938 38.039062 33.210938 38.039062 32.800781 37.800781 C 32.734375 37.601562 32.667969 37.402344 32.601562 37.199219 C 32.335938 37.058594 32.070312 36.929688 31.800781 36.800781 C 31.414062 36.46875 31.414062 36.46875 31.050781 36.101562 C 30.925781 35.976562 30.804688 35.855469 30.679688 35.730469 C 30.398438 35.398438 30.398438 35.398438 30.398438 35 Z M 30.398438 35 "/>
<path style=" stroke:none;fill-rule:nonzero;fill:rgb(86.666667%,72.156863%,26.27451%);fill-opacity:1;" d="M 73.199219 21.601562 C 74.035156 22.3125 74.539062 23.21875 75 24.199219 C 75 24.332031 75 24.464844 75 24.601562 C 74.671875 24.535156 74.339844 24.46875 74 24.398438 C 73.980469 24.191406 73.957031 23.980469 73.9375 23.761719 C 73.804688 23.019531 73.609375 22.621094 73.199219 22 C 73.199219 21.867188 73.199219 21.734375 73.199219 21.601562 Z M 73.199219 21.601562 "/>
<path style=" stroke:none;fill-rule:nonzero;fill:rgb(94.117647%,73.72549%,22.745098%);fill-opacity:1;" d="M 43.199219 94 C 43.6875 94.214844 44.050781 94.441406 44.460938 94.789062 C 44.914062 95.132812 45.222656 95.308594 45.738281 95.511719 C 46.398438 95.800781 46.398438 95.800781 46.800781 96.398438 C 45.359375 96.03125 44.042969 95.234375 43.199219 94 Z M 43.199219 94 "/>
<path style=" stroke:none;fill-rule:nonzero;fill:rgb(52.54902%,58.431373%,61.960784%);fill-opacity:1;" d="M 49.601562 3.199219 C 49.09375 3.707031 48.5625 4.15625 48 4.601562 C 47.867188 4.601562 47.734375 4.601562 47.601562 4.601562 C 47.535156 4.730469 47.46875 4.863281 47.398438 5 C 47.269531 4.933594 47.136719 4.867188 47 4.800781 C 47.59375 3.640625 48.265625 3.085938 49.601562 3.199219 Z M 49.601562 3.199219 "/>
<path style=" stroke:none;fill-rule:nonzero;fill:rgb(75.294118%,34.901961%,31.764706%);fill-opacity:1;" d="M 80.601562 85.199219 C 80.796875 85.199219 80.996094 85.199219 81.199219 85.199219 C 81.453125 85.5 81.707031 85.800781 81.945312 86.109375 C 82.195312 86.433594 82.195312 86.433594 82.648438 86.613281 C 82.765625 86.675781 82.882812 86.734375 83 86.800781 C 83.148438 87.324219 83.148438 87.324219 83.199219 87.800781 C 82.222656 87.011719 81.386719 86.175781 80.601562 85.199219 Z M 80.601562 85.199219 "/>
<path style=" stroke:none;fill-rule:nonzero;fill:rgb(96.862745%,68.627451%,24.705882%);fill-opacity:1;" d="M 48.199219 43.601562 C 48.585938 43.761719 48.585938 43.761719 49 44 C 49.066406 44.199219 49.132812 44.394531 49.199219 44.601562 C 49.3125 44.652344 49.421875 44.707031 49.539062 44.761719 C 50.226562 45.117188 50.667969 45.640625 51.199219 46.199219 C 51.132812 46.332031 51.066406 46.464844 51 46.601562 C 49.960938 45.75 49.03125 44.859375 48.199219 43.800781 C 48.199219 43.734375 48.199219 43.667969 48.199219 43.601562 Z M 48.199219 43.601562 "/>
<path style=" stroke:none;fill-rule:nonzero;fill:rgb(85.882353%,71.764706%,30.196078%);fill-opacity:1;" d="M 86.199219 73.800781 C 86.597656 74.394531 86.796875 74.898438 87.023438 75.574219 C 87.09375 75.78125 87.167969 75.988281 87.238281 76.199219 C 87.390625 76.765625 87.433594 77.21875 87.398438 77.800781 C 87.269531 77.734375 87.136719 77.667969 87 77.601562 C 86.886719 77.164062 86.886719 77.164062 86.800781 76.625 C 86.683594 75.925781 86.605469 75.605469 86.199219 75 C 86.175781 74.363281 86.175781 74.363281 86.199219 73.800781 Z M 86.199219 73.800781 "/>
<path style=" stroke:none;fill-rule:nonzero;fill:rgb(96.862745%,80.392157%,25.882353%);fill-opacity:1;" d="M 41.601562 10.800781 C 41.269531 10.867188 40.941406 10.933594 40.601562 11 C 40.535156 11.199219 40.46875 11.394531 40.398438 11.601562 C 39.988281 11.738281 39.988281 11.738281 39.601562 11.800781 C 39.625 11.425781 39.625 11.425781 39.800781 11 C 40.519531 10.671875 40.835938 10.546875 41.601562 10.800781 Z M 38.601562 11.800781 C 38.929688 11.800781 39.261719 11.800781 39.601562 11.800781 C 39.601562 11.933594 39.601562 12.0625 39.601562 12.199219 C 39.402344 12.265625 39.203125 12.332031 39 12.398438 C 38.867188 12.203125 38.734375 12.003906 38.601562 11.800781 Z M 38.601562 11.800781 "/>
<path style=" stroke:none;fill-rule:nonzero;fill:rgb(94.509804%,82.352941%,33.333333%);fill-opacity:1;" d="M 36.199219 13 C 36.199219 13.132812 36.199219 13.265625 36.199219 13.398438 C 36.082031 13.453125 35.960938 13.507812 35.835938 13.5625 C 35.394531 13.769531 35.394531 13.769531 35.136719 14.101562 C 34.628906 14.550781 34.050781 14.640625 33.398438 14.800781 C 34.113281 14.023438 35.074219 13 36.199219 13 Z M 36.199219 13 "/>
<path style=" stroke:none;fill-rule:nonzero;fill:rgb(85.490196%,63.137255%,13.333333%);fill-opacity:1;" d="M 59 88.199219 C 59.132812 88.199219 59.265625 88.199219 59.398438 88.199219 C 59.246094 90.3125 59.246094 90.3125 58.800781 91.199219 C 58.558594 90.492188 58.640625 89.972656 58.789062 89.25 C 58.828125 89.054688 58.867188 88.855469 58.90625 88.652344 C 58.9375 88.503906 58.96875 88.355469 59 88.199219 Z M 59 88.199219 "/>
<path style=" stroke:none;fill-rule:nonzero;fill:rgb(98.039216%,80.392157%,27.058824%);fill-opacity:1;" d="M 13.199219 75.199219 C 13.265625 75.199219 13.332031 75.199219 13.398438 75.199219 C 13.523438 75.773438 13.523438 75.773438 13.601562 76.398438 C 13.46875 76.53125 13.335938 76.664062 13.199219 76.800781 C 13.109375 77.242188 13.109375 77.242188 13.074219 77.726562 C 13.058594 77.886719 13.046875 78.050781 13.03125 78.21875 C 13.015625 78.410156 13.015625 78.410156 13 78.601562 C 12.933594 78.601562 12.867188 78.601562 12.800781 78.601562 C 12.789062 78.183594 12.78125 77.765625 12.773438 77.351562 C 12.769531 77.117188 12.765625 76.886719 12.761719 76.648438 C 12.796875 76.035156 12.878906 75.710938 13.199219 75.199219 Z M 13.199219 75.199219 "/>
<path style=" stroke:none;fill-rule:nonzero;fill:rgb(96.078431%,80%,29.019608%);fill-opacity:1;" d="M 28.199219 19.398438 C 28.398438 20.199219 28.398438 20.199219 28.199219 20.539062 C 27.933594 20.828125 27.667969 21.113281 27.398438 21.398438 C 27.203125 21.335938 27.003906 21.269531 26.800781 21.199219 C 27.261719 20.605469 27.722656 20.011719 28.199219 19.398438 Z M 28.199219 19.398438 "/>
<path style=" stroke:none;fill-rule:nonzero;fill:rgb(89.803922%,40.392157%,21.568627%);fill-opacity:1;" d="M 42.398438 46.800781 C 43.25 46.894531 43.652344 47.378906 44.199219 48 C 44.265625 48.199219 44.332031 48.394531 44.398438 48.601562 C 44.53125 48.601562 44.664062 48.601562 44.800781 48.601562 C 44.734375 48.730469 44.667969 48.863281 44.601562 49 C 43.773438 48.324219 43.039062 47.667969 42.398438 46.800781 Z M 42.398438 46.800781 "/>
<path style=" stroke:none;fill-rule:nonzero;fill:rgb(96.078431%,71.372549%,7.058824%);fill-opacity:1;" d="M 42.398438 93.199219 C 42.730469 93.199219 43.058594 93.199219 43.398438 93.199219 C 43.398438 93.332031 43.398438 93.464844 43.398438 93.601562 C 43.597656 93.664062 43.796875 93.730469 44 93.800781 C 44.335938 94.210938 44.335938 94.210938 44.601562 94.601562 C 44.535156 94.730469 44.46875 94.863281 44.398438 95 C 44.289062 94.878906 44.175781 94.761719 44.0625 94.636719 C 43.601562 94.203125 43.140625 93.921875 42.601562 93.601562 C 42.535156 93.46875 42.46875 93.335938 42.398438 93.199219 Z M 44.199219 94 C 44.601562 94.199219 44.601562 94.199219 44.601562 94.199219 Z M 44.199219 94 "/>
<path style=" stroke:none;fill-rule:nonzero;fill:rgb(95.686275%,80.392157%,30.196078%);fill-opacity:1;" d="M 12.601562 82.199219 C 13.308594 82.535156 13.558594 82.699219 13.863281 83.4375 C 13.90625 83.625 13.953125 83.808594 14 84 C 13.328125 83.722656 12.976562 83.421875 12.601562 82.800781 C 12.601562 82.601562 12.601562 82.402344 12.601562 82.199219 Z M 12.601562 82.199219 "/>
<path style=" stroke:none;fill-rule:nonzero;fill:rgb(91.764706%,70.588235%,17.647059%);fill-opacity:1;" d="M 41 90.398438 C 41.132812 90.398438 41.265625 90.398438 41.398438 90.398438 C 41.398438 90.664062 41.398438 90.929688 41.398438 91.199219 C 41.597656 91.265625 41.796875 91.332031 42 91.398438 C 42.125 91.761719 42.125 91.761719 42.199219 92.199219 C 42.238281 92.347656 42.273438 92.496094 42.3125 92.648438 C 42.355469 92.824219 42.355469 92.824219 42.398438 93 C 41.511719 92.296875 41.296875 91.449219 41 90.398438 Z M 41 90.398438 "/>
<path style=" stroke:none;fill-rule:nonzero;fill:rgb(87.843137%,71.764706%,21.568627%);fill-opacity:1;" d="M 80.800781 67 C 81.261719 67.394531 81.722656 67.792969 82.199219 68.199219 C 81.703125 68.449219 81.519531 68.355469 81 68.199219 C 80.933594 68.332031 80.867188 68.464844 80.800781 68.601562 C 80.800781 68.070312 80.800781 67.542969 80.800781 67 Z M 80.800781 67 "/>
<path style=" stroke:none;fill-rule:nonzero;fill:rgb(96.862745%,80%,28.627451%);fill-opacity:1;" d="M 20.398438 65 C 20.464844 65.265625 20.53125 65.527344 20.601562 65.800781 C 20.46875 65.800781 20.335938 65.800781 20.199219 65.800781 C 20.265625 66.195312 20.332031 66.59375 20.398438 67 C 20.070312 66.933594 19.738281 66.867188 19.398438 66.800781 C 19.699219 66.175781 20.039062 65.589844 20.398438 65 Z M 20.398438 65 "/>
<path style=" stroke:none;fill-rule:nonzero;fill:rgb(81.960784%,39.607843%,19.215686%);fill-opacity:1;" d="M 50 54.398438 C 50.265625 54.464844 50.527344 54.53125 50.800781 54.601562 C 50.800781 54.730469 50.800781 54.863281 50.800781 55 C 50.933594 55 51.0625 55 51.199219 55 C 51.625 55.375 51.625 55.375 52 55.800781 C 52 55.933594 52 56.0625 52 56.199219 C 51.359375 55.921875 50.988281 55.613281 50.550781 55.074219 C 50.445312 54.949219 50.339844 54.824219 50.234375 54.691406 C 50.15625 54.597656 50.078125 54.5 50 54.398438 Z M 50 54.398438 "/>
<path style=" stroke:none;fill-rule:nonzero;fill:rgb(86.666667%,34.509804%,23.529412%);fill-opacity:1;" d="M 50.800781 53.398438 C 50.636719 53.789062 50.636719 53.789062 50.398438 54.199219 C 50.203125 54.265625 50.003906 54.332031 49.800781 54.398438 C 49.601562 54.070312 49.402344 53.738281 49.199219 53.398438 C 49.855469 53.238281 50.140625 53.179688 50.800781 53.398438 Z M 50.800781 53.398438 "/>
<path style=" stroke:none;fill-rule:nonzero;fill:rgb(90.196078%,41.176471%,21.960784%);fill-opacity:1;" d="M 40.601562 44.800781 C 40.796875 44.867188 40.996094 44.933594 41.199219 45 C 41.199219 45.132812 41.199219 45.265625 41.199219 45.398438 C 41.332031 45.398438 41.464844 45.398438 41.601562 45.398438 C 41.601562 45.53125 41.601562 45.664062 41.601562 45.800781 C 41.796875 45.800781 41.996094 45.800781 42.199219 45.800781 C 42.265625 46.0625 42.332031 46.328125 42.398438 46.601562 C 41.605469 46.179688 41.121094 45.734375 40.601562 45 C 40.601562 44.933594 40.601562 44.867188 40.601562 44.800781 Z M 40.601562 44.800781 "/>
<path style=" stroke:none;fill-rule:nonzero;fill:rgb(94.901961%,82.352941%,31.372549%);fill-opacity:1;" d="M 30 17.398438 C 30 18.136719 29.835938 18.414062 29.398438 19 C 28.863281 19.261719 28.863281 19.261719 28.398438 19.398438 C 28.875 18.652344 29.347656 18.003906 30 17.398438 Z M 30 17.398438 "/>
<path style=" stroke:none;fill-rule:nonzero;fill:rgb(80.784314%,34.901961%,33.72549%);fill-opacity:1;" d="M 96.398438 94.601562 C 96.464844 94.601562 96.53125 94.601562 96.601562 94.601562 C 96.648438 95.050781 96.648438 95.050781 96.601562 95.601562 C 96.199219 96.0625 96.199219 96.0625 95.800781 96.398438 C 95.601562 96.335938 95.402344 96.269531 95.199219 96.199219 C 95.453125 95.902344 95.707031 95.601562 95.960938 95.300781 C 96.21875 95 96.21875 95 96.398438 94.601562 Z M 96.398438 94.601562 "/>
<path style=" stroke:none;fill-rule:nonzero;fill:rgb(85.882353%,71.372549%,28.627451%);fill-opacity:1;" d="M 85 71.601562 C 85.621094 72.300781 85.949219 72.898438 86.199219 73.800781 C 86.003906 73.734375 85.804688 73.667969 85.601562 73.601562 C 85.535156 73.203125 85.46875 72.808594 85.398438 72.398438 C 85.269531 72.398438 85.136719 72.398438 85 72.398438 C 85 72.136719 85 71.871094 85 71.601562 Z M 85 71.601562 "/>
<path style=" stroke:none;fill-rule:nonzero;fill:rgb(81.960784%,40%,19.607843%);fill-opacity:1;" d="M 72.800781 68.601562 C 73.441406 68.875 73.808594 69.183594 74.25 69.726562 C 74.40625 69.914062 74.40625 69.914062 74.566406 70.109375 C 74.679688 70.253906 74.679688 70.253906 74.800781 70.398438 C 74.011719 70.03125 73.441406 69.585938 72.800781 69 C 72.800781 68.867188 72.800781 68.734375 72.800781 68.601562 Z M 72.800781 68.601562 "/>
<path style=" stroke:none;fill-rule:nonzero;fill:rgb(92.54902%,65.490196%,23.137255%);fill-opacity:1;" d="M 57.398438 62 C 58.386719 62.480469 58.808594 63.105469 59.398438 64 C 58.574219 63.683594 57.953125 63.078125 57.398438 62.398438 C 57.398438 62.269531 57.398438 62.136719 57.398438 62 Z M 57.398438 62 "/>
<path style=" stroke:none;fill-rule:nonzero;fill:rgb(99.215686%,70.980392%,24.313725%);fill-opacity:1;" d="M 41.398438 46 C 42.105469 46.390625 42.667969 46.789062 43.199219 47.398438 C 43.199219 47.53125 43.199219 47.664062 43.199219 47.800781 C 42.4375 47.488281 41.949219 47.007812 41.398438 46.398438 C 41.398438 46.269531 41.398438 46.136719 41.398438 46 Z M 41.398438 46 "/>
<path style=" stroke:none;fill-rule:nonzero;fill:rgb(89.411765%,39.607843%,21.960784%);fill-opacity:1;" d="M 33.199219 37.601562 C 33.742188 37.632812 34.09375 37.695312 34.488281 38.082031 C 34.734375 38.378906 34.96875 38.6875 35.199219 39 C 35.132812 39.132812 35.066406 39.265625 35 39.398438 C 34.699219 39.136719 34.398438 38.875 34.101562 38.613281 C 33.933594 38.464844 33.765625 38.320312 33.59375 38.167969 C 33.464844 38.046875 33.332031 37.925781 33.199219 37.800781 C 33.199219 37.734375 33.199219 37.667969 33.199219 37.601562 Z M 33.199219 37.601562 "/>
<path style=" stroke:none;fill-rule:nonzero;fill:rgb(87.45098%,37.647059%,37.254902%);fill-opacity:1;" d="M 17.398438 22 C 18.074219 22.136719 18.074219 22.136719 18.800781 22.398438 C 19.085938 22.925781 19.085938 22.925781 19.199219 23.398438 C 18.722656 23.363281 18.460938 23.261719 18.125 22.917969 C 17.875 22.617188 17.636719 22.308594 17.398438 22 Z M 17.398438 22 "/>
<path style=" stroke:none;fill-rule:nonzero;fill:rgb(86.27451%,71.764706%,27.45098%);fill-opacity:1;" d="M 69.601562 17.199219 C 70.0625 17.597656 70.523438 17.992188 71 18.398438 C 70.933594 18.53125 70.867188 18.664062 70.800781 18.800781 C 70.402344 18.601562 70.007812 18.402344 69.601562 18.199219 C 69.601562 17.871094 69.601562 17.539062 69.601562 17.199219 Z M 69.601562 17.199219 "/>
<path style=" stroke:none;fill-rule:nonzero;fill:rgb(85.882353%,36.470588%,34.509804%);fill-opacity:1;" d="M 7.601562 3.398438 C 8.382812 3.652344 8.757812 3.902344 9.199219 4.601562 C 8.871094 4.601562 8.539062 4.601562 8.199219 4.601562 C 8.132812 4.46875 8.066406 4.335938 8 4.199219 C 7.867188 4.132812 7.734375 4.066406 7.601562 4 C 7.601562 3.800781 7.601562 3.605469 7.601562 3.398438 Z M 7.601562 3.398438 "/>
<path style=" stroke:none;fill-rule:nonzero;fill:rgb(92.54902%,65.490196%,23.137255%);fill-opacity:1;" d="M 75 70.398438 C 75.761719 70.710938 76.238281 71.207031 76.800781 71.800781 C 76.734375 71.933594 76.667969 72.0625 76.601562 72.199219 C 76.011719 71.628906 75.472656 71.070312 75 70.398438 Z M 75 70.398438 "/>
<path style=" stroke:none;fill-rule:nonzero;fill:rgb(92.156863%,65.098039%,23.137255%);fill-opacity:1;" d="M 65.398438 60.800781 C 66.164062 61.109375 66.636719 61.605469 67.199219 62.199219 C 67.132812 62.332031 67.066406 62.464844 67 62.601562 C 66.414062 62.03125 65.871094 61.46875 65.398438 60.800781 Z M 65.398438 60.800781 "/>
<path style=" stroke:none;fill-rule:nonzero;fill:rgb(92.156863%,65.098039%,23.137255%);fill-opacity:1;" d="M 62.199219 57.601562 C 62.964844 57.910156 63.4375 58.40625 64 59 C 63.933594 59.132812 63.867188 59.265625 63.800781 59.398438 C 63.214844 58.828125 62.671875 58.269531 62.199219 57.601562 Z M 62.199219 57.601562 "/>
<path style=" stroke:none;fill-rule:nonzero;fill:rgb(98.431373%,67.45098%,25.098039%);fill-opacity:1;" d="M 40 35.398438 C 40.132812 35.398438 40.265625 35.398438 40.398438 35.398438 C 40.398438 35.53125 40.398438 35.664062 40.398438 35.800781 C 40.597656 35.867188 40.796875 35.933594 41 36 C 41 36.132812 41 36.265625 41 36.398438 C 41.199219 36.464844 41.394531 36.53125 41.601562 36.601562 C 41.535156 36.730469 41.46875 36.863281 41.398438 37 C 41.164062 36.808594 40.933594 36.617188 40.699219 36.425781 C 40.570312 36.316406 40.441406 36.210938 40.304688 36.101562 C 40.207031 36.003906 40.105469 35.902344 40 35.800781 C 40 35.667969 40 35.535156 40 35.398438 Z M 40 35.398438 "/>
<path style=" stroke:none;fill-rule:nonzero;fill:rgb(88.627451%,73.72549%,31.372549%);fill-opacity:1;" d="M 60.800781 11.398438 C 61.582031 11.632812 62.175781 11.871094 62.800781 12.398438 C 62.339844 12.335938 61.875 12.269531 61.398438 12.199219 C 61.398438 12.066406 61.398438 11.9375 61.398438 11.800781 C 61.203125 11.800781 61.003906 11.800781 60.800781 11.800781 C 60.800781 11.667969 60.800781 11.535156 60.800781 11.398438 Z M 60.800781 11.398438 "/>
<path style=" stroke:none;fill-rule:nonzero;fill:rgb(82.352941%,40%,19.607843%);fill-opacity:1;" d="M 66.398438 70.800781 C 67.15625 70.90625 67.511719 71.222656 68 71.800781 C 68 71.933594 68 72.0625 68 72.199219 C 67.242188 71.902344 66.878906 71.449219 66.398438 70.800781 Z M 66.398438 70.800781 "/>
<path style=" stroke:none;fill-rule:nonzero;fill:rgb(98.431373%,67.058824%,25.098039%);fill-opacity:1;" d="M 33.601562 38.199219 C 34.210938 38.546875 34.726562 38.875 35.199219 39.398438 C 35.132812 39.53125 35.066406 39.664062 35 39.800781 C 34.765625 39.609375 34.53125 39.417969 34.300781 39.226562 C 34.171875 39.117188 34.039062 39.011719 33.90625 38.902344 C 33.804688 38.800781 33.703125 38.703125 33.601562 38.601562 C 33.601562 38.46875 33.601562 38.335938 33.601562 38.199219 Z M 33.601562 38.199219 "/>
<path style=" stroke:none;fill-rule:nonzero;fill:rgb(87.058824%,70.588235%,25.490196%);fill-opacity:1;" d="M 68.199219 16 C 68.660156 16.328125 69.125 16.660156 69.601562 17 C 69.101562 17.25 68.917969 17.15625 68.398438 17 C 68.335938 16.671875 68.269531 16.339844 68.199219 16 Z M 68.199219 16 "/>
<path style=" stroke:none;fill-rule:nonzero;fill:rgb(87.843137%,73.333333%,30.588235%);fill-opacity:1;" d="M 55.398438 9.800781 C 57.007812 9.960938 57.007812 9.960938 57.800781 10.398438 C 57.511719 10.417969 57.226562 10.429688 56.9375 10.4375 C 56.699219 10.449219 56.699219 10.449219 56.453125 10.457031 C 55.902344 10.386719 55.742188 10.222656 55.398438 9.800781 Z M 55.398438 9.800781 "/>
</g>
</svg>
