<?xml version="1.0" encoding="UTF-8"?>
<svg xmlns="http://www.w3.org/2000/svg" xmlns:xlink="http://www.w3.org/1999/xlink" width="100px" height="100px" viewBox="0 0 100 100" version="1.1">
<g id="surface1">
<path style=" stroke:none;fill-rule:nonzero;fill:rgb(92.941176%,74.901961%,35.686275%);fill-opacity:1;" d="M 64.277344 4.832031 C 69.1875 8.804688 71.984375 14.214844 72.707031 20.449219 C 73.09375 24.207031 72.355469 27.832031 71.199219 31.398438 C 71.660156 31.621094 72.117188 31.839844 72.578125 32.058594 C 72.988281 32.253906 73.398438 32.453125 73.808594 32.648438 C 74.894531 33.167969 75.984375 33.6875 77.074219 34.203125 C 78.132812 34.703125 79.191406 35.210938 80.246094 35.71875 C 80.679688 35.925781 81.113281 36.128906 81.546875 36.335938 C 82.1875 36.636719 82.824219 36.941406 83.460938 37.25 C 83.75 37.386719 83.75 37.386719 84.042969 37.519531 C 85.988281 38.476562 87.128906 40.019531 88.324219 41.773438 C 89.195312 43.027344 90.082031 44.261719 90.988281 45.488281 C 91.222656 45.804688 91.457031 46.121094 91.691406 46.4375 C 91.804688 46.597656 91.921875 46.753906 92.042969 46.914062 C 92.160156 47.074219 92.277344 47.234375 92.398438 47.398438 C 92.523438 47.566406 92.644531 47.730469 92.769531 47.902344 C 93.132812 48.390625 93.492188 48.882812 93.851562 49.375 C 94.015625 49.597656 94.015625 49.597656 94.183594 49.824219 C 95.289062 51.34375 95.59375 52.507812 95.398438 54.398438 C 95.039062 55.75 94.097656 56.597656 93 57.398438 C 92.15625 57.875 91.28125 58.285156 90.398438 58.6875 C 90.167969 58.796875 89.9375 58.902344 89.699219 59.015625 C 89.132812 59.277344 88.566406 59.539062 88 59.800781 C 88 60.046875 88 60.296875 87.996094 60.554688 C 87.992188 62.902344 87.980469 65.25 87.964844 67.597656 C 87.957031 68.804688 87.949219 70.011719 87.945312 71.21875 C 87.941406 72.382812 87.9375 73.550781 87.925781 74.714844 C 87.921875 75.160156 87.921875 75.605469 87.921875 76.046875 C 87.921875 76.671875 87.914062 77.292969 87.910156 77.917969 C 87.910156 78.101562 87.910156 78.28125 87.914062 78.46875 C 87.886719 80.089844 87.472656 81.542969 86.367188 82.757812 C 85.566406 83.488281 84.667969 83.972656 83.699219 84.449219 C 83.515625 84.542969 83.332031 84.636719 83.144531 84.734375 C 81.25 85.691406 79.332031 86.601562 77.414062 87.507812 C 73.558594 89.335938 69.730469 91.21875 65.898438 93.101562 C 50.707031 100.554688 50.707031 100.554688 48.046875 99.855469 C 47.503906 99.632812 46.984375 99.382812 46.460938 99.113281 C 46.25 99.007812 46.039062 98.90625 45.820312 98.800781 C 45.3125 98.554688 44.808594 98.304688 44.308594 98.050781 C 43.25 97.523438 42.1875 97.007812 41.125 96.488281 C 39.378906 95.636719 37.636719 94.78125 35.894531 93.925781 C 33.320312 92.660156 30.75 91.398438 28.175781 90.136719 C 27.976562 90.039062 27.78125 89.945312 27.578125 89.84375 C 25.371094 88.765625 23.164062 87.6875 20.949219 86.625 C 20.757812 86.535156 20.570312 86.441406 20.371094 86.347656 C 19.492188 85.925781 18.613281 85.511719 17.722656 85.113281 C 15.371094 84.054688 13.421875 83.109375 12.398438 80.601562 C 12.21875 80.054688 12.171875 79.726562 12.167969 79.160156 C 12.167969 78.988281 12.164062 78.820312 12.164062 78.644531 C 12.160156 78.363281 12.160156 78.363281 12.160156 78.078125 C 12.15625 77.878906 12.15625 77.683594 12.152344 77.480469 C 12.148438 76.828125 12.140625 76.175781 12.136719 75.523438 C 12.132812 75.070312 12.128906 74.617188 12.125 74.167969 C 12.113281 72.976562 12.101562 71.785156 12.09375 70.59375 C 12.082031 69.378906 12.074219 68.164062 12.0625 66.949219 C 12.039062 64.566406 12.019531 62.183594 12 59.800781 C 11.867188 59.738281 11.738281 59.679688 11.601562 59.617188 C 11 59.339844 10.402344 59.058594 9.800781 58.773438 C 9.492188 58.632812 9.492188 58.632812 9.175781 58.488281 C 7.339844 57.621094 5.875 56.757812 4.800781 55 C 4.617188 54.421875 4.554688 53.871094 4.539062 53.261719 C 4.53125 53.105469 4.523438 52.949219 4.515625 52.785156 C 4.734375 51.285156 5.566406 50.078125 6.488281 48.914062 C 6.703125 48.632812 6.917969 48.355469 7.132812 48.074219 C 7.242188 47.929688 7.351562 47.789062 7.464844 47.640625 C 8.019531 46.910156 8.554688 46.167969 9.085938 45.425781 C 9.195312 45.277344 9.300781 45.128906 9.410156 44.976562 C 9.976562 44.191406 10.539062 43.40625 11.101562 42.621094 C 11.214844 42.460938 11.332031 42.300781 11.449219 42.132812 C 11.667969 41.832031 11.886719 41.523438 12.101562 41.21875 C 12.398438 40.808594 12.695312 40.402344 13 40 C 13.089844 39.875 13.175781 39.753906 13.269531 39.625 C 14.09375 38.558594 15.09375 38.039062 16.289062 37.449219 C 16.488281 37.347656 16.691406 37.246094 16.902344 37.140625 C 18.84375 36.164062 20.804688 35.226562 22.765625 34.300781 C 23.851562 33.785156 24.933594 33.261719 26.019531 32.742188 C 26.382812 32.566406 26.75 32.386719 27.113281 32.210938 C 27.675781 31.941406 28.238281 31.671875 28.800781 31.398438 C 28.742188 31.238281 28.742188 31.238281 28.683594 31.074219 C 28.300781 29.964844 28.007812 28.859375 27.773438 27.710938 C 27.742188 27.546875 27.707031 27.378906 27.671875 27.207031 C 27.441406 26.074219 27.246094 24.957031 27.199219 23.800781 C 27.1875 23.558594 27.1875 23.558594 27.175781 23.3125 C 27.019531 17.132812 29.351562 11.394531 33.53125 6.882812 C 41.605469 -1.578125 55.128906 -2.34375 64.277344 4.832031 Z M 64.277344 4.832031 "/>
<path style=" stroke:none;fill-rule:nonzero;fill:rgb(78.823529%,56.078431%,23.921569%);fill-opacity:1;" d="M 64.277344 4.832031 C 69.1875 8.804688 71.984375 14.214844 72.707031 20.449219 C 73.09375 24.207031 72.355469 27.832031 71.199219 31.398438 C 71.3125 31.453125 71.425781 31.507812 71.542969 31.5625 C 72.960938 32.242188 74.378906 32.921875 75.800781 33.601562 C 76.011719 33.703125 76.226562 33.804688 76.445312 33.910156 C 77.71875 34.519531 78.996094 35.132812 80.269531 35.75 C 80.703125 35.960938 81.140625 36.171875 81.574219 36.378906 C 82.21875 36.6875 82.859375 37 83.5 37.308594 C 83.792969 37.449219 83.792969 37.449219 84.085938 37.589844 C 85.195312 38.132812 85.984375 38.671875 86.800781 39.601562 C 86.601562 40.199219 86.601562 40.199219 86.210938 40.453125 C 86.039062 40.535156 85.867188 40.621094 85.691406 40.707031 C 85.402344 40.847656 85.402344 40.847656 85.109375 40.996094 C 84.898438 41.09375 84.691406 41.195312 84.476562 41.300781 C 84.261719 41.40625 84.046875 41.511719 83.824219 41.617188 C 83.152344 41.949219 82.476562 42.273438 81.800781 42.601562 C 81.589844 42.703125 81.378906 42.804688 81.164062 42.90625 C 79.367188 43.777344 77.566406 44.636719 75.75 45.460938 C 74.96875 45.820312 74.214844 46.207031 73.460938 46.625 C 72.804688 46.992188 72.164062 47.308594 71.460938 47.574219 C 70.597656 47.902344 69.777344 48.300781 68.953125 48.71875 C 68.8125 48.785156 68.671875 48.855469 68.53125 48.929688 C 68.234375 49.078125 67.941406 49.226562 67.648438 49.375 C 66.484375 49.960938 65.316406 50.546875 64.152344 51.128906 C 63.855469 51.277344 63.5625 51.425781 63.265625 51.574219 C 60.371094 53.03125 60.371094 53.03125 58.980469 53.632812 C 58.457031 53.863281 57.945312 54.121094 57.433594 54.382812 C 56.34375 54.929688 55.234375 55.445312 54.132812 55.96875 C 53.9375 56.0625 53.746094 56.152344 53.546875 56.25 C 53.355469 56.339844 53.164062 56.429688 52.964844 56.523438 C 52.589844 56.707031 52.21875 56.898438 51.851562 57.097656 C 51.59375 57.238281 51.59375 57.238281 51.328125 57.382812 C 51.179688 57.46875 51.027344 57.550781 50.871094 57.640625 C 49.984375 57.941406 49.328125 57.65625 48.496094 57.285156 C 48.238281 57.152344 47.980469 57.019531 47.726562 56.886719 C 47.441406 56.738281 47.15625 56.59375 46.871094 56.445312 C 46.726562 56.371094 46.582031 56.296875 46.433594 56.21875 C 45.761719 55.878906 45.082031 55.550781 44.40625 55.222656 C 44.273438 55.15625 44.144531 55.09375 44.007812 55.027344 C 43.601562 54.832031 43.195312 54.632812 42.789062 54.4375 C 42.496094 54.296875 42.207031 54.15625 41.914062 54.015625 C 40.121094 53.144531 38.324219 52.285156 36.523438 51.433594 C 34.777344 50.597656 33.050781 49.722656 31.320312 48.851562 C 29.441406 47.90625 27.550781 47 25.601562 46.199219 C 25.601562 46.066406 25.601562 45.9375 25.601562 45.800781 C 25.460938 45.777344 25.324219 45.757812 25.179688 45.734375 C 24.503906 45.578125 23.941406 45.324219 23.3125 45.023438 C 23.121094 44.933594 23.121094 44.933594 22.925781 44.84375 C 21.554688 44.1875 20.203125 43.5 18.847656 42.8125 C 17.5625 42.167969 16.261719 41.566406 14.933594 41.019531 C 14.019531 40.640625 14.019531 40.640625 13.800781 40.199219 C 13.601562 40.132812 13.402344 40.066406 13.199219 40 C 13.941406 38.316406 16.027344 37.542969 17.597656 36.789062 C 17.785156 36.699219 17.972656 36.609375 18.164062 36.515625 C 18.757812 36.226562 19.355469 35.9375 19.949219 35.648438 C 20.339844 35.460938 20.730469 35.269531 21.121094 35.082031 C 23.671875 33.839844 26.234375 32.617188 28.800781 31.398438 C 28.757812 31.28125 28.71875 31.160156 28.675781 31.039062 C 28.144531 29.460938 28.144531 29.460938 27.972656 28.664062 C 27.921875 28.429688 27.921875 28.429688 27.871094 28.191406 C 27.824219 27.953125 27.824219 27.953125 27.773438 27.710938 C 27.742188 27.546875 27.707031 27.378906 27.671875 27.207031 C 27.441406 26.074219 27.246094 24.957031 27.199219 23.800781 C 27.1875 23.558594 27.1875 23.558594 27.175781 23.3125 C 27.019531 17.132812 29.351562 11.394531 33.53125 6.882812 C 41.605469 -1.578125 55.128906 -2.34375 64.277344 4.832031 Z M 64.277344 4.832031 "/>
<path style=" stroke:none;fill-rule:nonzero;fill:rgb(99.607843%,90.196078%,56.470588%);fill-opacity:1;" d="M 49.800781 58.199219 C 50.589844 58.503906 50.921875 58.96875 51.398438 59.648438 C 51.539062 59.847656 51.675781 60.042969 51.820312 60.246094 C 51.945312 60.429688 52.070312 60.613281 52.199219 60.800781 C 52.292969 60.929688 52.386719 61.0625 52.480469 61.199219 C 53 61.945312 53 61.945312 53 62.398438 C 53.132812 62.398438 53.265625 62.398438 53.398438 62.398438 C 53.71875 62.796875 53.71875 62.796875 54.074219 63.324219 C 54.261719 63.597656 54.261719 63.597656 54.449219 63.875 C 54.566406 64.050781 54.679688 64.222656 54.800781 64.398438 C 54.933594 64.589844 54.933594 64.589844 55.070312 64.785156 C 55.601562 65.550781 55.601562 65.550781 55.601562 66 C 55.730469 66 55.863281 66 56 66 C 56.28125 66.351562 56.28125 66.351562 56.613281 66.851562 C 57.171875 67.664062 57.730469 68.476562 58.3125 69.273438 C 58.523438 69.566406 58.523438 69.566406 58.738281 69.867188 C 59.476562 70.71875 60.269531 71.296875 61.398438 71.398438 C 61.535156 71.414062 61.671875 71.425781 61.808594 71.441406 C 63.320312 71.519531 64.386719 71.058594 65.726562 70.398438 C 65.933594 70.300781 66.144531 70.199219 66.363281 70.097656 C 66.976562 69.800781 67.589844 69.5 68.199219 69.199219 C 68.359375 69.121094 68.515625 69.042969 68.679688 68.964844 C 69.464844 68.582031 70.246094 68.1875 71.023438 67.792969 C 71.691406 67.449219 72.363281 67.113281 73.039062 66.773438 C 73.171875 66.707031 73.300781 66.640625 73.4375 66.574219 C 74.492188 66.046875 75.558594 65.550781 76.628906 65.066406 C 77.136719 64.828125 77.628906 64.574219 78.125 64.3125 C 78.800781 64 78.800781 64 79.398438 64.199219 C 79.269531 64.398438 79.136719 64.597656 79 64.800781 C 78.867188 64.800781 78.734375 64.800781 78.601562 64.800781 C 78.550781 64.945312 78.5 65.089844 78.449219 65.238281 C 78.175781 65.851562 77.824219 66.28125 77.398438 66.800781 C 77.308594 66.996094 77.308594 66.996094 77.210938 67.199219 C 76.910156 67.773438 76.460938 68.148438 76 68.601562 C 75.683594 68.972656 75.375 69.347656 75.066406 69.730469 C 74.976562 69.820312 74.890625 69.90625 74.800781 70 C 74.667969 70 74.535156 70 74.398438 70 C 74.324219 70.230469 74.324219 70.230469 74.25 70.460938 C 73.976562 71.050781 73.753906 71.273438 73.199219 71.601562 C 73.066406 71.601562 72.9375 71.601562 72.800781 71.601562 C 72.800781 71.730469 72.800781 71.863281 72.800781 72 C 72.667969 72 72.535156 72 72.398438 72 C 72.398438 72.132812 72.398438 72.265625 72.398438 72.398438 C 72.269531 72.398438 72.136719 72.398438 72 72.398438 C 72 72.53125 72 72.664062 72 72.800781 C 71.664062 73.144531 71.664062 73.144531 71.226562 73.523438 C 71.082031 73.652344 70.9375 73.777344 70.789062 73.90625 C 70.398438 74.199219 70.398438 74.199219 70 74.199219 C 70 74.332031 70 74.464844 70 74.601562 C 69.664062 74.902344 69.664062 74.902344 69.226562 75.226562 C 69.082031 75.332031 68.9375 75.441406 68.789062 75.550781 C 68.398438 75.800781 68.398438 75.800781 68 75.800781 C 68 75.933594 68 76.0625 68 76.199219 C 67.621094 76.488281 67.226562 76.761719 66.824219 77.023438 C 66.605469 77.167969 66.390625 77.316406 66.164062 77.464844 C 65.601562 77.800781 65.601562 77.800781 65.199219 77.800781 C 65.199219 77.933594 65.199219 78.0625 65.199219 78.199219 C 64.96875 78.3125 64.738281 78.421875 64.5 78.539062 C 63.746094 78.910156 63.050781 79.339844 62.351562 79.808594 C 62 80 62 80 61.398438 80 C 61.398438 80.132812 61.398438 80.265625 61.398438 80.398438 C 60.804688 80.5 60.804688 80.5 60.199219 80.601562 C 60.199219 80.730469 60.199219 80.863281 60.199219 81 C 60.007812 81.074219 59.816406 81.148438 59.621094 81.226562 C 59.359375 81.332031 59.097656 81.433594 58.835938 81.539062 C 58.703125 81.589844 58.566406 81.644531 58.425781 81.699219 C 57.601562 82.03125 56.800781 82.382812 56 82.761719 C 55.183594 83.144531 54.5 83.339844 53.601562 83.398438 C 53.601562 83.53125 53.601562 83.664062 53.601562 83.800781 C 53.386719 83.851562 53.171875 83.90625 52.949219 83.960938 C 52.671875 84.03125 52.390625 84.105469 52.113281 84.175781 C 51.972656 84.210938 51.828125 84.246094 51.683594 84.28125 C 51.320312 84.375 50.960938 84.484375 50.601562 84.601562 C 50.304688 85.191406 50.371094 85.71875 50.371094 86.378906 C 50.371094 86.519531 50.371094 86.664062 50.367188 86.808594 C 50.367188 87.277344 50.367188 87.75 50.367188 88.21875 C 50.367188 88.542969 50.363281 88.871094 50.363281 89.195312 C 50.363281 89.878906 50.363281 90.5625 50.363281 91.246094 C 50.363281 92.121094 50.359375 93 50.355469 93.878906 C 50.355469 94.550781 50.355469 95.222656 50.355469 95.894531 C 50.355469 96.21875 50.351562 96.542969 50.351562 96.867188 C 50.351562 97.316406 50.351562 97.769531 50.351562 98.21875 C 50.351562 98.476562 50.351562 98.734375 50.351562 99 C 50.335938 99.625 50.335938 99.625 50.800781 100 C 49.125 100.128906 47.988281 99.859375 46.5 99.113281 C 46.285156 99.007812 46.070312 98.90625 45.847656 98.800781 C 45.1875 98.480469 44.53125 98.160156 43.875 97.835938 C 43.160156 97.480469 42.445312 97.132812 41.730469 96.785156 C 39.554688 95.726562 37.386719 94.660156 35.214844 93.59375 C 32.871094 92.4375 30.523438 91.285156 28.175781 90.136719 C 27.976562 90.039062 27.78125 89.945312 27.578125 89.84375 C 25.371094 88.765625 23.164062 87.6875 20.949219 86.625 C 20.757812 86.535156 20.570312 86.441406 20.371094 86.347656 C 19.492188 85.925781 18.613281 85.511719 17.722656 85.113281 C 15.371094 84.054688 13.421875 83.109375 12.398438 80.601562 C 12.214844 80.050781 12.175781 79.726562 12.175781 79.160156 C 12.175781 78.988281 12.175781 78.820312 12.175781 78.644531 C 12.175781 78.457031 12.175781 78.269531 12.175781 78.078125 C 12.175781 77.878906 12.175781 77.683594 12.175781 77.480469 C 12.175781 76.828125 12.179688 76.175781 12.179688 75.523438 C 12.179688 75.070312 12.179688 74.617188 12.179688 74.167969 C 12.183594 72.976562 12.183594 71.785156 12.1875 70.59375 C 12.1875 69.378906 12.1875 68.164062 12.191406 66.953125 C 12.191406 64.566406 12.195312 62.183594 12.199219 59.800781 C 12.9375 60.089844 13.632812 60.414062 14.335938 60.773438 C 15.085938 61.152344 15.828125 61.5 16.613281 61.800781 C 17.554688 62.160156 18.414062 62.628906 19.292969 63.125 C 19.785156 63.390625 20.277344 63.59375 20.800781 63.800781 C 21.238281 64.011719 21.675781 64.230469 22.113281 64.449219 C 22.246094 64.515625 22.378906 64.585938 22.515625 64.652344 C 23.230469 65.011719 23.941406 65.371094 24.652344 65.730469 C 25.253906 66.035156 25.855469 66.335938 26.460938 66.640625 C 26.816406 66.820312 27.167969 67 27.523438 67.179688 C 28.933594 67.886719 30.347656 68.53125 31.808594 69.128906 C 32.339844 69.371094 32.742188 69.636719 33.199219 70 C 35.050781 70.882812 37.210938 71.808594 39.265625 71.28125 C 41.074219 70.578125 41.96875 68.949219 43 67.398438 C 43.300781 66.957031 43.609375 66.515625 43.914062 66.074219 C 44.058594 65.863281 44.203125 65.652344 44.351562 65.433594 C 44.890625 64.671875 45.460938 63.933594 46.035156 63.195312 C 47.144531 61.769531 48.199219 60.300781 49.199219 58.800781 C 49.332031 58.800781 49.464844 58.800781 49.601562 58.800781 C 49.664062 58.601562 49.730469 58.402344 49.800781 58.199219 Z M 49.800781 58.199219 "/>
<path style=" stroke:none;fill-rule:nonzero;fill:rgb(96.078431%,32.156863%,30.196078%);fill-opacity:1;" d="M 64.371094 4.84375 C 65.304688 5.613281 65.597656 6.246094 65.800781 7.398438 C 65.832031 7.542969 65.867188 7.6875 65.902344 7.835938 C 66.214844 9.210938 66.261719 10.53125 66.25 11.9375 C 66.25 12.167969 66.246094 12.394531 66.246094 12.632812 C 66.214844 15.289062 65.878906 17.679688 65 20.199219 C 64.9375 20.386719 64.875 20.574219 64.8125 20.765625 C 64.328125 22.175781 63.691406 23.484375 63 24.800781 C 62.867188 24.800781 62.734375 24.800781 62.601562 24.800781 C 62.550781 24.972656 62.5 25.148438 62.449219 25.324219 C 62.183594 26.046875 61.875 26.597656 61.398438 27.199219 C 61.203125 27.199219 61.003906 27.199219 60.800781 27.199219 C 60.871094 27.28125 60.945312 27.367188 61.019531 27.453125 C 61.847656 28.550781 61.972656 29.542969 61.921875 30.902344 C 61.722656 32.039062 61.226562 32.808594 60.398438 33.601562 C 59.269531 34.375 57.976562 34.816406 56.601562 34.601562 C 56.058594 34.378906 55.554688 34.121094 55.039062 33.839844 C 54.257812 33.414062 53.84375 33.359375 53 33.601562 C 52.746094 33.71875 52.492188 33.839844 52.238281 33.960938 C 51.375 34.359375 50.503906 34.609375 49.585938 34.835938 C 49.457031 34.871094 49.324219 34.902344 49.1875 34.9375 C 47.375 35.375 45.621094 35.4375 43.761719 35.4375 C 43.417969 35.441406 43.417969 35.441406 43.070312 35.445312 C 38.882812 35.453125 35.105469 34.285156 31.398438 32.398438 C 31.203125 32.335938 31.003906 32.269531 30.800781 32.199219 C 30.800781 32.066406 30.800781 31.9375 30.800781 31.800781 C 30.652344 31.785156 30.503906 31.765625 30.351562 31.75 C 29.6875 31.570312 29.433594 31.324219 29 30.800781 C 28.933594 30.601562 28.867188 30.402344 28.800781 30.199219 C 28.703125 30.105469 28.601562 30.011719 28.5 29.914062 C 28.140625 29.535156 28.078125 29.289062 27.972656 28.78125 C 27.941406 28.621094 27.90625 28.460938 27.871094 28.296875 C 27.839844 28.128906 27.808594 27.960938 27.773438 27.789062 C 27.742188 27.617188 27.707031 27.441406 27.671875 27.265625 C 27.445312 26.113281 27.246094 24.972656 27.199219 23.800781 C 27.191406 23.640625 27.183594 23.476562 27.175781 23.3125 C 27.019531 17.132812 29.351562 11.394531 33.53125 6.882812 C 41.671875 -1.648438 55.121094 -2.253906 64.371094 4.84375 Z M 64.371094 4.84375 "/>
<path style=" stroke:none;fill-rule:nonzero;fill:rgb(99.215686%,85.882353%,43.137255%);fill-opacity:1;" d="M 49.800781 58.199219 C 50.589844 58.503906 50.921875 58.96875 51.398438 59.648438 C 51.539062 59.847656 51.675781 60.042969 51.820312 60.246094 C 51.945312 60.429688 52.070312 60.613281 52.199219 60.800781 C 52.292969 60.929688 52.386719 61.0625 52.480469 61.199219 C 53 61.945312 53 61.945312 53 62.398438 C 53.132812 62.398438 53.265625 62.398438 53.398438 62.398438 C 53.71875 62.796875 53.71875 62.796875 54.074219 63.324219 C 54.261719 63.597656 54.261719 63.597656 54.449219 63.875 C 54.566406 64.050781 54.679688 64.222656 54.800781 64.398438 C 54.933594 64.589844 54.933594 64.589844 55.070312 64.785156 C 55.601562 65.550781 55.601562 65.550781 55.601562 66 C 55.730469 66 55.863281 66 56 66 C 56.28125 66.351562 56.28125 66.351562 56.613281 66.851562 C 57.171875 67.664062 57.730469 68.476562 58.3125 69.273438 C 58.523438 69.566406 58.523438 69.566406 58.738281 69.867188 C 59.476562 70.71875 60.269531 71.296875 61.398438 71.398438 C 61.535156 71.414062 61.671875 71.425781 61.808594 71.441406 C 63.320312 71.519531 64.386719 71.058594 65.726562 70.398438 C 65.933594 70.300781 66.144531 70.199219 66.363281 70.097656 C 66.976562 69.800781 67.589844 69.5 68.199219 69.199219 C 68.359375 69.121094 68.515625 69.042969 68.679688 68.964844 C 69.464844 68.582031 70.246094 68.1875 71.023438 67.792969 C 71.691406 67.449219 72.363281 67.113281 73.039062 66.773438 C 73.171875 66.707031 73.300781 66.640625 73.4375 66.574219 C 74.492188 66.046875 75.558594 65.550781 76.628906 65.066406 C 77.136719 64.828125 77.628906 64.574219 78.125 64.3125 C 78.800781 64 78.800781 64 79.398438 64.199219 C 79.269531 64.398438 79.136719 64.597656 79 64.800781 C 78.867188 64.800781 78.734375 64.800781 78.601562 64.800781 C 78.550781 64.945312 78.5 65.089844 78.449219 65.238281 C 78.175781 65.851562 77.824219 66.28125 77.398438 66.800781 C 77.308594 66.996094 77.308594 66.996094 77.210938 67.199219 C 76.910156 67.773438 76.460938 68.148438 76 68.601562 C 75.683594 68.972656 75.375 69.347656 75.066406 69.730469 C 74.976562 69.820312 74.890625 69.90625 74.800781 70 C 74.667969 70 74.535156 70 74.398438 70 C 74.324219 70.230469 74.324219 70.230469 74.25 70.460938 C 73.976562 71.050781 73.753906 71.273438 73.199219 71.601562 C 73.066406 71.601562 72.9375 71.601562 72.800781 71.601562 C 72.800781 71.730469 72.800781 71.863281 72.800781 72 C 72.667969 72 72.535156 72 72.398438 72 C 72.398438 72.132812 72.398438 72.265625 72.398438 72.398438 C 72.269531 72.398438 72.136719 72.398438 72 72.398438 C 72 72.53125 72 72.664062 72 72.800781 C 71.664062 73.144531 71.664062 73.144531 71.226562 73.523438 C 71.082031 73.652344 70.9375 73.777344 70.789062 73.90625 C 70.398438 74.199219 70.398438 74.199219 70 74.199219 C 70 74.332031 70 74.464844 70 74.601562 C 69.664062 74.902344 69.664062 74.902344 69.226562 75.226562 C 69.082031 75.332031 68.9375 75.441406 68.789062 75.550781 C 68.398438 75.800781 68.398438 75.800781 68 75.800781 C 68 75.933594 68 76.0625 68 76.199219 C 67.621094 76.488281 67.226562 76.761719 66.824219 77.023438 C 66.496094 77.242188 66.496094 77.242188 66.164062 77.464844 C 65.601562 77.800781 65.601562 77.800781 65.199219 77.800781 C 65.199219 77.933594 65.199219 78.0625 65.199219 78.199219 C 64.96875 78.3125 64.738281 78.421875 64.5 78.539062 C 63.746094 78.910156 63.050781 79.339844 62.351562 79.808594 C 62 80 62 80 61.398438 80 C 61.398438 80.132812 61.398438 80.265625 61.398438 80.398438 C 60.804688 80.5 60.804688 80.5 60.199219 80.601562 C 60.199219 80.730469 60.199219 80.863281 60.199219 81 C 60.007812 81.074219 59.816406 81.148438 59.621094 81.226562 C 59.359375 81.332031 59.097656 81.433594 58.835938 81.539062 C 58.703125 81.589844 58.566406 81.644531 58.425781 81.699219 C 57.601562 82.03125 56.800781 82.382812 56 82.761719 C 55.183594 83.144531 54.5 83.339844 53.601562 83.398438 C 53.601562 83.53125 53.601562 83.664062 53.601562 83.800781 C 53.386719 83.851562 53.171875 83.90625 52.949219 83.960938 C 52.671875 84.03125 52.390625 84.105469 52.113281 84.175781 C 51.972656 84.210938 51.828125 84.246094 51.683594 84.28125 C 51.320312 84.375 50.960938 84.484375 50.601562 84.601562 C 50.304688 85.191406 50.371094 85.71875 50.371094 86.378906 C 50.371094 86.519531 50.371094 86.664062 50.367188 86.808594 C 50.367188 87.277344 50.367188 87.75 50.367188 88.21875 C 50.367188 88.542969 50.363281 88.871094 50.363281 89.195312 C 50.363281 89.878906 50.363281 90.5625 50.363281 91.246094 C 50.363281 92.121094 50.359375 93 50.355469 93.878906 C 50.355469 94.550781 50.355469 95.222656 50.355469 95.894531 C 50.355469 96.21875 50.351562 96.542969 50.351562 96.867188 C 50.351562 97.316406 50.351562 97.769531 50.351562 98.21875 C 50.351562 98.476562 50.351562 98.734375 50.351562 99 C 50.335938 99.625 50.335938 99.625 50.800781 100 C 49.125 100.128906 47.988281 99.859375 46.5 99.113281 C 46.285156 99.007812 46.070312 98.90625 45.847656 98.800781 C 45.1875 98.480469 44.53125 98.160156 43.875 97.835938 C 43.160156 97.480469 42.445312 97.132812 41.730469 96.785156 C 39.554688 95.726562 37.386719 94.660156 35.214844 93.59375 C 32.871094 92.4375 30.523438 91.285156 28.175781 90.136719 C 27.980469 90.042969 27.78125 89.945312 27.578125 89.847656 C 24.953125 88.558594 22.320312 87.28125 19.679688 86.023438 C 18.984375 85.6875 18.289062 85.347656 17.601562 85 C 18.289062 84.769531 18.441406 84.835938 19.113281 85.050781 C 20.578125 85.476562 22.070312 85.699219 23.574219 85.933594 C 23.941406 85.992188 24.308594 86.054688 24.675781 86.121094 C 25.894531 86.328125 27.101562 86.445312 28.332031 86.507812 C 28.496094 86.515625 28.664062 86.527344 28.832031 86.535156 C 30.683594 86.621094 32.535156 86.640625 34.386719 86.636719 C 34.5625 86.636719 34.738281 86.636719 34.917969 86.636719 C 37.429688 86.632812 39.914062 86.589844 42.398438 86.199219 C 42.539062 86.179688 42.683594 86.15625 42.828125 86.136719 C 44.695312 85.84375 46.542969 85.457031 48.386719 85.054688 C 49.558594 84.800781 49.558594 84.800781 50 84.800781 C 49.933594 76.351562 49.867188 67.902344 49.800781 59.199219 C 49.601562 59.199219 49.402344 59.199219 49.199219 59.199219 C 49.199219 59.066406 49.199219 58.9375 49.199219 58.800781 C 49.332031 58.800781 49.464844 58.800781 49.601562 58.800781 C 49.664062 58.601562 49.730469 58.402344 49.800781 58.199219 Z M 49.800781 58.199219 "/>
<path style=" stroke:none;fill-rule:nonzero;fill:rgb(87.058824%,29.019608%,26.666667%);fill-opacity:1;" d="M 65.199219 5.800781 C 69.476562 9.148438 71.960938 14.539062 72.648438 19.835938 C 73.089844 23.742188 72.519531 27.515625 71.199219 31.199219 C 71.066406 31.199219 70.9375 31.199219 70.800781 31.199219 C 70.777344 31.445312 70.777344 31.445312 70.757812 31.695312 C 70.554688 32.597656 70.15625 33.285156 69.6875 34.074219 C 69.558594 34.296875 69.558594 34.296875 69.429688 34.519531 C 69.222656 34.882812 69.011719 35.242188 68.800781 35.601562 C 68.667969 35.601562 68.535156 35.601562 68.398438 35.601562 C 68.347656 35.714844 68.292969 35.828125 68.238281 35.949219 C 67.433594 37.472656 66.121094 38.90625 64.800781 40 C 64.535156 40.066406 64.265625 40.136719 64 40.199219 C 63.933594 40.398438 63.867188 40.597656 63.800781 40.800781 C 61.707031 42.433594 58.953125 43.859375 56.398438 44.601562 C 56.027344 44.710938 56.027344 44.710938 55.648438 44.824219 C 53.382812 45.441406 49.355469 46.277344 47.199219 45.199219 C 46.796875 45.152344 46.390625 45.105469 45.988281 45.0625 C 40.335938 44.28125 35.148438 40.75 31.742188 36.257812 C 30.746094 34.890625 29.890625 33.472656 29.164062 31.949219 C 29.070312 31.761719 29.070312 31.761719 28.976562 31.566406 C 28.574219 30.675781 28.574219 30.675781 28.800781 30 C 29.398438 30.949219 29.398438 30.949219 29.398438 31.398438 C 29.664062 31.398438 29.929688 31.398438 30.199219 31.398438 C 30.199219 31.53125 30.199219 31.664062 30.199219 31.800781 C 30.398438 31.800781 30.597656 31.800781 30.800781 31.800781 C 30.800781 31.933594 30.800781 32.0625 30.800781 32.199219 C 30.960938 32.210938 31.121094 32.226562 31.289062 32.238281 C 31.921875 32.382812 32.214844 32.507812 32.75 32.835938 C 33.660156 33.371094 34.601562 33.707031 35.601562 34.039062 C 35.75 34.085938 35.898438 34.136719 36.054688 34.1875 C 41.398438 35.917969 47.597656 35.738281 52.800781 33.601562 C 52.933594 33.46875 53.0625 33.335938 53.199219 33.199219 C 54.242188 33.027344 54.808594 33.390625 55.632812 33.960938 C 56.4375 34.484375 57.273438 34.503906 58.199219 34.398438 C 59.402344 34.140625 60.242188 33.683594 61.023438 32.726562 C 61.804688 31.472656 61.847656 30.230469 61.601562 28.800781 C 61.339844 28.136719 61.023438 27.570312 60.601562 27 C 60.863281 27.066406 61.128906 27.132812 61.398438 27.199219 C 61.449219 27.0625 61.5 26.929688 61.550781 26.789062 C 61.847656 26.085938 62.214844 25.457031 62.601562 24.800781 C 62.730469 24.800781 62.863281 24.800781 63 24.800781 C 63.03125 24.691406 63.0625 24.585938 63.097656 24.476562 C 63.363281 23.625 63.664062 22.847656 64.085938 22.0625 C 65.054688 20.183594 65.484375 18.078125 65.800781 16 C 65.835938 15.800781 65.871094 15.597656 65.90625 15.394531 C 66.28125 12.214844 66.21875 8.855469 65.199219 5.800781 Z M 65.199219 5.800781 "/>
<path style=" stroke:none;fill-rule:nonzero;fill:rgb(94.117647%,93.333333%,98.039216%);fill-opacity:1;" d="M 45 11.601562 C 46.1875 12.527344 47.242188 13.617188 48.300781 14.6875 C 48.445312 14.832031 48.589844 14.980469 48.742188 15.132812 C 49.09375 15.488281 49.449219 15.84375 49.800781 16.199219 C 50.519531 15.898438 50.964844 15.472656 51.503906 14.914062 C 51.675781 14.738281 51.847656 14.5625 52.023438 14.382812 C 52.382812 14.011719 52.738281 13.644531 53.09375 13.273438 C 54.492188 11.84375 55.570312 10.878906 57.632812 10.769531 C 59.042969 10.84375 60.070312 11.371094 61.011719 12.414062 C 61.859375 13.449219 61.890625 14.402344 61.882812 15.710938 C 61.753906 16.773438 61.304688 17.597656 60.601562 18.398438 C 60.304688 18.5 60.304688 18.5 60 18.601562 C 59.933594 18.796875 59.867188 18.996094 59.800781 19.199219 C 59.472656 19.515625 59.472656 19.515625 59.0625 19.851562 C 58.386719 20.421875 57.816406 21.011719 57.265625 21.703125 C 57 22 57 22 56.398438 22.398438 C 56.707031 23.140625 57.15625 23.59375 57.730469 24.148438 C 57.914062 24.328125 58.097656 24.507812 58.289062 24.695312 C 58.582031 24.976562 58.875 25.261719 59.167969 25.542969 C 61.636719 27.929688 61.636719 27.929688 61.925781 29.480469 C 61.949219 31 61.785156 32 60.816406 33.199219 C 59.800781 34.175781 58.476562 34.691406 57.0625 34.667969 C 55.429688 34.429688 54.359375 33.457031 53.398438 32.199219 C 52.886719 31.660156 52.371094 31.175781 51.800781 30.699219 C 51.230469 30.226562 50.703125 29.746094 50.199219 29.199219 C 50.199219 29.066406 50.199219 28.9375 50.199219 28.800781 C 48.886719 29.898438 47.683594 31.097656 46.480469 32.316406 C 45.191406 33.621094 44.332031 34.46875 42.449219 34.6875 C 41.207031 34.648438 40.070312 34.085938 39.214844 33.199219 C 38.445312 32.199219 38.164062 31.433594 38.125 30.164062 C 38.113281 29.945312 38.105469 29.726562 38.09375 29.503906 C 38.363281 27.707031 39.804688 26.507812 41.046875 25.285156 C 41.339844 24.996094 41.628906 24.707031 41.921875 24.414062 C 43.347656 23 43.347656 23 43.800781 23 C 43.800781 22.800781 43.800781 22.605469 43.800781 22.398438 C 43.503906 22.300781 43.503906 22.300781 43.199219 22.199219 C 42.960938 21.914062 42.722656 21.628906 42.492188 21.335938 C 42.082031 20.863281 41.617188 20.484375 41.140625 20.085938 C 39.78125 18.9375 38.34375 17.546875 38.113281 15.710938 C 38.109375 13.3125 38.109375 13.3125 39 12.398438 C 40.816406 10.585938 42.777344 10.3125 45 11.601562 Z M 45 11.601562 "/>
<path style=" stroke:none;fill-rule:nonzero;fill:rgb(87.45098%,61.960784%,27.058824%);fill-opacity:1;" d="M 29.199219 31.398438 C 29.292969 31.601562 29.390625 31.804688 29.488281 32.015625 C 32.167969 37.644531 36.726562 41.929688 42.625 44.023438 C 42.769531 44.078125 42.917969 44.128906 43.066406 44.183594 C 44.261719 44.589844 45.410156 44.800781 46.667969 44.933594 C 47.199219 45 47.199219 45 47.601562 45.199219 C 48.390625 45.265625 49.183594 45.332031 50 45.398438 C 50 49.492188 50 53.585938 50 57.800781 C 49.089844 57.496094 48.355469 57.195312 47.511719 56.761719 C 45.882812 55.933594 44.234375 55.132812 42.585938 54.335938 C 42.453125 54.273438 42.316406 54.207031 42.175781 54.140625 C 40.664062 53.40625 39.148438 52.679688 37.628906 51.957031 C 37.449219 51.871094 37.273438 51.789062 37.085938 51.699219 C 36.910156 51.613281 36.730469 51.53125 36.546875 51.441406 C 34.792969 50.605469 33.058594 49.726562 31.324219 48.851562 C 29.441406 47.90625 27.550781 47 25.601562 46.199219 C 25.601562 46.066406 25.601562 45.9375 25.601562 45.800781 C 25.460938 45.777344 25.324219 45.757812 25.179688 45.734375 C 24.503906 45.578125 23.941406 45.324219 23.3125 45.023438 C 23.121094 44.933594 23.121094 44.933594 22.925781 44.84375 C 21.554688 44.1875 20.203125 43.5 18.847656 42.8125 C 17.5625 42.167969 16.261719 41.566406 14.933594 41.019531 C 14.019531 40.640625 14.019531 40.640625 13.800781 40.199219 C 13.601562 40.132812 13.402344 40.066406 13.199219 40 C 13.941406 38.316406 16.027344 37.542969 17.597656 36.789062 C 17.785156 36.699219 17.972656 36.609375 18.164062 36.515625 C 18.757812 36.226562 19.355469 35.9375 19.949219 35.648438 C 20.339844 35.460938 20.730469 35.269531 21.121094 35.082031 C 22.085938 34.613281 23.050781 34.144531 24.015625 33.679688 C 24.414062 33.488281 24.808594 33.296875 25.207031 33.105469 C 25.792969 32.824219 26.378906 32.542969 26.964844 32.257812 C 27.144531 32.171875 27.324219 32.085938 27.507812 31.996094 C 27.671875 31.917969 27.835938 31.839844 28.003906 31.757812 C 28.222656 31.652344 28.222656 31.652344 28.441406 31.546875 C 28.800781 31.398438 28.800781 31.398438 29.199219 31.398438 Z M 29.199219 31.398438 "/>
<path style=" stroke:none;fill-rule:nonzero;fill:rgb(90.196078%,81.176471%,51.372549%);fill-opacity:1;" d="M 50.398438 84.601562 C 50.398438 84.785156 50.398438 84.972656 50.398438 85.167969 C 50.390625 86.925781 50.382812 88.6875 50.378906 90.445312 C 50.378906 91.351562 50.375 92.257812 50.371094 93.160156 C 50.367188 94.035156 50.363281 94.90625 50.363281 95.78125 C 50.359375 96.113281 50.359375 96.445312 50.359375 96.78125 C 50.355469 97.246094 50.355469 97.710938 50.355469 98.175781 C 50.351562 98.386719 50.351562 98.386719 50.351562 98.597656 C 50.332031 99.386719 50.332031 99.386719 50.800781 100 C 49.125 100.128906 47.988281 99.859375 46.5 99.113281 C 46.285156 99.007812 46.070312 98.90625 45.847656 98.800781 C 45.1875 98.480469 44.53125 98.160156 43.875 97.835938 C 43.160156 97.480469 42.445312 97.132812 41.730469 96.785156 C 39.554688 95.726562 37.386719 94.660156 35.214844 93.59375 C 32.871094 92.4375 30.523438 91.285156 28.175781 90.136719 C 27.980469 90.042969 27.78125 89.945312 27.578125 89.847656 C 24.953125 88.558594 22.320312 87.28125 19.679688 86.023438 C 18.984375 85.6875 18.289062 85.347656 17.601562 85 C 18.289062 84.769531 18.441406 84.835938 19.113281 85.050781 C 20.578125 85.476562 22.070312 85.699219 23.574219 85.933594 C 23.941406 85.992188 24.308594 86.054688 24.675781 86.121094 C 25.894531 86.328125 27.101562 86.445312 28.332031 86.507812 C 28.496094 86.515625 28.664062 86.527344 28.832031 86.535156 C 30.683594 86.621094 32.535156 86.640625 34.386719 86.636719 C 34.5625 86.636719 34.738281 86.636719 34.917969 86.636719 C 37.429688 86.632812 39.914062 86.589844 42.398438 86.199219 C 42.609375 86.167969 42.609375 86.167969 42.828125 86.136719 C 44.523438 85.871094 46.207031 85.523438 47.886719 85.175781 C 48.050781 85.140625 48.21875 85.105469 48.386719 85.070312 C 49.050781 84.929688 49.738281 84.601562 50.398438 84.601562 Z M 50.398438 84.601562 "/>
<path style=" stroke:none;fill-rule:nonzero;fill:rgb(85.490196%,83.529412%,87.45098%);fill-opacity:1;" d="M 59.800781 26.398438 C 60.933594 27.25 61.679688 28.003906 61.898438 29.441406 C 61.984375 30.976562 61.789062 31.996094 60.816406 33.199219 C 59.800781 34.175781 58.476562 34.6875 57.066406 34.671875 C 56.164062 34.535156 55.339844 34.121094 54.601562 33.601562 C 54.34375 33.164062 54.34375 33.164062 54.199219 32.800781 C 54.328125 32.738281 54.457031 32.679688 54.589844 32.613281 C 55.929688 31.9375 57.019531 31.132812 58.132812 30.140625 C 58.625 29.703125 58.96875 29.410156 59.601562 29.199219 C 59.601562 29.066406 59.601562 28.9375 59.601562 28.800781 C 59.730469 28.800781 59.863281 28.800781 60 28.800781 C 60.0625 28.675781 60.125 28.550781 60.1875 28.425781 C 60.324219 28.148438 60.460938 27.875 60.601562 27.601562 C 60.402344 27.601562 60.203125 27.601562 60 27.601562 C 59.933594 27.203125 59.867188 26.808594 59.800781 26.398438 Z M 59.800781 26.398438 "/>
<path style=" stroke:none;fill-rule:nonzero;fill:rgb(89.019608%,80.784314%,49.803922%);fill-opacity:1;" d="M 87.398438 59.800781 C 87.53125 59.800781 87.664062 59.800781 87.800781 59.800781 C 88.046875 60.753906 88.023438 61.679688 88.011719 62.65625 C 88.007812 62.84375 88.007812 63.027344 88.007812 63.21875 C 88.003906 63.832031 87.996094 64.441406 87.988281 65.054688 C 87.984375 65.480469 87.980469 65.90625 87.976562 66.332031 C 87.96875 67.226562 87.960938 68.121094 87.953125 69.011719 C 87.941406 70.15625 87.929688 71.300781 87.921875 72.441406 C 87.914062 73.324219 87.90625 74.203125 87.894531 75.082031 C 87.890625 75.503906 87.886719 75.925781 87.886719 76.347656 C 87.882812 76.9375 87.875 77.527344 87.867188 78.117188 C 87.867188 78.289062 87.867188 78.464844 87.863281 78.644531 C 87.851562 79.574219 87.753906 80.324219 87.398438 81.199219 C 87.335938 81.199219 87.269531 81.199219 87.199219 81.199219 C 87.265625 74.136719 87.332031 67.074219 87.398438 59.800781 Z M 87.398438 59.800781 "/>
<path style=" stroke:none;fill-rule:nonzero;fill:rgb(89.411765%,78.823529%,44.705882%);fill-opacity:1;" d="M 76.199219 86.800781 C 76.792969 86.867188 77.386719 86.933594 78 87 C 77.304688 87.574219 76.53125 87.953125 75.71875 88.335938 C 75.507812 88.441406 75.507812 88.441406 75.289062 88.546875 C 74.835938 88.765625 74.378906 88.980469 73.925781 89.199219 C 73.472656 89.417969 73.019531 89.636719 72.566406 89.855469 C 72.285156 89.988281 72.003906 90.125 71.722656 90.257812 C 71.59375 90.320312 71.460938 90.382812 71.328125 90.449219 C 71.207031 90.507812 71.082031 90.566406 70.957031 90.625 C 70.613281 90.792969 70.269531 90.96875 69.929688 91.144531 C 69.398438 91.398438 69.398438 91.398438 69 91.398438 C 69 91.003906 69 90.609375 69 90.199219 C 69.21875 90.246094 69.4375 90.289062 69.664062 90.335938 C 70.375 90.484375 70.375 90.484375 70.710938 90.136719 C 70.808594 90.027344 70.902344 89.914062 71 89.800781 C 71.398438 89.664062 71.800781 89.53125 72.199219 89.398438 C 72.265625 89.269531 72.332031 89.136719 72.398438 89 C 72.53125 89 72.664062 89 72.800781 89 C 72.867188 88.800781 72.933594 88.605469 73 88.398438 C 74.351562 88.175781 74.351562 88.175781 74.800781 88.398438 C 74.800781 88.269531 74.800781 88.136719 74.800781 88 C 75.195312 87.933594 75.59375 87.867188 76 87.800781 C 76 87.667969 76 87.535156 76 87.398438 C 76.132812 87.398438 76.265625 87.398438 76.398438 87.398438 C 76.300781 87.101562 76.300781 87.101562 76.199219 86.800781 Z M 76.199219 86.800781 "/>
<path style=" stroke:none;fill-rule:nonzero;fill:rgb(88.627451%,79.215686%,43.137255%);fill-opacity:1;" d="M 65 92.398438 C 65.328125 92.53125 65.660156 92.664062 66 92.800781 C 65.394531 93.28125 64.777344 93.636719 64.085938 93.984375 C 63.769531 94.144531 63.769531 94.144531 63.441406 94.304688 C 63.222656 94.414062 63.003906 94.523438 62.773438 94.636719 C 62.554688 94.75 62.332031 94.859375 62.101562 94.976562 C 61.890625 95.082031 61.679688 95.1875 61.460938 95.296875 C 61.171875 95.441406 61.171875 95.441406 60.875 95.589844 C 60.398438 95.800781 60.398438 95.800781 60 95.800781 C 59.933594 95.46875 59.867188 95.140625 59.800781 94.800781 C 60.800781 94.535156 61.773438 94.328125 62.800781 94.199219 C 62.800781 94.066406 62.800781 93.9375 62.800781 93.800781 C 62.929688 93.773438 63.054688 93.75 63.1875 93.726562 C 63.324219 93.683594 63.460938 93.640625 63.601562 93.601562 C 63.664062 93.46875 63.730469 93.335938 63.800781 93.199219 C 63.929688 93.171875 64.054688 93.140625 64.1875 93.113281 C 64.675781 93.027344 64.675781 93.027344 65 92.398438 Z M 65 92.398438 "/>
<path style=" stroke:none;fill-rule:nonzero;fill:rgb(98.039216%,84.705882%,86.27451%);fill-opacity:1;" d="M 41.601562 20.398438 C 42.609375 20.6875 42.972656 21.203125 43.601562 22 C 43.730469 22.066406 43.863281 22.132812 44 22.199219 C 43.933594 22.726562 43.867188 23.257812 43.800781 23.800781 C 43.601562 23.800781 43.402344 23.800781 43.199219 23.800781 C 43.199219 23.933594 43.199219 24.0625 43.199219 24.199219 C 43.003906 24.332031 42.804688 24.464844 42.601562 24.601562 C 42.535156 24.796875 42.46875 24.996094 42.398438 25.199219 C 42.070312 25.265625 41.738281 25.332031 41.398438 25.398438 C 41.335938 25.730469 41.269531 26.058594 41.199219 26.398438 C 40.871094 26.398438 40.539062 26.398438 40.199219 26.398438 C 41.191406 25.199219 42.238281 24.039062 43.398438 23 C 43.53125 23 43.664062 23 43.800781 23 C 43.800781 22.800781 43.800781 22.605469 43.800781 22.398438 C 43.601562 22.335938 43.402344 22.269531 43.199219 22.199219 C 42.941406 21.902344 42.6875 21.605469 42.441406 21.300781 C 42.179688 20.976562 41.902344 20.683594 41.601562 20.398438 Z M 41.601562 20.398438 "/>
<path style=" stroke:none;fill-rule:nonzero;fill:rgb(91.372549%,41.568627%,41.568627%);fill-opacity:1;" d="M 50.199219 28.800781 C 50.542969 29.191406 50.875 29.589844 51.199219 30 C 51.003906 30.097656 51.003906 30.097656 50.800781 30.199219 C 50.800781 30.066406 50.800781 29.9375 50.800781 29.800781 C 50.261719 29.664062 50.261719 29.664062 49.601562 29.800781 C 49.199219 30.167969 48.875 30.566406 48.535156 30.992188 C 48.140625 31.472656 47.6875 31.824219 47.199219 32.199219 C 47.066406 32.398438 46.9375 32.597656 46.800781 32.800781 C 46.535156 32.734375 46.273438 32.667969 46 32.601562 C 46.625 31.964844 47.25 31.332031 47.875 30.699219 C 48.054688 30.519531 48.230469 30.335938 48.414062 30.152344 C 48.585938 29.980469 48.753906 29.808594 48.929688 29.632812 C 49.164062 29.390625 49.164062 29.390625 49.40625 29.148438 C 49.800781 28.800781 49.800781 28.800781 50.199219 28.800781 Z M 50.199219 28.800781 "/>
<path style=" stroke:none;fill-rule:nonzero;fill:rgb(83.529412%,38.039216%,23.921569%);fill-opacity:1;" d="M 54.398438 44.800781 C 53.136719 45.640625 51.628906 45.4375 50.164062 45.4375 C 49.921875 45.441406 49.683594 45.441406 49.433594 45.445312 C 49.207031 45.445312 48.976562 45.445312 48.742188 45.445312 C 48.53125 45.445312 48.324219 45.449219 48.105469 45.449219 C 47.601562 45.398438 47.601562 45.398438 47.199219 45 C 48.0625 44.964844 48.925781 44.933594 49.789062 44.898438 C 50.03125 44.890625 50.273438 44.882812 50.523438 44.871094 C 51.816406 44.820312 53.105469 44.789062 54.398438 44.800781 Z M 54.398438 44.800781 "/>
<path style=" stroke:none;fill-rule:nonzero;fill:rgb(85.098039%,63.921569%,33.333333%);fill-opacity:1;" d="M 16.800781 37.398438 C 16.800781 37.53125 16.800781 37.664062 16.800781 37.800781 C 16.667969 37.800781 16.535156 37.800781 16.398438 37.800781 C 16.398438 37.996094 16.398438 38.195312 16.398438 38.398438 C 15.691406 38.9375 15.070312 39.316406 14.1875 39.476562 C 13.722656 39.582031 13.722656 39.582031 13.398438 40.199219 C 13.335938 40.066406 13.269531 39.9375 13.199219 39.800781 C 13.960938 38.699219 15.382812 37.398438 16.800781 37.398438 Z M 16.800781 37.398438 "/>
<path style=" stroke:none;fill-rule:nonzero;fill:rgb(98.039216%,80.784314%,82.352941%);fill-opacity:1;" d="M 39.199219 12.199219 C 39.40625 12.757812 39.410156 12.972656 39.210938 13.550781 C 39.140625 13.699219 39.070312 13.847656 39 14 C 38.867188 14 38.734375 14 38.601562 14 C 38.601562 14.726562 38.601562 15.453125 38.601562 16.199219 C 38.796875 16.265625 38.996094 16.332031 39.199219 16.398438 C 39.199219 16.929688 39.199219 17.457031 39.199219 18 C 38.089844 16.589844 38.023438 15.382812 38.199219 13.601562 C 38.429688 13.007812 38.75 12.648438 39.199219 12.199219 Z M 39.199219 12.199219 "/>
<path style=" stroke:none;fill-rule:nonzero;fill:rgb(89.411765%,81.176471%,47.843137%);fill-opacity:1;" d="M 60 96 C 59.867188 96.0625 59.738281 96.125 59.601562 96.1875 C 59.003906 96.476562 58.402344 96.761719 57.800781 97.050781 C 57.59375 97.148438 57.386719 97.246094 57.175781 97.347656 C 56.269531 97.78125 55.367188 98.214844 54.476562 98.671875 C 53.800781 99 53.800781 99 53.398438 99 C 53.601562 98.398438 53.601562 98.398438 54.03125 98.179688 C 54.320312 98.070312 54.320312 98.070312 54.613281 97.960938 C 55.828125 97.488281 56.96875 96.921875 58.113281 96.300781 C 58.839844 95.921875 59.21875 95.738281 60 96 Z M 60 96 "/>
<path style=" stroke:none;fill-rule:nonzero;fill:rgb(83.529412%,34.901961%,21.960784%);fill-opacity:1;" d="M 32.800781 37.199219 C 32.933594 37.199219 33.0625 37.199219 33.199219 37.199219 C 33.601562 37.699219 33.601562 37.699219 34 38.199219 C 34.398438 38.539062 34.796875 38.871094 35.199219 39.199219 C 35.359375 39.367188 35.523438 39.539062 35.6875 39.710938 C 36.121094 40.125 36.4375 40.351562 36.949219 40.625 C 37.601562 41 37.601562 41 37.800781 41.601562 C 35.828125 40.902344 34.152344 39.148438 32.800781 37.601562 C 32.800781 37.46875 32.800781 37.335938 32.800781 37.199219 Z M 32.800781 37.199219 "/>
<path style=" stroke:none;fill-rule:nonzero;fill:rgb(82.352941%,33.72549%,23.137255%);fill-opacity:1;" d="M 68.601562 35.199219 C 68.664062 35.332031 68.730469 35.464844 68.800781 35.601562 C 68.667969 35.601562 68.535156 35.601562 68.398438 35.601562 C 68.347656 35.714844 68.292969 35.828125 68.238281 35.949219 C 67.441406 37.460938 65.847656 39.648438 64.199219 40.199219 C 64.199219 40.066406 64.199219 39.9375 64.199219 39.800781 C 64.523438 39.488281 64.523438 39.488281 64.949219 39.136719 C 65.582031 38.601562 66.085938 38.050781 66.601562 37.398438 C 66.730469 37.398438 66.863281 37.398438 67 37.398438 C 67.074219 37.238281 67.074219 37.238281 67.148438 37.074219 C 67.972656 35.515625 67.972656 35.515625 68.601562 35.199219 Z M 68.601562 35.199219 "/>
<path style=" stroke:none;fill-rule:nonzero;fill:rgb(90.588235%,75.686275%,78.039216%);fill-opacity:1;" d="M 61 27.800781 C 61.789062 28.554688 61.84375 29.03125 61.875 30.125 C 61.871094 31.421875 61.648438 32.222656 60.800781 33.199219 C 60.734375 32.9375 60.667969 32.671875 60.601562 32.398438 C 60.730469 32.398438 60.863281 32.398438 61 32.398438 C 61 32.203125 61 32.003906 61 31.800781 C 61.132812 31.800781 61.265625 31.800781 61.398438 31.800781 C 61.371094 31.320312 61.34375 30.839844 61.3125 30.363281 C 61.304688 30.226562 61.296875 30.09375 61.289062 29.953125 C 61.242188 29.21875 61.164062 28.515625 61 27.800781 Z M 61 27.800781 "/>
<path style=" stroke:none;fill-rule:nonzero;fill:rgb(90.980392%,46.27451%,46.27451%);fill-opacity:1;" d="M 57.625 10.523438 C 57.761719 10.523438 57.902344 10.519531 58.042969 10.519531 C 58.921875 10.523438 59.507812 10.648438 60.199219 11.199219 C 60.199219 11.332031 60.199219 11.464844 60.199219 11.601562 C 60.023438 11.53125 60.023438 11.53125 59.839844 11.460938 C 58.507812 11 57.382812 10.898438 56 11.199219 C 55.40625 11.480469 55.40625 11.480469 55 11.800781 C 54.867188 11.800781 54.734375 11.800781 54.601562 11.800781 C 54.601562 11.601562 54.601562 11.402344 54.601562 11.199219 C 55.652344 10.679688 56.457031 10.503906 57.625 10.523438 Z M 57.625 10.523438 "/>
<path style=" stroke:none;fill-rule:nonzero;fill:rgb(87.45098%,77.647059%,46.27451%);fill-opacity:1;" d="M 86.800781 81.199219 C 86.933594 81.199219 87.0625 81.199219 87.199219 81.199219 C 86.75 82.578125 85.570312 83.539062 84.3125 84.210938 C 84.144531 84.273438 83.972656 84.335938 83.800781 84.398438 C 83.667969 84.335938 83.535156 84.269531 83.398438 84.199219 C 83.597656 84.132812 83.796875 84.066406 84 84 C 84.066406 83.800781 84.132812 83.605469 84.199219 83.398438 C 84.324219 83.375 84.449219 83.351562 84.574219 83.324219 C 85.191406 83.144531 85.285156 82.742188 85.601562 82.199219 C 86.011719 81.976562 86.011719 81.976562 86.398438 81.800781 C 86.53125 81.601562 86.664062 81.402344 86.800781 81.199219 Z M 86.800781 81.199219 "/>
<path style=" stroke:none;fill-rule:nonzero;fill:rgb(82.352941%,34.509804%,23.137255%);fill-opacity:1;" d="M 59.601562 42.601562 C 59.863281 42.664062 60.128906 42.730469 60.398438 42.800781 C 56.511719 44.902344 56.511719 44.902344 54.398438 44.800781 C 55.949219 43.960938 57.855469 43.28125 59.601562 43 C 59.601562 42.867188 59.601562 42.734375 59.601562 42.601562 Z M 59.601562 42.601562 "/>
<path style=" stroke:none;fill-rule:nonzero;fill:rgb(74.509804%,56.862745%,31.764706%);fill-opacity:1;" d="M 71.199219 31.601562 C 71.964844 31.722656 72.570312 31.949219 73.261719 32.300781 C 73.457031 32.398438 73.652344 32.496094 73.851562 32.601562 C 74.054688 32.703125 74.253906 32.804688 74.460938 32.914062 C 74.667969 33.015625 74.875 33.121094 75.085938 33.226562 C 75.589844 33.484375 76.09375 33.742188 76.601562 34 C 76.203125 34.199219 76.203125 34.199219 75.800781 34.398438 C 75.734375 34.269531 75.667969 34.136719 75.601562 34 C 75.222656 33.777344 74.839844 33.570312 74.449219 33.375 C 74.136719 33.214844 74.136719 33.214844 73.816406 33.046875 C 73.214844 32.804688 72.835938 32.746094 72.199219 32.800781 C 72.175781 32.613281 72.175781 32.613281 72.148438 32.425781 C 72.039062 31.964844 72.039062 31.964844 71.585938 31.75 C 71.460938 31.699219 71.332031 31.652344 71.199219 31.601562 Z M 71.199219 31.601562 "/>
<path style=" stroke:none;fill-rule:nonzero;fill:rgb(89.411765%,38.039216%,38.039216%);fill-opacity:1;" d="M 58.398438 20.199219 C 58.53125 20.265625 58.664062 20.332031 58.800781 20.398438 C 58.273438 21.375 58.273438 21.375 57.601562 21.601562 C 57.257812 22.300781 57.257812 22.300781 57 23 C 57.132812 23 57.265625 23 57.398438 23 C 57.464844 23.328125 57.53125 23.660156 57.601562 24 C 57.136719 23.605469 56.675781 23.207031 56.199219 22.800781 C 56.597656 22.003906 56.964844 21.605469 57.601562 21 C 57.753906 20.847656 57.90625 20.695312 58.0625 20.539062 C 58.175781 20.425781 58.285156 20.316406 58.398438 20.199219 Z M 58.398438 20.199219 "/>
<path style=" stroke:none;fill-rule:nonzero;fill:rgb(94.509804%,33.72549%,32.941176%);fill-opacity:1;" d="M 48.398438 14.800781 C 48.804688 14.859375 49.207031 14.917969 49.609375 14.976562 C 50.015625 15.035156 50.015625 15.035156 50.398438 14.800781 C 50.664062 14.996094 50.929688 15.195312 51.199219 15.398438 C 50.871094 15.730469 50.539062 16.058594 50.199219 16.398438 C 49.34375 16.082031 48.945312 15.5 48.398438 14.800781 Z M 48.398438 14.800781 "/>
<path style=" stroke:none;fill-rule:nonzero;fill:rgb(84.313725%,49.411765%,27.45098%);fill-opacity:1;" d="M 65.398438 39.199219 C 65.398438 39.398438 65.398438 39.597656 65.398438 39.800781 C 64.953125 40.222656 64.953125 40.222656 64.363281 40.6875 C 64.167969 40.839844 63.976562 40.992188 63.777344 41.148438 C 63.585938 41.296875 63.398438 41.445312 63.199219 41.601562 C 62.933594 41.816406 62.933594 41.816406 62.660156 42.039062 C 62.175781 42.417969 61.789062 42.632812 61.199219 42.800781 C 60.769531 42.707031 60.769531 42.707031 60.398438 42.601562 C 60.542969 42.523438 60.691406 42.445312 60.839844 42.367188 C 62.75 41.367188 62.75 41.367188 64.398438 40 C 64.730469 39.730469 65.0625 39.464844 65.398438 39.199219 Z M 65.398438 39.199219 "/>
<path style=" stroke:none;fill-rule:nonzero;fill:rgb(83.529412%,50.196078%,27.45098%);fill-opacity:1;" d="M 68.800781 35.199219 C 68.867188 35.464844 68.933594 35.726562 69 36 C 68.871094 36.050781 68.746094 36.097656 68.613281 36.148438 C 68.164062 36.363281 68.164062 36.363281 68.050781 36.824219 C 68.035156 36.949219 68.015625 37.074219 68 37.199219 C 67.867188 37.199219 67.734375 37.199219 67.601562 37.199219 C 67.601562 37.398438 67.601562 37.597656 67.601562 37.800781 C 67.226562 38.238281 67.226562 38.238281 66.800781 38.601562 C 66.667969 38.601562 66.535156 38.601562 66.398438 38.601562 C 66.335938 38.796875 66.269531 38.996094 66.199219 39.199219 C 66.003906 39.132812 65.804688 39.066406 65.601562 39 C 65.726562 38.882812 65.726562 38.882812 65.855469 38.765625 C 66.746094 37.914062 67.433594 37.019531 68.105469 35.988281 C 68.203125 35.859375 68.300781 35.730469 68.398438 35.601562 C 68.53125 35.601562 68.664062 35.601562 68.800781 35.601562 C 68.800781 35.46875 68.800781 35.335938 68.800781 35.199219 Z M 68.800781 35.199219 "/>
<path style=" stroke:none;fill-rule:nonzero;fill:rgb(89.411765%,82.352941%,56.862745%);fill-opacity:1;" d="M 17.601562 84.800781 C 19.710938 85.183594 19.710938 85.183594 20.601562 85.601562 C 20.601562 85.730469 20.601562 85.863281 20.601562 86 C 20.796875 86.066406 20.996094 86.132812 21.199219 86.199219 C 21.199219 86.332031 21.199219 86.464844 21.199219 86.601562 C 20.328125 86.332031 19.539062 85.988281 18.726562 85.574219 C 18.511719 85.46875 18.300781 85.359375 18.082031 85.25 C 17.921875 85.167969 17.765625 85.085938 17.601562 85 C 17.601562 84.933594 17.601562 84.867188 17.601562 84.800781 Z M 17.601562 84.800781 "/>
<path style=" stroke:none;fill-rule:nonzero;fill:rgb(91.764706%,56.470588%,30.980392%);fill-opacity:1;" d="M 35.398438 40.199219 C 36.238281 40.609375 37.019531 41.09375 37.8125 41.585938 C 37.957031 41.675781 38.101562 41.765625 38.25 41.855469 C 38.386719 41.941406 38.527344 42.027344 38.667969 42.117188 C 38.796875 42.195312 38.921875 42.273438 39.050781 42.355469 C 39.410156 42.605469 39.699219 42.882812 40 43.199219 C 39.050781 43.085938 38.40625 42.691406 37.601562 42.199219 C 37.601562 42.066406 37.601562 41.9375 37.601562 41.800781 C 37.070312 41.585938 36.542969 41.382812 36 41.199219 C 35.664062 40.914062 35.664062 40.914062 35.398438 40.601562 C 35.398438 40.46875 35.398438 40.335938 35.398438 40.199219 Z M 35.398438 40.199219 "/>
<path style=" stroke:none;fill-rule:nonzero;fill:rgb(90.980392%,56.470588%,30.196078%);fill-opacity:1;" d="M 30.800781 34.800781 C 30.910156 34.9375 31.019531 35.078125 31.132812 35.222656 C 31.632812 35.839844 32.140625 36.453125 32.648438 37.0625 C 32.742188 37.171875 32.832031 37.28125 32.929688 37.394531 C 33.152344 37.664062 33.375 37.933594 33.601562 38.199219 C 33.402344 38.265625 33.203125 38.332031 33 38.398438 C 32.867188 38.070312 32.734375 37.738281 32.601562 37.398438 C 32.402344 37.398438 32.203125 37.398438 32 37.398438 C 31.789062 37.074219 31.589844 36.738281 31.398438 36.398438 C 31.289062 36.300781 31.175781 36.203125 31.0625 36.101562 C 30.800781 35.800781 30.800781 35.800781 30.761719 35.261719 C 30.773438 35.109375 30.789062 34.957031 30.800781 34.800781 Z M 30.800781 34.800781 "/>
<path style=" stroke:none;fill-rule:nonzero;fill:rgb(98.039216%,82.352941%,83.921569%);fill-opacity:1;" d="M 39.398438 27 C 39.601562 27.601562 39.601562 27.601562 39.3125 28.238281 C 39.15625 28.515625 39.15625 28.515625 39 28.800781 C 38.867188 28.800781 38.734375 28.800781 38.601562 28.800781 C 38.535156 29.65625 38.46875 30.515625 38.398438 31.398438 C 38.335938 31.398438 38.269531 31.398438 38.199219 31.398438 C 38.085938 29.722656 38.074219 28.511719 39.199219 27.199219 C 39.265625 27.132812 39.332031 27.066406 39.398438 27 Z M 39.398438 27 "/>
<path style=" stroke:none;fill-rule:nonzero;fill:rgb(95.294118%,31.764706%,29.019608%);fill-opacity:1;" d="M 39.199219 34.800781 C 39.640625 34.792969 40.082031 34.789062 40.523438 34.789062 C 40.769531 34.785156 41.015625 34.78125 41.269531 34.78125 C 41.933594 34.796875 42.546875 34.871094 43.199219 35 C 43.132812 35.132812 43.066406 35.265625 43 35.398438 C 41.714844 35.425781 40.476562 35.363281 39.199219 35.199219 C 39.199219 35.066406 39.199219 34.9375 39.199219 34.800781 Z M 39.199219 34.800781 "/>
<path style=" stroke:none;fill-rule:nonzero;fill:rgb(89.019608%,78.431373%,41.568627%);fill-opacity:1;" d="M 67.007812 91.449219 C 67.40625 91.566406 67.804688 91.683594 68.199219 91.800781 C 67.527344 92.390625 66.863281 92.585938 66 92.800781 C 65.960938 92.324219 65.960938 92.324219 66 91.800781 C 66.601562 91.398438 66.601562 91.398438 67.007812 91.449219 Z M 67.007812 91.449219 "/>
<path style=" stroke:none;fill-rule:nonzero;fill:rgb(86.666667%,36.078431%,35.686275%);fill-opacity:1;" d="M 33.199219 7.199219 C 33.199219 7.914062 33.0625 8.035156 32.625 8.574219 C 32.25 9.050781 32.003906 9.394531 31.789062 9.960938 C 31.53125 10.558594 31.167969 10.714844 30.601562 11 C 30.863281 10.261719 31.183594 9.710938 31.675781 9.101562 C 31.796875 8.945312 31.921875 8.792969 32.050781 8.632812 C 32.164062 8.488281 32.28125 8.347656 32.398438 8.199219 C 32.5625 7.996094 32.722656 7.796875 32.886719 7.585938 C 32.992188 7.460938 33.09375 7.332031 33.199219 7.199219 Z M 33.199219 7.199219 "/>
<path style=" stroke:none;fill-rule:nonzero;fill:rgb(80.392157%,36.470588%,36.862745%);fill-opacity:1;" d="M 61.601562 31.601562 C 61.875 32.617188 61.875 32.617188 61.601562 33.199219 C 60.90625 33.734375 60.222656 34.109375 59.398438 34.398438 C 59.398438 34.269531 59.398438 34.136719 59.398438 34 C 59.578125 33.894531 59.753906 33.785156 59.9375 33.675781 C 60.753906 33.167969 61.148438 32.425781 61.601562 31.601562 Z M 61.601562 31.601562 "/>
<path style=" stroke:none;fill-rule:nonzero;fill:rgb(84.705882%,36.078431%,23.529412%);fill-opacity:1;" d="M 42.800781 44 C 43.707031 43.949219 43.707031 43.949219 44.148438 44.1875 C 44.742188 44.46875 45.304688 44.535156 45.949219 44.625 C 46.183594 44.660156 46.417969 44.691406 46.660156 44.726562 C 46.925781 44.761719 46.925781 44.761719 47.199219 44.800781 C 47.199219 44.867188 47.199219 44.933594 47.199219 45 C 45.777344 45.082031 44.523438 44.953125 43.199219 44.398438 C 43.066406 44.269531 42.9375 44.136719 42.800781 44 Z M 42.800781 44 "/>
<path style=" stroke:none;fill-rule:nonzero;fill:rgb(83.529412%,33.72549%,22.745098%);fill-opacity:1;" d="M 30.398438 33.800781 C 30.53125 33.800781 30.664062 33.800781 30.800781 33.800781 C 31.058594 34.136719 31.058594 34.136719 31.324219 34.574219 C 31.457031 34.789062 31.457031 34.789062 31.59375 35.011719 C 31.800781 35.398438 31.800781 35.398438 31.800781 35.800781 C 31.933594 35.800781 32.0625 35.800781 32.199219 35.800781 C 32.199219 35.996094 32.199219 36.195312 32.199219 36.398438 C 32.398438 36.464844 32.597656 36.53125 32.800781 36.601562 C 32.734375 36.796875 32.667969 36.996094 32.601562 37.199219 C 32.34375 36.886719 32.089844 36.574219 31.835938 36.261719 C 31.695312 36.089844 31.554688 35.914062 31.410156 35.734375 C 30.398438 34.414062 30.398438 34.414062 30.398438 33.800781 Z M 30.398438 33.800781 "/>
<path style=" stroke:none;fill-rule:nonzero;fill:rgb(81.960784%,50.980392%,25.882353%);fill-opacity:1;" d="M 60 42.800781 C 60.132812 42.867188 60.265625 42.933594 60.398438 43 C 59.9375 43.75 59.558594 43.949219 58.710938 44.164062 C 58.523438 44.214844 58.332031 44.265625 58.136719 44.316406 C 57.609375 44.398438 57.300781 44.375 56.800781 44.199219 C 56.980469 44.132812 57.160156 44.066406 57.347656 43.996094 C 57.582031 43.90625 57.820312 43.816406 58.0625 43.726562 C 58.414062 43.59375 58.414062 43.59375 58.773438 43.457031 C 59.417969 43.21875 59.417969 43.21875 60 42.800781 Z M 60 42.800781 "/>
<path style=" stroke:none;fill-rule:nonzero;fill:rgb(90.588235%,54.901961%,31.764706%);fill-opacity:1;" d="M 29.199219 31.398438 C 29.4375 31.855469 29.675781 32.316406 29.914062 32.773438 C 29.980469 32.90625 30.050781 33.035156 30.121094 33.167969 C 30.292969 33.507812 30.449219 33.851562 30.601562 34.199219 C 30.535156 34.332031 30.46875 34.464844 30.398438 34.601562 C 29.703125 34 29.511719 33.304688 29.210938 32.457031 C 29.019531 31.9375 29.019531 31.9375 28.398438 31.601562 C 28.800781 31.398438 28.800781 31.398438 29.199219 31.398438 Z M 29.199219 31.398438 "/>
<path style=" stroke:none;fill-rule:nonzero;fill:rgb(81.568627%,34.509804%,22.745098%);fill-opacity:1;" d="M 63.398438 40.398438 C 63.597656 40.464844 63.796875 40.53125 64 40.601562 C 61.925781 42.097656 61.925781 42.097656 60.800781 42.601562 C 61.03125 41.90625 61.152344 41.851562 61.761719 41.5 C 62.226562 41.226562 62.640625 40.964844 63.0625 40.625 C 63.175781 40.550781 63.285156 40.476562 63.398438 40.398438 Z M 63.398438 40.398438 "/>
<path style=" stroke:none;fill-rule:nonzero;fill:rgb(82.745098%,32.156863%,31.764706%);fill-opacity:1;" d="M 65.199219 5.800781 C 65.425781 5.988281 65.652344 6.175781 65.875 6.363281 C 66 6.46875 66.125 6.570312 66.253906 6.679688 C 66.601562 7 66.601562 7 67 7.601562 C 66.636719 7.738281 66.636719 7.738281 66.199219 7.800781 C 65.476562 7.355469 65.390625 6.582031 65.199219 5.800781 Z M 65.199219 5.800781 "/>
<path style=" stroke:none;fill-rule:nonzero;fill:rgb(74.509804%,58.039216%,33.72549%);fill-opacity:1;" d="M 84.398438 38 C 85.535156 38.269531 86.035156 38.761719 86.800781 39.601562 C 86.734375 39.730469 86.667969 39.863281 86.601562 40 C 86.269531 39.933594 85.941406 39.867188 85.601562 39.800781 C 85.585938 39.648438 85.574219 39.496094 85.5625 39.335938 C 85.449219 38.753906 85.449219 38.753906 84.886719 38.449219 C 84.726562 38.367188 84.566406 38.285156 84.398438 38.199219 C 84.398438 38.132812 84.398438 38.066406 84.398438 38 Z M 84.398438 38 "/>
<path style=" stroke:none;fill-rule:nonzero;fill:rgb(82.352941%,32.941176%,30.980392%);fill-opacity:1;" d="M 71.800781 28.800781 C 71.699219 29.664062 71.5625 30.40625 71.199219 31.199219 C 71.132812 31.199219 71.066406 31.199219 71 31.199219 C 70.730469 29.730469 70.730469 29.730469 71.0625 29.101562 C 71.398438 28.800781 71.398438 28.800781 71.800781 28.800781 Z M 71.800781 28.800781 "/>
<path style=" stroke:none;fill-rule:nonzero;fill:rgb(98.431373%,84.705882%,86.666667%);fill-opacity:1;" d="M 47.199219 13.800781 C 48.695312 15.03125 48.695312 15.03125 49.199219 15.800781 C 48.871094 15.867188 48.539062 15.933594 48.199219 16 C 48.132812 15.671875 48.066406 15.339844 48 15 C 47.800781 14.933594 47.605469 14.867188 47.398438 14.800781 C 47.335938 14.46875 47.269531 14.140625 47.199219 13.800781 Z M 47.199219 13.800781 "/>
<path style=" stroke:none;fill-rule:nonzero;fill:rgb(82.352941%,51.372549%,27.058824%);fill-opacity:1;" d="M 70.398438 32.398438 C 70.636719 33.109375 70.554688 33.25 70.261719 33.914062 C 70.195312 34.070312 70.128906 34.226562 70.058594 34.386719 C 69.761719 34.863281 69.515625 35 69 35.199219 C 69.351562 34.207031 69.878906 33.3125 70.398438 32.398438 Z M 70.398438 32.398438 "/>
<path style=" stroke:none;fill-rule:nonzero;fill:rgb(89.411765%,79.215686%,80.784314%);fill-opacity:1;" d="M 59.800781 32.800781 C 59.933594 32.800781 60.0625 32.800781 60.199219 32.800781 C 60.199219 32.933594 60.199219 33.0625 60.199219 33.199219 C 60.332031 33.265625 60.464844 33.332031 60.601562 33.398438 C 59.476562 34.199219 59.476562 34.199219 58.800781 34.199219 C 58.800781 34.066406 58.800781 33.9375 58.800781 33.800781 C 58.996094 33.800781 59.195312 33.800781 59.398438 33.800781 C 59.441406 33.609375 59.441406 33.609375 59.488281 33.414062 C 59.601562 33 59.601562 33 59.800781 32.800781 Z M 59.800781 32.800781 "/>
<path style=" stroke:none;fill-rule:nonzero;fill:rgb(98.431373%,88.235294%,90.588235%);fill-opacity:1;" d="M 57.800781 20.199219 C 57.996094 20.265625 58.195312 20.332031 58.398438 20.398438 C 58.183594 20.660156 57.96875 20.917969 57.75 21.175781 C 57.628906 21.320312 57.507812 21.460938 57.382812 21.609375 C 57.003906 21.992188 56.691406 22.191406 56.199219 22.398438 C 56.199219 22.203125 56.199219 22.003906 56.199219 21.800781 C 56.398438 21.800781 56.597656 21.800781 56.800781 21.800781 C 56.800781 21.535156 56.800781 21.273438 56.800781 21 C 56.929688 20.941406 57.054688 20.882812 57.1875 20.824219 C 57.628906 20.632812 57.628906 20.632812 57.800781 20.199219 Z M 57.800781 20.199219 "/>
<path style=" stroke:none;fill-rule:nonzero;fill:rgb(98.431373%,83.137255%,84.705882%);fill-opacity:1;" d="M 54.199219 12.199219 C 54.265625 12.464844 54.332031 12.726562 54.398438 13 C 54.269531 13 54.136719 13 54 13 C 53.933594 13.199219 53.867188 13.394531 53.800781 13.601562 C 53.3125 13.949219 53.3125 13.949219 52.800781 14.199219 C 52.667969 14.132812 52.535156 14.066406 52.398438 14 C 52.992188 13.40625 53.589844 12.8125 54.199219 12.199219 Z M 54.199219 12.199219 "/>
<path style=" stroke:none;fill-rule:nonzero;fill:rgb(87.843137%,80.784314%,56.078431%);fill-opacity:1;" d="M 31.199219 91.398438 C 32.039062 91.328125 32.355469 91.480469 33 92 C 33.214844 92.050781 33.214844 92.050781 33.4375 92.101562 C 33.558594 92.132812 33.675781 92.164062 33.800781 92.199219 C 33.867188 92.398438 33.933594 92.597656 34 92.800781 C 33.003906 92.5 32.117188 92.078125 31.199219 91.601562 C 31.199219 91.535156 31.199219 91.46875 31.199219 91.398438 Z M 31.199219 91.398438 "/>
<path style=" stroke:none;fill-rule:nonzero;fill:rgb(93.333333%,76.862745%,40%);fill-opacity:1;" d="M 12 59.601562 C 13.773438 59.746094 13.773438 59.746094 14.398438 60.398438 C 14.398438 60.53125 14.398438 60.664062 14.398438 60.800781 C 13.554688 60.539062 12.785156 60.210938 12 59.800781 C 12 59.734375 12 59.667969 12 59.601562 Z M 12 59.601562 "/>
<path style=" stroke:none;fill-rule:nonzero;fill:rgb(86.666667%,35.686275%,34.509804%);fill-opacity:1;" d="M 44 0.800781 C 43.933594 0.996094 43.867188 1.195312 43.800781 1.398438 C 42.914062 1.730469 42.140625 1.847656 41.199219 1.800781 C 41.730469 1.449219 42.117188 1.269531 42.710938 1.074219 C 42.871094 1.023438 43.027344 0.972656 43.1875 0.917969 C 43.601562 0.800781 43.601562 0.800781 44 0.800781 Z M 44 0.800781 "/>
<path style=" stroke:none;fill-rule:nonzero;fill:rgb(88.627451%,35.686275%,36.078431%);fill-opacity:1;" d="M 48.398438 14.800781 C 48.871094 14.917969 49.335938 15.054688 49.800781 15.199219 C 49.867188 15.332031 49.933594 15.464844 50 15.601562 C 49.933594 15.730469 49.867188 15.863281 49.800781 16 C 49.996094 16.066406 50.195312 16.132812 50.398438 16.199219 C 49.601562 16.199219 49.601562 16.199219 49.257812 15.894531 C 49.15625 15.765625 49.054688 15.632812 48.949219 15.5 C 48.847656 15.371094 48.742188 15.238281 48.632812 15.105469 C 48.558594 15.003906 48.480469 14.902344 48.398438 14.800781 Z M 48.398438 14.800781 "/>
<path style=" stroke:none;fill-rule:nonzero;fill:rgb(88.627451%,44.313725%,44.705882%);fill-opacity:1;" d="M 49.800781 28.800781 C 49.933594 28.800781 50.0625 28.800781 50.199219 28.800781 C 50.542969 29.191406 50.875 29.589844 51.199219 30 C 51.003906 30.097656 51.003906 30.097656 50.800781 30.199219 C 50.800781 30.066406 50.800781 29.9375 50.800781 29.800781 C 50.273438 29.734375 49.742188 29.667969 49.199219 29.601562 C 49.476562 29.199219 49.476562 29.199219 49.800781 28.800781 Z M 49.800781 28.800781 "/>
<path style=" stroke:none;fill-rule:nonzero;fill:rgb(90.196078%,43.921569%,44.313725%);fill-opacity:1;" d="M 43.199219 10.800781 C 43.792969 10.867188 44.386719 10.933594 45 11 C 45.066406 11.199219 45.132812 11.394531 45.199219 11.601562 C 45.601562 11.839844 45.601562 11.839844 46 12 C 45.933594 12.132812 45.867188 12.265625 45.800781 12.398438 C 45.59375 12.242188 45.386719 12.085938 45.175781 11.925781 C 44.542969 11.472656 43.957031 11.203125 43.199219 11 C 43.199219 10.933594 43.199219 10.867188 43.199219 10.800781 Z M 43.199219 10.800781 "/>
<path style=" stroke:none;fill-rule:nonzero;fill:rgb(87.058824%,76.862745%,48.627451%);fill-opacity:1;" d="M 82.914062 84.386719 C 83.152344 84.394531 83.152344 84.394531 83.398438 84.398438 C 82.773438 84.90625 82.140625 85.285156 81.398438 85.601562 C 81.203125 85.535156 81.003906 85.46875 80.800781 85.398438 C 80.933594 85.398438 81.0625 85.398438 81.199219 85.398438 C 81.199219 85.269531 81.199219 85.136719 81.199219 85 C 81.359375 84.9375 81.523438 84.875 81.6875 84.8125 C 82.699219 84.394531 82.699219 84.394531 82.914062 84.386719 Z M 82.914062 84.386719 "/>
<path style=" stroke:none;fill-rule:nonzero;fill:rgb(87.843137%,77.647059%,42.745098%);fill-opacity:1;" d="M 69 90.199219 C 69.394531 90.332031 69.792969 90.464844 70.199219 90.601562 C 70.199219 90.730469 70.199219 90.863281 70.199219 91 C 69.804688 91.132812 69.40625 91.265625 69 91.398438 C 69 91.003906 69 90.609375 69 90.199219 Z M 69 90.199219 "/>
<path style=" stroke:none;fill-rule:nonzero;fill:rgb(98.823529%,86.27451%,50.196078%);fill-opacity:1;" d="M 42.398438 68.199219 C 42.625 68.949219 42.625 68.949219 42.398438 69.398438 C 42.167969 69.582031 41.929688 69.757812 41.6875 69.925781 C 41.558594 70.015625 41.429688 70.101562 41.300781 70.195312 C 41.199219 70.261719 41.101562 70.332031 41 70.398438 C 41.355469 69.589844 41.878906 68.90625 42.398438 68.199219 Z M 42.398438 68.199219 "/>
<path style=" stroke:none;fill-rule:nonzero;fill:rgb(98.823529%,84.313725%,86.666667%);fill-opacity:1;" d="M 52.199219 14.199219 C 52.265625 14.464844 52.332031 14.726562 52.398438 15 C 52.164062 15.363281 52.164062 15.363281 51.800781 15.601562 C 51.535156 15.535156 51.273438 15.46875 51 15.398438 C 51.394531 15.003906 51.792969 14.609375 52.199219 14.199219 Z M 52.199219 14.199219 "/>
<path style=" stroke:none;fill-rule:nonzero;fill:rgb(80.392157%,34.509804%,31.764706%);fill-opacity:1;" d="M 69 10.601562 C 69.132812 10.601562 69.265625 10.601562 69.398438 10.601562 C 70.042969 11.65625 70.042969 11.65625 70.199219 12 C 70.132812 12.132812 70.066406 12.265625 70 12.398438 C 69.5 11.949219 69.5 11.949219 69 11.398438 C 69 11.136719 69 10.871094 69 10.601562 Z M 69 10.601562 "/>
<path style=" stroke:none;fill-rule:nonzero;fill:rgb(90.588235%,78.431373%,43.529412%);fill-opacity:1;" d="M 79.398438 85.199219 C 79.796875 85.199219 80.191406 85.199219 80.601562 85.199219 C 80.664062 85.398438 80.730469 85.597656 80.800781 85.800781 C 80.402344 85.933594 80.007812 86.0625 79.601562 86.199219 C 79.535156 85.871094 79.46875 85.539062 79.398438 85.199219 Z M 79.398438 85.199219 "/>
<path style=" stroke:none;fill-rule:nonzero;fill:rgb(92.54902%,74.509804%,39.215686%);fill-opacity:1;" d="M 10.800781 43.601562 C 10.933594 43.863281 11.0625 44.128906 11.199219 44.398438 C 11.066406 44.398438 10.9375 44.398438 10.800781 44.398438 C 10.667969 44.53125 10.535156 44.664062 10.398438 44.800781 C 10.203125 44.800781 10.003906 44.800781 9.800781 44.800781 C 9.960938 44.3125 9.960938 44.3125 10.199219 43.800781 C 10.398438 43.734375 10.597656 43.667969 10.800781 43.601562 Z M 10.800781 43.601562 "/>
<path style=" stroke:none;fill-rule:nonzero;fill:rgb(92.156863%,75.686275%,40.392157%);fill-opacity:1;" d="M 9 45.601562 C 9.199219 46 9.199219 46 9.011719 46.625 C 8.941406 46.816406 8.871094 47.003906 8.800781 47.199219 C 8.535156 47.132812 8.273438 47.066406 8 47 C 8.328125 46.539062 8.660156 46.074219 9 45.601562 Z M 9 45.601562 "/>
<path style=" stroke:none;fill-rule:nonzero;fill:rgb(90.196078%,41.568627%,41.960784%);fill-opacity:1;" d="M 53 32 C 53.671875 32.277344 53.996094 32.597656 54.398438 33.199219 C 54.203125 33.300781 54.203125 33.300781 54 33.398438 C 54 33.269531 54 33.136719 54 33 C 53.734375 33 53.472656 33 53.199219 33 C 53.132812 32.671875 53.066406 32.339844 53 32 Z M 53 32 "/>
<path style=" stroke:none;fill-rule:nonzero;fill:rgb(98.431373%,86.666667%,89.019608%);fill-opacity:1;" d="M 38.398438 16.199219 C 38.664062 16.265625 38.929688 16.332031 39.199219 16.398438 C 39.199219 16.929688 39.199219 17.457031 39.199219 18 C 38.699219 17.414062 38.507812 16.964844 38.398438 16.199219 Z M 38.398438 16.199219 "/>
<path style=" stroke:none;fill-rule:nonzero;fill:rgb(90.588235%,38.823529%,36.862745%);fill-opacity:1;" d="M 56.800781 10.800781 C 56.546875 10.929688 56.292969 11.058594 56.039062 11.1875 C 55.894531 11.257812 55.753906 11.332031 55.609375 11.40625 C 55.199219 11.601562 55.199219 11.601562 54.601562 11.800781 C 54.601562 11.601562 54.601562 11.402344 54.601562 11.199219 C 55.992188 10.53125 55.992188 10.53125 56.800781 10.800781 Z M 56.800781 10.800781 "/>
<path style=" stroke:none;fill-rule:nonzero;fill:rgb(90.588235%,36.470588%,36.078431%);fill-opacity:1;" d="M 61.199219 3 C 61.875 3.238281 62.328125 3.457031 62.800781 4 C 62.226562 4.023438 62.226562 4.023438 61.601562 4 C 61.46875 3.867188 61.335938 3.734375 61.199219 3.601562 C 61.199219 3.402344 61.199219 3.203125 61.199219 3 Z M 61.199219 3 "/>
<path style=" stroke:none;fill-rule:nonzero;fill:rgb(90.588235%,44.313725%,44.705882%);fill-opacity:1;" d="M 58.398438 20.199219 C 58.53125 20.265625 58.664062 20.332031 58.800781 20.398438 C 58.5625 20.886719 58.5625 20.886719 58.199219 21.398438 C 57.664062 21.5625 57.664062 21.5625 57.199219 21.601562 C 57.597656 21.136719 57.992188 20.675781 58.398438 20.199219 Z M 58.398438 20.199219 "/>
<path style=" stroke:none;fill-rule:nonzero;fill:rgb(96.862745%,85.098039%,84.705882%);fill-opacity:1;" d="M 50.800781 15.601562 C 50.800781 16.304688 50.636719 16.472656 50.199219 17 C 50.003906 16.933594 49.804688 16.867188 49.601562 16.800781 C 49.800781 16.199219 49.800781 16.199219 50.199219 15.976562 C 50.332031 15.917969 50.464844 15.859375 50.601562 15.800781 C 50.664062 15.734375 50.730469 15.667969 50.800781 15.601562 Z M 50.800781 15.601562 "/>
<path style=" stroke:none;fill-rule:nonzero;fill:rgb(87.843137%,79.215686%,45.882353%);fill-opacity:1;" d="M 55.199219 98.199219 C 53.851562 99 53.851562 99 53.398438 99 C 53.601562 98.398438 53.601562 98.398438 54.074219 98.148438 C 54.601562 98 54.601562 98 55.199219 98.199219 Z M 55.199219 98.199219 "/>
<path style=" stroke:none;fill-rule:nonzero;fill:rgb(91.372549%,56.862745%,30.588235%);fill-opacity:1;" d="M 40 43.199219 C 40.710938 43.320312 41.335938 43.515625 42 43.800781 C 42 43.867188 42 43.933594 42 44 C 40.851562 44.023438 40.851562 44.023438 40.398438 43.800781 C 40.398438 43.667969 40.398438 43.535156 40.398438 43.398438 C 40.269531 43.335938 40.136719 43.269531 40 43.199219 Z M 40 43.199219 "/>
<path style=" stroke:none;fill-rule:nonzero;fill:rgb(91.372549%,56.078431%,30.980392%);fill-opacity:1;" d="M 33.601562 38.398438 C 34.0625 38.796875 34.523438 39.191406 35 39.601562 C 34.800781 39.664062 34.605469 39.730469 34.398438 39.800781 C 34 39.4375 34 39.4375 33.601562 39 C 33.601562 38.800781 33.601562 38.605469 33.601562 38.398438 Z M 33.601562 38.398438 "/>
<path style=" stroke:none;fill-rule:nonzero;fill:rgb(77.254902%,58.431373%,32.156863%);fill-opacity:1;" d="M 81.601562 36.601562 C 82.382812 36.832031 82.976562 37.070312 83.601562 37.601562 C 82.273438 37.449219 82.273438 37.449219 81.601562 37 C 81.601562 36.867188 81.601562 36.734375 81.601562 36.601562 Z M 81.601562 36.601562 "/>
<path style=" stroke:none;fill-rule:nonzero;fill:rgb(90.588235%,36.078431%,37.254902%);fill-opacity:1;" d="M 53.800781 11.800781 C 54.210938 11.886719 54.210938 11.886719 54.601562 12 C 54.007812 12.496094 54.007812 12.496094 53.398438 13 C 53.574219 12.023438 53.574219 12.023438 53.800781 11.800781 Z M 53.800781 11.800781 "/>
<path style=" stroke:none;fill-rule:nonzero;fill:rgb(75.294118%,57.647059%,32.941176%);fill-opacity:1;" d="M 79 35.398438 C 79.59375 35.597656 80.1875 35.796875 80.800781 36 C 80.800781 36.066406 80.800781 36.132812 80.800781 36.199219 C 79.675781 36.25 79.675781 36.25 79 35.800781 C 79 35.667969 79 35.535156 79 35.398438 Z M 79 35.398438 "/>
<path style=" stroke:none;fill-rule:nonzero;fill:rgb(90.196078%,38.039216%,39.607843%);fill-opacity:1;" d="M 39.601562 33.601562 C 40.601562 34 40.601562 34 41.601562 34.398438 C 40.835938 34.695312 40.34375 34.488281 39.601562 34.199219 C 39.601562 34.003906 39.601562 33.804688 39.601562 33.601562 Z M 39.601562 33.601562 "/>
<path style=" stroke:none;fill-rule:nonzero;fill:rgb(82.352941%,33.72549%,34.901961%);fill-opacity:1;" d="M 61.601562 31.601562 C 61.792969 32.199219 61.84375 32.609375 61.601562 33.199219 C 61.402344 33.265625 61.203125 33.332031 61 33.398438 C 61.375 32.050781 61.375 32.050781 61.601562 31.601562 Z M 61.601562 31.601562 "/>
<path style=" stroke:none;fill-rule:nonzero;fill:rgb(98.431373%,85.490196%,89.019608%);fill-opacity:1;" d="M 49.601562 28.601562 C 50.550781 28.75 50.550781 28.75 51 29.199219 C 50.734375 29.199219 50.472656 29.199219 50.199219 29.199219 C 50.199219 29.066406 50.199219 28.9375 50.199219 28.800781 C 49.703125 29.097656 49.703125 29.097656 49.199219 29.398438 C 49.332031 29.136719 49.464844 28.871094 49.601562 28.601562 Z M 49.601562 28.601562 "/>
<path style=" stroke:none;fill-rule:nonzero;fill:rgb(98.823529%,84.705882%,87.058824%);fill-opacity:1;" d="M 56.601562 23.199219 C 57.003906 23.527344 57.402344 23.863281 57.800781 24.199219 C 57.800781 24.265625 57.800781 24.332031 57.800781 24.398438 C 57.46875 24.398438 57.140625 24.398438 56.800781 24.398438 C 56.734375 24.003906 56.667969 23.609375 56.601562 23.199219 Z M 56.601562 23.199219 "/>
</g>
</svg>
