<svg width="209" height="246" viewBox="0 0 209 246" fill="none" xmlns="http://www.w3.org/2000/svg">
<g clip-path="url(#clip0_295_678)">
<path d="M86.7747 201.907C90.9333 197.671 96.9598 195.242 103.309 195.242L103.554 195.243C107.736 195.244 111.843 194.149 115.456 192.068L115.832 191.852L115.529 191.544C113.89 189.869 112.521 187.955 111.471 185.869C112.217 186.556 113.106 187.072 114.077 187.382C115.047 187.692 116.075 187.787 117.087 187.661C118.155 187.535 119.18 187.172 120.086 186.599C120.992 186.026 121.755 185.257 122.317 184.351C124.536 180.795 127.182 175.75 127.182 171.906C127.178 168.657 126.489 165.444 125.159 162.472C123.829 159.501 121.886 156.835 119.456 154.646C117.917 153.276 116.687 151.6 115.848 149.729C115.009 147.858 114.578 145.833 114.584 143.786L114.585 143.495C114.586 140.8 114.252 138.115 113.593 135.501C112.933 132.886 113.526 135.237 113.526 135.237C113.526 135.237 115.024 135.187 113.25 135.246C111.477 135.306 109.702 135.159 107.963 134.809C109.595 134.611 111.19 134.192 112.705 133.563C112.705 133.563 112.911 133.531 113.001 133.445C113.224 133.231 112.705 132.711 112.705 132.711C105.783 128.478 90.3538 131.105 81.2848 110.611C73.931 93.9934 47.9844 125.362 47.9844 143.495C47.9844 145.345 49.8383 147.79 48.4505 149.013C33.4482 162.232 43.7996 170.72 47.0632 179.262C47.8375 181.289 46.1585 183.513 46.1585 185.706C46.1585 186.078 46.1681 186.462 46.1871 186.847L46.216 187.44L46.7162 187.111C47.7058 186.471 48.623 185.728 49.4523 184.894C48.592 186.85 48.1865 188.971 48.2658 191.102C48.345 193.232 48.907 195.318 49.9103 197.206C51.4825 200.137 53.0035 202.235 54.4311 203.442C59.0041 207.307 64.8993 209.301 70.9113 209.016C76.9233 208.731 82.5979 206.188 86.7747 201.907Z" fill="#FFF7E4"/>
<path d="M60.3623 246C60.2601 246 60.1613 245.964 60.0841 245.897C60.007 245.831 59.9566 245.74 59.9422 245.64C59.9241 245.514 58.1558 232.918 59.7439 216.178C61.2106 200.718 65.9205 178.449 80.0297 160.161C80.0635 160.117 80.1058 160.08 80.154 160.052C80.2023 160.024 80.2556 160.006 80.3109 159.999C80.3663 159.992 80.4225 159.995 80.4765 160.009C80.5305 160.023 80.5812 160.048 80.6256 160.081C80.67 160.114 80.7073 160.156 80.7354 160.204C80.7635 160.252 80.7817 160.304 80.7892 160.359C80.7966 160.414 80.7931 160.469 80.7788 160.522C80.7644 160.576 80.7396 160.626 80.7057 160.67C66.7184 178.8 62.0464 200.905 60.5901 216.256C59.0112 232.899 60.7656 245.397 60.7835 245.521C60.7921 245.581 60.7875 245.642 60.7703 245.699C60.753 245.757 60.7234 245.81 60.6835 245.856C60.6435 245.901 60.5942 245.937 60.5388 245.962C60.4834 245.987 60.4232 246 60.3623 246Z" fill="#323232"/>
<path d="M71.8765 185.957C71.7867 185.957 71.6992 185.929 71.6266 185.877C71.5539 185.825 71.4999 185.752 71.4721 185.668C71.4443 185.583 71.4443 185.492 71.472 185.408C71.4997 185.324 71.5537 185.25 71.6263 185.198C75.6466 182.51 79.9897 180.327 84.5555 178.698C91.6888 176.118 102.536 173.78 113.703 177.29C113.756 177.307 113.806 177.334 113.849 177.369C113.891 177.405 113.927 177.448 113.952 177.497C113.978 177.546 113.994 177.6 113.998 177.655C114.003 177.71 113.997 177.765 113.98 177.818C113.963 177.87 113.936 177.919 113.9 177.961C113.864 178.003 113.82 178.038 113.77 178.063C113.72 178.089 113.666 178.104 113.61 178.109C113.555 178.113 113.499 178.107 113.445 178.09C102.507 174.652 91.8565 176.951 84.8477 179.486C80.3553 181.087 76.0819 183.234 72.1259 185.877C72.0535 185.929 71.9661 185.957 71.8765 185.957Z" fill="#323232"/>
<path d="M52.428 138.116C52.4214 138.028 52.4434 137.94 52.4908 137.864C52.5381 137.789 52.6084 137.73 52.6915 137.697C52.7746 137.664 52.8663 137.657 52.9535 137.678C53.0406 137.699 53.1187 137.747 53.1766 137.815C56.1803 141.582 58.6982 145.703 60.6723 150.084C63.7907 156.925 66.9333 167.442 64.1926 178.696C64.1797 178.75 64.1561 178.8 64.1233 178.845C64.0905 178.889 64.0491 178.927 64.0015 178.956C63.9539 178.985 63.901 179.004 63.8459 179.013C63.7907 179.021 63.7344 179.019 63.6801 179.006C63.6258 178.993 63.5746 178.97 63.5294 178.938C63.4843 178.905 63.446 178.864 63.4169 178.817C63.3878 178.77 63.3683 178.718 63.3597 178.663C63.351 178.609 63.3533 178.553 63.3664 178.5C66.0507 167.477 62.9614 157.15 59.8973 150.428C57.9567 146.118 55.4809 142.063 52.5269 138.356C52.469 138.289 52.4344 138.205 52.428 138.116Z" fill="#323232"/>
<path d="M195.96 245.555H162.133L161.987 245.295C161.555 244.52 161.137 243.699 160.747 242.856C157.263 235.488 155.79 227.062 154.49 219.627L153.512 214.023C153.393 213.344 153.483 212.646 153.768 212.018C154.054 211.39 154.523 210.86 155.115 210.496C155.707 210.133 156.396 209.952 157.093 209.977C157.789 210.003 158.463 210.233 159.026 210.638C164.167 214.333 169.31 218.024 174.455 221.711C176.403 223.111 178.628 224.732 180.758 226.482C180.964 225.496 181.179 224.507 181.394 223.532C181.542 222.859 181.89 222.244 182.394 221.768C182.898 221.291 183.534 220.974 184.222 220.856C184.91 220.739 185.617 220.827 186.254 221.109C186.89 221.391 187.427 221.854 187.796 222.439L191.753 228.719C194.64 233.305 197.188 237.825 196.669 242.699C196.671 242.759 196.667 242.818 196.655 242.876C196.551 243.677 196.359 244.464 196.081 245.223L195.96 245.555Z" fill="#F0F0F0"/>
<path d="M180.2 114.208L173.671 90.3424C173.392 89.3321 172.721 88.4709 171.804 87.9446C170.888 87.4183 169.798 87.2692 168.771 87.5294C168.239 87.664 167.741 87.9041 167.307 88.235C166.873 88.5659 166.511 88.9807 166.244 89.4542C165.977 89.9276 165.811 90.4497 165.755 90.9888C165.7 91.5278 165.755 92.0724 165.92 92.5893L173.471 117.174L177.421 132.304C176.846 132.738 176.42 133.337 176.201 134.018C175.981 134.7 175.98 135.431 176.197 136.113C176.413 136.796 176.837 137.396 177.411 137.832C177.985 138.268 178.68 138.519 179.404 138.55C180.127 138.582 180.842 138.394 181.453 138.01C182.064 137.626 182.54 137.066 182.818 136.405C183.095 135.745 183.159 135.016 183.003 134.318C182.846 133.62 182.475 132.986 181.941 132.504L180.2 114.208Z" fill="#D27852"/>
<path d="M125.266 109.068L145.101 93.9905C145.94 93.3492 146.49 92.4081 146.632 91.3702C146.774 90.3323 146.497 89.2808 145.861 88.4426C145.532 88.009 145.117 87.6462 144.642 87.3761C144.166 87.1061 143.64 86.9345 143.095 86.8719C142.55 86.8093 141.998 86.857 141.472 87.012C140.946 87.1671 140.458 87.4262 140.037 87.7737L119.919 104.059L107.272 113.446C106.646 113.087 105.924 112.926 105.202 112.987C104.481 113.047 103.796 113.325 103.24 113.784C102.685 114.242 102.285 114.858 102.097 115.548C101.908 116.239 101.939 116.97 102.185 117.642C102.432 118.314 102.882 118.895 103.474 119.306C104.067 119.717 104.773 119.938 105.497 119.938C106.221 119.939 106.927 119.719 107.521 119.31C108.114 118.9 108.565 118.32 108.813 117.648L125.266 109.068Z" fill="#D27852"/>
<path d="M141.433 112.534L140.559 131.82L168.012 125.927C165.675 118.178 164.086 116.856 165.842 111.462L141.433 112.534Z" fill="#D27852"/>
<path d="M158.313 77.1763H149.166L145.237 83.8156L143.365 83.7136C142.45 83.6637 141.534 83.7987 140.673 84.1103C139.812 84.422 139.024 84.9038 138.358 85.5262C137.693 86.1487 137.162 86.8988 136.8 87.7306C136.437 88.5624 136.25 89.4585 136.25 90.3641L138.556 93.8947C138.556 93.8947 134.432 100.994 140.373 104.487C140.373 104.487 139.313 111.068 140.373 110.997C141.433 110.927 143.874 109.587 141.433 110.927C138.992 112.266 139.174 112.446 139.49 112.758L139.806 113.07L165.472 117.326C165.472 117.326 166.223 112.412 166.303 111.535C166.384 110.659 165.842 112.802 166.384 110.659C166.927 108.516 167.74 109.319 166.927 108.516C166.113 107.712 172.199 97.7565 169.698 93.8947L173.707 90.0329C173.707 86.3285 167.683 83.3256 163.933 83.3256H163.452L158.313 77.1763Z" fill="#E6E6E6"/>
<path d="M136.273 238.12H132.57L130.809 224.015L136.273 224.015L136.273 238.12Z" fill="#D27852"/>
<path d="M125.099 243.516C125.101 243.926 125.266 244.318 125.559 244.608C125.852 244.898 126.249 245.062 126.664 245.065H133.633L133.849 244.623L134.835 242.613L135.217 244.623L135.301 245.065H137.93L137.893 244.62L137.192 236.317L136.275 236.261L132.312 236.029L131.339 235.971V238.45C130.601 239.226 124.805 242.159 125.099 243.516Z" fill="#323232"/>
<path d="M191.298 228.542L188.184 230.52L178.977 219.599L183.572 216.68L191.298 228.542Z" fill="#D27852"/>
<path d="M184.855 239.051C185.08 239.395 185.434 239.636 185.84 239.724C186.245 239.811 186.669 239.737 187.019 239.517L192.88 235.793L192.82 235.306L192.548 233.089L193.97 234.575L194.283 234.902L196.494 233.497L196.219 233.143L191.081 226.535L190.28 226.978L186.82 228.9L185.97 229.371L187.328 231.456C187.132 232.503 183.864 238.067 184.855 239.051Z" fill="#323232"/>
<path d="M212.28 245.771L20.7196 246C20.5284 245.999 20.3454 245.905 20.2105 245.739C20.0757 245.573 20 245.348 20 245.114C20 244.88 20.0757 244.656 20.2105 244.49C20.3454 244.324 20.5284 244.23 20.7196 244.229L212.28 244C212.472 244.001 212.655 244.095 212.789 244.261C212.924 244.427 213 244.652 213 244.886C213 245.12 212.924 245.344 212.789 245.51C212.655 245.676 212.472 245.77 212.28 245.771Z" fill="#CACACA"/>
<path d="M167.581 123.749C167.581 123.749 150.033 132.917 140.751 126.662C140.751 126.662 138.721 136.374 137.907 137.178C137.093 137.981 135.797 138.331 136.716 139.228C137.636 140.124 138.147 141.335 136.4 142.873C134.652 144.41 132.91 143.922 134.595 145.506C136.28 147.089 129.499 185.93 129.499 185.93C129.499 185.93 130.584 222.05 129.499 223.143C128.414 224.235 128 225 128.367 225.831C129.771 227.182 129.771 226.134 129.771 227.997V229.861L130.412 231.712H139.218C139.218 231.712 141.344 229.274 139.218 227.157C139.218 227.157 139.865 224.459 140.513 222.472C140.83 221.5 141.161 222 141.161 220.485C140.077 218.342 139.556 218.75 139.545 217.341C139.534 215.931 155.536 160.75 155.536 160.75L157.474 191.292L180.786 224.741L187.647 219.658C187.647 219.658 182.652 212.712 183.82 211.757C184.988 210.802 180.377 209.604 181.831 208.527C183.285 207.45 179.784 206.364 181.104 204.937C182.423 203.509 179.286 199.91 177.468 199.91C175.651 199.91 173.1 193.91 173.1 193.91L176.908 146.517L167.581 123.749Z" fill="#323232"/>
<path d="M148.983 57.6815C148.859 57.8425 147.869 57.7558 146.679 57.5842C144.327 57.2449 144.006 57.6481 142.248 59.2281C139.7 61.5168 141.149 75.4766 139.897 78.5012L139.492 78.7956C140.294 78.6443 141.082 78.4265 141.847 78.1446C142.28 76.7976 142.713 75.4462 143.149 74.1003C143.561 75.1475 143.82 76.2473 143.918 77.3665C144.524 77.1308 145.126 76.5541 147.657 75.7808C148.931 74.9271 158.149 74.0686 159.334 73.693C162.342 63.586 157.495 59.4987 148.983 57.6815Z" fill="#323232"/>
<path d="M152.094 73.2666C156.959 73.2666 160.903 69.3713 160.903 64.5662C160.903 59.761 156.959 55.8657 152.094 55.8657C147.229 55.8657 143.285 59.761 143.285 64.5662C143.285 69.3713 147.229 73.2666 152.094 73.2666Z" fill="#D27852"/>
<path d="M157.64 56.9145C157.144 56.8421 156.666 56.6767 156.232 56.427C156.018 56.2988 155.843 56.1135 155.73 55.8923C155.617 55.671 155.569 55.4228 155.591 55.1758C155.7 54.5577 156.408 54.1885 157.042 54.2262C157.673 54.316 158.273 54.5558 158.79 54.9249C158.733 54.3274 158.475 53.7662 158.056 53.3313C157.637 52.8964 157.083 52.613 156.482 52.5267C157.316 52.4824 158.183 52.4432 158.954 52.76C159.725 53.0768 160.368 53.8613 160.229 54.6747C161.525 54.5097 162.804 55.4019 163.339 56.5798C163.874 57.7578 163.768 59.141 163.341 60.3611C163.298 60.548 163.216 60.7237 163.099 60.8763C162.982 61.029 162.833 61.155 162.663 61.2459C162.226 61.4095 161.757 61.1352 161.379 60.8649C159.404 59.4526 157.606 57.8129 156.024 55.9806" fill="#323232"/>
<path d="M161.482 73.8161C161.108 73.9898 161.303 74.6358 161.013 74.9251C160.887 75.0476 160.735 75.141 160.568 75.1984C160.524 74.6592 160.397 74.1298 160.191 73.6286C160.153 73.5376 160.091 73.4358 159.993 73.4438C159.879 73.4572 159.849 73.6045 159.846 73.7143C159.823 74.2592 159.701 74.7955 159.486 75.2975C159.483 75.3028 159.48 75.3109 159.478 75.3162C159.394 75.3135 159.307 75.3109 159.225 75.3082C158.596 75.2841 157.202 73.6876 156.893 74.2287C157.983 72.3188 159.312 69.4472 159.516 67.2641C159.586 66.807 159.552 66.3402 159.415 65.8979C159.344 65.6779 159.21 65.4827 159.03 65.3355C158.85 65.1884 158.63 65.0953 158.398 65.0675C158.284 65.0624 158.169 65.0823 158.064 65.1258C157.958 65.1694 157.863 65.2355 157.786 65.3195C157.709 65.4034 157.652 65.5031 157.618 65.6115C157.585 65.7198 157.576 65.8341 157.593 65.9462L157.435 65.9247C155.976 64.7515 157.235 62.713 155.537 61.9067C154.962 61.6335 151.442 62.5469 150.821 62.3862C150.807 61.74 150.674 61.1017 150.427 60.5031C150.389 60.412 150.327 60.3102 150.229 60.3182C150.115 60.3316 150.086 60.4789 150.083 60.5888C150.06 61.1336 149.938 61.6699 149.722 62.1719C148.862 62.0513 147.986 62.0968 147.143 62.3058C146.4 62.4987 145.695 62.8308 144.949 63.0076C144.58 63.1192 144.192 63.1554 143.809 63.1139C143.426 63.0725 143.055 62.9543 142.719 62.7665C141.773 62.1397 141.608 60.7522 142.079 59.7289C142.421 59.0723 142.883 58.4838 143.441 57.9931C143.867 57.5859 144.309 57.1948 144.751 56.8038C145.147 56.4529 145.543 56.1019 145.939 55.751C146.437 55.2877 146.968 54.8598 147.528 54.4706C148.422 53.8921 149.426 53.5 150.478 53.3185C151.531 53.137 152.61 53.1699 153.649 53.4152C154.897 53.7099 156.565 53.2947 157.707 53.8706C158.303 54.1733 159.624 55.3332 160.148 55.7457C161.487 56.7984 160.581 55.9406 162.046 56.5493C165.54 58.0006 163.995 72.6476 161.482 73.8161Z" fill="#323232"/>
<path d="M63.9444 137.32C94.1157 137.32 118.574 113.162 118.574 83.363C118.574 53.5635 94.1157 29.4062 63.9444 29.4062C33.7731 29.4062 9.31445 53.5635 9.31445 83.363C9.31445 113.162 33.7731 137.32 63.9444 137.32Z" fill="white"/>
<path d="M63.9448 137.858C33.5211 137.858 8.76953 113.412 8.76953 83.363C8.76953 53.3142 33.5211 28.8677 63.9448 28.8677C94.3685 28.8677 119.12 53.3142 119.12 83.363C119.12 113.412 94.3685 137.858 63.9448 137.858ZM63.9448 29.9449C34.1225 29.9449 9.86015 53.9082 9.86015 83.363C9.86015 112.818 34.1225 136.781 63.9448 136.781C93.7671 136.781 118.029 112.818 118.029 83.363C118.029 53.9082 93.7671 29.9449 63.9448 29.9449Z" fill="#B6974F"/>
<rect x="174.719" y="197.082" width="12.3227" height="21.7663" transform="rotate(-29.5738 174.719 197.082)" fill="white"/>
<path d="M65.7421 111.539C67.8216 110.216 69.9072 108.9 71.9867 107.577C72.928 106.98 73.8816 106.39 74.7983 105.75C76.9763 104.23 79.0188 102.501 80.8338 100.557C84.4268 96.6997 87.1584 92.1285 88.8872 87.1513C90.2961 83.0846 90.899 78.7964 90.899 74.502V66.3133C90.899 65.212 90.13 64.2522 89.0902 63.9385C88.3396 63.7108 87.5952 63.477 86.8754 63.1756C87.0723 63.2556 87.2691 63.3417 87.466 63.4217C86.1802 62.8741 84.9743 62.1728 83.8669 61.3237L84.3652 61.7113C83.2701 60.8623 82.2857 59.8841 81.4367 58.789L81.8243 59.2873C80.9753 58.1799 80.2678 56.9679 79.7202 55.682C79.8002 55.8789 79.8863 56.0758 79.9663 56.2727C79.7817 55.8297 79.6095 55.3744 79.4618 54.9191C79.1296 53.8794 78.2006 53.1104 77.087 53.1104H55.0063C53.9911 53.1104 52.9698 53.0796 51.9547 53.1104H51.9116C50.7919 53.1104 49.869 53.8794 49.5368 54.9191C49.3892 55.3806 49.223 55.8297 49.0323 56.2727C49.1123 56.0758 49.1984 55.8789 49.2784 55.682C48.7309 56.9679 48.0233 58.1737 47.1743 59.2873L47.5619 58.789C46.7129 59.8841 45.7285 60.8623 44.6334 61.7113L45.1317 61.3237C44.0243 62.1728 42.8123 62.8741 41.5326 63.4217C41.7295 63.3417 41.9264 63.2556 42.1232 63.1756C41.3973 63.477 40.659 63.7108 39.9084 63.9385C38.8687 64.2522 38.0996 65.212 38.0996 66.3133V73.733C38.0996 75.0373 38.0996 76.3416 38.1919 77.6459C38.3888 80.2976 38.8379 82.9431 39.5823 85.4963C41.0589 90.5658 43.6183 95.2354 47.0144 99.2652C49.6537 102.397 52.8345 104.932 56.2798 107.116L63.0904 111.435C63.1458 111.471 63.2073 111.508 63.2627 111.545C64.3517 112.234 66.0251 111.81 66.628 110.659C67.2679 109.441 66.9049 108.032 65.7421 107.294C64.6347 106.593 63.5272 105.891 62.426 105.19C61.0109 104.292 59.6021 103.4 58.187 102.501C57.1965 101.874 56.2306 101.203 55.2954 100.49L55.7937 100.877C53.4682 99.0745 51.3764 96.9827 49.5737 94.6571L49.9613 95.1555C48.1279 92.7745 46.6021 90.1659 45.4271 87.3974C45.507 87.5942 45.5932 87.7911 45.6731 87.988C44.4734 85.1394 43.6552 82.1494 43.243 79.0855C43.2737 79.3009 43.3045 79.5224 43.3291 79.7377C43.0646 77.7443 43.0215 75.751 43.0215 73.7515V66.3379C42.4186 67.1315 41.8156 67.919 41.2127 68.7127C43.3353 68.0728 45.3901 67.2238 47.1928 65.9257C49.3276 64.3876 51.1487 62.4927 52.5022 60.2286C53.2467 58.9858 53.8435 57.6323 54.2864 56.2542C53.4928 56.8571 52.7053 57.4601 51.9116 58.063H73.9924C75.0075 58.063 76.0288 58.0876 77.0439 58.063H77.087C76.2934 57.4601 75.5059 56.8571 74.7122 56.2542C76.2564 61.0715 79.7633 65.2612 84.3652 67.4269C85.4727 67.9498 86.6108 68.3559 87.7859 68.7127C87.183 67.919 86.5801 67.1315 85.9771 66.3379V75.0619C85.9771 76.6246 85.8726 78.1873 85.6695 79.7377C85.7003 79.5224 85.7311 79.3009 85.7557 79.0855C85.3373 82.1433 84.519 85.1394 83.3255 87.988C83.4055 87.7911 83.4916 87.5942 83.5716 87.3974C82.3965 90.1659 80.8707 92.7745 79.0373 95.1555L79.4249 94.6571C77.6223 96.9827 75.5305 99.0745 73.2049 100.877L73.7032 100.49C72.3251 101.554 70.8608 102.471 69.3966 103.406C67.7724 104.439 66.1481 105.467 64.5239 106.5C64.1056 106.765 63.6811 107.036 63.2627 107.3C62.7274 107.639 62.3029 108.149 62.1307 108.771C61.9707 109.361 62.0445 110.143 62.3768 110.666C63.0781 111.748 64.5793 112.277 65.7421 111.539Z" fill="#B6974F"/>
<path d="M51.9617 82.3709L58.2802 88.6894L59.1784 89.5876C60.1197 90.5289 61.7193 90.5289 62.6606 89.5876L67.5395 84.7088L75.2606 76.9876L77.0387 75.2096C77.9492 74.299 78.0169 72.6256 77.0387 71.7273C76.0543 70.8229 74.5285 70.7553 73.5564 71.7273L68.6776 76.6062L60.9564 84.3273L59.1784 86.1054H62.6606L56.3422 79.7869L55.4439 78.8887C54.5334 77.9781 52.86 77.9104 51.9617 78.8887C51.0573 79.873 50.9896 81.3927 51.9617 82.3709Z" fill="#B6974E"/>
<rect x="37.9746" y="52.6577" width="54.7105" height="11.6053" fill="white"/>
<rect x="37.5742" y="64.9585" width="30.0737" height="4.97368" rx="2.48684" transform="rotate(-22.4233 37.5742 64.9585)" fill="#B6974F"/>
<rect width="30.6462" height="4.97368" rx="2.48684" transform="matrix(-0.924391 -0.381446 -0.381446 0.924391 91.6191 64.9209)" fill="#B6974F"/>
<path d="M139.611 217.546C139.629 216.557 140.444 215.769 141.433 215.787L143.146 215.817L142.865 231.969L139.361 231.907L139.611 217.546Z" fill="white"/>
<rect x="122.998" y="217" width="6.69922" height="12" fill="white"/>
</g>
<defs>
<clipPath id="clip0_295_678">
<rect width="209" height="246" fill="white"/>
</clipPath>
</defs>
</svg>
