<svg width="12" height="12" viewBox="0 0 12 12" fill="none" xmlns="http://www.w3.org/2000/svg">
<path d="M4.96418 10.4137C4.96418 10.6332 5.05137 10.8437 5.20656 10.9989C5.36175 11.1541 5.57223 11.2412 5.7917 11.2412C6.01117 11.2412 6.22165 11.1541 6.37684 10.9989C6.53203 10.8437 6.61921 10.6332 6.61921 10.4137V6.82778H10.2051C10.4246 6.82778 10.6351 6.7406 10.7902 6.58541C10.9454 6.43021 11.0326 6.21973 11.0326 6.00026C11.0326 5.78079 10.9454 5.5703 10.7902 5.41511C10.6351 5.25992 10.4246 5.17273 10.2051 5.17273H6.61921V1.5868C6.61921 1.36733 6.53203 1.15684 6.37684 1.00165C6.22165 0.846463 6.01117 0.759277 5.7917 0.759277C5.57223 0.759277 5.36175 0.846463 5.20656 1.00165C5.05137 1.15684 4.96418 1.36733 4.96418 1.5868V5.17273H1.37829C1.15882 5.17273 0.948343 5.25992 0.793154 5.41511C0.637965 5.5703 0.550781 5.78079 0.550781 6.00026C0.550781 6.21973 0.637965 6.43021 0.793154 6.58541C0.948343 6.7406 1.15882 6.82778 1.37829 6.82778H4.96418V10.4137Z" fill="#B6974E"/>
</svg>
