<svg xmlns="http://www.w3.org/2000/svg" xmlns:xlink="http://www.w3.org/1999/xlink" viewBox="0,0,256,256" width="20" height="20"><g fill="#e50f0f" fill-rule="nonzero" stroke="none" stroke-width="1" stroke-linecap="butt" stroke-linejoin="miter" stroke-miterlimit="10" stroke-dasharray="" stroke-dashoffset="0" font-family="none" font-weight="none" font-size="none" text-anchor="none" style="mix-blend-mode: normal"><g transform="scale(4,4)"><path d="M30,2c-1,0 -1.89844,0.5 -2.5,1.30078l-3,4.69922h-11.5c-1.69922,0 -3,1.30078 -3,3v6c0,1.69922 1.30078,3 3,3h0.09766l3.5,33.5c0.30078,2.60156 2.40234,4.5 5,4.5h24.80469c2.59766,0 4.69922,-1.89844 5,-4.5l3.5,-33.5h0.09766c1.69922,0 3,-1.30078 3,-3v-6c0,-1.69922 -1.30078,-3 -3,-3h-11.5l-3.09766,-4.69922c-0.5,-0.80078 -1.5,-1.30078 -2.5,-1.30078zM30.09766,4h7.90234c0.30078,0 0.60156,0.19922 0.80078,0.39844l2.29688,3.60156h-14.19531l2.29688,-3.60156c0.19922,-0.19922 0.5,-0.39844 0.89844,-0.39844zM13,10h42c0.60156,0 1,0.39844 1,1v6c0,0.60156 -0.39844,1 -1,1h-42c-0.60156,0 -1,-0.39844 -1,-1v-6c0,-0.60156 0.39844,-1 1,-1zM16,12c-0.60156,0 -1,0.39844 -1,1v2c0,0.60156 0.39844,1 1,1c0.60156,0 1,-0.39844 1,-1v-2c0,-0.60156 -0.39844,-1 -1,-1zM21,12c-0.60156,0 -1,0.39844 -1,1v2c0,0.60156 0.39844,1 1,1c0.60156,0 1,-0.39844 1,-1v-2c0,-0.60156 -0.39844,-1 -1,-1zM26,12c-0.60156,0 -1,0.39844 -1,1v2c0,0.60156 0.39844,1 1,1c0.60156,0 1,-0.39844 1,-1v-2c0,-0.60156 -0.39844,-1 -1,-1zM31,12c-0.60156,0 -1,0.39844 -1,1v2c0,0.60156 0.39844,1 1,1c0.60156,0 1,-0.39844 1,-1v-2c0,-0.60156 -0.39844,-1 -1,-1zM37,12c-0.60156,0 -1,0.39844 -1,1v2c0,0.60156 0.39844,1 1,1c0.60156,0 1,-0.39844 1,-1v-2c0,-0.60156 -0.39844,-1 -1,-1zM42,12c-0.60156,0 -1,0.39844 -1,1v2c0,0.60156 0.39844,1 1,1c0.60156,0 1,-0.39844 1,-1v-2c0,-0.60156 -0.39844,-1 -1,-1zM47,12c-0.60156,0 -1,0.39844 -1,1v2c0,0.60156 0.39844,1 1,1c0.60156,0 1,-0.39844 1,-1v-2c0,-0.60156 -0.39844,-1 -1,-1zM52,12c-0.60156,0 -1,0.39844 -1,1v2c0,0.60156 0.39844,1 1,1c0.60156,0 1,-0.39844 1,-1v-2c0,-0.60156 -0.39844,-1 -1,-1zM15.09766,20h37.80469l-3.5,33.30078c-0.20312,1.5 -1.40234,2.69922 -3,2.69922h-24.80469c-1.5,0 -2.79687,-1.19922 -3,-2.69922zM34,25c-0.60156,0 -1,0.39844 -1,1v20c0,0.60156 0.39844,1 1,1c0.60156,0 1,-0.39844 1,-1v-20c0,-0.60156 -0.39844,-1 -1,-1zM25,25.09766c-0.60156,0 -1,0.5 -0.90234,1l1,20c-0.09766,0.5 0.40234,0.90234 0.90234,0.90234c0.60156,0 1,-0.5 1,-1l-1,-20c0,-0.60156 -0.5,-1 -1,-0.90234zM43.09766,25.09766c-0.59766,0 -1,0.40234 -1,0.90234l-1,20c-0.09766,0.5 0.30078,1 0.90234,1c0.60156,0 1,-0.40234 1,-0.90234l1,-20c0,-0.59766 -0.40234,-1 -0.90234,-1zM23,52c-0.60156,0 -1,0.39844 -1,1c0,0.60156 0.39844,1 1,1h14c0.60156,0 1,-0.39844 1,-1c0,-0.60156 -0.39844,-1 -1,-1zM41,52c-0.60156,0 -1,0.39844 -1,1c0,0.60156 0.39844,1 1,1h4c0.60156,0 1,-0.39844 1,-1c0,-0.60156 -0.39844,-1 -1,-1z"/></g></g></svg>