<svg width="18" height="17" viewBox="0 0 18 17" fill="none" xmlns="http://www.w3.org/2000/svg">
<path d="M8.08436 0.903253C8.38546 -0.0174841 9.68887 -0.0149944 9.98646 0.906886L11.2729 4.89213C11.406 5.30441 11.7895 5.5841 12.2227 5.58492L16.4104 5.59292C17.3791 5.59477 17.7795 6.83515 16.9947 7.40305L13.6021 9.85808C13.2511 10.1121 13.1036 10.5631 13.2367 10.9754L14.5232 14.9607C14.8208 15.8825 13.7648 16.6466 12.9822 16.0757L9.59895 13.6078C9.24895 13.3525 8.77436 13.3516 8.42338 13.6056L5.03074 16.0606C4.24594 16.6285 3.19292 15.8603 3.49403 14.9396L4.79571 10.9593C4.93037 10.5475 4.78458 10.0959 4.43458 9.84058L1.05133 7.37262C0.2687 6.80173 0.673843 5.56288 1.64256 5.56473L5.8303 5.57272C6.26352 5.57355 6.64801 5.29532 6.78267 4.88356L8.08436 0.903253Z" fill="#FDB600"/>
</svg>
