<svg width="26" height="26" viewBox="0 0 26 26" fill="none" xmlns="http://www.w3.org/2000/svg">
<path d="M25.1452 11.2319L23.0514 7.75548L13.0002 11.1107L2.93233 7.75652L0.859441 11.1974C0.430243 11.9127 0.350878 12.7711 0.640143 13.5533C0.928363 14.3355 1.54866 14.9349 2.34023 15.1991L2.55326 15.2701L2.54595 22.0078L12.9845 25.4873L23.4221 22.0078L23.4305 15.2711L23.6842 15.1866C24.4653 14.9265 25.0773 14.3344 25.3624 13.5606C25.6485 12.7889 25.5691 11.9399 25.1452 11.2329V11.2319ZM1.61967 13.1899C1.4411 12.7064 1.49018 12.1759 1.75543 11.7342L3.39599 9.0107L12.2045 11.9462L10.1702 15.3369C9.76608 16.0105 8.96303 16.3091 8.22055 16.0575L2.67231 14.2081C2.18254 14.0452 1.79929 13.6744 1.62072 13.1899H1.61967ZM12.4624 24.2112L3.59023 21.2538L3.59754 15.6168L7.88952 17.0475C8.17565 17.1425 8.46805 17.1884 8.75522 17.1884C9.68358 17.1884 10.5629 16.7091 11.0652 15.8716L12.4697 13.5324L12.4635 24.2102L12.4624 24.2112ZM22.3778 21.2538L13.5067 24.2102L13.5129 13.5293L14.9185 15.8726C15.5775 16.9681 16.8839 17.4485 18.0952 17.0475L22.3851 15.6168L22.3768 21.2528L22.3778 21.2538ZM24.3839 13.1972C24.2084 13.6713 23.8335 14.0347 23.3542 14.1934L17.7652 16.0564C17.0228 16.3081 16.2197 16.0074 15.8145 15.3359L13.7834 11.9503L22.5898 9.01174L24.2513 11.7697C24.5113 12.2041 24.5604 12.7241 24.3849 13.1982L24.3839 13.1972ZM6.63534 6.78847L5.52736 6.41984L11.4599 0.487305L14.4256 3.45305L15.6109 2.2678L19.9363 6.59319L18.8294 6.96287L15.6109 3.74441L11.084 8.27135L9.97598 7.90272L13.6863 4.1924L11.4589 1.96496L6.63534 6.78847Z" fill="#ffffff"/>
</svg>
