<svg width="24" height="24" viewBox="0 0 29 28" fill="none" xmlns="http://www.w3.org/2000/svg">
<path d="M7.49935 7C7.49935 3.1395 10.6388 0 14.4993 0C18.3598 0 21.4993 3.1395 21.4993 7C21.4993 10.8605 18.3598 14 14.4993 14C10.6388 14 7.49935 10.8605 7.49935 7ZM9.83268 7C9.83268 9.57367 11.9257 11.6667 14.4993 11.6667C17.073 11.6667 19.166 9.57367 19.166 7C19.166 4.42633 17.073 2.33333 14.4993 2.33333C11.9257 2.33333 9.83268 4.42633 9.83268 7ZM14.4993 16.3333C9.35318 16.3333 5.16602 20.5205 5.16602 25.6667V26.8333C5.16602 27.4785 5.68868 28 6.33268 28C6.97668 28 7.49935 27.4785 7.49935 26.8333V25.6667C7.49935 21.8062 10.6388 18.6667 14.4993 18.6667C18.3598 18.6667 21.4993 21.8062 21.4993 25.6667V26.8333C21.4993 27.4785 22.022 28 22.666 28C23.31 28 23.8327 27.4785 23.8327 26.8333V25.6667C23.8327 20.5205 19.6455 16.3333 14.4993 16.3333Z" fill="#D2D2D2"/>
</svg>
