<svg width="18" height="19" viewBox="0 0 18 19" fill="darkgrey" xmlns="http://www.w3.org/2000/svg">
<g clip-path="url(#clip0_5_24)">
<path d="M17.445 12.9451L15.495 5.9168C15.0786 4.41336 14.1713 3.09241 12.9175 2.16417C11.6637 1.23593 10.1354 0.753744 8.57589 0.794364C7.01639 0.834983 5.51528 1.39607 4.31148 2.38832C3.10768 3.38058 2.27036 4.74698 1.93279 6.27005L0.424541 13.0576C0.351561 13.3864 0.353341 13.7274 0.42975 14.0555C0.506159 14.3835 0.655248 14.6902 0.866017 14.953C1.07679 15.2157 1.34386 15.4278 1.64752 15.5735C1.95119 15.7193 2.28371 15.795 2.62054 15.7951H5.32579C5.49793 16.6428 5.95784 17.4049 6.6276 17.9523C7.29736 18.4998 8.13577 18.7988 9.00079 18.7988C9.86581 18.7988 10.7042 18.4998 11.374 17.9523C12.0437 17.4049 12.5037 16.6428 12.6758 15.7951H15.2783C15.6249 15.7949 15.9667 15.7147 16.2772 15.5606C16.5877 15.4066 16.8584 15.183 17.0682 14.9071C17.278 14.6312 17.4212 14.3106 17.4867 13.9703C17.5522 13.6299 17.5375 13.2791 17.445 12.9451ZM9.00079 17.2951C8.5371 17.2931 8.08532 17.148 7.70727 16.8795C7.32922 16.611 7.04335 16.2322 6.88879 15.7951H11.1128C10.9582 16.2322 10.6724 16.611 10.2943 16.8795C9.91626 17.148 9.46449 17.2931 9.00079 17.2951ZM15.8745 13.9988C15.8046 14.0916 15.7139 14.1667 15.6097 14.2181C15.5055 14.2695 15.3907 14.2959 15.2745 14.2951H2.62054C2.50824 14.295 2.39737 14.2698 2.29613 14.2212C2.19488 14.1726 2.10584 14.1019 2.03558 14.0143C1.96532 13.9267 1.91563 13.8244 1.89018 13.715C1.86473 13.6056 1.86417 13.4919 1.88854 13.3823L3.39679 6.5948C3.66256 5.39946 4.32027 4.32725 5.26538 3.54864C6.2105 2.77002 7.38876 2.32968 8.61287 2.29761C9.83698 2.26554 11.0367 2.64359 12.0213 3.37165C13.0059 4.09972 13.7188 5.13601 14.0468 6.3158L15.9968 13.3441C16.0286 13.4552 16.0342 13.5722 16.0129 13.6859C15.9917 13.7995 15.9443 13.9066 15.8745 13.9988Z" fill="darkgrey"/>
</g>
<defs>
<clipPath id="clip0_5_24">
<rect width="18" height="18" fill="white" transform="translate(0 0.794922)"/>
</clipPath>
</defs>
</svg>
