<svg width="19" height="19" viewBox="0 0 19 19" fill="none" xmlns="http://www.w3.org/2000/svg">
<path d="M12.6667 7.10268C12.6667 7.25102 12.6227 7.39602 12.5403 7.51936C12.4579 7.6427 12.3408 7.73883 12.2037 7.79559C12.0667 7.85236 11.9159 7.86721 11.7704 7.83827C11.6249 7.80933 11.4913 7.7379 11.3864 7.63301C11.2815 7.52812 11.21 7.39448 11.1811 7.249C11.1522 7.10351 11.167 6.95271 11.2238 6.81567C11.2806 6.67862 11.3767 6.56149 11.5 6.47908C11.6234 6.39667 11.7684 6.35268 11.9167 6.35268C12.1156 6.35268 12.3064 6.4317 12.447 6.57235C12.5877 6.713 12.6667 6.90377 12.6667 7.10268ZM11.4592 4.86693C10.8597 4.26026 10.1087 3.82519 9.2842 3.60693C9.09175 3.55641 8.88711 3.5844 8.71531 3.68476C8.5435 3.78511 8.4186 3.94961 8.36807 4.14206C8.31755 4.3345 8.34554 4.53914 8.4459 4.71095C8.54625 4.88275 8.71075 5.00766 8.9032 5.05818C9.46886 5.20736 9.98406 5.50576 10.3949 5.92218C10.5349 6.06361 10.7253 6.14365 10.9242 6.14471C11.1232 6.14576 11.3144 6.06774 11.4558 5.92781C11.5972 5.78787 11.6773 5.59749 11.6783 5.39853C11.6794 5.19958 11.6014 5.00836 11.4614 4.86693H11.4592ZM18.0854 18.2319C17.9448 18.3725 17.7541 18.4515 17.5552 18.4515C17.3563 18.4515 17.1656 18.3725 17.0249 18.2319L13.0057 14.2127C11.4637 15.4822 9.49241 16.1098 7.50031 15.9652C5.50822 15.8206 3.64813 14.9151 2.30563 13.4362C0.963121 11.9574 0.241155 10.0186 0.289379 8.02185C0.337603 6.0251 1.15232 4.12346 2.56465 2.71113C3.97698 1.2988 5.87861 0.484087 7.87537 0.435863C9.87212 0.387639 11.8109 1.10961 13.2897 2.45211C14.7686 3.79461 15.6742 5.6547 15.8187 7.6468C15.9633 9.6389 15.3357 11.6102 14.0662 13.1522L18.0854 17.1714C18.2261 17.3121 18.305 17.5028 18.305 17.7017C18.305 17.9006 18.2261 18.0913 18.0854 18.2319ZM8.0722 14.4819C9.31185 14.4819 10.5237 14.1143 11.5543 13.4255C12.585 12.7367 13.3883 11.7577 13.8625 10.6123C14.3367 9.46698 14.4606 8.2067 14.2185 6.99092C13.9764 5.77514 13.3791 4.65847 12.5023 3.78217C11.6255 2.90586 10.5085 2.30928 9.29253 2.06789C8.0766 1.8265 6.8164 1.95115 5.67132 2.42606C4.52624 2.90096 3.54773 3.70481 2.85955 4.7359C2.17138 5.767 1.80446 6.97903 1.8052 8.21868C1.80698 9.88024 2.46783 11.4732 3.64273 12.6481C4.81764 13.823 6.41063 14.4839 8.0722 14.4857V14.4819Z" fill="#B6974F"/>
</svg>
